<?xml version="1.0" standalone="no"?>
<!DOCTYPE svg PUBLIC "-//W3C//DTD SVG 20010904//EN"
 "http://www.w3.org/TR/2001/REC-SVG-20010904/DTD/svg10.dtd">
<svg version="1.0" xmlns="http://www.w3.org/2000/svg"
 width="726.000000pt" height="483.000000pt" viewBox="0 0 726.000000 483.000000"
 preserveAspectRatio="xMidYMid meet">

<g transform="translate(0.000000,483.000000) scale(0.100000,-0.100000)"
fill="#000000" stroke="none">
<path d="M3246 4781 c-44 -45 -51 -49 -99 -50 -63 -1 -210 -22 -203 -28 2 -3
44 0 93 6 93 11 143 12 143 3 0 -5 -61 -62 -67 -62 -2 0 5 12 14 27 l18 27
-32 -23 c-18 -13 -38 -21 -47 -18 -9 4 -28 2 -43 -4 -21 -8 -24 -7 -15 4 10
11 3 14 -36 14 -55 0 -112 -32 -207 -118 -58 -52 -59 -52 -30 -14 l29 40 -39
-33 c-60 -50 -95 -84 -95 -93 0 -8 -9 -10 -154 -30 -169 -22 -195 -34 -233
-104 -16 -30 -16 -30 4 -12 20 17 21 17 27 -14 8 -40 1 -49 -34 -49 -20 0 -37
-10 -56 -32 -17 -21 -25 -25 -20 -13 4 11 11 27 14 35 22 56 -116 -127 -188
-249 -36 -62 -104 -221 -97 -228 3 -2 23 7 44 20 40 25 117 52 108 38 -2 -5
-39 -25 -80 -46 -47 -23 -79 -46 -84 -59 -12 -31 -22 -136 -14 -136 4 0 17 12
28 26 l21 26 -3 -58 c-1 -33 -7 -81 -13 -108 -12 -55 -26 -234 -17 -226 2 3
21 68 42 145 20 77 43 150 51 162 8 12 15 35 15 50 2 27 2 27 7 3 4 -23 5 -24
13 -5 6 15 8 9 9 -25 2 -38 3 -41 10 -20 12 38 12 2 -1 -105 -6 -49 -10 -127
-10 -172 1 -45 -3 -85 -9 -88 -21 -13 -7 -207 14 -199 12 5 41 -94 52 -178 4
-27 10 -48 14 -48 4 0 12 -12 18 -26 7 -14 16 -22 22 -19 5 3 14 -3 19 -14 6
-10 25 -28 43 -40 18 -11 44 -28 58 -38 16 -12 10 0 -19 34 -23 28 -41 55 -38
60 3 5 -12 35 -33 67 l-39 59 -4 -39 c-3 -34 -4 -32 -5 13 l-2 53 63 -73 c58
-66 131 -126 160 -131 7 -1 29 -8 50 -15 21 -7 41 -10 44 -7 4 3 1 6 -5 6 -37
0 -237 182 -269 246 -11 21 -17 114 -7 114 3 0 22 -12 42 -27 l37 -28 -39 44
c-21 24 -47 63 -58 87 -19 44 -19 44 4 125 12 45 32 95 45 110 13 15 23 31 23
35 0 5 -7 0 -15 -10 -13 -17 -15 -17 -15 -4 0 9 5 20 10 23 6 4 7 11 4 17 -4
6 1 6 14 -1 11 -6 27 -11 34 -11 7 1 1 8 -14 16 -38 20 -36 29 1 9 28 -14 29
-16 16 -42 -17 -33 -10 -75 23 -133 15 -25 25 -48 24 -52 -1 -4 9 -15 22 -23
12 -8 56 -57 96 -108 82 -102 108 -132 95 -107 -4 8 -15 24 -23 35 -8 11 8 -3
36 -32 29 -28 52 -49 52 -46 0 8 -38 59 -91 120 -27 32 -49 61 -49 66 0 4 14
1 30 -8 17 -9 30 -13 30 -11 0 9 -60 37 -60 29 0 -5 -11 9 -24 29 -12 21 -26
35 -31 30 -4 -4 -5 -2 -1 5 4 7 0 25 -7 40 -25 49 -30 73 -14 73 7 0 49 -25
93 -56 43 -30 89 -59 101 -64 16 -7 28 -30 48 -92 44 -138 55 -211 55 -356 0
-98 5 -150 16 -182 15 -44 15 -45 -7 -60 -100 -65 -124 -114 -122 -240 1 -52
-3 -116 -9 -142 -10 -39 -9 -50 5 -72 14 -21 23 -24 46 -20 23 5 36 -1 67 -29
61 -54 157 -112 218 -131 79 -25 132 -16 196 35 55 44 51 43 102 28 39 -10 68
-48 68 -88 0 -66 24 -126 70 -175 26 -28 52 -67 59 -87 13 -41 52 -80 173
-173 79 -61 92 -75 125 -144 42 -85 94 -134 164 -152 59 -16 127 8 229 80 139
97 228 151 291 177 63 25 218 68 224 61 8 -8 -145 -413 -173 -457 -16 -27 -71
-81 -132 -131 -58 -47 -202 -180 -321 -296 -191 -187 -224 -215 -287 -244 -55
-26 -78 -44 -104 -79 -17 -25 -59 -74 -92 -108 l-59 -63 1224 0 c1101 0 1221
2 1202 15 -35 24 -142 62 -226 79 -97 20 -166 47 -244 97 -58 36 -101 48 -116
32 -4 -3 -18 -7 -31 -9 -26 -3 -43 25 -82 140 -30 87 -31 122 -4 131 35 11 57
-4 126 -86 46 -54 75 -79 91 -81 12 0 28 -1 34 -2 6 -1 45 51 87 114 43 63 82
115 87 115 6 0 26 10 45 21 43 26 108 47 219 70 55 12 94 26 115 43 17 13 25
18 19 11 -19 -21 -16 -29 9 -22 16 4 19 2 13 -8 -6 -10 -4 -12 9 -7 10 4 15 3
11 -3 -3 -5 4 -14 15 -20 11 -6 20 -8 20 -4 0 3 -15 47 -34 98 -19 50 -37 102
-41 116 -7 24 -7 24 9 5 19 -25 -11 67 -79 240 -27 66 -51 134 -55 150 -24 95
-91 296 -111 330 -28 48 -64 96 -57 75 4 -11 -1 -16 -14 -17 -17 -2 -18 0 -6
14 12 15 11 15 -9 5 -28 -15 -36 -15 -27 1 16 25 -31 -20 -68 -66 -43 -55 -52
-83 -12 -40 l26 28 -19 -35 c-35 -63 -48 -80 -60 -80 -7 0 -13 -4 -13 -9 0 -6
-14 -30 -31 -55 l-30 -46 -32 16 c-18 9 -51 28 -74 41 l-43 25 44 61 c49 71
59 87 53 87 -3 0 -29 -32 -58 -71 -29 -40 -55 -67 -57 -60 -2 6 -8 9 -13 6 -5
-4 -6 1 -3 9 3 9 1 16 -4 16 -11 0 -9 31 4 53 4 6 -6 1 -21 -13 l-29 -25 22
32 c28 40 28 56 1 23 -12 -14 -26 -25 -32 -25 -6 0 -24 -22 -40 -49 -16 -28
-21 -44 -13 -37 14 12 16 11 10 -3 -8 -22 -35 -20 -89 6 -33 16 -44 26 -39 38
34 77 38 97 23 113 -13 14 -16 13 -35 -4 l-21 -20 5 27 c4 22 2 26 -12 21 -10
-4 -16 -1 -16 9 0 11 -6 13 -20 9 -11 -3 -20 -3 -20 0 0 4 23 55 50 115 38 81
54 130 64 197 8 48 26 124 40 168 l26 80 -23 19 c-19 16 -33 18 -112 13 -103
-7 -128 -11 -193 -34 -93 -32 -133 -42 -127 -33 4 6 2 10 -3 10 -6 0 -13 -12
-17 -27 -3 -14 -26 -58 -49 -97 -59 -97 -116 -204 -116 -217 0 -6 -9 -24 -21
-40 -11 -16 -17 -34 -14 -39 4 -6 2 -9 -4 -8 -18 5 -54 -59 -40 -68 7 -4 9 -3
6 3 -3 5 0 10 8 10 17 0 14 -6 -48 -85 -32 -40 -55 -61 -64 -58 -9 4 -11 1 -7
-5 4 -7 1 -10 -7 -7 -8 3 -26 -4 -41 -14 -29 -20 -74 -17 -61 5 11 18 -50 -24
-97 -65 -23 -21 -39 -42 -36 -47 8 -13 -14 -18 -102 -26 -40 -4 -72 -3 -71 1
4 22 -2 34 -16 34 -20 0 -20 0 15 71 39 82 43 85 126 125 71 34 119 77 149
134 10 18 11 31 5 35 -6 4 -8 10 -5 15 6 10 0 12 -100 31 -70 13 -83 19 -151
71 -61 46 -170 92 -193 82 -9 -4 -20 -6 -24 -5 -4 1 -22 -10 -40 -23 -18 -13
-39 -26 -47 -28 -8 -2 -21 -11 -30 -21 -8 -10 -42 -26 -75 -37 l-60 -19 100 5
c89 5 98 4 82 -9 -10 -8 -51 -18 -92 -22 -41 -3 -90 -15 -109 -25 -20 -10 -36
-16 -36 -13 0 3 14 24 31 48 l32 44 -15 60 -15 59 38 37 c52 49 52 75 0 75
-36 0 -40 3 -51 36 -7 20 -32 61 -57 91 l-45 55 29 -5 c15 -3 49 -8 74 -12 26
-3 53 -14 60 -23 46 -56 60 -121 40 -175 -10 -25 -10 -25 21 -9 24 12 54 14
142 9 82 -4 105 -2 89 6 -26 12 -31 45 -7 54 17 6 57 90 80 169 8 28 23 61 33
73 l18 21 31 -29 c18 -15 29 -32 24 -37 -4 -4 1 -3 10 4 14 12 16 10 11 -8
-13 -48 34 -12 109 85 75 98 95 131 61 104 -15 -12 -16 -12 -10 4 7 20 -3 23
-21 5 -9 -9 -12 -8 -12 8 0 16 -2 17 -10 4 -5 -8 -10 -10 -10 -4 0 6 21 40 48
75 126 169 117 175 -14 9 -98 -126 -121 -146 -61 -55 16 24 17 27 3 14 -17
-16 -24 -13 -115 42 -160 96 -162 102 -105 214 85 166 243 341 395 439 24 15
28 15 42 1 14 -14 21 -11 67 30 l52 46 46 -43 c49 -45 102 -105 69 -79 -9 7
-17 10 -17 5 1 -15 39 -56 54 -58 8 -1 21 -8 30 -15 23 -19 21 -4 -14 96 -35
100 -37 111 -10 63 31 -56 23 -25 -11 41 -24 48 -28 64 -18 75 6 7 8 21 5 30
-5 12 4 9 28 -10 l35 -26 -24 58 -23 57 43 43 c44 43 69 54 58 26 -3 -9 -2
-19 3 -23 5 -3 18 -28 29 -55 25 -61 44 -75 85 -59 25 9 40 8 75 -4 46 -15 67
-34 47 -41 -7 -2 -12 -9 -12 -16 0 -22 39 -64 57 -62 15 2 40 -14 80 -53 12
-11 21 -6 61 30 26 24 58 51 71 59 17 12 26 30 32 70 11 66 5 95 -26 136 -29
38 -115 88 -168 98 -43 8 -55 27 -37 61 26 49 114 61 171 22 19 -12 56 -51 84
-85 27 -35 51 -58 53 -52 6 18 -54 130 -103 192 -105 134 -275 123 -340 -22
-16 -35 -17 -47 -6 -93 22 -101 58 -120 136 -72 22 14 49 25 60 25 18 -1 17
-3 -8 -21 -15 -11 -25 -24 -22 -29 7 -12 -62 -33 -90 -28 -21 5 -23 3 -14 -21
18 -48 78 -99 130 -111 54 -13 58 -19 29 -45 -17 -15 -20 -16 -20 -3 0 9 -7
19 -16 22 -23 9 -36 7 -29 -4 3 -5 0 -10 -8 -10 -39 0 -162 181 -177 260 -10
54 -24 74 -47 65 -18 -6 -16 13 6 60 50 107 138 175 228 175 167 0 330 -187
363 -417 6 -44 18 -76 41 -110 18 -26 26 -42 17 -35 -15 12 -16 9 -14 -20 4
-47 52 -136 93 -172 20 -18 52 -68 78 -121 24 -49 67 -123 95 -162 43 -61 56
-73 79 -73 22 0 37 -12 75 -60 33 -43 73 -78 134 -117 48 -31 92 -61 97 -66
12 -12 -56 27 -99 57 -16 11 -27 15 -23 9 13 -20 369 -265 408 -281 33 -13 42
-23 59 -68 52 -140 61 -200 71 -457 5 -137 13 -256 18 -264 6 -12 16 4 39 63
16 43 33 90 37 103 l8 25 13 -27 c36 -68 104 -408 104 -521 l0 -38 -56 51
c-117 107 -188 120 -232 42 -29 -51 -29 -139 0 -246 12 -44 21 -100 20 -123
-2 -45 -56 -200 -98 -284 -29 -57 -99 -250 -119 -328 -8 -31 -15 -109 -16
-177 -1 -135 -4 -139 -64 -111 -33 15 -43 4 -20 -22 18 -20 30 -20 652 -20
l633 0 0 1231 0 1231 -22 -6 c-46 -14 -185 -19 -192 -7 -4 6 -1 11 6 11 13 0
145 51 186 72 16 8 22 20 22 45 0 18 -3 33 -6 33 -3 0 -24 -11 -47 -24 -82
-46 -216 -76 -245 -53 -15 12 8 -45 48 -117 31 -56 55 -124 47 -133 -3 -3 -22
26 -41 63 -38 75 -48 74 -16 -1 11 -26 17 -52 13 -58 -3 -7 -2 -9 2 -4 5 4 14
-5 20 -20 11 -25 8 -33 -18 -73 -16 -25 -24 -40 -17 -33 9 9 19 3 43 -24 l31
-35 -29 -54 c-16 -29 -26 -56 -23 -59 8 -9 58 47 58 64 0 8 3 11 7 8 4 -4 -4
-25 -16 -47 -12 -22 -19 -45 -15 -52 4 -6 3 -8 -3 -5 -6 4 -16 0 -23 -8 -7 -9
-21 -13 -31 -10 -11 4 -31 9 -46 11 -24 4 -26 3 -13 -8 9 -7 24 -23 34 -36
l19 -22 -29 10 c-39 14 -90 58 -86 75 3 16 -34 39 -42 26 -8 -13 4 -20 22 -14
11 5 14 2 9 -11 -5 -12 4 -26 28 -48 40 -35 40 -48 1 -23 -14 10 -26 15 -26
11 0 -3 18 -17 40 -31 43 -27 45 -31 30 -55 -7 -12 -12 -12 -22 -2 -19 19 -25
14 -23 -18 1 -22 -1 -28 -9 -20 -17 17 -36 12 -29 -8 7 -18 4 -16 -72 51 -16
15 -34 27 -40 27 -5 0 -2 -5 8 -11 9 -5 17 -14 17 -18 0 -17 -35 -6 -43 13 -6
15 -10 16 -22 6 -12 -10 -15 -10 -15 0 0 8 -4 9 -12 3 -7 -5 -23 -8 -35 -7
-13 0 -23 -3 -23 -8 0 -17 -20 3 -33 35 -40 91 -39 85 -12 145 l25 55 30 -46
c16 -26 32 -47 34 -47 7 0 -16 51 -37 82 -24 34 -12 58 12 26 10 -13 34 -51
55 -85 20 -35 42 -66 49 -70 6 -3 2 7 -10 23 -25 36 -93 158 -93 167 0 21 23
-3 84 -83 37 -49 70 -90 72 -90 9 0 -15 37 -75 118 -33 45 -56 84 -52 87 5 2
18 23 30 45 15 29 17 40 8 40 -8 0 -20 12 -28 27 -8 15 -21 37 -30 48 -85 103
-110 138 -104 143 4 4 34 -8 67 -26 71 -40 87 -36 26 7 -69 48 -86 64 -44 41
48 -26 56 -20 19 16 -15 15 -19 21 -8 13 11 -8 34 -27 51 -44 28 -27 252 -152
229 -127 -5 5 -54 33 -107 62 -54 28 -98 53 -98 55 0 2 5 16 10 30 8 20 14 25
23 17 7 -6 18 -7 26 -2 8 4 20 6 28 3 7 -3 13 0 13 6 0 6 8 11 18 11 11 0 27
16 41 43 20 37 4 26 -19 -13 -5 -8 -12 -12 -16 -8 -4 4 5 26 20 48 27 42 31
50 19 50 -5 0 -19 -18 -33 -40 -13 -22 -28 -40 -33 -40 -5 0 2 15 17 34 14 19
26 37 26 39 0 2 -28 7 -62 9 -65 6 -199 48 -227 71 -9 7 -50 31 -91 52 -41 21
-95 51 -120 67 -29 19 -51 26 -65 22 -17 -6 -80 -48 -95 -64 -18 -20 -148
-105 -186 -121 -35 -16 -48 -18 -59 -9 -40 33 -110 202 -121 292 -3 29 -29
113 -56 186 l-50 133 -7 172 c-7 162 -10 178 -45 282 -47 139 -135 319 -221
455 -58 91 -105 203 -91 217 2 2 20 -22 40 -54 39 -62 45 -64 21 -6 -19 44
-19 48 -1 34 11 -10 14 1 14 61 1 68 -2 77 -40 138 -41 67 -137 173 -173 192
-13 7 -8 -2 13 -24 32 -34 42 -68 20 -68 -21 0 -75 49 -114 102 -48 66 -50 68
-99 68 l-39 0 24 -16 c44 -30 100 -88 100 -104 -1 -16 -33 -60 -45 -60 -3 0
-4 4 0 9 3 5 1 12 -5 16 -6 4 -8 10 -6 14 5 8 -97 79 -164 112 -39 21 -57 23
-157 21 -62 -2 -123 -7 -135 -12 -18 -8 -11 -9 27 -5 67 7 204 -10 221 -27 8
-8 16 -29 17 -46 1 -18 6 -32 11 -32 5 0 7 -2 4 -5 -3 -3 -24 2 -48 10 -131
46 -302 65 -390 43 -36 -9 -81 -12 -130 -9 l-75 6 118 24 c65 13 115 26 113
29 -3 2 -33 10 -68 18 -44 9 -146 13 -341 14 l-278 0 -16 -37 c-9 -21 -15 -50
-14 -65 1 -16 -1 -28 -3 -28 -3 0 -17 20 -32 45 -25 44 -26 47 -9 65 17 19 17
20 -1 20 -11 0 -38 -18 -59 -40 -21 -22 -43 -40 -47 -40 -5 0 7 15 27 34 19
19 35 37 35 40 0 3 -78 6 -173 6 l-173 0 -48 -49z m1754 -87 c35 -37 35 -37
-21 7 -31 24 -64 50 -75 57 -10 7 -1 4 21 -7 22 -11 56 -36 75 -57z m-510 36
c-12 -7 -8 -10 14 -10 24 0 26 -2 16 -15 -6 -8 -9 -18 -6 -23 3 -5 -50 -12
-117 -15 -67 -4 -132 -10 -144 -13 -19 -5 -23 -2 -23 15 0 18 6 21 39 21 21 0
67 11 102 25 64 24 150 35 119 15z m-1540 -75 c-7 -8 -17 -12 -22 -9 -6 4 -5
10 3 15 22 14 33 10 19 -6z m846 -27 c4 -6 3 -8 -4 -4 -6 3 -20 -7 -32 -24
-21 -30 -42 -36 -88 -24 -18 5 -20 9 -11 20 6 8 8 14 4 14 -4 0 -2 7 5 15 15
18 115 21 126 3z m344 2 c-9 -6 6 -7 45 -4 45 4 56 3 45 -5 -11 -9 12 -10 90
-6 99 6 103 5 73 -9 -36 -17 -44 -31 -13 -22 11 3 30 8 43 11 21 5 20 5 -3 -9
l-25 -15 30 -1 c23 0 27 -3 15 -10 -11 -7 -7 -10 18 -10 17 0 32 -4 32 -10 0
-5 26 -10 58 -12 l57 -3 0 -50 c-1 -27 -4 -62 -9 -77 -6 -21 -4 -27 11 -31 15
-4 14 -5 -4 -6 -13 0 -23 -5 -23 -11 0 -5 33 -11 73 -13 40 -1 9 -4 -68 -5
-112 -1 -152 2 -202 17 -60 18 -130 18 -101 0 7 -5 -41 -9 -117 -10 -71 0
-164 -1 -205 -1 -41 0 -91 2 -111 5 -19 3 -87 1 -150 -4 -110 -8 -164 -4 -154
10 2 4 50 8 107 10 57 1 108 7 113 13 7 7 -23 9 -100 5 -94 -5 -105 -4 -77 6
18 7 30 15 27 19 -13 13 59 19 158 14 66 -4 95 -3 82 3 -11 5 -40 10 -65 11
l-45 1 30 14 c17 7 26 14 20 15 -14 3 59 19 118 27 26 3 47 9 47 14 0 4 -26
10 -57 14 -94 10 -93 13 7 14 58 1 90 5 81 10 -9 6 10 13 58 22 71 12 79 28
16 30 l-30 0 25 12 c14 6 31 17 38 24 7 7 23 13 35 13 18 0 19 -2 7 -10z m307
4 c-3 -3 -12 -4 -19 -1 -8 3 -5 6 6 6 11 1 17 -2 13 -5z m-1134 -14 c33 0 57
-4 57 -11 0 -5 -4 -8 -9 -5 -5 3 -11 -1 -14 -9 -4 -9 -1 -12 9 -8 8 3 36 2 62
-2 42 -7 45 -9 25 -18 l-23 -10 21 -18 c11 -10 27 -15 35 -12 34 13 8 -11 -83
-75 -161 -113 -204 -135 -75 -38 34 26 62 49 62 52 0 7 -14 -1 -102 -63 -85
-59 -104 -67 -56 -23 18 16 27 30 21 31 -7 1 -16 2 -20 4 -5 1 -21 5 -38 9
-38 10 -75 27 -75 36 0 9 47 30 67 30 9 0 48 19 86 41 l70 42 -34 11 c-19 7
-47 20 -64 30 -28 16 -28 17 -5 12 14 -3 51 -6 83 -6z m494 -86 c-3 -3 -12 -4
-19 -1 -8 3 -5 6 6 6 11 1 17 -2 13 -5z m-779 -121 c-10 -2 -26 -2 -35 0 -10
3 -2 5 17 5 19 0 27 -2 18 -5z m-254 -28 c55 -8 102 -19 105 -24 3 -4 23 -14
44 -20 43 -15 49 -24 10 -16 -28 6 -28 6 -5 -8 l23 -13 -59 -64 -59 -65 -47
38 c-52 43 -64 37 -14 -6 l33 -29 -40 23 c-31 18 -37 19 -26 6 13 -17 12 -17
-10 -8 -13 5 -63 14 -112 21 -48 6 -97 15 -110 21 -16 7 -8 8 28 3 63 -9 113
-9 121 -1 4 4 1 13 -6 22 -9 11 -9 15 -1 15 7 0 9 5 6 10 -3 6 -2 10 4 10 6 0
8 7 5 15 -4 8 -1 15 5 15 19 0 12 22 -9 27 -11 3 -17 10 -13 16 4 6 -4 8 -21
3 -17 -4 -25 -3 -22 3 4 5 -8 12 -26 14 -18 2 -4 4 32 5 36 1 110 -5 164 -13z
m2236 1 c0 -11 -19 -15 -25 -6 -3 5 1 10 9 10 9 0 16 -2 16 -4z m-1823 -12
c-3 -3 -12 -4 -19 -1 -8 3 -5 6 6 6 11 1 17 -2 13 -5z m1020 -70 c-3 -3 -12
-4 -19 -1 -8 3 -5 6 6 6 11 1 17 -2 13 -5z m162 0 c37 -4 57 -10 49 -15 -23
-14 21 -23 50 -9 15 6 78 16 142 21 132 10 170 10 120 -1 l-35 -7 30 -2 c27
-2 28 -3 10 -12 -16 -7 -12 -8 17 -6 l36 3 -5 -36 c-3 -19 -11 -47 -18 -62
-11 -24 -11 -28 1 -28 8 0 14 -4 14 -10 0 -5 8 -6 18 -3 15 6 15 4 4 -9 -11
-14 -10 -18 5 -27 15 -9 16 -12 4 -20 -11 -7 -10 -10 5 -14 12 -3 7 -5 -13 -6
-18 0 -85 -8 -149 -16 -78 -11 -121 -12 -127 -6 -6 6 -43 16 -84 23 -46 7 -68
15 -60 20 7 5 -5 7 -28 4 -22 -3 -32 -3 -22 0 9 3 17 10 17 15 0 5 25 25 55
45 30 20 55 39 55 41 0 2 -16 -4 -36 -12 -34 -14 -36 -14 -23 2 9 12 5 11 -11
-3 -31 -26 -55 -40 -48 -28 4 5 -26 9 -65 10 -45 1 -94 9 -132 22 -67 24 -65
24 85 23 94 0 95 0 60 15 -19 9 -62 19 -94 22 -51 4 -57 7 -42 18 16 11 16 13
-6 16 -13 3 1 8 35 12 31 5 60 12 63 17 6 11 39 11 123 3z m-279 -29 c0 -2
-10 -9 -22 -15 -22 -11 -22 -10 -4 4 21 17 26 19 26 11z m-1572 -139 c15 -8
63 -49 107 -91 l80 -77 -84 56 c-84 56 -104 63 -130 47 -11 -7 -3 -21 38 -63
28 -30 51 -59 51 -63 0 -5 -5 -4 -12 3 -33 33 -38 -1 -5 -37 l22 -25 -30 19
c-81 51 -168 97 -211 113 -42 14 -45 17 -23 20 15 2 39 16 55 33 15 16 37 29
49 29 11 0 27 6 34 13 10 10 2 15 -41 29 l-53 18 63 -5 c34 -3 75 -11 90 -19z
m779 -18 c-4 -12 5 -78 18 -147 14 -69 23 -126 21 -128 -5 -5 -46 178 -46 205
0 15 -4 21 -11 16 -16 -10 -4 -146 24 -264 l23 -95 60 -12 59 -12 -58 3 c-62
3 -59 7 -42 -53 4 -15 21 -21 81 -30 41 -6 87 -11 102 -11 44 0 99 -19 129
-44 18 -15 57 -29 105 -39 42 -9 88 -19 102 -23 21 -5 27 0 46 35 23 45 25 45
114 14 21 -7 49 -13 62 -13 40 0 37 -19 -8 -45 -24 -14 -153 -87 -288 -161
-135 -74 -264 -146 -287 -160 -55 -32 -56 -25 -2 10 45 30 47 48 2 20 l-28
-18 18 21 18 21 -168 -1 c-164 -2 -169 -3 -215 -29 -25 -16 -81 -66 -124 -113
-42 -47 -80 -83 -83 -80 -2 3 21 32 53 64 61 62 69 96 15 64 -16 -10 -29 -21
-29 -26 0 -5 7 -4 15 3 10 9 15 9 15 1 0 -6 -4 -12 -10 -12 -5 -1 -16 -2 -22
-3 -7 -1 -12 -7 -11 -13 4 -18 -38 -28 -48 -12 -5 8 -9 43 -9 78 l0 64 -26
-24 -27 -24 6 25 c6 30 51 137 61 148 4 4 7 3 6 -3 -8 -38 4 -20 20 30 11 33
18 65 15 72 -2 7 -31 26 -65 43 -73 37 -100 62 -100 94 0 13 -4 26 -10 28 -19
6 24 109 70 166 25 31 82 85 125 120 44 35 103 83 132 108 29 25 56 45 60 45
4 0 16 8 26 16 9 9 17 12 17 7 0 -5 12 5 26 21 l26 30 -26 -37 c-14 -20 -31
-49 -36 -65 l-11 -28 25 30 c13 17 40 56 58 87 36 62 44 70 35 36z m943 -17
c20 -9 8 -10 -55 -5 -131 10 -177 24 -65 20 52 -2 106 -9 120 -15z m15 -32
c77 -11 144 -24 149 -29 6 -6 -10 -7 -39 -3 -43 5 -47 3 -42 -12 4 -9 4 -15 0
-13 -50 25 -99 42 -172 58 -116 24 -67 24 104 -1z m30 -97 c-3 -3 -11 0 -18 7
-9 10 -8 11 6 5 10 -3 15 -9 12 -12z m-398 -328 c-3 -3 -12 -4 -19 -1 -8 3 -5
6 6 6 11 1 17 -2 13 -5z m273 -251 c0 -4 -74 -81 -164 -172 -172 -174 -222
-241 -313 -416 -50 -95 -52 -98 -53 -62 0 21 7 54 15 74 20 48 20 48 -20 23
-19 -12 -35 -18 -35 -13 0 4 -5 15 -10 23 -8 13 -11 12 -25 -5 -15 -20 -15
-20 -8 0 11 33 25 46 79 70 33 15 61 36 76 59 22 32 24 40 14 73 -7 22 -22 43
-38 52 -16 9 -28 18 -28 21 0 3 24 19 53 36 28 17 51 36 50 42 -2 7 0 11 5 10
9 -3 98 43 165 85 29 19 68 41 88 50 122 56 149 65 149 50z m1134 -29 c3 -8 2
-12 -4 -9 -6 3 -10 10 -10 16 0 14 7 11 14 -7z m-2444 -124 c-13 -27 -25 -48
-27 -46 -3 2 6 27 18 55 12 29 24 49 27 46 3 -3 -5 -28 -18 -55z m630 -204 c0
-2 -8 -10 -17 -17 -16 -13 -17 -12 -4 4 13 16 21 21 21 13z m10 -100 c-38 -13
-45 -13 -35 3 3 6 21 11 38 10 l32 0 -35 -13z m-20 -46 c6 -11 8 -20 6 -20 -3
0 -10 9 -16 20 -6 11 -8 20 -6 20 3 0 10 -9 16 -20z m3074 -488 c81 -93 88
-105 77 -125 -8 -15 -10 -16 -6 -3 4 13 -17 46 -72 113 -146 178 -145 186 1
15z m-3320 55 c15 -11 51 -33 80 -49 29 -17 40 -27 26 -24 -67 15 -71 14 -27
-6 26 -12 46 -27 44 -32 -7 -19 -109 -11 -152 12 -58 29 -92 68 -79 90 6 9 17
18 25 18 8 1 20 2 27 3 7 0 10 6 6 13 -8 13 4 7 50 -25z m-33 -112 c24 -13 40
-25 34 -25 -23 0 -113 62 -155 106 l-45 48 61 -52 c34 -28 81 -63 105 -77z
m-421 49 c32 -13 48 -29 72 -70 16 -30 34 -57 39 -60 5 -3 9 -9 9 -14 0 -8
-270 -150 -285 -150 -14 0 -35 73 -35 121 0 93 65 174 152 188 4 0 26 -6 48
-15z m573 -91 c-13 -2 -33 -2 -45 0 -13 2 -3 4 22 4 25 0 35 -2 23 -4z m-89
-97 c35 -58 45 -96 27 -96 -7 0 -78 133 -99 185 -11 27 41 -37 72 -89z m3337
12 c22 -32 42 -66 46 -75 6 -17 6 -17 -10 -1 -9 9 -17 19 -17 22 0 3 -21 36
-47 74 -26 37 -39 60 -29 52 10 -8 36 -40 57 -72z m50 35 c-12 -20 -14 -14 -5
12 4 9 9 14 11 11 3 -2 0 -13 -6 -23z m43 -25 c12 -17 13 -25 4 -36 -10 -12
-15 -11 -30 7 -16 21 -15 51 3 51 4 0 15 -10 23 -22z m-108 -96 c-6 -6 -24 13
-59 63 -27 38 -26 38 18 -9 25 -27 43 -51 41 -54z m-11 68 c10 -11 14 -20 9
-20 -5 0 -15 9 -22 20 -7 11 -11 20 -9 20 2 0 12 -9 22 -20z m-3640 -55 c-8
-26 -15 -76 -15 -110 0 -72 22 -109 70 -120 40 -9 45 -20 20 -45 -28 -28 -93
-27 -156 5 -79 40 -184 122 -184 144 0 15 29 36 113 81 61 34 123 70 137 80
14 10 26 17 27 16 1 -1 -4 -24 -12 -51z m3735 12 c0 -5 -7 -4 -15 3 -8 7 -15
20 -15 29 1 13 3 13 15 -3 8 -11 15 -24 15 -29z m-3615 17 c13 -8 36 -31 51
-51 21 -28 24 -37 13 -44 -16 -10 -129 -12 -153 -3 -26 10 -19 53 13 85 34 33
43 35 76 13z m3566 -46 c6 -13 8 -20 4 -16 -4 4 -16 -3 -26 -15 -18 -22 -18
-22 -7 16 6 20 13 37 14 37 2 0 9 -10 15 -22z m-2918 -381 c-4 -8 -25 -33 -46
-57 l-37 -44 -21 22 c-16 17 -24 20 -39 12 -24 -13 -33 -13 -24 1 8 13 143 79
162 79 8 0 10 -5 5 -13z m677 -31 c0 -2 -8 -10 -17 -17 -16 -13 -17 -12 -4 4
13 16 21 21 21 13z m770 -213 c0 -5 -10 -19 -21 -33 l-20 -25 16 33 c15 30 25
41 25 25z m1743 -40 c29 -14 46 -28 39 -31 -7 -2 -34 10 -60 27 -58 38 -49 40
21 4z m-15 -41 c33 -17 39 -27 22 -37 -13 -8 -112 43 -105 54 6 11 40 4 83
-17z m-1416 -20 c-6 -2 -21 -19 -33 -38 -12 -19 -23 -33 -26 -30 -3 3 10 26
28 51 19 27 35 41 38 34 2 -7 -1 -15 -7 -17z m148 9 c-13 -25 -30 -36 -30 -20
0 6 8 18 18 25 23 18 24 17 12 -5z m20 -45 c-34 -51 -47 -61 -47 -41 0 8 4 15
9 15 4 0 7 4 6 9 -2 5 0 8 4 8 3 -1 16 10 28 26 34 43 34 32 0 -17z m1245 -9
c16 -15 -48 20 -70 38 -11 9 -2 7 20 -6 22 -12 45 -26 50 -32z m146 -25 c-12
-4 -67 24 -76 38 -4 6 14 0 40 -12 25 -12 42 -24 36 -26z m29 22 c0 -2 -9 0
-20 6 -11 6 -20 13 -20 16 0 2 9 0 20 -6 11 -6 20 -13 20 -16z m-147 -86 c23
-13 44 -24 46 -25 2 -2 2 -6 -2 -9 -6 -6 -97 42 -97 51 0 9 11 5 53 -17z m-51
-108 c21 -13 27 -20 16 -20 -9 0 -20 5 -24 11 -4 8 -8 8 -13 0 -4 -6 -11 -3
-19 9 -16 26 -1 25 40 0z m-398 -184 c49 -106 56 -124 62 -182 l6 -59 -63 95
c-35 52 -68 102 -72 110 -9 16 -12 19 51 -56 30 -36 32 -37 20 -9 -8 17 -26
54 -41 83 -38 72 -26 65 18 -10 41 -70 38 -43 -4 44 -15 32 -21 53 -14 47 7
-6 23 -34 37 -63z m-849 -209 c38 -18 62 -33 53 -35 -9 -2 -52 15 -95 38 -88
46 -63 44 42 -3z m-15 -47 c8 -5 11 -10 5 -10 -5 0 -17 5 -25 10 -8 5 -10 10
-5 10 6 0 17 -5 25 -10z m70 -30 c8 -5 11 -10 5 -10 -5 0 -17 5 -25 10 -8 5
-10 10 -5 10 6 0 17 -5 25 -10z"/>
<path d="M4158 4603 c7 -3 16 -2 19 1 4 3 -2 6 -13 5 -11 0 -14 -3 -6 -6z"/>
<path d="M3846 4440 c16 -16 78 -23 131 -15 42 7 45 9 23 16 -40 12 -166 11
-154 -1z"/>
<path d="M2690 4286 c0 -2 8 -10 18 -17 15 -13 16 -12 3 4 -13 16 -21 21 -21
13z"/>
<path d="M4255 4270 c11 -5 36 -9 55 -9 28 0 31 2 15 9 -11 5 -36 9 -55 9 -28
0 -31 -2 -15 -9z"/>
<path d="M4470 4270 c-13 -8 -13 -10 2 -10 9 0 20 5 23 10 8 13 -5 13 -25 0z"/>
<path d="M4507 4261 c-10 -4 -17 -10 -15 -15 2 -4 -13 -16 -32 -27 -26 -13
-30 -18 -15 -19 28 0 95 20 94 28 -2 25 -16 39 -32 33z"/>
<path d="M4358 4253 c7 -3 16 -2 19 1 4 3 -2 6 -13 5 -11 0 -14 -3 -6 -6z"/>
<path d="M4408 4243 c12 -2 30 -2 40 0 9 3 -1 5 -23 4 -22 0 -30 -2 -17 -4z"/>
<path d="M2470 4026 c0 -2 8 -10 18 -17 15 -13 16 -12 3 4 -13 16 -21 21 -21
13z"/>
<path d="M3177 4019 c-8 -11 -16 -16 -18 -10 -2 6 -10 1 -18 -11 -13 -21 -13
-22 2 -9 21 17 22 7 1 -24 -9 -14 -14 -25 -11 -25 3 0 19 23 36 50 30 49 36
69 8 29z"/>
<path d="M3080 3870 c-22 -33 -38 -60 -36 -60 3 0 24 27 46 60 22 33 38 60 36
60 -3 0 -24 -27 -46 -60z"/>
<path d="M3502 3551 c-10 -6 -8 -10 10 -14 35 -10 116 -8 98 2 -24 13 -94 21
-108 12z"/>
<path d="M3548 3513 c6 -2 18 -2 25 0 6 3 1 5 -13 5 -14 0 -19 -2 -12 -5z"/>
<path d="M3613 3503 c9 -2 25 -2 35 0 9 3 1 5 -18 5 -19 0 -27 -2 -17 -5z"/>
<path d="M5175 4814 c6 -5 26 -23 45 -39 l35 -30 -25 28 c-14 16 -34 33 -45
39 -11 6 -15 6 -10 2z"/>
<path d="M4593 4783 c9 -2 25 -2 35 0 9 3 1 5 -18 5 -19 0 -27 -2 -17 -5z"/>
<path d="M2034 4452 c-12 -9 -39 -37 -60 -62 -31 -37 -27 -34 24 15 34 33 62
61 62 62 0 5 -5 3 -26 -15z"/>
<path d="M2400 4453 c-36 -8 -74 -16 -85 -17 -11 -1 -33 -10 -50 -19 -27 -16
-28 -18 -5 -12 102 26 146 36 216 49 66 12 72 14 34 14 -25 0 -74 -6 -110 -15z"/>
<path d="M2185 4385 c-25 -12 -26 -14 -5 -9 28 7 60 23 45 23 -5 0 -23 -6 -40
-14z"/>
<path d="M2228 4350 c-16 -21 -28 -42 -28 -46 0 -4 14 11 31 34 17 24 30 45
28 47 -2 2 -16 -14 -31 -35z"/>
<path d="M1966 4151 c-14 -5 -56 -87 -56 -108 0 -2 11 -3 25 -3 27 0 47 30 60
88 7 33 3 36 -29 23z"/>
<path d="M5670 3836 c0 -2 8 -10 18 -17 15 -13 16 -12 3 4 -13 16 -21 21 -21
13z"/>
<path d="M1871 3494 c0 -11 3 -14 6 -6 3 7 2 16 -1 19 -3 4 -6 -2 -5 -13z"/>
<path d="M1976 3472 c-11 -23 -17 -45 -13 -48 8 -9 39 55 35 74 -2 10 -10 0
-22 -26z"/>
<path d="M5193 3347 c-22 -34 -53 -81 -67 -105 -36 -57 -62 -68 -121 -52 -46
13 -46 13 -83 -22 -20 -20 -47 -39 -59 -42 -52 -16 -86 39 -76 123 5 43 3 50
-15 60 -19 10 -22 8 -28 -14 -8 -32 41 -234 72 -297 13 -26 24 -57 24 -69 0
-12 29 -72 64 -134 36 -61 72 -138 82 -171 l17 -59 46 95 46 95 0 176 0 176
29 37 c25 34 120 255 113 263 -2 1 -22 -25 -44 -60z m-169 -209 c-18 -31 -57
-78 -61 -74 -6 5 15 45 35 69 17 20 37 23 26 5z"/>
<path d="M5072 3361 c-28 -49 -28 -50 6 -46 15 2 31 4 35 4 12 1 4 74 -9 78
-5 2 -20 -14 -32 -36z"/>
<path d="M1761 3314 c-12 -19 -21 -43 -21 -52 1 -16 1 -16 11 1 15 26 40 87
35 87 -2 0 -13 -16 -25 -36z"/>
<path d="M5853 3264 c17 -36 33 -59 35 -51 3 13 -54 117 -64 117 -2 0 11 -30
29 -66z"/>
<path d="M4320 3306 c8 -10 15 -23 16 -30 1 -6 21 -42 45 -80 28 -44 45 -62
47 -52 2 9 -8 32 -22 51 -27 35 -33 51 -16 40 21 -13 8 2 -37 45 -26 25 -41
37 -33 26z m45 -46 c10 -11 16 -20 13 -20 -3 0 -13 9 -23 20 -10 11 -16 20
-13 20 3 0 13 -9 23 -20z"/>
<path d="M6185 3290 c-3 -5 -1 -10 4 -10 6 0 11 5 11 10 0 6 -2 10 -4 10 -3 0
-8 -4 -11 -10z"/>
<path d="M1992 3260 c0 -14 2 -19 5 -12 2 6 2 18 0 25 -3 6 -5 1 -5 -13z"/>
<path d="M4480 3261 c0 -6 4 -13 10 -16 6 -3 7 1 4 9 -7 18 -14 21 -14 7z"/>
<path d="M1966 3114 c-9 -64 -15 -118 -13 -121 3 -2 13 48 22 112 10 64 16
118 13 120 -2 3 -12 -47 -22 -111z"/>
<path d="M2246 3195 c9 -14 21 -25 27 -25 6 0 0 11 -13 25 -13 14 -25 25 -27
25 -2 0 4 -11 13 -25z"/>
<path d="M3954 3078 c-38 -40 -80 -89 -92 -108 -21 -31 -20 -31 9 5 19 22 63
70 98 108 35 37 62 67 59 67 -3 0 -36 -33 -74 -72z"/>
<path d="M2517 3072 c9 -29 19 -50 21 -47 5 5 -18 77 -29 89 -4 5 -1 -14 8
-42z"/>
<path d="M2550 2969 c0 -5 -5 -7 -11 -3 -17 10 6 -30 27 -47 16 -13 16 -12 4
11 -8 14 -13 31 -12 38 2 6 0 12 -3 12 -3 0 -5 -5 -5 -11z"/>
<path d="M6130 2789 c-22 -18 -22 -19 -3 -10 12 6 25 16 28 21 9 15 3 12 -25
-11z"/>
<path d="M6555 2790 c3 -5 11 -10 16 -10 6 0 7 5 4 10 -3 6 -11 10 -16 10 -6
0 -7 -4 -4 -10z"/>
<path d="M6905 2755 c-38 -13 -63 -24 -54 -24 8 -1 46 10 85 23 38 14 62 24
54 24 -8 0 -46 -11 -85 -23z"/>
<path d="M5102 2663 c-53 -84 -75 -123 -69 -123 6 0 91 129 111 168 29 56 10
35 -42 -45z"/>
<path d="M6798 2723 c6 -2 18 -2 25 0 6 3 1 5 -13 5 -14 0 -19 -2 -12 -5z"/>
<path d="M6743 2713 c9 -2 23 -2 30 0 6 3 -1 5 -18 5 -16 0 -22 -2 -12 -5z"/>
<path d="M6583 2703 c26 -2 67 -2 90 0 23 2 2 3 -48 3 -49 0 -68 -1 -42 -3z"/>
<path d="M6866 2613 c-6 -14 -5 -15 5 -6 7 7 10 15 7 18 -3 3 -9 -2 -12 -12z"/>
<path d="M6872 2527 c-11 -19 -27 -47 -37 -63 l-17 -29 20 25 c24 29 66 100
59 100 -3 0 -14 -15 -25 -33z"/>
<path d="M1697 2504 c-4 -4 -7 -14 -7 -23 0 -11 3 -12 11 -4 6 6 10 16 7 23
-2 6 -7 8 -11 4z"/>
<path d="M5320 2470 c-12 -16 -19 -30 -16 -30 2 0 14 14 26 30 12 17 19 30 16
30 -2 0 -14 -13 -26 -30z"/>
<path d="M6791 2484 c0 -11 3 -14 6 -6 3 7 2 16 -1 19 -3 4 -6 -2 -5 -13z"/>
<path d="M4044 2448 c-53 -56 -116 -147 -110 -157 6 -9 51 -9 61 0 2 3 37 2
77 -2 40 -4 86 -8 102 -8 28 -1 27 0 -15 22 -46 24 -61 56 -39 81 8 11 7 18
-6 31 -12 12 -14 19 -5 28 6 6 11 16 11 21 0 6 -5 5 -12 -2 -16 -16 -26 -15
-30 4 -2 11 -11 7 -34 -18z"/>
<path d="M6740 2478 c0 -6 104 -87 143 -111 46 -29 30 -11 -25 29 -29 20 -68
48 -85 62 -18 13 -33 22 -33 20z"/>
<path d="M5830 2303 c-1 -5 -12 -21 -26 -38 -17 -20 -22 -24 -17 -10 12 34
-19 3 -67 -68 l-43 -62 43 40 42 40 -24 -40 c-54 -89 -35 -72 46 40 54 75 70
105 56 105 -5 0 -10 -3 -10 -7z"/>
<path d="M4218 2273 c7 -3 16 -2 19 1 4 3 -2 6 -13 5 -11 0 -14 -3 -6 -6z"/>
<path d="M4856 2251 c-3 -4 6 -6 19 -3 14 2 25 6 25 8 0 8 -39 4 -44 -5z"/>
<path d="M5316 2098 c-29 -40 -96 -168 -96 -186 0 -7 5 -10 10 -7 6 3 10 1 10
-5 0 -6 5 -8 10 -5 6 3 10 1 10 -4 0 -6 9 -11 21 -11 13 0 18 -4 13 -12 -4 -7
5 -2 19 11 32 29 33 24 7 -32 -16 -33 -17 -37 -3 -17 16 22 81 93 76 82 -1 -3
2 -13 7 -23 9 -16 12 -16 38 9 15 15 26 30 24 35 -5 11 13 8 25 -4 8 -8 13 -7
18 2 5 7 4 10 -3 5 -6 -3 -13 -2 -16 3 -4 5 -2 12 4 16 16 10 1 25 -18 18 -15
-6 -15 -5 -3 10 9 11 10 17 2 17 -6 0 -11 10 -11 21 0 17 -5 20 -25 17 -15 -3
-22 -1 -18 5 4 6 0 8 -10 4 -10 -4 -17 -2 -17 4 0 6 -7 9 -15 5 -8 -3 -15 -1
-15 4 0 6 -7 10 -15 10 -8 0 -15 -5 -15 -12 0 -6 -3 -9 -6 -6 -3 3 2 22 10 42
19 45 14 45 -18 4z"/>
<path d="M5057 2095 c-15 -14 -27 -29 -27 -32 0 -4 14 6 30 22 28 26 34 35 27
35 -1 0 -15 -11 -30 -25z"/>
<path d="M5625 2018 c-45 -69 -96 -129 -105 -123 -12 7 -33 -32 -24 -46 4 -6
13 -4 26 8 31 27 147 203 135 203 -3 0 -17 -19 -32 -42z"/>
<path d="M4451 1974 c-12 -19 -16 -32 -11 -29 11 7 43 65 36 65 -2 0 -13 -16
-25 -36z"/>
<path d="M2147 1959 c4 -13 8 -18 11 -10 2 7 -1 18 -6 23 -8 8 -9 4 -5 -13z"/>
<path d="M6830 1936 c0 -2 8 -10 18 -17 15 -13 16 -12 3 4 -13 16 -21 21 -21
13z"/>
<path d="M6750 1906 c0 -2 8 -10 18 -17 15 -13 16 -12 3 4 -13 16 -21 21 -21
13z"/>
<path d="M2715 1790 c27 -27 51 -50 54 -50 3 0 -17 23 -44 50 -27 28 -51 50
-54 50 -3 0 17 -22 44 -50z"/>
<path d="M2755 1790 c7 -11 65 -43 65 -36 0 2 -16 13 -36 25 -19 12 -32 16
-29 11z"/>
<path d="M5424 1747 c-42 -56 -68 -97 -61 -97 8 0 100 130 96 134 -2 2 -18
-15 -35 -37z"/>
<path d="M5460 1750 c-6 -11 -8 -20 -6 -20 3 0 10 9 16 20 6 11 8 20 6 20 -3
0 -10 -9 -16 -20z"/>
<path d="M4303 1643 c-3 -10 -8 -22 -11 -28 -3 -5 4 -1 16 9 24 20 28 36 12
36 -6 0 -13 -8 -17 -17z"/>
<path d="M2710 1617 c0 -19 43 -67 60 -67 18 0 11 15 -25 50 -27 26 -35 30
-35 17z"/>
<path d="M4270 1148 c-25 -30 -32 -42 -16 -28 28 25 71 80 63 80 -2 0 -23 -24
-47 -52z"/>
<path d="M4239 1013 l-34 -38 38 34 c20 19 37 36 37 38 0 8 -8 0 -41 -34z"/>
<path d="M3813 1023 c9 -2 23 -2 30 0 6 3 -1 5 -18 5 -16 0 -22 -2 -12 -5z"/>
<path d="M3873 1013 c9 -2 25 -2 35 0 9 3 1 5 -18 5 -19 0 -27 -2 -17 -5z"/>
<path d="M4250 965 c-24 -25 -42 -45 -39 -45 3 0 25 20 49 45 24 25 42 45 39
45 -3 0 -25 -20 -49 -45z"/>
<path d="M3710 916 c0 -3 9 -10 20 -16 11 -6 20 -8 20 -6 0 3 -9 10 -20 16
-11 6 -20 8 -20 6z"/>
<path d="M3610 879 c0 -5 5 -7 10 -4 6 3 10 8 10 11 0 2 -4 4 -10 4 -5 0 -10
-5 -10 -11z"/>
<path d="M3887 713 c-42 -72 -79 -137 -83 -146 -3 -8 46 35 108 96 63 62 110
115 105 118 -5 4 -6 12 -2 19 5 9 4 11 -4 6 -7 -4 -19 2 -29 15 -18 22 -19 22
-95 -108z"/>
<path d="M5975 590 c19 -21 114 -75 120 -68 2 2 -29 23 -69 47 -47 29 -64 36
-51 21z"/>
<path d="M5515 508 l-16 -33 20 25 c20 24 26 40 16 40 -2 0 -12 -15 -20 -32z"/>
<path d="M3729 443 l-34 -38 38 34 c20 19 37 36 37 38 0 8 -8 0 -41 -34z"/>
<path d="M2533 78 c-23 -17 -40 -35 -37 -40 5 -8 54 -12 54 -4 0 2 7 20 15 40
8 20 14 36 13 36 -2 -1 -22 -15 -45 -32z"/>
<path d="M5970 70 c0 -8 60 -23 67 -17 1 2 -13 8 -32 14 -19 6 -35 8 -35 3z"/>
</g>
</svg>
