<?xml version="1.0" standalone="no"?>
<!DOCTYPE svg PUBLIC "-//W3C//DTD SVG 20010904//EN"
 "http://www.w3.org/TR/2001/REC-SVG-20010904/DTD/svg10.dtd">
<svg version="1.0" xmlns="http://www.w3.org/2000/svg"
 width="720.000000pt" height="480.000000pt" viewBox="0 0 720.000000 480.000000"
 preserveAspectRatio="xMidYMid meet">

<g transform="translate(0.000000,480.000000) scale(0.100000,-0.100000)"
fill="#000000" stroke="none">
<path d="M2146 4765 c-22 -19 -49 -35 -60 -35 -18 1 -18 3 7 16 15 8 27 17 27
20 0 16 -170 -87 -234 -142 -42 -36 -76 -66 -76 -68 0 -3 31 11 68 29 71 34
118 45 140 32 6 -5 12 -4 12 2 0 6 8 11 17 11 13 0 7 -10 -20 -38 -21 -21 -34
-42 -30 -47 5 -4 3 -5 -4 -1 -6 3 -14 2 -18 -4 -3 -5 -19 -10 -35 -10 -16 0
-32 -4 -35 -10 -4 -6 14 -10 48 -10 30 0 69 -3 86 -6 19 -4 31 -2 31 4 0 6
-21 13 -47 15 -40 3 -37 4 19 5 37 1 70 -2 73 -8 3 -5 -3 -10 -13 -10 -11 0
-25 -7 -32 -15 -7 -8 -19 -15 -27 -15 -13 0 -13 -3 -3 -15 11 -13 8 -14 -16
-10 -59 10 -115 12 -120 4 -3 -5 7 -10 23 -11 15 0 34 -2 41 -2 12 -1 32 -24
32 -37 0 -3 -18 -14 -40 -24 -22 -10 -40 -22 -40 -27 0 -5 8 -4 18 1 26 14 69
2 100 -29 39 -40 49 -54 45 -66 -2 -5 14 -18 34 -28 36 -17 37 -19 18 -32 -11
-8 -38 -17 -60 -21 l-40 -6 40 -13 40 -12 -40 -1 c-38 -1 -143 40 -205 80 -14
9 -38 20 -55 24 l-30 6 35 -36 c40 -42 138 -93 195 -102 41 -7 100 -33 75 -33
-13 0 -13 -2 0 -11 12 -9 12 -10 -3 -5 -10 3 -23 6 -28 6 -6 0 -7 6 -3 13 4 6
-5 1 -19 -12 -31 -28 -32 -31 -14 -54 11 -16 15 -16 62 7 49 24 166 66 182 66
4 -1 -3 -11 -17 -23 -80 -70 -45 -79 45 -12 33 25 63 45 67 45 15 0 8 -42 -12
-70 -11 -16 -35 -38 -53 -49 -18 -11 -39 -32 -47 -46 -7 -14 -54 -52 -104 -84
-50 -33 -113 -82 -140 -110 -42 -42 -47 -52 -36 -66 19 -23 50 -18 100 15 67
45 85 39 56 -18 -18 -37 -28 -92 -16 -92 6 0 10 3 11 8 3 32 13 63 39 119 30
65 50 80 34 26 -10 -37 -11 -92 -1 -86 5 3 13 17 19 31 10 23 13 9 19 -93 9
-127 25 -192 66 -265 24 -41 68 -89 85 -90 11 0 -13 72 -37 115 -47 82 -54
123 -55 316 -1 156 1 184 15 198 14 13 16 14 13 1 -2 -9 4 -14 15 -14 15 2 17
-8 17 -70 0 -39 -5 -89 -11 -111 -6 -22 -12 -83 -13 -135 -1 -96 10 -140 53
-208 21 -35 31 -10 31 80 0 42 5 80 10 83 12 7 50 -76 50 -107 0 -12 3 -19 6
-16 3 3 9 66 14 139 11 173 79 434 105 407 4 -3 7 -15 8 -26 0 -11 4 -19 8
-16 4 2 10 -5 14 -16 11 -34 29 -23 64 38 19 31 44 73 56 92 33 53 131 221
148 255 13 27 191 201 257 253 61 47 162 84 285 104 106 17 143 17 150 0 4
-10 16 -13 48 -8 151 21 142 22 186 -23 22 -22 45 -41 50 -41 21 0 22 -41 1
-75 -12 -19 -18 -35 -14 -35 4 0 -2 -11 -15 -24 l-22 -23 49 5 c53 5 53 5 102
-65 19 -27 41 -45 67 -53 53 -17 60 -25 67 -71 6 -40 9 -43 57 -53 15 -3 58
-30 95 -59 38 -30 93 -67 123 -83 47 -25 60 -40 107 -119 84 -143 79 -139 191
-163 54 -12 150 -31 213 -42 164 -29 277 -57 260 -63 -64 -25 -118 -27 -145
-6 -6 4 -55 12 -110 18 -55 6 -135 17 -178 26 -95 18 -316 41 -587 59 -219 15
-260 24 -260 55 0 29 -13 33 -104 32 -100 -1 -215 -29 -313 -76 -92 -43 -96
-37 -5 8 119 60 260 97 369 97 43 0 59 5 79 24 37 33 16 40 -53 17 -81 -27
-123 -34 -123 -23 0 16 77 42 122 42 31 0 39 3 31 11 -6 6 -50 12 -101 13 -51
0 -88 5 -84 10 6 11 -90 1 -157 -16 -33 -8 -40 -13 -27 -18 13 -4 -11 -15 -71
-34 -85 -26 -141 -57 -241 -133 -25 -19 -61 -36 -85 -40 -46 -7 -87 -41 -87
-74 0 -15 -5 -19 -15 -15 -11 4 -15 -2 -15 -22 l0 -27 -20 25 -20 25 0 -23 c0
-13 -4 -21 -8 -18 -5 3 -16 -9 -26 -27 -37 -71 -47 -83 -83 -114 -21 -18 -32
-33 -25 -33 34 0 -11 -55 -55 -66 -13 -4 -35 -3 -51 2 -20 5 -23 8 -9 11 21 5
22 22 2 29 -8 4 -12 11 -9 16 4 6 -2 8 -17 3 -52 -14 -148 -154 -180 -264 -10
-34 -26 -54 -78 -96 -112 -89 -212 -210 -251 -304 -18 -45 -5 -95 35 -133 20
-20 46 -65 65 -111 51 -124 121 -206 211 -247 107 -48 179 -15 301 138 43 53
48 65 37 78 -11 14 -15 11 -32 -23 -25 -48 -132 -153 -179 -176 -20 -9 -51
-17 -70 -16 l-33 1 38 9 c55 13 94 36 150 88 46 42 107 124 107 143 0 16 -17
7 -27 -14 -21 -47 -94 -133 -134 -160 -91 -61 -178 -24 -267 112 -63 98 -101
200 -75 200 14 0 367 -81 376 -87 6 -4 -18 66 -26 73 -1 1 -54 19 -117 39
-191 61 -214 71 -229 97 -13 22 -11 30 13 84 15 32 41 75 59 94 21 23 24 28 7
15 -68 -56 -117 -133 -135 -218 -13 -61 -13 -61 -14 -19 -1 66 55 166 149 262
64 66 200 133 270 134 59 1 88 -22 120 -96 27 -63 60 -191 61 -237 0 -32 7
-22 60 88 74 155 91 209 78 253 -10 37 -1 51 32 46 16 -2 32 -21 57 -66 l35
-63 -35 14 c-39 16 -56 9 -78 -33 l-13 -25 22 19 c19 17 26 18 61 7 21 -6 52
-22 68 -36 27 -23 107 -136 144 -204 12 -22 24 -31 43 -31 40 0 86 -24 135
-71 39 -37 51 -43 90 -43 l45 -1 5 46 c6 48 12 59 69 129 l34 42 -39 -21 c-21
-12 -55 -30 -74 -41 -19 -11 -44 -20 -55 -20 -12 0 -26 -5 -32 -11 -31 -31
-139 8 -173 64 -11 18 -20 34 -20 37 0 3 37 5 83 6 100 1 166 25 271 95 148
99 202 178 215 316 8 83 1 168 -14 168 -24 1 -34 20 -54 108 -27 117 -21 139
46 169 40 18 59 20 132 15 191 -14 371 -30 466 -42 l100 -12 -110 -2 c-125 -1
-165 -15 -275 -93 -49 -34 -57 -44 -43 -49 10 -4 22 -3 27 2 5 5 15 1 22 -9
12 -16 14 -16 29 -1 14 13 14 16 1 16 -8 0 -12 -5 -9 -10 3 -6 1 -7 -6 -3 -20
13 -2 24 30 19 23 -3 29 -1 24 8 -5 8 -4 10 4 5 6 -4 33 3 59 15 34 17 70 24
132 27 122 6 187 -10 260 -63 69 -52 105 -102 126 -176 36 -128 39 -134 58
-136 20 -1 20 -4 0 119 -7 43 1 88 16 88 6 0 10 -10 10 -22 1 -20 2 -21 10 -6
7 11 7 25 0 42 -5 14 -6 26 -2 25 9 0 62 -109 62 -127 0 -13 29 -63 42 -72 4
-3 11 -17 16 -30 6 -17 8 -1 4 52 -5 82 2 123 18 99 4 -8 6 -30 4 -50 l-4 -36
11 40 c28 112 30 116 72 147 23 17 74 45 112 63 45 21 87 50 115 80 143 150
279 134 415 -47 66 -88 89 -172 90 -323 0 -132 -8 -158 -81 -254 -28 -35 -32
-47 -23 -63 15 -28 -4 -68 -53 -112 -22 -20 -43 -36 -48 -36 -4 0 -11 -7 -14
-16 -5 -12 0 -11 22 5 16 11 35 27 42 36 7 9 26 25 42 36 l28 20 0 -51 c0 -45
-4 -55 -40 -94 -22 -23 -37 -46 -34 -49 3 -3 -4 -10 -15 -16 -11 -6 -26 -21
-32 -34 -11 -20 -9 -20 17 4 35 31 75 59 86 59 5 0 8 -42 9 -92 0 -93 17 -225
37 -285 6 -18 7 -33 2 -33 -5 0 2 -24 15 -54 13 -30 33 -88 44 -128 25 -91 92
-258 102 -252 4 2 10 -2 13 -8 3 -7 4 23 2 67 -4 78 -4 79 9 40 7 -22 14 -51
15 -65 l1 -25 10 23 c5 13 8 134 6 271 l-2 247 38 44 c39 46 47 70 22 70 -12
0 -12 6 1 43 8 23 12 53 9 66 -4 16 2 36 21 64 18 28 22 38 10 34 -30 -12 -28
14 8 90 20 41 36 83 36 92 0 9 -13 22 -31 28 -26 10 -31 16 -27 38 3 14 1 25
-3 25 -5 0 -57 -39 -115 -87 -156 -129 -165 -135 -111 -71 26 32 47 63 45 70
-4 20 25 58 44 58 10 0 18 5 18 10 0 6 5 10 12 10 6 0 34 21 62 48 28 26 66
60 85 75 18 15 31 30 29 33 -3 2 -16 -6 -29 -18 -14 -13 -38 -32 -54 -42 -16
-11 -51 -40 -77 -64 -27 -25 -48 -40 -48 -34 0 6 32 37 72 69 113 92 146 124
123 121 -11 -2 -20 2 -20 9 0 27 -16 22 -71 -23 -67 -54 -93 -81 -135 -141
-27 -38 -94 -91 -104 -81 -3 3 8 22 25 44 16 21 30 45 30 53 0 8 24 37 53 64
58 55 28 46 -34 -10 -29 -26 -39 -31 -39 -19 0 25 142 162 205 197 75 42 78
47 64 105 -6 27 -15 58 -19 69 -5 11 -11 28 -14 38 -3 9 -11 16 -17 15 -6 -2
-17 18 -23 45 -7 26 -12 47 -10 47 1 0 12 -16 24 -35 12 -19 27 -35 33 -34 8
0 8 2 0 6 -7 2 -13 9 -13 15 0 5 -9 21 -20 35 -29 37 -25 81 10 123 38 44 38
51 -2 43 l-31 -6 6 41 c4 22 10 49 13 59 4 14 2 13 -8 -3 -7 -12 -26 -36 -41
-54 -21 -25 -31 -30 -40 -21 -8 8 -8 11 2 11 7 0 9 5 5 11 -4 7 -23 -5 -50
-32 -24 -23 -46 -40 -49 -37 -3 3 22 30 56 59 39 34 69 70 81 98 10 24 17 45
16 46 -2 1 -18 7 -37 14 -34 11 -35 10 -97 -49 -34 -33 -57 -60 -50 -60 7 0
21 9 31 20 10 11 23 17 29 13 6 -3 8 -3 4 1 -7 8 73 56 92 56 5 0 -28 -38 -74
-85 -46 -47 -90 -85 -99 -85 -21 0 -59 33 -81 71 l-19 34 35 -32 c35 -34 62
-42 74 -21 4 6 3 8 -3 5 -16 -10 -58 28 -77 67 -22 47 -14 73 41 132 55 60 69
86 78 147 8 52 5 54 -48 32 -69 -29 -87 5 -37 71 31 41 40 64 17 45 -8 -6 -17
-8 -20 -4 -4 3 -7 0 -7 -7 0 -11 -3 -11 -11 -3 -15 15 5 48 74 121 28 28 45
52 39 52 -5 0 -31 -24 -57 -52 -44 -50 -47 -49 -22 13 13 32 2 83 -16 72 -8
-4 -7 -1 2 10 12 15 11 17 -2 17 -9 0 -19 5 -23 12 -5 7 -3 8 6 3 9 -5 11 -4
6 3 -10 17 -34 15 -38 -3 -2 -12 -8 -11 -33 6 -24 16 -26 19 -7 14 12 -3 22
-2 22 3 0 12 -24 22 -55 22 -42 0 -79 27 -91 67 -11 37 -11 37 -21 14 l-10
-24 -21 35 c-24 39 -28 53 -11 42 7 -4 10 -1 7 7 -5 16 -88 21 -88 6 0 -5 14
-7 30 -3 17 3 30 2 30 -3 0 -12 -82 -23 -92 -13 -6 6 -3 16 7 26 15 15 14 17
-9 27 -25 12 -59 66 -50 81 3 4 -692 8 -1544 8 -1536 0 -1549 0 -1567 -20 -10
-11 -23 -20 -29 -20 -6 1 0 10 13 20 l23 20 -28 0 c-18 -1 -44 -14 -68 -35z
m2084 15 c0 -5 -4 -10 -10 -10 -5 0 -10 5 -10 10 0 6 5 10 10 10 6 0 10 -4 10
-10z m-290 -10 c0 -5 -4 -10 -10 -10 -5 0 -10 5 -10 10 0 6 5 10 10 10 6 0 10
-4 10 -10z m-1780 -234 c0 -11 -19 -15 -25 -6 -3 5 1 10 9 10 9 0 16 -2 16 -4z
m2911 -81 c2 -44 9 -94 16 -112 7 -18 12 -54 12 -80 l-1 -48 -9 50 c-5 28 -12
57 -16 65 -6 16 -8 30 -18 127 -6 53 -1 92 10 81 2 -2 4 -39 6 -83z m-493 49
c40 -28 27 -44 -18 -22 -22 11 -37 24 -34 29 8 13 27 11 52 -7z m-2333 -76
c-85 -91 -93 -97 -106 -77 -7 11 -9 10 -9 -3 0 -34 161 -127 198 -114 15 5 15
4 -1 -8 -13 -10 -27 -12 -49 -5 -61 17 -218 125 -218 150 0 5 24 9 53 9 50 1
55 3 122 65 39 35 74 64 79 65 4 0 -27 -37 -69 -82z m2265 78 c0 -2 -9 -6 -20
-9 -11 -3 -20 -1 -20 4 0 5 9 9 20 9 11 0 20 -2 20 -4z m-52 -26 c9 -5 36 -14
60 -20 43 -11 82 -53 82 -90 0 -15 65 -90 78 -90 4 0 14 9 22 20 16 22 40 27
41 8 0 -7 6 3 13 21 16 45 30 25 21 -29 -8 -50 2 -100 21 -100 8 0 14 -4 14
-8 0 -4 11 -23 24 -40 21 -30 24 -31 29 -12 3 11 1 18 -3 15 -13 -8 -50 82
-50 119 l1 31 14 -25 c8 -14 14 -19 15 -10 0 28 27 -24 40 -80 23 -95 40 -89
21 8 -12 63 4 51 30 -22 13 -37 27 -60 31 -53 3 6 4 15 2 19 -3 4 -1 8 4 8 5
0 19 -22 32 -50 16 -33 30 -50 42 -50 19 0 25 -25 7 -35 -25 -16 -58 5 -70 45
-21 68 -21 36 0 -37 12 -44 16 -75 10 -84 -8 -12 -11 -12 -19 1 -5 8 -10 26
-10 40 0 14 -5 32 -10 40 -13 20 -12 8 5 -70 22 -104 -16 -134 -81 -62 -18 20
-34 33 -34 29 0 -4 -9 -3 -20 3 -30 16 -70 82 -95 155 -21 64 -35 75 -35 28 0
-18 35 -111 87 -231 3 -8 0 -10 -10 -6 -9 3 -38 51 -66 107 -61 123 -66 165
-22 198 29 22 36 54 10 54 -20 0 -130 -156 -124 -176 4 -12 -1 -16 -22 -15
-23 1 -37 15 -85 86 -32 47 -62 84 -67 83 -5 -1 -19 26 -31 60 -16 43 -39 78
-79 121 -55 58 -47 62 23 13 27 -19 29 -19 23 -3 -5 12 -3 16 5 14 7 -3 31
-37 52 -76 22 -40 43 -72 47 -72 11 0 -16 74 -41 115 -27 44 -25 52 6 18 16
-18 24 -22 20 -10 -7 24 16 22 39 -3 32 -36 28 -13 -5 28 -23 29 -30 46 -25
61 7 24 9 25 33 11z m288 -35 c7 -19 14 -42 13 -52 0 -11 -5 -6 -11 12 -6 17
-20 40 -31 53 -18 20 -19 22 -3 22 10 0 23 -14 32 -35z m1030 -36 c10 -17 -24
-9 -47 11 l-24 20 33 -11 c17 -6 35 -15 38 -20z m-527 -59 c11 -24 11 -24 -3
-6 -9 11 -16 24 -16 30 0 12 5 7 19 -24z m-1239 -25 c19 -19 28 -35 21 -35
-13 0 -61 48 -61 61 0 14 4 11 40 -26z m1217 -17 c-3 -8 -6 -5 -6 6 -1 11 2
17 5 13 3 -3 4 -12 1 -19z m-2927 -3 c0 -8 -7 -15 -15 -15 -16 0 -20 12 -8 23
11 12 23 8 23 -8z m1850 -57 c0 -13 -23 -5 -28 10 -2 7 2 10 12 6 9 -3 16 -11
16 -16z m850 -38 c0 20 19 -1 24 -27 7 -32 -25 -18 -51 22 -30 46 -29 58 2 20
14 -18 24 -24 25 -15z m-3119 -7 c13 -16 12 -17 -3 -4 -10 7 -18 15 -18 17 0
8 8 3 21 -13z m2752 -138 c-3 -9 -8 -14 -10 -11 -3 3 -2 9 2 15 9 16 15 13 8
-4z m106 -257 c60 -60 66 -85 15 -57 -32 17 -101 119 -80 119 2 0 31 -28 65
-62z m-129 -40 c0 -5 -7 -3 -15 6 -8 8 -15 18 -15 22 0 3 7 1 15 -6 8 -7 15
-17 15 -22z m-789 -28 c5 -24 -5 -50 -21 -50 -9 0 -30 46 -30 66 0 26 43 12
51 -16z m-168 -52 c15 -11 7 -13 -50 -13 -38 0 -81 -3 -98 -8 -29 -7 -30 -7
-6 7 13 7 19 15 13 17 -7 2 19 5 56 7 43 1 74 -2 85 -10z m-230 -37 c-40 -21
-81 -44 -90 -52 -16 -12 -17 -11 -3 4 17 18 139 87 155 87 6 -1 -23 -18 -62
-39z m2382 9 c3 -5 2 -10 -4 -10 -5 0 -13 5 -16 10 -3 6 -2 10 4 10 5 0 13 -4
16 -10z m105 -15 c0 -8 -4 -15 -8 -15 -5 0 -9 7 -9 15 0 8 4 15 9 15 4 0 8 -7
8 -15z m-2213 -41 c2 -7 -22 -13 -64 -17 -37 -4 -79 -9 -93 -13 -39 -10 -10
15 36 32 44 15 116 15 121 -2z m27 -49 c4 -12 -5 -15 -47 -15 -29 0 -81 -7
-116 -15 -65 -16 -84 -14 -63 7 33 33 215 51 226 23z m1031 -5 c18 -11 45 -36
59 -55 30 -38 56 -46 56 -16 0 11 5 23 12 27 8 5 9 2 5 -10 -4 -10 -7 -26 -7
-37 0 -29 -17 -23 -70 27 -27 25 -55 46 -62 48 -7 1 -19 6 -27 10 -20 13 -7
-51 17 -78 16 -20 16 -20 -1 -7 -19 15 -47 73 -47 97 0 20 27 17 65 -6z
m-1572 -12 c-6 -7 -31 -39 -56 -70 -25 -31 -65 -90 -88 -130 -45 -77 -91 -133
-124 -150 -11 -5 -4 4 16 20 19 17 57 68 84 114 51 88 89 142 139 196 29 31
48 44 29 20z m557 -33 c0 -12 -13 -15 -58 -15 -32 0 -93 -9 -136 -20 -87 -23
-105 -21 -54 6 73 39 248 59 248 29z m2240 -5 c0 -5 -5 -10 -11 -10 -5 0 -7 5
-4 10 3 6 8 10 11 10 2 0 4 -4 4 -10z m-1162 -65 c-3 -3 -9 2 -12 12 -6 14 -5
15 5 6 7 -7 10 -15 7 -18z m1176 -11 c3 -8 2 -12 -4 -9 -6 3 -10 10 -10 16 0
14 7 11 14 -7z m-2213 -46 c15 -27 7 -130 -17 -224 -17 -63 -24 -75 -90 -140
-112 -113 -286 -187 -353 -152 -18 9 -30 30 -42 70 -22 75 -50 112 -109 144
-53 29 -75 62 -86 132 -6 37 -4 42 18 53 21 9 33 7 73 -13 27 -12 52 -30 56
-38 7 -15 21 -50 23 -60 5 -19 28 -42 71 -71 46 -31 55 -33 125 -32 l75 1 35
43 c19 24 74 84 123 134 83 87 105 125 71 125 -8 0 -13 -4 -9 -9 3 -6 -3 -8
-14 -6 -11 2 -22 -3 -25 -10 -5 -14 -30 -15 -43 0 -4 4 -3 5 3 2 7 -4 15 0 18
9 3 8 2 12 -4 9 -12 -7 -13 5 -2 21 24 37 86 44 103 12z m2319 -33 c0 -23 -3
-27 -10 -15 -5 8 -10 29 -10 45 0 23 3 27 10 15 5 -8 10 -28 10 -45z m-2989 8
c-12 -20 -14 -14 -5 12 4 9 9 14 11 11 3 -2 0 -13 -6 -23z m2767 2 c-3 -3 -9
2 -12 12 -6 14 -5 15 5 6 7 -7 10 -15 7 -18z m-3008 -189 c0 -9 -95 -76 -109
-76 -21 0 -4 16 56 51 52 30 53 31 53 25z m-230 -56 c-8 -5 -24 -10 -35 -10
-17 0 -17 2 -5 10 8 5 24 10 35 10 17 0 17 -2 5 -10z m459 -49 c16 -32 40 -71
53 -87 46 -57 52 -69 19 -39 -49 45 -130 185 -106 185 3 0 18 -26 34 -59z
m2975 -203 c-15 -51 -54 -116 -78 -132 -14 -9 -26 -15 -26 -12 0 2 16 27 35
56 19 29 35 60 35 69 0 18 18 41 33 41 4 0 5 -10 1 -22z m50 13 c4 -5 3 -17 0
-26 -5 -13 -8 -14 -15 -3 -5 7 -9 19 -9 26 0 14 16 16 24 3z m-49 -92 c-22
-41 -53 -75 -61 -66 -4 4 4 18 18 32 14 14 32 40 39 57 7 17 15 26 17 20 2 -6
-4 -25 -13 -43z m-95 -102 c0 -2 -15 -16 -32 -33 l-33 -29 29 33 c28 30 36 37
36 29z m-3609 -354 c13 -16 12 -17 -3 -4 -10 7 -18 15 -18 17 0 8 8 3 21 -13z
m30 -40 c13 -16 12 -17 -3 -4 -10 7 -18 15 -18 17 0 8 8 3 21 -13z"/>
<path d="M4506 4414 c18 -27 74 -61 74 -45 0 19 -52 71 -71 71 -19 0 -19 -1
-3 -26z"/>
<path d="M4895 4032 c9 -18 19 -62 22 -97 3 -36 10 -65 14 -65 23 0 -3 139
-32 172 l-20 23 16 -33z"/>
<path d="M6580 4724 c-41 -42 -68 -74 -60 -72 18 4 158 148 144 148 -5 0 -43
-34 -84 -76z"/>
<path d="M1917 4752 c-21 -21 -35 -41 -32 -43 2 -3 -40 -46 -95 -95 -91 -81
-112 -104 -93 -104 3 0 29 21 58 48 29 26 93 80 143 121 79 63 90 76 81 92
-14 26 -20 24 -62 -19z m3 -16 c0 -2 -8 -10 -17 -17 -16 -13 -17 -12 -4 4 13
16 21 21 21 13z"/>
<path d="M1550 4623 c-176 -181 -227 -237 -193 -214 54 37 310 311 291 311 -2
0 -46 -44 -98 -97z"/>
<path d="M5532 4668 c-15 -15 -16 -38 0 -38 6 0 8 3 5 6 -3 4 -2 15 4 25 11
22 8 24 -9 7z"/>
<path d="M1802 4518 c5 -15 37 -18 41 -3 1 6 -9 12 -22 13 -16 3 -22 -1 -19
-10z"/>
<path d="M1307 4451 c-39 -38 -70 -72 -66 -75 3 -3 38 28 79 69 94 94 84 98
-13 6z"/>
<path d="M1800 4471 c0 -5 13 -8 29 -7 16 0 27 4 25 8 -7 11 -54 10 -54 -1z"/>
<path d="M5922 4197 c0 -7 -10 -45 -22 -84 -20 -67 -20 -75 -5 -95 15 -22 15
-21 11 22 -2 24 2 61 9 81 8 21 11 40 8 43 -4 3 -1 6 5 6 7 0 12 6 12 14 0 18
-16 30 -18 13z"/>
<path d="M4076 4183 c4 -16 -5 -34 -38 -69 l-43 -48 38 28 c20 16 37 32 37 37
0 5 5 8 11 7 17 -4 19 28 4 49 -13 17 -14 17 -9 -4z"/>
<path d="M5868 3975 c-6 -13 -14 -22 -19 -20 -9 6 -72 -45 -65 -53 3 -3 1 -11
-5 -18 -6 -7 -8 -18 -4 -23 8 -14 64 44 93 97 12 23 20 42 17 42 -3 0 -10 -11
-17 -25z"/>
<path d="M2180 3983 c-13 -6 -73 -57 -109 -95 -9 -9 -33 -30 -54 -46 -21 -17
-37 -34 -37 -38 1 -4 -4 -10 -11 -15 -8 -4 -11 -10 -8 -13 2 -3 31 21 63 52
33 31 62 57 65 57 11 0 72 47 67 52 -3 3 7 16 22 29 28 24 28 27 2 17z m-60
-67 c0 -2 -8 -10 -17 -17 -16 -13 -17 -12 -4 4 13 16 21 21 21 13z"/>
<path d="M2155 3671 c-3 -5 -2 -12 3 -15 5 -3 9 1 9 9 0 17 -3 19 -12 6z"/>
<path d="M1279 3653 c-13 -16 -12 -17 4 -4 9 7 17 15 17 17 0 8 -8 3 -21 -13z"/>
<path d="M2186 3625 c-9 -25 -7 -123 3 -129 11 -7 21 114 11 133 -6 10 -8 10
-14 -4z"/>
<path d="M3900 3624 c0 -9 76 -35 95 -32 11 2 -4 10 -37 19 -32 9 -58 15 -58
13z"/>
<path d="M5469 3598 c-46 -33 -74 -89 -82 -160 l-5 -48 32 0 c42 0 56 16 56
63 0 57 14 77 55 77 43 0 76 -27 157 -132 35 -44 73 -93 86 -107 l23 -26 -4
86 c-3 71 -8 94 -30 131 -48 82 -125 136 -202 142 -38 3 -53 -2 -86 -26z"/>
<path d="M3800 3591 c0 -26 7 -36 35 -52 39 -24 45 -39 14 -39 -18 0 -20 -4
-14 -32 10 -47 15 -51 34 -34 10 9 40 23 68 31 52 16 83 47 83 84 0 15 -15 24
-67 41 -38 12 -87 24 -110 27 -43 5 -43 5 -43 -26z"/>
<path d="M2193 3405 c0 -22 2 -30 4 -17 2 12 2 30 0 40 -3 9 -5 -1 -4 -23z"/>
<path d="M5225 3330 c-9 -15 4 -50 20 -50 12 0 54 -39 90 -85 14 -18 14 -17 0
13 -9 18 -13 37 -10 42 3 5 3 21 -1 35 -5 19 -9 23 -15 14 -6 -10 -13 -6 -29
14 -22 28 -44 35 -55 17z"/>
<path d="M5376 3280 c20 -98 27 -112 63 -128 20 -9 38 -16 41 -17 3 0 15 -6
26 -13 12 -6 24 -8 28 -5 3 3 6 1 6 -5 0 -15 49 -15 77 1 38 21 65 64 57 89
-5 13 -8 27 -9 32 0 6 -20 25 -44 43 l-43 33 -104 -2 -103 -3 5 -25z"/>
<path d="M4975 3180 c-7 -12 22 -107 36 -115 12 -8 11 31 -1 77 -12 40 -25 55
-35 38z"/>
<path d="M4937 3163 c-4 -3 -7 -11 -7 -17 0 -6 5 -5 12 2 6 6 9 14 7 17 -3 3
-9 2 -12 -2z"/>
<path d="M5348 3095 c2 -14 -3 -43 -12 -65 -18 -46 -21 -80 -6 -80 6 0 8 10 4
24 -4 18 2 31 24 54 17 17 33 28 38 24 4 -4 4 1 1 11 -5 13 -3 17 5 14 7 -2
12 -10 10 -16 -1 -7 2 -9 8 -6 7 4 14 -2 17 -14 6 -23 11 -25 31 -12 13 8 -25
38 -94 74 -31 16 -31 16 -26 -8z"/>
<path d="M5660 3080 c-19 -11 -31 -19 -27 -20 11 0 67 29 67 35 0 7 -1 7 -40
-15z"/>
<path d="M2546 3025 c-32 -13 -64 -29 -70 -36 -6 -6 3 -4 21 5 43 21 46 20 27
-9 -19 -29 -13 -97 16 -172 l18 -48 7 30 c11 52 38 105 52 105 11 0 11 -5 -2
-30 -9 -18 -15 -56 -15 -103 0 -71 2 -76 37 -120 21 -26 41 -43 46 -38 4 4 3
29 -4 54 -15 60 -6 82 14 34 9 -20 24 -41 34 -45 10 -4 19 -15 19 -24 1 -10 2
-37 3 -60 1 -55 12 -41 41 54 27 90 25 122 -20 261 -52 164 -99 193 -224 142z"/>
<path d="M2409 2943 c-13 -16 -12 -17 4 -4 9 7 17 15 17 17 0 8 -8 3 -21 -13z"/>
<path d="M5428 2895 c-17 -25 -40 -47 -49 -50 -19 -6 -59 10 -71 29 -4 6 -10
8 -13 4 -10 -10 34 -45 63 -51 17 -3 35 2 51 14 13 10 20 19 17 19 -4 0 7 18
24 40 17 22 27 40 21 40 -6 0 -26 -20 -43 -45z"/>
<path d="M1919 2903 l-24 -28 28 24 c25 23 32 31 24 31 -2 0 -14 -12 -28 -27z"/>
<path d="M5637 2859 c-38 -21 -87 -55 -109 -75 -56 -50 -102 -68 -162 -60 -65
7 -76 -3 -76 -71 0 -46 6 -66 36 -114 21 -36 42 -59 53 -59 27 0 95 64 116
109 10 23 22 41 27 41 5 0 7 4 4 8 -3 5 8 36 23 68 20 43 43 72 82 103 49 39
86 79 78 85 -2 1 -35 -15 -72 -35z"/>
<path d="M1869 2853 c-13 -16 -12 -17 4 -4 9 7 17 15 17 17 0 8 -8 3 -21 -13z"/>
<path d="M5714 2778 l-19 -23 23 19 c12 11 22 21 22 23 0 8 -8 2 -26 -19z"/>
<path d="M3057 2579 c-17 -15 -19 -20 -8 -28 9 -6 10 -11 2 -15 -6 -4 -11 -21
-11 -37 0 -39 27 -49 133 -49 76 -1 80 -2 57 -15 -24 -14 -24 -14 20 -14 84
-1 165 56 147 102 -7 18 -103 48 -125 40 -11 -5 -13 -3 -7 7 6 10 4 12 -7 7
-9 -3 -33 -2 -54 3 -91 19 -123 19 -147 -1z m283 -39 c8 -5 11 -10 5 -10 -5 0
-17 5 -25 10 -8 5 -10 10 -5 10 6 0 17 -5 25 -10z"/>
<path d="M2817 2559 c-9 -17 -17 -43 -17 -58 0 -38 54 -87 117 -106 79 -24 93
-48 93 -161 0 -51 4 -95 9 -98 21 -13 102 12 122 38 11 14 27 33 35 40 18 18
18 30 0 45 -8 6 -17 32 -21 58 -10 67 -13 72 -53 79 -70 11 -99 25 -133 61
-19 21 -25 31 -14 23 11 -8 7 0 -9 18 -31 33 -42 41 -30 20 10 -17 -35 19 -61
49 l-20 22 -18 -30z"/>
<path d="M5594 2558 l-19 -23 23 19 c21 18 27 26 19 26 -2 0 -12 -10 -23 -22z"/>
<path d="M5549 2523 c-13 -16 -12 -17 4 -4 16 13 21 21 13 21 -2 0 -10 -8 -17
-17z"/>
<path d="M2860 2372 c0 -13 30 -54 71 -98 53 -57 59 -54 59 22 0 39 -4 47 -32
64 -27 17 -98 25 -98 12z"/>
<path d="M7045 2360 c-10 -11 -16 -22 -13 -25 3 -3 13 6 22 20 20 30 16 32 -9
5z"/>
<path d="M2870 2267 c0 -21 7 -52 16 -69 9 -17 18 -59 21 -92 7 -93 11 -96 43
-41 20 33 30 64 30 90 0 36 -6 47 -55 95 l-55 54 0 -37z"/>
<path d="M3579 2229 c-16 -17 -29 -35 -29 -39 0 -18 -40 -19 -149 -4 -152 23
-179 17 -250 -51 -31 -29 -68 -56 -83 -60 -15 -4 -32 -13 -38 -20 -6 -7 -11
-72 -12 -149 -1 -75 -5 -136 -9 -136 -3 0 -14 19 -24 43 l-17 42 -10 -40 c-16
-71 20 -233 72 -320 l30 -50 -7 65 c-8 86 -8 131 2 210 13 106 53 162 123 174
32 5 53 17 85 49 23 24 59 54 79 66 49 29 139 43 208 32 46 -7 61 -6 92 10 21
10 44 19 53 19 26 0 75 -29 75 -45 0 -21 17 -18 30 5 12 22 10 101 -2 93 -5
-2 -8 2 -8 9 0 40 -113 128 -164 128 -10 0 -31 -14 -47 -31z"/>
<path d="M6929 2166 c-59 -50 -104 -94 -102 -99 2 -4 9 -4 15 -1 7 4 8 2 4 -5
-4 -6 -12 -9 -17 -6 -5 4 -19 -1 -31 -9 -12 -9 -18 -16 -12 -16 5 0 15 5 22
12 6 6 14 9 18 6 3 -3 -7 -14 -22 -25 -27 -18 -45 -36 -117 -110 -64 -67 -31
-50 48 25 39 37 111 102 159 146 56 50 85 84 82 93 -3 8 -2 12 3 9 4 -3 22 10
40 28 18 19 29 36 24 39 -4 2 -56 -37 -114 -87z"/>
<path d="M5241 2029 c-14 -21 -27 -37 -29 -34 -2 2 -28 -16 -58 -40 -29 -24
-63 -49 -74 -55 -19 -10 -20 -9 -14 15 l7 27 -34 -17 -34 -18 28 28 c15 15 27
31 27 35 0 10 -76 -5 -146 -29 -59 -21 -224 -125 -224 -142 0 -4 -25 -20 -55
-34 -30 -15 -55 -31 -55 -37 0 -6 -11 -8 -28 -5 -20 4 -37 -2 -67 -24 -37 -28
-38 -30 -12 -25 15 2 27 3 27 1 0 -6 -90 -51 -120 -60 -14 -4 -38 -13 -55 -21
-16 -7 -46 -18 -65 -23 l-35 -10 38 3 c20 2 37 0 37 -5 0 -5 -7 -9 -16 -9 -8
0 -12 -4 -9 -10 6 -11 -9 -18 -90 -43 -27 -9 -88 -31 -135 -50 -57 -23 -110
-37 -160 -42 -41 -3 -90 -11 -108 -17 -57 -17 -222 -9 -270 14 -17 9 -29 8
-55 -6 -17 -9 -24 -14 -14 -11 17 4 16 2 -3 -25 -11 -16 -33 -42 -48 -57 -49
-49 -104 -141 -109 -184 l-6 -41 43 31 c76 55 95 33 33 -39 -21 -24 -32 -41
-25 -36 38 23 -3 -27 -121 -145 -73 -74 -157 -161 -187 -194 -46 -49 -37 -43
50 35 105 93 211 170 236 170 7 0 28 13 46 29 18 15 44 34 57 41 49 25 -47
-75 -299 -315 -137 -130 -256 -247 -264 -260 -19 -29 -20 -45 -3 -45 25 0 198
148 362 310 243 240 228 229 343 252 168 33 447 23 545 -20 69 -31 134 -97
174 -177 19 -38 44 -80 56 -93 11 -12 15 -22 9 -22 -10 0 -95 -98 -142 -163
-14 -19 -14 -20 10 -7 32 17 130 110 130 123 0 6 -19 -7 -42 -28 l-42 -40 43
53 c45 54 67 67 56 31 -6 -18 -5 -19 13 -10 18 9 25 6 49 -18 15 -16 53 -50
83 -77 30 -26 64 -60 76 -76 11 -15 23 -25 26 -22 8 7 68 -77 62 -88 -3 -4 0
-8 7 -8 7 0 9 -3 6 -7 -4 -3 11 -25 32 -49 50 -53 84 -119 76 -145 -8 -24 -31
-19 -87 17 -21 14 -38 19 -40 13 -9 -28 -180 161 -273 303 l-34 52 -16 -40
c-9 -21 -23 -52 -32 -69 -16 -28 -16 -29 0 -16 62 50 -46 -127 -114 -187 -44
-39 -109 -121 -109 -136 0 -3 18 -6 41 -6 32 0 51 8 95 42 35 28 49 44 39 46
-20 4 -19 10 5 50 11 18 18 37 15 42 -5 8 34 105 40 98 7 -7 -34 -211 -44
-221 -6 -6 -11 -21 -11 -34 l0 -23 692 0 692 0 25 23 26 22 -19 -22 -19 -23
310 0 311 0 6 22 c3 13 5 43 5 68 l-1 45 -12 -53 c-13 -52 -22 -70 -31 -61 -2
3 -1 50 4 105 5 54 6 113 4 130 -5 34 12 78 27 69 4 -3 11 1 14 7 3 7 4 -14 1
-47 -4 -61 8 -166 28 -242 10 -38 15 -43 39 -43 24 0 28 4 28 30 0 17 5 30 10
30 6 0 10 -13 10 -30 0 -23 5 -30 19 -30 17 0 18 9 14 143 -2 78 -8 188 -15
244 -6 56 -8 110 -4 120 6 14 5 16 -5 6 -14 -14 -28 -114 -28 -205 -1 -31 -6
-60 -12 -64 -8 -5 -10 3 -7 24 2 17 1 29 -4 26 -4 -3 -8 4 -8 15 0 10 -5 21
-10 23 -7 2 -4 44 9 118 29 170 39 208 66 254 30 52 113 121 163 136 91 28
110 41 77 54 -17 6 -65 -13 -65 -26 0 -5 -4 -6 -10 -3 -26 16 71 95 116 95 16
0 16 -2 -4 -16 -33 -23 -27 -34 18 -34 35 0 40 -3 40 -23 0 -22 -43 -71 -85
-96 -17 -11 -14 -12 20 -7 27 4 44 1 56 -10 16 -14 21 -11 63 30 25 25 52 46
59 46 8 0 43 30 78 68 71 73 123 120 118 104 -2 -6 -25 -33 -51 -60 -26 -27
-44 -53 -40 -57 4 -5 1 -4 -7 0 -11 6 -13 4 -8 -8 3 -9 2 -19 -3 -22 -6 -4
-10 -17 -10 -30 0 -19 4 -23 17 -18 14 6 14 2 -3 -26 -37 -63 -107 -109 -132
-89 -11 10 -16 8 -24 -5 -5 -10 -13 -15 -18 -12 -12 7 -61 -25 -55 -35 3 -5
-1 -11 -7 -13 -9 -4 -10 -6 -1 -6 6 -1 18 8 26 19 8 11 17 17 22 12 5 -4 5 -1
0 7 -5 9 -4 12 4 10 15 -5 15 -6 6 -42 -10 -36 0 -45 25 -22 11 10 20 14 20
10 0 -5 8 0 19 11 26 27 61 55 61 49 0 -8 20 9 95 82 36 34 65 58 65 55 0 -12
-92 -118 -130 -150 -19 -16 -49 -36 -65 -45 -43 -21 -70 -53 -54 -63 8 -4 10
-3 5 4 -4 7 -2 12 3 12 15 0 13 -8 -17 -65 -29 -54 -58 -68 -78 -40 -12 16
-14 15 -20 -11 -5 -18 -3 -29 5 -32 9 -3 9 -7 0 -19 -10 -12 -10 -16 1 -23 8
-5 18 -6 24 -3 5 3 6 1 3 -4 -13 -20 21 -22 60 -3 l38 20 -28 -25 c-15 -13
-46 -29 -68 -35 -30 -8 -39 -15 -35 -26 3 -9 1 -12 -4 -9 -6 3 -10 -3 -10 -14
0 -20 24 -29 34 -13 2 4 24 9 48 11 23 1 50 9 59 17 23 21 31 17 18 -8 -14
-27 -104 -168 -161 -251 l-39 -57 253 0 253 0 23 35 22 35 0 575 c0 316 -3
575 -6 575 -3 0 -31 -22 -61 -49 -51 -46 -160 -112 -192 -117 -21 -4 84 105
198 204 l61 53 0 67 -1 67 -20 -24 c-12 -15 -18 -33 -15 -44 8 -31 -19 -73
-75 -117 -28 -22 -105 -91 -171 -153 -131 -123 -165 -145 -201 -125 -12 7 -32
11 -45 9 -18 -2 -23 2 -20 17 2 10 -4 27 -12 37 -13 16 -11 21 30 57 25 21 68
52 97 68 28 16 64 45 80 65 15 19 45 47 66 62 21 15 37 34 37 45 0 18 -1 18
-16 4 -8 -9 -26 -19 -40 -22 -13 -3 -24 -11 -24 -17 0 -6 -3 -7 -6 -4 -4 4
-24 -8 -44 -26 -49 -43 -92 -73 -98 -69 -3 2 -8 0 -11 -6 -3 -5 -36 -30 -72
-55 -37 -25 -94 -75 -128 -111 -34 -35 -75 -69 -90 -76 -16 -6 -38 -24 -50
-40 -11 -16 -31 -34 -44 -40 -16 -8 -13 -3 11 19 34 32 31 44 -4 14 -48 -44
-196 -153 -207 -153 -4 0 -19 -12 -32 -27 -13 -16 -25 -23 -25 -17 0 5 16 26
37 45 20 18 32 27 28 19 -5 -8 -4 -11 0 -7 14 12 15 37 2 37 -7 1 -1 7 13 14
l25 14 -27 -1 c-14 -1 -26 -6 -25 -11 1 -6 -7 -12 -18 -14 -11 -2 -44 -24 -73
-49 -69 -59 -78 -49 -11 13 50 48 104 115 81 100 -22 -14 -12 20 13 44 34 32
22 43 -21 20 -19 -11 -42 -20 -52 -21 -22 0 -128 -148 -125 -174 3 -27 -65
-103 -97 -109 -31 -5 -81 -27 -98 -43 -7 -7 -33 -27 -57 -44 -25 -18 -45 -37
-45 -43 0 -6 -21 -31 -45 -55 -25 -25 -45 -51 -45 -57 0 -7 -32 -41 -72 -76
-112 -98 -159 -148 -210 -221 -26 -37 -53 -67 -59 -67 -6 0 0 15 14 34 26 34
26 56 0 34 -9 -7 -17 -8 -23 -2 -7 7 0 26 19 55 21 33 26 50 19 62 -6 11 -4
24 7 41 12 18 13 26 4 31 -8 6 -8 10 2 17 25 17 -34 -3 -67 -23 -18 -11 -38
-17 -45 -14 -24 9 -39 54 -28 83 l9 27 -24 -27 c-14 -16 -30 -28 -36 -28 -5 0
-10 -4 -10 -10 0 -18 -18 -11 -25 10 -3 11 -13 20 -21 20 -8 0 -14 7 -14 15 0
9 -11 19 -23 24 -37 14 -79 70 -73 96 5 21 1 23 -56 29 -44 5 -70 15 -91 32
-16 13 -35 24 -43 24 -31 0 -153 70 -160 92 -7 20 -7 97 1 153 1 11 3 25 4 30
2 14 31 -44 31 -61 0 -8 5 -14 10 -14 14 0 13 5 -10 85 -11 38 -20 89 -20 112
0 23 -4 44 -9 47 -4 3 -9 35 -10 71 -2 77 1 82 119 177 41 33 150 130 242 215
167 154 168 155 162 192 -6 38 18 83 94 179 32 40 136 222 130 227 -2 2 -14
-14 -27 -36z m-41 -71 c-15 -29 -61 -78 -72 -78 -5 0 10 24 34 54 45 55 58 64
38 24z m-476 -235 c-10 -8 -37 -23 -59 -34 l-40 -20 25 22 c14 12 24 29 22 38
-2 14 -1 14 7 1 9 -13 12 -13 27 2 10 9 22 14 27 11 6 -3 2 -12 -9 -20z m-169
-93 c-3 -5 -11 -10 -16 -10 -6 0 -7 5 -4 10 3 6 11 10 16 10 6 0 7 -4 4 -10z
m-1091 -676 c-60 -70 -234 -234 -248 -234 -6 0 56 67 139 150 82 82 151 147
153 145 2 -2 -18 -30 -44 -61z m3142 14 c4 -7 3 -8 -4 -4 -7 4 -12 3 -12 -3 0
-11 -67 -27 -76 -18 -8 7 46 36 68 37 9 0 20 -5 24 -12z m-696 -375 c-39 -68
-276 -303 -306 -303 -11 0 -14 5 -10 16 4 10 -1 22 -10 29 -15 10 -7 19 62 66
43 30 103 80 133 111 56 56 129 116 144 117 5 1 -1 -16 -13 -36z m150 -26
c-330 -313 -429 -396 -466 -389 -6 1 -18 -6 -25 -15 -13 -17 -13 -17 6 -3 11
8 4 -3 -14 -23 -19 -20 -40 -37 -45 -37 -6 0 3 11 19 25 17 13 25 24 19 25 -6
0 -19 -10 -30 -21 -23 -27 -94 -79 -106 -79 -14 0 49 64 192 193 74 67 157
143 184 169 27 26 69 57 94 69 25 12 71 44 104 72 114 94 163 105 68 14z
m-326 -39 c-49 -45 -129 -123 -179 -173 -79 -80 -147 -136 -195 -159 -8 -4 10
14 40 41 92 82 151 144 148 155 -2 6 14 28 36 47 23 20 71 64 109 98 37 35 76
63 87 63 10 0 22 5 25 11 4 6 10 8 13 5 3 -3 -35 -43 -84 -88z m-404 -418
c-13 -11 -25 -20 -28 -20 -3 0 3 9 13 20 10 11 23 20 28 20 6 0 0 -9 -13 -20z
m1735 -65 c-40 -34 -65 -44 -65 -25 0 5 7 6 17 3 12 -5 14 -3 8 8 -4 8 -5 11
-1 8 4 -4 20 7 37 23 16 17 33 27 36 24 4 -4 -11 -22 -32 -41z"/>
<path d="M6905 2030 c-4 -6 -33 -33 -66 -60 -40 -33 -55 -51 -46 -57 6 -4 70
-8 140 -9 138 -1 165 -10 122 -38 -33 -22 -90 -32 -99 -18 -4 7 -21 6 -52 -5
-40 -14 -50 -14 -78 -2 -26 12 -68 15 -122 10 -16 -1 -26 -30 -17 -44 4 -7 9
-23 11 -37 2 -14 12 -33 23 -43 10 -10 19 -21 19 -25 0 -4 14 -16 31 -26 25
-15 29 -23 25 -42 l-7 -25 33 17 c18 9 49 28 68 43 19 14 60 40 92 56 31 17
93 57 137 90 l80 60 0 57 c1 54 0 56 -30 67 -18 6 -51 11 -75 11 -24 0 -69 7
-101 15 -68 18 -80 18 -88 5z"/>
<path d="M6654 1998 l-19 -23 23 19 c21 18 27 26 19 26 -2 0 -12 -10 -23 -22z"/>
<path d="M3475 1900 c-3 -6 1 -7 9 -4 18 7 21 14 7 14 -6 0 -13 -4 -16 -10z"/>
<path d="M6574 1891 c3 -5 -6 -21 -19 -35 -14 -15 -25 -31 -25 -36 0 -5 -17
-18 -37 -29 -30 -15 -35 -21 -21 -26 10 -4 14 -13 11 -23 -21 -57 -151 -213
-216 -260 -36 -25 -95 -113 -90 -132 1 -3 -7 -16 -17 -30 l-18 -24 5 26 c3 14
0 29 -6 32 -8 5 -6 18 4 43 23 54 17 62 -16 23 -32 -37 -59 -113 -59 -165 0
-17 -6 -54 -14 -81 -8 -27 -16 -81 -18 -120 l-4 -72 64 59 c36 32 68 57 72 54
6 -4 150 62 150 68 0 2 -16 1 -35 -1 -51 -6 -45 16 15 56 28 17 50 39 50 48 0
11 -4 14 -12 7 -16 -12 -68 -34 -68 -29 0 14 108 69 147 76 l48 9 -61 -2 c-61
-2 -61 -2 -47 20 8 12 35 38 59 58 33 27 42 40 34 49 -5 7 -7 16 -3 19 3 4 1
13 -6 20 -6 8 -9 22 -5 31 5 14 0 14 -41 -4 -52 -22 -52 -20 -3 36 10 11 21
31 23 44 5 26 20 44 119 147 47 48 70 80 71 97 0 17 -5 26 -15 26 -12 0 -12 2
-2 9 11 7 10 9 -3 14 -9 4 -14 3 -11 -2z"/>
<path d="M3285 1880 c-3 -5 1 -10 9 -10 9 0 16 5 16 10 0 6 -4 10 -9 10 -6 0
-13 -4 -16 -10z"/>
<path d="M3327 1868 c2 -5 -15 -8 -39 -8 -54 0 -137 -40 -173 -82 -33 -39 -32
-80 4 -154 32 -65 50 -84 99 -104 34 -13 47 -46 13 -35 -15 5 -18 1 -13 -21 5
-26 6 -26 18 -9 12 16 14 17 14 2 0 -9 -17 -30 -37 -46 -21 -17 -51 -48 -68
-68 -58 -74 113 89 216 205 55 62 110 117 122 122 12 4 37 14 55 20 41 16 49
46 26 107 -27 76 -32 78 -143 78 -55 0 -97 -3 -94 -7z"/>
<path d="M7165 1783 c-29 -24 -29 -24 -5 -18 30 9 43 20 39 33 -2 6 -17 -1
-34 -15z"/>
<path d="M6313 1727 c-21 -18 -60 -50 -87 -72 -73 -58 -162 -142 -196 -186
-27 -33 -29 -38 -11 -36 11 0 19 6 18 11 -1 5 6 12 15 14 13 2 16 -1 11 -14
-4 -10 -2 -15 5 -13 21 7 321 312 316 320 -10 17 -34 9 -71 -24z"/>
<path d="M6430 1720 c-18 -23 -30 -43 -28 -45 3 -3 19 13 37 36 18 22 31 42
28 45 -2 3 -19 -13 -37 -36z"/>
<path d="M3367 1394 c-15 -8 -32 -12 -37 -9 -6 3 -10 -2 -10 -12 0 -10 -3 -35
-6 -55 -8 -49 12 -46 71 12 36 35 42 47 34 62 -12 22 -16 22 -52 2z"/>
<path d="M4612 1191 c-33 -32 -61 -70 -64 -85 -6 -32 5 -34 19 -3 11 21 44 65
91 115 22 25 26 32 18 32 -3 0 -31 -26 -64 -59z"/>
<path d="M6430 1151 c-19 -16 -32 -32 -29 -35 3 -3 21 10 39 29 41 43 36 45
-10 6z"/>
<path d="M3483 875 c0 -11 4 -12 14 -4 7 6 13 13 13 15 0 2 -6 4 -13 4 -8 0
-14 -7 -14 -15z"/>
<path d="M6681 713 c-31 -25 -35 -25 -46 -9 -11 15 -16 12 -49 -32 -56 -77
-76 -129 -75 -197 l1 -60 14 69 c16 80 49 136 102 170 33 21 102 86 91 86 -2
0 -19 -12 -38 -27z"/>
<path d="M6520 708 c0 -19 2 -20 10 -8 13 19 13 30 0 30 -5 0 -10 -10 -10 -22z"/>
<path d="M4561 660 c-1 -18 16 -46 23 -40 2 3 -2 16 -9 30 -8 15 -14 19 -14
10z"/>
<path d="M3943 549 c-66 -59 -91 -89 -77 -89 11 0 134 111 145 131 16 30 4 23
-68 -42z"/>
<path d="M4085 574 c-22 -19 -73 -55 -113 -80 -50 -32 -91 -69 -132 -120 -67
-83 -77 -105 -25 -54 42 41 65 47 58 16 -3 -12 50 35 131 119 74 77 135 143
136 148 0 14 -15 6 -55 -29z"/>
<path d="M4267 582 c-7 -18 -17 -29 -22 -25 -4 5 -5 2 0 -6 6 -10 13 -7 33 13
20 20 24 28 14 38 -9 9 -15 4 -25 -20z"/>
<path d="M4093 515 c-15 -13 -23 -25 -17 -25 6 0 21 11 34 25 30 32 19 32 -17
0z"/>
<path d="M5590 489 c0 -5 5 -7 10 -4 6 3 10 8 10 11 0 2 -4 4 -10 4 -5 0 -10
-5 -10 -11z"/>
<path d="M4014 316 c-38 -35 -125 -115 -193 -178 -119 -109 -169 -167 -104
-120 67 48 389 362 371 362 -3 0 -36 -29 -74 -64z"/>
<path d="M5354 288 l-29 -33 33 29 c17 17 32 31 32 33 0 8 -8 1 -36 -29z"/>
<path d="M6687 145 c-13 -18 -14 -25 -5 -25 17 0 47 20 31 20 -7 0 -10 7 -7
15 9 22 2 18 -19 -10z"/>
<path d="M4680 122 c0 -10 33 -42 43 -42 12 0 8 21 -7 36 -16 15 -36 19 -36 6z"/>
<path d="M6650 95 c-7 -9 -10 -18 -6 -22 3 -3 6 0 6 8 0 12 2 11 11 -1 9 -13
10 -13 6 2 -3 9 -1 19 6 22 8 3 8 5 1 5 -6 1 -17 -6 -24 -14z"/>
<path d="M6492 20 c0 -14 2 -19 5 -12 2 6 2 18 0 25 -3 6 -5 1 -5 -13z"/>
<path d="M4215 10 c-3 -5 1 -10 9 -10 9 0 16 5 16 10 0 6 -4 10 -9 10 -6 0
-13 -4 -16 -10z"/>
</g>
</svg>
