<?xml version="1.0" standalone="no"?>
<!DOCTYPE svg PUBLIC "-//W3C//DTD SVG 20010904//EN"
 "http://www.w3.org/TR/2001/REC-SVG-20010904/DTD/svg10.dtd">
<svg version="1.0" xmlns="http://www.w3.org/2000/svg"
 width="729.000000pt" height="479.000000pt" viewBox="0 0 729.000000 479.000000"
 preserveAspectRatio="xMidYMid meet">

<g transform="translate(0.000000,479.000000) scale(0.100000,-0.100000)"
fill="#000000" stroke="none">
<path d="M0 4775 c0 -8 2 -15 4 -15 2 0 6 7 10 15 3 8 1 15 -4 15 -6 0 -10 -7
-10 -15z"/>
<path d="M134 4747 c-17 -23 -36 -41 -41 -40 -6 1 -16 -11 -23 -28 l-13 -30
-28 27 -29 28 0 -39 c0 -25 7 -46 21 -61 17 -18 19 -26 10 -43 -7 -12 -16 -21
-21 -21 -6 0 -10 -20 -10 -45 0 -43 1 -45 20 -35 18 9 20 8 20 -15 0 -14 -4
-25 -10 -25 -5 0 -7 -6 -5 -12 8 -20 13 -195 14 -425 1 -205 2 -213 21 -213
17 0 18 4 10 25 -7 19 -6 25 4 25 9 0 12 -7 9 -20 -3 -13 0 -20 8 -20 11 0 11
-2 2 -8 -9 -6 -5 -16 13 -37 l26 -30 -7 28 c-6 21 -4 27 8 27 9 0 22 -6 29
-13 7 -7 26 -18 41 -25 25 -11 28 -17 25 -50 -3 -36 -4 -37 -39 -36 l-36 1 23
-41 c13 -23 33 -43 46 -46 17 -4 26 -17 33 -48 6 -25 28 -63 53 -92 23 -27 42
-51 42 -53 0 -3 -16 -17 -35 -31 l-34 -27 -31 65 c-16 36 -30 74 -30 86 0 11
-6 20 -14 20 -19 0 -14 -24 18 -92 33 -70 33 -103 2 -123 -24 -16 -93 -115
-117 -167 -18 -41 -26 -35 -34 25 -3 28 -21 131 -40 227 l-33 175 -1 -275 c0
-205 3 -283 13 -305 9 -21 10 -37 3 -55 -5 -14 -11 -142 -12 -285 -2 -143 -1
-244 1 -225 2 19 7 46 11 60 l6 25 7 -30 c14 -55 10 -248 -6 -355 -20 -130
-29 -384 -13 -374 8 4 8 0 0 -14 -8 -14 -11 -164 -10 -484 1 -259 5 -441 9
-413 5 28 7 79 5 115 -2 47 -1 54 4 25 6 -38 7 -35 20 44 22 147 153 572 159
520 2 -15 -9 -60 -23 -100 -60 -169 -107 -354 -110 -434 -5 -104 -33 -254 -56
-297 -5 -10 -9 -103 -9 -208 l0 -190 40 -6 c23 -4 37 -11 33 -17 -3 -5 -6 -26
-7 -45 -1 -25 -6 -36 -19 -38 -9 -1 -15 1 -12 6 2 4 -4 15 -15 25 -20 18 -20
17 -20 -83 0 -56 2 -102 4 -102 3 0 17 12 33 28 16 15 57 50 90 77 60 50 103
109 103 141 0 15 2 15 26 -1 24 -16 27 -16 46 2 11 9 26 33 34 51 10 25 19 33
35 30 18 -2 31 12 71 82 61 106 74 117 104 89 12 -12 20 -27 17 -35 -3 -8 0
-14 6 -14 20 0 11 -35 -13 -52 -23 -17 -24 -17 -30 14 -3 17 -6 42 -6 57 l0
26 -20 -25 c-22 -28 -89 -156 -111 -210 -7 -19 -21 -42 -30 -51 -9 -9 -18 -22
-20 -28 -3 -7 -11 -13 -19 -15 -8 -2 -23 -7 -33 -11 -28 -12 -43 9 -29 40 8
16 8 25 1 25 -6 0 -7 6 -3 13 4 7 3 8 -2 4 -5 -5 -9 -14 -9 -20 -1 -32 -38
-127 -65 -167 l-30 -45 171 -3 170 -2 120 102 c161 138 256 192 298 168 14 -7
14 -9 1 -13 -108 -33 -125 -44 -264 -164 l-106 -93 135 0 135 0 0 34 c0 22 6
36 16 40 24 9 34 -2 34 -40 0 -30 3 -34 25 -34 16 0 25 6 25 16 0 11 5 14 18
9 54 -21 165 -12 170 15 3 18 -41 40 -69 35 -11 -2 -17 0 -14 6 4 5 11 6 17 3
6 -4 9 -1 6 7 -13 40 204 72 482 72 152 -1 322 -43 505 -127 66 -31 89 -36
134 -34 l55 3 -64 42 c-36 23 -96 58 -135 78 -38 21 -69 42 -67 47 1 6 -2 16
-9 24 -9 10 -7 23 5 54 12 31 13 42 4 45 -27 9 -100 25 -263 60 -93 20 -178
38 -187 41 -10 3 -19 -2 -23 -16 -3 -11 -13 -20 -21 -20 -8 0 -22 -9 -31 -20
-14 -16 -30 -20 -88 -21 -38 0 -96 -4 -129 -8 -40 -5 -59 -4 -62 4 -6 15 39
140 85 238 21 42 34 77 31 77 -8 0 -52 -96 -100 -215 -34 -84 -56 -115 -83
-119 -10 -1 -23 -9 -29 -17 -7 -8 -12 -13 -11 -11 1 2 -7 22 -18 45 -10 23
-19 54 -19 70 0 21 -5 27 -21 27 -18 0 -19 2 -9 15 16 19 9 19 -37 0 -20 -8
-38 -13 -41 -11 -2 3 -17 -1 -33 -9 -15 -8 -36 -15 -45 -15 -15 0 -12 6 12 33
16 18 8 12 -17 -14 -32 -32 -53 -46 -70 -45 -22 2 -119 -22 -161 -39 -39 -15
-13 17 112 144 118 119 134 131 168 133 35 1 35 1 6 5 l-32 4 54 51 53 50 113
9 c62 5 158 6 212 3 66 -5 97 -3 93 3 -4 7 21 5 66 -3 90 -17 112 -17 67 3
-19 8 -40 21 -46 29 -15 19 -172 74 -324 113 -63 17 -114 35 -113 40 2 6 -4 8
-12 5 -9 -4 -15 0 -15 9 0 9 -7 20 -16 25 -22 12 -11 44 23 64 33 19 112 16
222 -7 47 -10 78 -12 85 -6 19 16 71 18 68 2 -2 -9 3 -11 15 -7 14 6 15 5 6
-5 -10 -10 -5 -15 24 -25 27 -9 41 -10 50 -2 7 5 26 8 41 6 l28 -4 -24 43
c-28 50 -24 88 14 123 19 19 24 33 24 72 0 31 -4 48 -12 49 -7 0 -4 4 7 9 31
13 35 12 35 -15 0 -19 5 -25 23 -26 16 -1 18 -2 5 -6 -10 -2 -18 -13 -18 -23
0 -28 -11 -50 -24 -50 -15 0 -34 -37 -34 -68 -1 -33 47 -132 64 -132 20 0 18
17 -3 29 -14 7 -5 10 34 9 46 0 52 -2 58 -25 3 -14 4 -28 1 -31 -3 -3 59 -31
139 -63 80 -32 212 -93 293 -134 148 -76 163 -82 63 -22 -74 44 -78 62 -8 38
29 -10 69 -26 88 -36 l34 -16 -32 26 c-32 26 -35 39 -18 78 10 23 -26 63 -63
72 -15 3 -49 17 -77 30 -27 13 -67 31 -87 39 -21 8 -38 20 -38 25 0 12 3 11
135 -40 127 -50 180 -82 235 -143 39 -42 45 -54 46 -98 l2 -50 89 -57 c111
-72 213 -169 213 -203 0 -17 9 -29 30 -39 73 -35 423 -253 465 -289 l46 -40
235 0 c201 0 234 2 234 15 0 8 5 15 10 15 6 0 13 -7 16 -15 5 -12 31 -15 145
-15 l138 0 -18 33 c-35 59 -73 168 -68 193 3 18 1 22 -8 14 -25 -21 -22 4 8
68 16 37 32 69 33 71 2 2 17 -1 33 -7 19 -7 31 -7 31 -1 0 5 7 9 15 9 33 0 10
-95 -41 -171 -31 -46 -32 -50 -10 -36 22 15 25 15 30 1 10 -25 23 -7 31 42 8
53 55 163 78 183 9 7 14 17 11 22 -3 5 0 9 6 9 6 0 9 4 6 8 -2 4 0 14 5 22 7
11 9 6 7 -19 -2 -26 2 -37 21 -49 22 -15 23 -15 18 3 -17 53 -30 328 -18 387
1 8 37 16 130 27 59 8 79 7 94 -4 12 -8 32 -12 48 -8 27 5 29 3 29 -26 0 -27
-5 -33 -40 -47 l-41 -17 7 -46 c8 -59 28 -98 54 -106 19 -6 20 -15 20 -121 0
-64 5 -124 11 -135 8 -16 7 -26 -7 -46 -15 -24 -15 -27 0 -38 13 -10 16 -31
16 -114 l0 -101 34 0 33 0 7 182 c11 337 16 387 38 394 28 9 50 48 46 85 -2
26 -11 36 -40 52 -24 12 -38 26 -38 38 0 10 -4 19 -9 19 -22 0 5 44 48 77 25
20 61 51 79 67 28 26 34 28 42 16 9 -13 11 -13 20 0 5 8 8 21 5 28 -8 22 76
165 89 151 4 -4 9 -209 6 -249 -1 -14 -4 -19 -7 -12 -2 7 -13 17 -24 23 -14 7
-11 -2 13 -35 17 -25 28 -49 24 -53 -13 -14 -58 21 -80 62 -11 22 -22 42 -23
44 -2 2 -9 -2 -18 -9 -17 -14 -4 -50 18 -50 7 0 21 -14 31 -31 10 -17 29 -35
42 -41 14 -6 21 -14 16 -17 -5 -3 -12 -102 -15 -219 -5 -184 -4 -213 9 -208
12 5 12 0 -1 -31 -11 -25 -15 -72 -15 -159 l0 -124 37 0 36 0 -6 169 -5 168
34 16 34 17 1 112 c1 62 4 232 8 378 l6 265 33 3 32 3 0 105 c0 75 -3 104 -12
104 -24 0 -148 -140 -212 -237 -62 -96 -102 -144 -158 -190 -14 -12 -29 -19
-32 -16 -3 4 -6 1 -6 -6 0 -19 -64 -41 -123 -42 -60 -2 -127 16 -127 34 0 29
13 57 26 57 8 0 14 5 14 11 0 5 -4 7 -10 4 -5 -3 -7 0 -4 9 3 8 -3 19 -14 25
-14 8 -21 8 -24 0 -6 -17 -38 2 -44 26 -7 30 4 67 18 59 6 -4 8 -3 5 3 -3 5 5
32 19 61 17 36 23 60 18 79 -9 37 -72 92 -105 93 -15 0 -29 6 -32 14 -5 11
-14 12 -46 4 -38 -10 -45 -7 -166 56 -140 73 -280 163 -363 234 -51 43 -142
158 -142 179 0 5 11 24 25 43 30 40 31 48 8 46 -10 0 -19 7 -21 17 -2 10 3 17
12 17 19 0 19 3 5 54 -6 21 -22 49 -35 61 -24 22 -24 24 -13 101 12 95 73 362
95 422 10 27 20 40 27 35 9 -5 9 -3 0 8 -9 12 -9 25 2 59 7 25 14 39 14 32 1
-7 5 -10 11 -7 17 10 -12 44 -56 65 -22 11 -42 20 -45 20 -3 0 -4 -17 -2 -37
3 -40 -1 -36 -11 9 -4 15 -14 32 -24 37 -15 8 -17 2 -18 -58 -1 -73 -20 -167
-37 -178 -6 -3 -7 -1 -3 5 12 19 25 165 19 209 -3 23 -11 44 -17 46 -6 3 -35
14 -64 26 l-53 21 7 -22 c6 -20 5 -20 -17 5 -17 19 -49 34 -109 51 -47 14 -93
28 -103 31 -14 6 -16 3 -10 -11 4 -13 -2 -11 -20 9 -22 23 -30 26 -46 17 -24
-12 -34 -13 -26 -1 3 5 -3 12 -12 15 -20 6 -49 46 -34 46 6 0 13 -4 16 -10 3
-5 12 -10 20 -10 16 0 -281 420 -298 420 -7 1 -30 23 -51 50 -21 27 -42 47
-46 45 -4 -3 -27 10 -51 27 -32 24 -40 33 -27 36 9 2 27 -2 39 -8 16 -9 11 3
-22 49 -24 33 -54 75 -66 92 -17 23 -23 46 -23 84 0 81 -3 82 -193 56 -89 -12
-171 -23 -181 -24 -10 -1 -21 4 -23 11 -3 6 1 12 9 12 7 0 83 9 168 20 206 27
223 26 273 -8 76 -51 370 -215 389 -217 8 0 23 -15 23 -23 0 -4 8 -18 16 -32
9 -14 47 -81 84 -150 84 -155 215 -380 222 -380 7 0 -172 325 -195 353 -7 8
-9 17 -5 20 3 4 1 7 -6 7 -7 0 -9 5 -6 10 3 6 1 10 -6 10 -7 0 -9 3 -6 6 4 4
-2 19 -13 34 -11 16 -20 33 -20 38 0 22 22 23 43 4 12 -12 27 -20 32 -19 6 1
11 -9 13 -23 5 -41 23 -90 33 -90 4 0 18 -17 29 -37 19 -35 20 -24 2 27 -3 8
-2 12 3 8 15 -14 105 -210 90 -198 -16 14 -45 7 -45 -11 0 -6 6 -9 14 -6 15 6
30 -18 21 -33 -3 -5 17 -48 45 -96 28 -48 49 -92 47 -98 -2 -6 -14 6 -27 27
-35 59 -35 43 1 -20 41 -74 46 -79 91 -91 l38 -10 -20 39 c-11 21 -19 42 -18
47 2 5 -17 49 -42 100 -33 66 -49 90 -60 86 -11 -4 -12 -2 -4 6 8 8 3 27 -18
68 -15 31 -32 63 -38 70 -6 6 -8 12 -5 12 3 0 -6 20 -20 43 -14 24 -22 47 -18
50 3 4 1 7 -5 7 -7 0 -11 3 -11 8 3 19 -2 33 -10 28 -5 -3 -12 1 -15 10 -3 8
-2 12 4 9 6 -3 7 1 4 9 -3 9 -11 13 -17 9 -6 -3 -7 -1 -3 5 10 16 -12 54 -26
46 -8 -5 -9 -1 -5 10 5 11 3 15 -4 10 -7 -4 -10 -1 -7 7 5 14 -38 98 -57 111
-5 4 -10 16 -11 26 -4 66 -253 347 -307 347 -7 0 -10 17 -9 45 3 35 11 53 37
80 61 65 124 160 118 177 -4 9 -2 14 3 11 5 -3 10 34 10 88 2 72 6 97 18 110
10 9 19 14 22 11 10 -10 6 -165 -6 -220 -11 -57 -62 -150 -108 -202 -25 -27
-25 -28 -2 -10 22 18 35 32 91 98 17 19 17 18 -1 -15 -28 -49 -99 -113 -112
-100 -6 6 8 34 40 78 27 38 53 80 57 94 4 14 -23 -16 -60 -67 -37 -50 -67 -95
-67 -100 0 -4 -4 -15 -9 -25 -7 -13 4 -27 54 -67 34 -28 81 -73 105 -100 30
-35 48 -49 60 -45 11 4 13 3 5 -3 -8 -6 1 -28 33 -78 25 -39 57 -91 71 -118
l26 -47 18 27 c13 19 15 29 7 34 -9 6 -7 19 5 49 14 35 14 41 2 36 -29 -11
-15 31 25 76 26 31 34 45 24 44 -23 -2 -27 38 -6 57 9 8 45 29 80 47 34 17 60
35 57 40 -3 5 12 14 32 21 42 13 86 39 79 46 -2 2 -21 -3 -41 -12 -21 -8 -40
-13 -42 -11 -3 2 11 10 31 17 19 7 33 16 31 20 -3 4 22 17 55 29 64 24 76 36
20 20 -47 -14 -49 -5 -3 20 21 12 29 19 16 17 -38 -8 -15 19 28 32 55 17 46
22 -13 9 -43 -10 -70 -7 -57 7 3 2 43 14 89 25 47 12 105 28 130 35 l45 14
-55 -6 c-77 -8 -58 7 73 57 60 23 106 44 104 46 -3 3 -44 -9 -93 -26 -118 -41
-244 -79 -244 -75 0 3 12 11 28 20 26 15 26 16 2 10 -24 -6 -24 -5 -6 9 11 9
25 16 30 16 6 0 4 5 -4 10 -13 9 -13 10 0 11 8 0 33 9 55 20 23 11 30 17 17
15 -13 -3 -21 -2 -18 1 13 13 180 82 187 77 5 -3 17 0 26 6 15 9 14 10 -7 5
-14 -3 -4 6 23 20 44 24 65 44 32 31 -20 -7 -19 -1 2 19 16 16 14 17 -28 11
-35 -4 -26 1 44 25 89 31 93 34 78 57 -6 11 -17 11 -51 2 -46 -12 -65 -6 -37
14 9 7 17 19 17 25 0 7 5 9 13 5 9 -6 9 -5 0 8 -7 8 -10 17 -7 21 3 3 -2 4
-13 2 -10 -2 -33 -6 -51 -9 l-33 -6 20 26 c12 15 21 31 21 36 0 5 -59 7 -132
6 l-133 -3 -56 -112 c-31 -62 -53 -116 -50 -119 3 -4 1 -4 -5 -1 -7 4 -15 0
-18 -9 -3 -9 -12 -14 -20 -11 -7 3 -19 0 -25 -6 -38 -38 -13 70 40 170 17 32
25 53 18 46 -6 -6 -33 -51 -59 -100 -51 -96 -71 -113 -137 -113 l-42 0 13 38
c24 66 57 125 98 175 25 31 34 47 24 47 -8 0 -29 -22 -47 -50 -18 -27 -38 -50
-45 -50 -12 0 -64 -128 -64 -160 0 -10 -6 -20 -14 -23 -15 -6 -63 0 -79 10
-23 14 28 161 79 228 l34 45 -95 0 c-57 0 -95 -4 -95 -10 0 -5 7 -10 16 -10
13 0 12 -6 -6 -37 -11 -21 -29 -49 -39 -61 -16 -22 -19 -22 -33 -9 -12 12 -18
13 -28 4 -23 -23 20 53 52 89 l31 35 -43 -3 c-40 -3 -46 -7 -73 -50 -43 -71
-27 -81 22 -15 24 31 48 57 53 57 5 0 -4 -17 -21 -37 -17 -21 -31 -43 -31 -50
0 -6 -7 -19 -16 -27 -14 -15 -14 -19 0 -48 18 -35 21 -58 7 -58 -6 0 -18 -13
-28 -30 -23 -40 -33 -38 -33 9 0 24 -8 48 -21 65 -17 21 -18 26 -5 26 9 0 16
5 16 10 0 6 -4 10 -10 10 -5 0 -7 8 -3 18 5 14 3 13 -11 -3 -16 -20 -16 -20
-35 3 -11 12 -21 27 -23 34 -2 6 -10 9 -16 7 -8 -3 -2 -19 19 -47 26 -36 29
-45 18 -58 -10 -13 -10 -17 0 -23 7 -5 12 -11 12 -15 -4 -27 2 -36 21 -36 21
0 21 0 2 15 -10 8 -14 15 -8 15 14 0 34 -21 34 -37 0 -7 -9 -13 -20 -13 -23 0
-27 -18 -5 -26 9 -4 15 -18 14 -33 l-1 -26 -8 25 c-6 17 -8 -3 -6 -57 2 -49
-1 -83 -7 -83 -5 0 -7 -9 -4 -20 3 -13 1 -18 -6 -13 -6 4 -8 -2 -5 -15 4 -12
3 -20 -1 -17 -5 2 -19 -19 -32 -47 -34 -74 -101 -161 -142 -186 -54 -34 -53
-26 6 38 148 159 193 347 124 517 -42 103 -142 237 -158 211 -5 -7 8 -29 32
-56 23 -24 56 -76 75 -115 35 -74 63 -181 51 -193 -14 -15 -36 20 -48 74 -25
124 -104 233 -202 281 -36 17 -62 21 -153 21 -118 0 -165 -14 -226 -65 -17
-14 -33 -24 -35 -21 -8 8 8 26 49 57 37 26 39 29 17 29 -16 0 -49 -23 -98 -70
-41 -39 -76 -68 -78 -66 -2 2 27 33 64 69 l68 67 -247 0 -248 0 0 -26 c0 -24
-3 -26 -31 -20 -17 3 -38 6 -45 6 -8 0 -14 9 -14 20 0 13 -7 20 -19 20 -53 0
-235 -544 -248 -740 -4 -65 -1 -81 19 -120 20 -39 29 -46 73 -57 76 -19 78
-17 42 35 -49 72 -64 111 -46 123 27 17 42 4 106 -96 l64 -100 66 -21 c60 -18
68 -23 75 -51 9 -34 23 -48 53 -56 14 -3 12 -5 -9 -6 -16 0 -38 6 -47 15 -17
15 -20 15 -44 0 -29 -19 -31 -24 -38 -83 -5 -43 -5 -43 28 -43 36 0 50 -12 60
-53 8 -30 6 -30 171 -1 112 20 114 19 105 -13 -7 -25 -16 -30 -82 -46 -41 -10
-130 -21 -199 -24 -122 -5 -125 -5 -146 18 -12 13 -34 55 -48 92 -30 76 -52
107 -77 107 -22 0 -37 19 -41 55 -3 29 -9 32 -128 77 -128 48 -156 55 -145 38
3 -5 1 -10 -4 -10 -7 0 -11 26 -11 65 0 36 1 65 3 65 3 0 127 -36 155 -45 19
-6 20 -4 11 27 -18 60 8 204 81 452 29 101 102 291 135 357 8 15 15 30 15 34
0 3 -155 5 -344 5 l-344 0 -7 -100 c-5 -70 -4 -104 4 -114 13 -15 10 -461 -4
-528 -8 -40 -27 -48 -66 -28 -15 9 -19 7 -19 -5 0 -9 -4 -13 -10 -10 -5 3 -10
17 -10 31 0 14 4 22 10 19 6 -4 10 25 9 82 -1 65 -4 79 -9 53 -7 -34 -7 -33
-9 15 -1 28 -8 67 -15 88 -9 25 -15 91 -15 189 -2 132 0 150 14 145 13 -6 15
6 15 79 l0 85 -137 -3 -137 -3 -16 -51 c-9 -30 -20 -49 -27 -47 -9 3 -8 16 3
51 7 26 14 48 14 50 0 1 -39 2 -87 1 l-88 0 -31 -42z m2278 -23 c100 -32 192
-151 191 -247 -1 -57 -5 -62 -32 -47 -20 10 -21 8 -21 -27 0 -21 -5 -45 -11
-53 -8 -11 -9 -3 -6 32 2 25 2 50 -2 55 -3 4 -43 7 -87 5 l-82 -3 -6 -31 c-8
-42 -23 -58 -56 -58 -29 0 -54 22 -64 58 -7 20 -13 22 -87 22 l-79 0 0 28 c0
45 44 126 88 161 23 17 65 40 94 51 47 17 50 19 22 19 -67 2 -150 -53 -185
-121 -11 -22 -28 -77 -38 -122 -17 -75 -18 -79 -25 -48 -10 44 1 115 25 172
33 74 131 162 161 144 7 -4 8 -3 4 4 -10 17 51 32 104 26 25 -3 66 -12 92 -20z
m708 16 c0 -5 -4 -10 -9 -10 -5 0 -16 -3 -25 -6 -9 -3 -16 -1 -16 4 0 9 16 17
43 21 4 0 7 -3 7 -9z m650 -60 c-8 -5 -22 -9 -30 -9 -10 0 -8 3 5 9 27 12 43
12 25 0z m-1733 -28 c-27 -29 -49 -92 -62 -177 -11 -69 -13 -74 -14 -34 -2 77
55 229 86 229 3 0 -1 -8 -10 -18z m904 -85 c-5 -13 -7 -35 -4 -47 4 -16 3 -21
-5 -16 -15 9 -15 38 0 71 14 32 22 26 9 -8z m494 -56 c3 -5 2 -12 -3 -15 -5
-3 -9 1 -9 9 0 17 3 19 12 6z m-3274 -39 c13 -38 3 -56 -27 -50 -18 3 -29 47
-20 74 9 23 36 9 47 -24z m1652 -81 c-3 -21 2 -62 11 -94 21 -72 19 -92 -4
-42 -26 54 -36 141 -20 160 18 21 19 20 13 -24z m115 20 c-3 -10 -12 -15 -28
-13 -43 5 -40 26 5 28 19 2 25 -2 23 -15z m778 -87 c-4 -20 -10 -34 -13 -30
-3 3 -2 21 1 42 4 20 10 34 13 30 3 -3 2 -21 -1 -42z m-389 -66 c-2 -13 -4 -5
-4 17 -1 22 1 32 4 23 2 -10 2 -28 0 -40z m253 26 c0 -14 -21 -19 -33 -8 -8 8
16 33 26 27 4 -2 7 -11 7 -19z m-1408 -48 c37 -16 58 -36 38 -36 -6 0 -35 11
-63 24 -29 13 -60 26 -69 29 -10 4 -18 11 -18 16 0 10 38 -1 112 -33z m1181
-58 c-10 -19 -23 -5 -23 25 l0 32 14 -25 c7 -14 11 -28 9 -32z m-2067 -6 c-11
-12 -16 -13 -16 -4 0 8 -5 10 -12 6 -7 -4 -2 5 12 20 21 23 26 25 28 11 2 -10
-3 -25 -12 -33z m1708 2 c20 -19 20 -29 0 -48 -12 -12 -20 -13 -35 -6 -21 12
-25 40 -7 58 16 16 23 15 42 -4z m430 -13 c7 -11 -22 -23 -36 -15 -6 4 -5 10
3 15 18 11 26 11 33 0z m-47 -27 c-3 -3 -12 -4 -19 -1 -8 3 -5 6 6 6 11 1 17
-2 13 -5z m-350 -256 c-1 -40 -3 -8 -3 72 0 80 2 112 3 73 2 -40 2 -106 0
-145z m1234 171 c-47 -28 -84 -42 -75 -28 7 12 82 48 99 49 6 0 -5 -9 -24 -21z
m-1067 -21 c8 -14 7 -21 -6 -34 -30 -30 -75 9 -48 42 16 18 39 15 54 -8z m336
3 c7 -15 6 -24 -6 -36 -9 -9 -21 -14 -27 -12 -18 6 -31 33 -24 51 9 22 44 20
57 -3z m-2245 -272 c20 -136 21 -143 44 -219 28 -97 80 -212 107 -237 13 -12
24 -30 24 -39 0 -16 -2 -16 -20 1 -11 10 -22 16 -24 14 -3 -2 -2 -33 2 -69 5
-54 7 -60 13 -35 4 20 7 3 8 -50 1 -95 -11 -125 -29 -71 -15 47 -32 57 -23 14
3 -18 15 -39 25 -48 15 -13 18 -33 18 -160 2 -266 1 -271 -27 -197 -11 30 -12
30 -12 7 -1 -56 10 -69 123 -136 149 -90 485 -302 515 -325 35 -27 41 -24 41
23 0 51 6 47 14 -10 7 -51 6 -51 121 -126 50 -32 113 -77 140 -100 80 -65 286
-259 281 -264 -3 -2 -45 27 -93 65 -48 39 -179 133 -290 209 -112 77 -238 163
-280 192 -43 29 -94 62 -114 72 -35 18 -98 35 -86 23 3 -3 -1 -12 -9 -21 -14
-13 -12 -18 13 -44 l28 -29 -26 10 c-14 5 -83 46 -153 92 -136 87 -146 89
-152 27 -5 -49 -88 -212 -118 -232 -14 -9 -26 -14 -26 -11 0 3 22 58 49 123
26 64 51 130 55 145 5 22 10 26 20 18 14 -11 26 -5 26 14 0 10 -50 45 -64 45
-3 0 -6 -9 -6 -20 0 -29 -31 -101 -41 -94 -5 3 -6 -2 -3 -10 3 -9 1 -16 -6
-16 -6 0 -8 -4 -5 -10 3 -6 2 -10 -4 -10 -6 0 -7 -7 -4 -17 5 -12 3 -14 -7 -8
-10 6 -12 4 -7 -8 3 -10 2 -17 -4 -17 -6 0 -8 -4 -5 -9 4 -5 2 -11 -2 -13 -5
-1 -23 -40 -40 -85 -34 -89 -66 -143 -169 -286 -36 -51 -66 -98 -66 -105 0 -7
-4 -9 -8 -5 -5 5 -2 49 5 98 37 242 51 590 26 621 -10 12 -10 22 3 54 12 32
13 47 4 76 -7 24 -8 38 0 42 5 4 15 62 21 130 6 69 18 134 26 150 16 29 20 37
70 146 37 83 92 155 166 221 30 27 54 52 53 56 -1 4 -14 24 -27 44 -14 20 -35
62 -46 93 -26 69 -68 277 -76 376 -8 104 12 63 31 -65z m908 34 c31 -14 56
-28 54 -29 -5 -6 -110 32 -143 51 l-29 16 30 -6 c17 -4 56 -18 88 -32z m-669
-9 c9 -3 16 -17 16 -30 0 -24 -18 -32 -35 -15 -6 6 -32 11 -59 13 -66 4 -73
26 -9 31 26 2 53 4 60 5 6 1 18 -1 27 -4z m1714 -80 c2 -22 -2 -33 -13 -38
-25 -9 -55 12 -55 38 0 30 9 38 40 34 20 -2 26 -9 28 -34z m-269 22 c-2 -2
-58 -6 -124 -9 -70 -3 -97 -2 -65 2 60 8 196 13 189 7z m-1459 -35 c0 -24 -5
-29 -31 -35 -56 -11 -65 -8 -76 29 l-11 35 59 0 c58 0 59 0 59 -29z m1958 -38
l27 -28 -32 -3 c-18 -2 -33 -7 -33 -11 0 -4 -38 -14 -85 -21 -47 -7 -89 -18
-92 -23 -3 -5 8 -7 28 -3 53 9 -103 -41 -230 -74 -114 -30 -192 -40 -161 -21
8 6 35 13 61 16 49 7 102 34 67 35 -9 0 -29 -5 -43 -12 -14 -6 -28 -8 -31 -5
-10 10 14 58 47 97 l31 35 -22 -33 c-28 -42 -20 -49 27 -29 61 26 348 102 401
106 7 1 25 -11 40 -26z m-1951 -30 c4 -10 11 -21 16 -25 11 -7 -21 -69 -39
-75 -9 -3 -64 83 -64 100 0 3 15 8 33 10 17 2 36 5 40 5 4 1 11 -6 14 -15z
m-254 -60 c-3 -6 -11 -9 -19 -6 -17 6 -17 8 -2 36 11 21 11 21 18 2 4 -11 5
-25 3 -32z m2262 -93 c5 -8 11 -7 21 1 21 17 27 5 19 -40 -7 -40 -25 -67 -25
-38 0 8 -8 14 -17 13 -14 -1 -19 8 -21 37 -3 35 9 49 23 27z m-1145 -39 c0
-11 -4 -22 -9 -25 -12 -8 -34 21 -26 34 11 17 35 11 35 -9z m889 -5 c17 -20 2
-48 -23 -44 -24 3 -34 37 -14 49 18 12 24 11 37 -5z m-789 -122 c0 -17 -26
-19 -36 -3 -7 12 15 31 28 23 4 -3 8 -12 8 -20z m-575 -127 c19 -14 19 -16 3
-22 -24 -9 -272 125 -276 149 -3 13 27 2 125 -48 70 -35 137 -71 148 -79z
m1185 111 c0 -4 -9 -8 -20 -8 -11 0 -20 4 -20 9 0 6 9 9 20 8 11 -1 20 -5 20
-9z m-1017 -169 c3 -30 22 -76 56 -136 55 -98 64 -126 29 -94 -11 11 -25 18
-30 15 -4 -3 -8 0 -8 6 0 6 -4 8 -10 5 -5 -3 -10 -2 -10 4 0 5 5 13 11 16 7 5
2 16 -13 33 -17 18 -19 24 -6 19 14 -5 13 2 -8 46 -14 30 -24 71 -24 96 0 56
7 50 13 -10z m703 -5 c-10 -14 -20 -23 -23 -20 -3 3 2 17 11 32 10 14 20 23
23 20 3 -3 -2 -17 -11 -32z m48 -8 c6 -26 5 -27 -8 -13 -9 9 -13 23 -10 32 8
19 9 18 18 -19z m808 -19 c3 -28 8 -32 43 -39 22 -5 58 -10 81 -11 35 -2 40 0
36 15 -7 28 11 21 84 -33 38 -28 76 -55 86 -60 20 -11 70 -108 61 -122 -3 -6
-16 10 -29 34 -12 24 -35 55 -50 69 -25 22 -24 20 4 -14 34 -39 37 -60 5 -35
-15 13 -16 12 -8 -6 30 -72 63 -174 58 -179 -11 -11 -23 -6 -23 9 0 9 -13 43
-29 78 -47 103 -165 203 -278 237 -24 7 -43 17 -43 21 0 4 -12 9 -27 11 -33 4
-44 36 -18 54 25 18 43 7 47 -29z m-402 -11 c0 -25 -15 -36 -37 -29 -7 3 -13
16 -13 29 0 19 5 24 25 24 20 0 25 -5 25 -24z m-491 -151 c-1 -5 -16 22 -34
60 -19 39 -34 75 -34 80 1 6 16 -21 34 -60 19 -38 34 -74 34 -80z m716 126
c17 -7 16 -9 -13 -16 -18 -4 -36 -4 -39 -1 -4 3 0 7 8 7 8 1 -4 5 -26 9 l-40
7 45 1 c25 0 54 -3 65 -7z m-67 -51 c2 -21 -6 -32 -37 -52 -23 -15 -37 -20
-34 -12 3 8 9 14 14 14 5 0 4 11 -3 25 -14 30 3 55 36 53 16 -2 23 -9 24 -28z
m252 0 c77 -15 134 -47 191 -107 73 -77 92 -127 97 -250 5 -127 -12 -140 -21
-16 -11 147 -81 254 -209 319 -41 21 -73 29 -143 34 l-90 6 45 11 c60 14 68
15 130 3z m-1627 -60 c16 0 17 -3 8 -14 -10 -11 -8 -17 6 -25 10 -6 14 -11 10
-11 -8 0 -7 -1 53 -70 l40 -45 -10 35 c-14 48 -12 58 5 34 8 -12 13 -39 12
-62 l-1 -40 -28 19 c-15 11 -43 39 -62 62 -46 57 -100 165 -64 129 7 -7 21
-12 31 -12z m1213 7 c-52 -32 -107 -92 -118 -130 -7 -22 -14 -35 -16 -29 -1 5
4 27 13 48 12 30 13 39 3 47 -9 6 -8 7 4 3 10 -3 20 0 24 5 7 12 94 69 103 68
4 0 -3 -6 -13 -12z m-229 -33 c3 -8 1 -20 -5 -26 -15 -15 -43 8 -35 28 7 19
32 18 40 -2z m658 -28 c63 -30 118 -86 146 -151 25 -56 39 -185 20 -185 -6 0
-11 10 -11 23 0 18 -2 19 -10 7 -7 -11 -10 -7 -11 20 -1 29 -3 25 -14 -25 -13
-63 -31 -115 -40 -115 -2 0 0 12 5 26 15 39 13 42 -37 49 -77 11 -123 25 -123
38 -1 14 -30 -50 -30 -65 0 -5 4 -7 9 -3 6 3 25 -24 43 -61 32 -64 32 -66 13
-80 -31 -23 -44 -17 -51 26 -4 22 -10 37 -15 35 -4 -3 -8 3 -9 12 -4 75 -5 80
-20 76 -11 -3 -16 -21 -18 -64 -2 -34 -7 -71 -11 -82 -6 -15 -3 -25 8 -34 14
-11 14 -12 -6 -13 -12 0 -25 5 -28 11 -4 6 -13 8 -20 5 -38 -14 -133 95 -156
179 -6 19 -14 35 -19 35 -6 0 -10 29 -10 64 0 208 216 357 395 272z m-591 -63
c-6 -25 -24 -56 -24 -41 0 10 22 68 26 68 2 0 1 -12 -2 -27z m-844 2 c0 -2 -9
-3 -19 -2 -11 0 -18 5 -15 9 4 6 34 0 34 -7z m867 -77 c-3 -8 -6 -5 -6 6 -1
11 2 17 5 13 3 -3 4 -12 1 -19z m1093 -89 c0 -16 -4 -29 -10 -29 -5 0 -10 -8
-10 -17 0 -15 -2 -16 -10 -3 -11 17 -13 64 -4 110 l7 32 13 -32 c8 -18 14 -45
14 -61z m60 60 c0 -17 -5 -40 -12 -52 -12 -22 -12 -21 -19 8 -13 58 -10 75 11
75 16 0 20 -7 20 -31z m-1021 -52 c-7 -37 -17 -64 -22 -60 -10 6 -3 66 13 109
17 45 22 20 9 -49z m-142 31 c-3 -8 -6 -5 -6 6 -1 11 2 17 5 13 3 -3 4 -12 1
-19z m1261 -68 c-2 -19 -10 -26 -30 -28 -24 -3 -28 0 -28 20 0 13 7 34 17 47
16 23 17 23 30 5 8 -10 13 -30 11 -44z m-1265 -27 c4 -39 3 -63 -3 -63 -6 0
-10 30 -10 67 0 81 5 79 13 -4z m1036 -4 c2 -86 -50 -193 -141 -290 -34 -36
-40 -18 -7 20 109 126 128 166 132 278 2 64 15 57 16 -8z m-1414 52 c9 -15 -6
-18 -55 -13 -35 4 -41 7 -25 13 28 11 73 11 80 0z m118 -27 c48 -15 85 -29 83
-31 -5 -5 -155 36 -176 48 -27 15 4 10 93 -17z m324 0 c8 -21 -13 -42 -28 -27
-13 13 -5 43 11 43 6 0 13 -7 17 -16z m-680 -60 c-9 -9 -28 6 -21 18 4 6 10 6
17 -1 6 -6 8 -13 4 -17z m534 9 c16 -3 29 -9 29 -14 0 -4 -24 -1 -52 8 -57 16
-82 30 -34 19 15 -4 41 -10 57 -13z m1010 -17 c-8 -10 -9 -15 -1 -18 7 -2 5
-10 -4 -23 -15 -20 -15 -20 -16 2 0 29 10 53 22 53 6 0 6 -6 -1 -14z m-1198
-17 c20 -5 37 -14 37 -18 0 -9 -150 26 -160 36 -6 7 72 -4 123 -18z m1532 -18
c-8 -14 -25 -14 -25 0 0 5 5 7 10 4 6 -3 10 -1 10 6 0 7 3 10 6 6 3 -3 3 -10
-1 -16z m-1336 -27 c29 -8 50 -18 47 -21 -7 -7 -95 17 -102 28 -7 12 -6 12 55
-7z m1194 -1 c-9 -25 -26 -34 -35 -20 -12 18 -10 25 10 30 30 8 32 7 25 -10z
m47 -23 c-11 -22 -23 -40 -25 -40 -3 0 4 18 15 40 11 22 23 40 25 40 3 0 -4
-18 -15 -40z m-765 -178 c53 -18 56 -21 27 -21 -62 -2 -172 73 -208 141 -25
48 -15 42 54 -29 54 -57 78 -74 127 -91z m1018 128 c19 0 27 -5 27 -18 0 -18
-2 -18 -72 0 -96 24 -104 29 -38 23 30 -3 67 -5 83 -5z m-573 -75 c-24 -25
-45 -45 -46 -45 -1 0 1 10 3 23 4 18 55 59 83 66 2 1 -16 -19 -40 -44z m-1051
-150 c0 -5 -20 26 -44 70 -25 44 -45 85 -45 90 0 6 20 -26 45 -70 24 -44 44
-84 44 -90z m1194 150 c-3 -9 -8 -14 -10 -11 -3 3 -2 9 2 15 9 16 15 13 8 -4z
m227 -14 c0 -5 -9 -19 -20 -32 -15 -19 -19 -21 -20 -7 0 27 11 48 26 48 8 0
14 -4 14 -9z m180 -41 c28 -18 -15 -22 -66 -6 l-49 15 50 0 c28 0 57 -3 65 -9z
m-2824 -57 c-7 -7 -26 7 -26 19 0 6 6 6 15 -2 9 -7 13 -15 11 -17z m2714 -72
c0 -10 9 -46 21 -82 16 -48 18 -68 10 -81 -16 -26 -14 -85 4 -92 8 -3 15 -16
15 -28 0 -28 26 -68 44 -68 13 0 86 -99 86 -116 0 -6 7 -19 16 -30 15 -18 15
-18 10 0 -4 10 25 -11 63 -47 97 -91 278 -210 462 -302 66 -34 69 -37 69 -71
0 -26 8 -43 29 -64 36 -37 47 -75 25 -88 -18 -10 -11 -32 10 -32 20 0 48 -48
41 -69 -3 -11 1 -26 11 -35 13 -14 19 -14 32 -4 12 11 16 11 20 0 3 -10 8 -9
23 4 18 16 19 16 19 0 0 -9 -4 -14 -10 -11 -17 11 -11 -7 8 -21 16 -13 16 -13
-3 -14 -17 0 -17 -2 -5 -10 17 -11 10 -13 -14 -4 -8 3 -12 12 -9 20 4 12 0 13
-22 4 -33 -12 -38 -13 -30 -1 3 5 1 13 -5 16 -6 4 -9 1 -8 -6 2 -6 -3 -14 -11
-17 -9 -3 -11 0 -6 8 5 8 4 11 -2 7 -14 -9 -142 43 -194 77 -21 15 -112 61
-202 104 -89 43 -229 118 -310 166 -142 84 -148 89 -143 117 4 28 4 28 -20 12
-24 -15 -31 -9 -24 22 3 17 -14 -5 -18 -23 -2 -9 -6 -109 -9 -220 -3 -112 -9
-200 -14 -195 -4 4 -9 100 -11 213 -2 167 -6 211 -20 237 -18 36 -17 103 6
273 7 52 14 167 14 255 1 87 5 168 8 179 14 42 44 54 44 17z m99 12 c-1 -10
-5 -31 -9 -48 -7 -27 -8 -25 -9 18 0 26 4 47 9 47 6 0 9 -8 9 -17z m21 -58 c0
-36 -3 -65 -7 -65 -5 0 -6 29 -5 65 2 36 6 65 8 65 2 0 4 -29 4 -65z m-888 4
c-4 -49 13 -110 53 -190 45 -88 81 -176 90 -217 7 -33 7 -33 -14 -15 -12 9
-21 24 -21 31 0 8 -29 76 -64 151 -41 88 -68 159 -75 202 -14 84 -15 81 12 77
19 -3 22 -8 19 -39z m815 4 c-3 -10 -5 -4 -5 12 0 17 2 24 5 18 2 -7 2 -21 0
-30z m-264 -162 l-18 -76 -3 79 c-2 62 1 84 15 105 l18 26 3 -29 c2 -16 -5
-63 -15 -105z m-1066 103 c-3 -3 -12 -4 -19 -1 -8 3 -5 6 6 6 11 1 17 -2 13
-5z m893 -78 c0 -35 25 -66 54 -66 12 0 31 -3 44 -6 22 -6 22 -9 24 -178 1
-136 3 -155 8 -91 6 78 11 70 15 -30 2 -27 -1 -52 -5 -55 -5 -3 3 -32 17 -65
22 -55 23 -64 12 -112 -6 -28 -22 -69 -35 -90 -13 -21 -29 -50 -36 -65 -7 -16
-18 -28 -25 -28 -17 0 -18 -3 22 91 41 99 45 158 14 224 -29 61 -86 111 -138
120 -34 6 -126 -4 -187 -20 -5 -2 -18 -30 -27 -62 -9 -33 -35 -87 -57 -121
-39 -59 -41 -65 -35 -112 6 -41 4 -50 -8 -50 -24 0 -27 100 -5 122 10 10 16
18 13 18 -3 0 9 23 26 50 34 55 59 128 59 169 0 25 3 26 63 28 34 2 82 8 107
14 40 10 50 9 88 -10 23 -12 42 -19 42 -16 0 7 -120 147 -141 165 -31 26 -37
60 -22 125 17 76 49 110 88 92 18 -9 25 -20 25 -41z m-875 34 c-3 -5 -12 -10
-18 -10 -7 0 -6 4 3 10 19 12 23 12 15 0z m-78 -22 c-3 -8 -6 -5 -6 6 -1 11 2
17 5 13 3 -3 4 -12 1 -19z m-30 -20 c-3 -8 -6 -5 -6 6 -1 11 2 17 5 13 3 -3 4
-12 1 -19z m833 2 c0 -5 -2 -10 -4 -10 -3 0 -8 5 -11 10 -3 6 -1 10 4 10 6 0
11 -4 11 -10z m-802 -87 c6 -32 21 -75 32 -97 12 -21 19 -41 15 -44 -10 -10
-24 13 -44 73 l-20 60 0 -70 c-1 -49 2 -65 9 -55 10 15 13 9 11 -20 0 -8 7
-25 17 -38 l18 -23 -1 23 c0 49 21 28 38 -36 9 -37 24 -74 32 -83 8 -8 15 -26
15 -40 0 -31 36 -93 55 -93 7 0 29 7 50 16 20 8 39 13 42 11 8 -9 -86 -40
-101 -34 -19 7 -16 1 54 -148 29 -60 61 -134 71 -164 22 -62 24 -152 5 -196
-12 -27 -11 -33 8 -60 l21 -30 -33 23 c-37 27 -36 24 -16 82 18 53 13 117 -16
188 -50 124 -139 304 -163 332 -32 35 -45 37 -80 10 -27 -21 -57 -27 -57 -10
0 6 15 19 33 30 17 10 37 24 44 29 8 8 14 7 20 -2 5 -8 9 -2 13 18 4 21 0 35
-13 48 -12 12 -16 25 -11 39 4 13 2 18 -4 14 -6 -3 -27 24 -47 61 l-37 67 7
88 c4 48 10 88 14 88 4 0 12 -26 19 -57z m106 48 c4 -5 -3 -7 -14 -4 -23 6
-26 13 -6 13 8 0 17 -4 20 -9z m1049 -60 c-3 -33 0 -132 6 -221 7 -89 11 -164
9 -165 -25 -26 -75 263 -57 329 5 17 14 50 19 74 16 61 29 51 23 -17z m-1477
-164 c5 1 41 -28 80 -65 38 -37 60 -58 47 -48 -29 25 -42 13 -17 -16 10 -12
-5 -3 -34 21 -29 24 -58 53 -64 65 -6 11 -19 26 -28 33 -9 6 -38 38 -64 70
l-49 58 61 -60 c33 -34 64 -60 68 -58z m1531 -174 c-2 -27 -3 -5 -3 47 0 52 1
74 3 48 2 -27 2 -69 0 -95z m-2958 -14 c-17 -41 -35 -78 -40 -83 -19 -20 -8
41 17 94 52 111 71 103 23 -11z m-137 -51 c-8 -8 -9 -4 -5 13 4 13 8 18 11 10
2 -7 -1 -18 -6 -23z m-22 -52 c-19 -51 -60 -224 -69 -293 -5 -40 -9 -54 -10
-33 -2 53 26 195 55 283 14 43 28 76 30 74 3 -2 0 -16 -6 -31z m1615 -72 c-26
-11 -167 -30 -171 -23 -2 4 17 11 43 14 27 4 53 8 58 10 14 5 82 4 70 -1z
m188 -13 c-4 -3 -11 -10 -15 -15 -5 -5 -8 0 -8 12 0 15 4 20 16 15 9 -3 12 -9
7 -12z m-163 -51 c-14 -4 -42 -8 -63 -9 -23 -1 -36 -5 -32 -11 4 -6 -7 -9 -29
-8 -19 2 -32 6 -28 10 10 9 99 26 142 26 32 0 33 -1 10 -8z m258 -53 c2 -12
-2 -14 -20 -9 -12 3 -17 7 -10 10 7 2 9 8 6 14 -4 6 -1 9 7 6 8 -3 15 -12 17
-21z m-104 -89 c-12 -19 -25 7 -23 46 4 62 13 67 21 12 4 -28 5 -53 2 -58z
m-141 85 c-7 -2 -21 -2 -30 0 -10 3 -4 5 12 5 17 0 24 -2 18 -5z m2452 -23
c21 -22 25 -30 13 -30 -20 0 -48 27 -48 46 0 19 2 18 35 -16z m-2538 14 c-3
-3 -12 -4 -19 -1 -8 3 -5 6 6 6 11 1 17 -2 13 -5z m-1392 -90 c0 -12 -8 -20
-22 -22 -25 -4 -31 16 -11 36 17 17 33 10 33 -14z m-41 -42 c5 -9 -28 -154
-46 -196 l-12 -29 -18 23 c-22 27 -23 42 -2 86 14 29 19 32 32 22 13 -11 14
-9 8 18 -10 47 19 106 38 76z m1663 -49 c-3 -10 -5 -2 -5 17 0 19 2 27 5 18 2
-10 2 -26 0 -35z m2003 -3 c8 -5 11 -10 5 -10 -5 0 -17 5 -25 10 -8 5 -10 10
-5 10 6 0 17 -5 25 -10z m18 -73 c3 -23 0 -27 -21 -27 -14 0 -31 7 -38 16 -11
14 -10 18 6 30 28 21 50 13 53 -19z m132 9 c64 -26 75 -53 20 -48 -123 10
-130 12 -130 43 0 25 4 29 28 29 15 -1 52 -11 82 -24z m-1317 -22 l-18 -36
105 -99 c58 -54 99 -98 91 -99 -11 0 -10 -5 5 -23 10 -13 -3 -1 -30 27 -27 28
-52 51 -56 51 -3 0 -37 28 -75 63 -39 34 -64 62 -58 62 7 0 10 7 7 15 -3 8 4
28 16 45 29 40 33 38 13 -6z m383 -21 c-10 -10 -19 5 -10 18 6 11 8 11 12 0 2
-7 1 -15 -2 -18z m173 11 c47 -10 37 -20 -15 -16 -35 3 -48 0 -59 -14 -9 -11
-14 -14 -15 -6 0 6 -7 12 -15 12 -16 0 -20 12 -8 23 8 9 71 9 112 1z m25 -70
c33 -13 14 -20 -41 -16 -50 4 -55 3 -50 -12 5 -14 2 -17 -14 -14 -12 2 -26 13
-30 26 -8 21 -7 22 56 22 35 0 70 -3 79 -6z m46 -45 c0 -20 -15 -26 -25 -9 -9
15 3 43 15 35 5 -3 10 -15 10 -26z m375 11 c0 -7 -6 -15 -12 -17 -8 -3 -13 4
-13 17 0 13 5 20 13 18 6 -3 12 -11 12 -18z m-655 0 c0 -5 -5 -10 -11 -10 -5
0 -7 5 -4 10 3 6 8 10 11 10 2 0 4 -4 4 -10z m1140 -6 c0 -17 -22 -14 -28 4
-2 7 3 12 12 12 9 0 16 -7 16 -16z m-915 -45 c7 -7 -4 -10 -35 -9 -25 1 -54 0
-65 -2 -12 -2 -21 4 -23 16 -4 18 0 18 54 12 32 -4 63 -11 69 -17z m1212 -18
c0 -11 -5 -17 -9 -15 -11 7 -10 34 1 34 6 0 9 -9 8 -19z m-1357 -11 c0 -5 -5
-10 -11 -10 -5 0 -7 5 -4 10 3 6 8 10 11 10 2 0 4 -4 4 -10z m521 -47 c-9 -17
-10 -17 -16 0 -4 9 -4 25 0 35 6 16 7 16 16 0 7 -12 7 -24 0 -35z m889 37 c0
-5 -7 -10 -16 -10 -8 0 -12 5 -9 10 3 6 10 10 16 10 5 0 9 -4 9 -10z m-1273
-24 c11 -10 -1 -12 -64 -8 -35 2 -63 8 -63 14 0 11 116 5 127 -6z m839 -31
c-4 -19 -12 -35 -17 -35 -10 0 -4 53 8 73 10 17 15 -4 9 -38z m-876 5 c0 -7
-19 -10 -45 -9 -25 2 -45 6 -45 11 0 4 20 8 45 8 25 0 45 -5 45 -10z m788 -18
c3 -20 0 -23 -24 -20 -17 2 -30 11 -35 26 -8 22 -6 23 24 20 25 -2 33 -8 35
-26z m42 -2 c0 -11 -4 -20 -10 -20 -5 0 -10 9 -10 20 0 11 5 20 10 20 6 0 10
-9 10 -20z m-837 -16 c56 -10 45 -19 -18 -16 -30 2 -53 8 -49 13 6 11 16 11
67 3z m-577 -40 c-3 -8 1 -14 9 -14 8 0 15 -5 15 -11 0 -5 4 -8 8 -5 4 2 13
-4 20 -14 12 -20 2 -33 -20 -25 -7 3 -23 22 -36 41 -13 20 -18 33 -11 28 9 -5
10 -2 6 10 -4 11 -3 15 4 11 6 -4 8 -13 5 -21z m352 -20 c-10 -10 -28 6 -28
24 0 15 1 15 17 -1 9 -9 14 -19 11 -23z m1022 16 c0 -15 -7 -20 -25 -20 -18 0
-25 5 -25 20 0 15 7 20 25 20 18 0 25 -5 25 -20z m570 6 c0 -8 -4 -18 -10 -21
-5 -3 -10 3 -10 14 0 12 5 21 10 21 6 0 10 -6 10 -14z m-530 -11 c0 -8 -4 -15
-10 -15 -5 0 -10 7 -10 15 0 8 5 15 10 15 6 0 10 -7 10 -15z m-849 -10 c31
-13 32 -14 9 -14 -42 -1 -74 10 -58 20 16 11 10 11 49 -6z m1226 -17 c-3 -8
-6 -5 -6 6 -1 11 2 17 5 13 3 -3 4 -12 1 -19z m-767 -13 c0 -10 -10 -15 -31
-15 -27 0 -30 2 -19 15 7 8 21 15 31 15 11 0 19 -7 19 -15z m125 -14 c-26 -4
-35 -9 -27 -14 17 -11 15 -37 -2 -37 -22 0 -28 17 -16 40 8 15 20 20 48 19
l37 -2 -40 -6z m255 -23 c0 -19 -2 -20 -10 -8 -13 19 -13 30 0 30 6 0 10 -10
10 -22z m-860 -90 c0 -46 -4 -101 -8 -123 -5 -31 -8 -15 -13 75 -5 119 -4 130
12 130 5 0 9 -37 9 -82z m1287 -25 c-3 -10 -5 -2 -5 17 0 19 2 27 5 18 2 -10
2 -26 0 -35z m-741 19 c5 -4 19 -42 31 -85 l20 -78 -40 -34 c-22 -19 -45 -35
-49 -35 -5 0 -21 12 -35 28 l-25 27 16 -27 c20 -34 20 -38 1 -38 -8 0 -21 10
-29 23 -17 27 -32 92 -19 84 5 -4 19 1 31 9 24 16 28 47 13 88 -9 22 -7 26 17
35 33 12 54 13 68 3z m-3616 -98 c0 -66 -2 -75 -17 -72 -14 3 -18 14 -19 58
l-2 55 8 -45 c7 -43 7 -42 8 23 3 94 22 77 22 -19z m2792 9 c169 -153 192
-173 200 -173 4 0 8 -8 7 -17 0 -11 -3 -13 -6 -6 -2 7 -9 13 -15 13 -14 0
-143 109 -207 174 -30 31 -58 56 -63 56 -4 0 -8 5 -8 10 0 20 18 9 92 -57z
m-2022 7 c0 -29 -4 -40 -15 -40 -10 0 -15 10 -15 30 0 17 -4 30 -9 30 -25 0
-41 -14 -41 -36 0 -13 -4 -24 -10 -24 -5 0 -10 13 -10 29 0 23 6 30 33 39 60
19 67 16 67 -28z m2975 -7 c-11 -46 -19 -46 -30 0 -6 23 -4 27 15 27 19 0 21
-4 15 -27z m-3636 -51 c1 -7 -3 -10 -9 -7 -5 3 -10 18 -9 33 0 24 1 25 9 7 5
-11 9 -26 9 -33z m481 19 c0 -17 -4 -33 -10 -36 -6 -4 -10 5 -10 19 0 34 -8
33 -50 -5 -18 -17 -40 -32 -48 -33 -7 -1 -18 -9 -23 -17 -5 -8 -9 -11 -9 -7 0
13 -40 -26 -40 -39 0 -7 -18 -22 -39 -32 -38 -20 -39 -20 -44 -1 -3 11 7 38
22 62 25 39 35 46 127 79 54 20 105 37 112 38 7 1 12 -11 12 -28z m2757 4 c8
-9 12 -19 8 -23 -4 -4 -10 -1 -12 6 -3 6 -11 12 -19 12 -9 0 -12 5 -9 10 8 14
14 13 32 -5z m-3307 -70 c-7 -8 -20 -15 -29 -15 -13 1 -13 3 3 15 26 19 42 19
26 0z m1561 -38 c91 -21 136 -35 135 -44 -3 -18 -6 -20 -59 -26 -35 -5 -46 -4
-41 5 5 7 2 9 -8 5 -18 -6 -249 30 -261 42 -4 4 -3 20 2 35 10 24 14 26 53 20
24 -3 104 -19 179 -37z m1264 23 c3 -5 -1 -10 -9 -10 -9 0 -16 5 -16 10 0 6 4
10 9 10 6 0 13 -4 16 -10z m825 -35 c0 -22 -4 -25 -32 -25 l-33 1 30 24 c17
14 31 25 33 25 1 0 2 -11 2 -25z m-182 -30 c-3 -3 -9 2 -12 12 -6 14 -5 15 5
6 7 -7 10 -15 7 -18z m-1725 -2 c-7 -2 -19 -2 -25 0 -7 3 -2 5 12 5 14 0 19
-2 13 -5z m1334 -49 c21 -4 33 -12 33 -22 0 -12 -3 -13 -12 -4 -7 7 -20 12
-30 12 -31 0 -98 32 -98 46 0 11 8 10 37 -6 21 -11 52 -23 70 -26z m241 34 c7
-7 12 -16 12 -20 0 -15 -15 -8 -28 12 -13 22 -3 27 16 8z m-1558 -18 c0 -4 -7
-13 -15 -20 -13 -11 -15 -9 -13 13 1 16 7 23 15 20 7 -3 13 -9 13 -13z m1400
-45 c0 -9 -6 -12 -15 -9 -8 4 -15 10 -15 15 0 5 7 9 15 9 8 0 15 -7 15 -15z
m87 -12 c-4 -3 -2 -12 5 -20 12 -15 5 -28 -11 -18 -15 8 -14 45 1 45 6 0 8 -3
5 -7z m457 -19 c5 -14 4 -15 -9 -4 -17 14 -19 20 -6 20 5 0 12 -7 15 -16z
m-3282 -36 c-6 -6 -15 -8 -19 -4 -4 4 -1 11 7 16 8 5 17 7 19 4 3 -2 -1 -10
-7 -16z"/>
<path d="M2325 4680 c11 -5 29 -9 40 -9 l20 0 -20 9 c-11 5 -29 9 -40 9 l-20
0 20 -9z"/>
<path d="M2293 4545 c0 -27 2 -38 4 -22 2 15 2 37 0 50 -2 12 -4 0 -4 -28z"/>
<path d="M2448 4529 l-33 -31 32 22 c18 11 35 25 38 30 12 19 -5 9 -37 -21z"/>
<path d="M2257 4479 c-15 -9 -15 -12 -3 -25 8 -8 26 -14 40 -14 15 0 26 -7 29
-17 3 -15 6 -14 15 7 18 42 -36 75 -81 49z"/>
<path d="M2148 3543 c7 -3 16 -2 19 1 4 3 -2 6 -13 5 -11 0 -14 -3 -6 -6z"/>
<path d="M2458 2883 c-10 -2 -15 -10 -11 -19 3 -9 -1 -14 -12 -14 -9 0 -13 5
-10 10 16 27 -19 4 -76 -48 -61 -57 -63 -60 -64 -110 -1 -39 3 -53 14 -57 19
-5 48 -2 57 8 3 3 24 -1 46 -10 34 -14 41 -14 50 -2 7 10 8 8 3 -9 -6 -21 -5
-21 18 -11 20 9 30 8 48 -5 34 -23 44 -20 25 9 -15 23 -14 30 8 117 13 51 21
97 16 102 -5 4 -30 11 -55 14 l-48 5 29 13 c28 12 29 12 4 12 -14 0 -33 -2
-42 -5z m-133 -152 c-3 -12 -11 -19 -16 -16 -5 4 -5 14 2 26 13 26 23 18 14
-10z"/>
<path d="M2575 2881 c-3 -5 3 -17 12 -27 11 -11 18 -13 21 -5 2 6 11 11 20 11
12 1 10 5 -8 15 -30 17 -37 18 -45 6z"/>
<path d="M2708 2623 c7 -3 16 -2 19 1 4 3 -2 6 -13 5 -11 0 -14 -3 -6 -6z"/>
<path d="M2520 2580 c0 -5 7 -10 15 -10 8 0 15 5 15 10 0 6 -7 10 -15 10 -8 0
-15 -4 -15 -10z"/>
<path d="M3350 1830 c0 -16 4 -30 8 -30 5 0 7 14 4 30 -2 17 -6 30 -8 30 -2 0
-4 -13 -4 -30z"/>
<path d="M3285 1525 c0 -35 3 -67 8 -71 4 -4 7 22 7 59 0 36 -3 68 -8 70 -4 3
-7 -23 -7 -58z"/>
<path d="M3420 1366 c0 -2 8 -10 18 -17 15 -13 16 -12 3 4 -13 16 -21 21 -21
13z"/>
<path d="M2103 1525 c0 -8 4 -12 9 -9 5 3 6 10 3 15 -9 13 -12 11 -12 -6z"/>
<path d="M2711 893 c1 -5 29 -33 63 -63 l61 -54 -60 62 c-60 63 -66 68 -64 55z"/>
<path d="M2700 576 c0 -2 7 -7 16 -10 8 -3 12 -2 9 4 -6 10 -25 14 -25 6z"/>
<path d="M2545 4780 c4 -6 11 -8 16 -5 14 9 11 15 -7 15 -8 0 -12 -5 -9 -10z"/>
<path d="M2665 4760 l29 -30 21 20 c12 11 27 20 35 20 23 0 82 -51 76 -66 -10
-27 1 -14 32 36 l31 50 -126 0 -127 0 29 -30z"/>
<path d="M3459 4773 c-13 -16 -12 -17 4 -4 16 13 21 21 13 21 -2 0 -10 -8 -17
-17z"/>
<path d="M5351 4786 c2 -2 14 -9 26 -15 19 -10 22 -9 17 4 -4 8 -15 15 -27 15
-11 0 -18 -2 -16 -4z"/>
<path d="M5400 4786 c0 -2 8 -10 17 -17 15 -12 16 -12 8 1 -4 8 6 2 23 -14 17
-15 30 -37 29 -48 -1 -19 -2 -19 -19 2 -10 12 -18 19 -18 16 0 -3 -25 8 -55
25 -31 17 -58 29 -61 27 -8 -9 25 -76 45 -90 11 -8 23 -26 27 -42 3 -15 26
-47 49 -71 86 -86 179 -249 230 -399 50 -148 66 -242 72 -416 l6 -165 16 46
c9 27 30 58 49 74 17 15 32 24 32 22 0 -13 -71 -248 -90 -300 -12 -31 -26 -55
-31 -52 -5 4 -9 -13 -10 -37 0 -24 -2 -83 -4 -133 -3 -73 -2 -83 6 -50 11 43
44 138 82 230 57 138 128 360 122 383 -3 12 -16 46 -29 75 -19 41 -26 82 -34
199 -12 166 -4 144 -141 382 -49 85 -87 157 -83 160 3 3 0 6 -6 6 -6 0 -14 9
-17 21 -4 11 -32 54 -62 95 l-55 74 -49 0 c-27 0 -49 -2 -49 -4z m321 -418
c11 -22 16 -37 10 -33 -6 3 -21 25 -32 47 -11 22 -16 37 -10 33 6 -3 21 -25
32 -47z"/>
<path d="M5540 4784 c0 -6 7 -19 16 -30 14 -18 14 -18 3 6 -14 31 -19 36 -19
24z"/>
<path d="M2975 4720 c-3 -5 -1 -10 4 -10 6 0 11 5 11 10 0 6 -2 10 -4 10 -3 0
-8 -4 -11 -10z"/>
<path d="M2882 4480 c0 -14 2 -19 5 -12 2 6 2 18 0 25 -3 6 -5 1 -5 -13z"/>
<path d="M1051 3914 c0 -11 3 -14 6 -6 3 7 2 16 -1 19 -3 4 -6 -2 -5 -13z"/>
<path d="M4084 3885 c-3 -6 -46 -10 -102 -10 -84 -1 -110 -5 -197 -35 -77 -27
-94 -35 -72 -38 16 -2 34 1 40 6 22 18 118 32 215 32 164 0 354 -52 407 -110
19 -20 31 -75 15 -65 -5 3 -12 1 -15 -5 -4 -7 -23 -8 -50 -4 -37 5 -45 3 -57
-15 -7 -12 -19 -21 -26 -21 -7 0 -10 -5 -7 -11 4 -6 -1 -16 -10 -23 -16 -11
-9 -17 58 -51 42 -21 79 -45 82 -52 3 -9 1 -11 -8 -6 -6 4 -16 8 -22 10 -5 1
-50 13 -100 27 -118 32 -171 40 -180 27 -3 -6 -30 -10 -58 -10 l-52 1 50 13
c28 7 42 14 33 14 -25 1 -30 17 -5 16 12 0 23 4 24 10 1 5 10 13 20 17 15 7
14 8 -4 4 -13 -2 -23 1 -23 7 0 7 -4 6 -9 -2 -5 -8 -21 -16 -34 -18 -14 -2
-51 -12 -83 -23 -65 -23 -67 -23 -60 -11 3 4 33 19 66 31 63 24 74 44 24 46
-56 2 -59 5 -24 25 l35 20 -50 -5 c-27 -2 -60 -8 -72 -11 -17 -6 -23 -3 -23 9
0 17 -42 32 -59 21 -6 -3 -11 -13 -11 -20 0 -23 -35 -35 -83 -29 -39 6 -47 3
-80 -26 -21 -18 -37 -38 -37 -45 0 -15 57 -95 68 -94 29 5 41 -16 19 -32 -5
-3 6 -6 23 -7 19 0 28 3 24 10 -4 7 -2 8 4 4 6 -4 8 -14 5 -24 -6 -15 -5 -15
10 -3 15 12 17 12 11 -4 -5 -11 -4 -16 3 -12 5 4 21 -5 34 -20 l24 -25 -22 6
c-23 7 -32 -7 -13 -19 6 -4 8 -10 5 -15 -5 -7 53 -68 104 -108 20 -15 22 -22
13 -39 -9 -17 -7 -29 11 -64 23 -44 24 -44 93 -51 38 -4 97 -9 131 -11 58 -3
62 -2 48 13 -14 16 -12 16 32 9 126 -21 215 -30 228 -25 8 3 15 1 15 -4 0 -6
12 -10 26 -10 18 0 28 6 31 20 3 12 8 20 12 18 3 -2 28 -12 54 -22 44 -17 49
-18 65 -2 10 9 24 16 30 16 7 0 12 5 12 11 0 5 5 7 10 4 6 -3 10 -22 10 -41 0
-24 5 -34 15 -34 18 0 19 -12 4 -27 -6 -6 -12 -19 -14 -29 -1 -11 -8 -18 -15
-16 -6 1 -9 -2 -6 -7 4 -5 -4 -17 -16 -25 -20 -14 -20 -16 -4 -22 13 -5 25 2
45 27 14 18 26 37 26 42 0 11 35 37 49 37 6 0 4 -4 -4 -10 -22 -14 -6 -22 22
-11 16 6 28 22 36 48 17 53 78 133 101 133 22 0 36 54 45 170 3 36 8 82 12
103 5 28 0 51 -17 92 -24 56 -38 69 -40 38 0 -15 -2 -15 -9 2 l-9 20 0 -20
c-1 -16 -4 -14 -17 10 -8 17 -22 37 -31 45 -14 13 -15 13 -9 -2 3 -10 9 -26
12 -35 4 -10 -7 2 -24 27 -50 73 -94 109 -170 139 -40 15 -69 31 -65 36 5 4 2
5 -5 1 -16 -9 -54 3 -47 15 4 5 0 9 -8 9 -8 0 -30 11 -49 24 -59 40 -124 55
-257 58 -76 2 -125 -1 -127 -7z m-274 -345 c-20 -13 -33 -13 -25 0 3 6 14 10
23 10 15 0 15 -2 2 -10z m421 -41 c79 -26 88 -30 160 -86 60 -45 71 -57 44
-47 -8 4 -15 10 -15 16 0 5 -5 6 -11 3 -6 -5 -4 -12 8 -21 10 -8 13 -13 6 -14
-21 0 -124 70 -118 81 7 11 -43 32 -57 23 -5 -3 -36 0 -69 7 -51 11 -59 16
-59 36 0 30 25 30 111 2z m-131 -15 c0 -11 -8 -14 -27 -12 -39 4 -42 28 -4 28
21 0 31 -5 31 -16z m-90 -4 c0 -5 -11 -10 -24 -10 -14 0 -28 5 -31 10 -4 6 7
10 24 10 17 0 31 -4 31 -10z m15 -110 c3 -6 -1 -13 -10 -16 -19 -8 -30 0 -20
15 8 14 22 14 30 1z m-202 -19 c20 -8 24 -16 22 -48 -1 -26 -6 -37 -15 -35
-15 4 -90 61 -90 69 0 6 18 -7 60 -42 23 -19 23 -18 -3 13 -41 50 -32 65 26
43z m407 -6 c0 -8 -7 -15 -15 -15 -8 0 -15 7 -15 15 0 8 7 15 15 15 8 0 15 -7
15 -15z m-194 -77 c3 -5 4 -12 1 -14 -7 -7 -47 15 -47 25 0 11 38 2 46 -11z
m155 -8 c10 -6 19 -15 19 -21 0 -17 -53 -31 -90 -23 -30 5 -32 8 -15 14 11 4
23 6 27 3 4 -2 5 3 2 11 -3 8 2 16 13 19 10 3 19 5 21 6 2 0 12 -4 23 -9z
m145 -16 c68 -30 104 -60 104 -86 0 -22 -10 -22 -72 -4 -25 8 -49 12 -52 9 -3
-3 -28 0 -55 7 l-51 12 32 44 c17 24 32 44 33 44 2 0 29 -12 61 -26z m-177
-64 c24 -6 41 -14 38 -17 -14 -13 -217 68 -217 87 0 6 31 -5 68 -24 37 -19 87
-39 111 -46z m-84 60 c3 -6 -1 -7 -9 -4 -18 7 -21 14 -7 14 6 0 13 -4 16 -10z"/>
<path d="M1415 3759 c-11 -32 10 -45 28 -18 9 12 14 26 11 31 -10 15 -33 8
-39 -13z"/>
<path d="M5377 3275 c-8 -6 -16 -19 -18 -29 -6 -29 -26 -30 -52 -3 -18 20 -26
23 -38 14 -17 -13 -69 -121 -69 -144 0 -8 -11 -29 -25 -47 -35 -46 -33 -103
10 -235 42 -129 70 -184 138 -269 l51 -65 20 24 c17 20 25 22 43 14 20 -9 22
-16 22 -78 -1 -38 1 -71 4 -73 3 -3 24 24 48 60 24 36 44 64 46 63 3 -4 -68
-140 -77 -147 -4 -3 -10 -48 -13 -100 -8 -116 -22 -168 -78 -296 -37 -86 -174
-323 -292 -505 -20 -31 -33 -60 -30 -63 17 -17 294 449 344 577 28 74 44 98
92 145 47 47 65 58 100 62 37 4 42 8 45 33 2 16 -2 34 -8 42 -9 11 -2 29 30
82 88 146 97 256 35 442 -37 113 -37 115 -20 144 10 17 20 59 23 98 4 59 1 77
-23 134 -15 36 -32 65 -37 65 -4 0 -17 9 -27 19 -40 40 -79 53 -118 40 -20 -6
-38 -8 -42 -2 -8 12 -66 11 -84 -2z m301 -257 c7 -7 12 -19 12 -28 0 -25 -65
-172 -75 -171 -10 1 -11 60 -2 145 6 60 35 84 65 54z m-189 -115 l24 -27 -28
-8 c-16 -4 -36 -3 -45 2 -10 5 -21 6 -25 2 -5 -4 -5 -1 -1 6 4 7 1 14 -7 18
-9 3 -12 14 -10 29 5 21 8 22 36 14 18 -5 43 -21 56 -36z m49 -61 c3 -10 -4
-13 -24 -10 -15 2 -29 9 -32 16 -3 10 4 13 24 10 15 -2 29 -9 32 -16z m-307
-35 c-13 -13 -26 -3 -16 12 3 6 11 8 17 5 6 -4 6 -10 -1 -17z m197 -141 c-4
-37 -24 -43 -57 -17 l-24 18 23 31 c22 30 25 31 42 15 13 -11 18 -27 16 -47z
m232 24 c0 -5 -4 -10 -10 -10 -5 0 -10 5 -10 10 0 6 5 10 10 10 6 0 10 -4 10
-10z m-73 -76 c-3 -3 -12 -4 -19 -1 -8 3 -5 6 6 6 11 1 17 -2 13 -5z m71 -23
c2 -13 1 -39 -3 -58 -10 -53 -35 -25 -35 39 0 42 3 49 18 46 9 -2 19 -14 20
-27z m-280 -7 c54 -12 56 -14 37 -28 -17 -12 -24 -10 -57 12 -40 26 -50 39
-22 28 9 -3 28 -9 42 -12z m334 2 c10 7 7 -21 -14 -100 -16 -64 -28 -28 -15
47 6 38 13 64 15 58 2 -6 8 -8 14 -5z m-32 -153 c0 -5 -9 -21 -20 -38 -11 -16
-20 -37 -20 -46 0 -9 -7 -22 -15 -29 -8 -7 -15 -8 -15 -2 0 20 50 122 60 122
5 0 10 -3 10 -7z m-103 -80 c-26 -40 -57 -72 -57 -56 0 18 69 107 77 99 3 -2
-7 -21 -20 -43z m-50 -160 c-16 -16 -17 -15 -17 17 0 32 1 33 17 17 16 -16 16
-18 0 -34z m101 29 c2 -7 -4 -15 -13 -18 -20 -8 -27 -1 -19 20 7 18 25 17 32
-2z"/>
<path d="M2978 3159 c-28 -16 -21 -51 23 -112 29 -42 46 -57 64 -57 58 0 48
81 -20 153 -28 29 -40 32 -67 16z"/>
<path d="M4463 3022 c-13 -2 -23 -8 -23 -13 0 -6 -15 -17 -32 -25 l-33 -15 45
6 c25 3 50 7 57 7 7 1 10 5 7 9 -2 4 0 9 6 11 18 6 -5 23 -27 20z"/>
<path d="M3520 3000 c0 -5 5 -10 11 -10 5 0 7 5 4 10 -3 6 -8 10 -11 10 -2 0
-4 -4 -4 -10z"/>
<path d="M3408 2975 c4 -11 24 -51 44 -90 31 -60 42 -73 83 -93 26 -13 49 -21
51 -19 2 2 -20 40 -48 85 -37 59 -57 82 -72 82 -11 0 -31 12 -43 28 -17 19
-21 21 -15 7z"/>
<path d="M3574 2940 c19 -25 73 -93 118 -152 75 -96 115 -137 89 -90 -15 26
-133 170 -192 232 -43 46 -45 48 -15 10z"/>
<path d="M4794 2965 c-10 -8 -14 -15 -8 -15 6 0 17 7 24 15 16 19 9 19 -16 0z"/>
<path d="M3260 2933 c0 -6 -3 -18 -6 -26 -3 -9 3 -16 15 -20 12 -3 21 -2 21 1
-1 13 -29 57 -30 45z"/>
<path d="M3721 2422 c18 -34 34 -60 36 -58 6 5 -30 75 -52 101 -9 11 -2 -8 16
-43z"/>
<path d="M5035 2423 c-38 -19 -71 -39 -73 -43 -2 -5 -46 -23 -98 -40 -51 -17
-96 -35 -99 -40 -3 -5 7 -22 21 -39 19 -23 22 -31 10 -31 -8 0 -18 5 -21 10
-4 6 -15 8 -25 5 -24 -8 -49 29 -66 98 l-12 52 -1 -56 c-2 -96 8 -111 101
-150 45 -19 97 -46 116 -61 19 -16 39 -28 43 -28 5 0 9 -6 9 -14 0 -26 82 -63
107 -48 6 4 16 25 22 47 13 49 21 60 44 61 10 1 17 -5 17 -16 0 -19 23 -33 35
-22 4 4 11 8 16 8 5 1 13 2 18 3 33 4 101 94 101 132 0 12 -114 -45 -158 -78
-18 -14 -36 -23 -39 -19 -14 14 12 38 79 72 71 35 188 135 188 160 0 15 -92
55 -105 44 -12 -9 -54 -3 -70 10 -29 24 -90 17 -160 -17z"/>
<path d="M4836 1953 c-3 -3 -17 -7 -31 -10 -61 -9 -75 -12 -131 -23 -32 -7
-92 -21 -133 -31 -96 -25 -110 -24 -146 7 -24 21 -37 25 -68 21 -36 -5 -83
-34 -72 -45 3 -3 0 -10 -5 -17 -12 -14 9 -26 97 -55 47 -15 89 -20 170 -20 98
0 114 -3 169 -29 58 -27 124 -90 124 -118 0 -28 -35 -32 -76 -8 -94 57 -118
66 -127 50 -4 -8 -19 -15 -32 -15 -25 0 -33 -14 -15 -25 24 -15 7 -24 -20 -10
-36 18 -90 21 -72 3 9 -9 4 -16 -21 -31 -17 -11 -45 -23 -61 -26 -35 -8 -43
-23 -21 -44 18 -19 19 -27 2 -27 -8 0 -13 -14 -14 -37 -2 -67 3 -71 166 -113
85 -22 165 -68 190 -108 19 -32 29 -38 57 -39 28 -1 45 8 87 47 36 33 53 57
55 76 1 15 9 35 17 44 14 16 13 19 -7 33 -23 15 -23 15 11 15 48 -1 64 23 57
87 -3 28 -6 51 -6 53 0 1 -8 2 -17 2 -42 1 -98 28 -101 50 -3 19 -1 21 35 14
53 -9 68 -19 93 -59 18 -29 21 -44 15 -81 l-6 -45 25 16 c14 9 34 35 45 58 22
46 37 142 21 132 -5 -3 -3 10 6 30 10 25 14 63 12 128 l-3 92 -41 0 c-32 1
-50 8 -78 33 -31 27 -43 31 -90 31 -30 -1 -57 -3 -60 -6z"/>
<path d="M4375 1057 c-15 -12 -16 -15 -4 -22 8 -5 11 -5 7 0 -4 4 0 14 10 21
23 18 11 18 -13 1z"/>
<path d="M4448 1023 c-25 -6 -22 -20 5 -27 14 -3 29 1 42 14 19 20 19 20 -5
19 -14 -1 -33 -3 -42 -6z m32 -13 c0 -5 -4 -10 -10 -10 -5 0 -10 5 -10 10 0 6
5 10 10 10 6 0 10 -4 10 -10z"/>
<path d="M4402 988 c2 -6 10 -14 16 -16 7 -2 10 2 6 12 -7 18 -28 22 -22 4z"/>
<path d="M984 975 c-4 -8 -11 -12 -17 -8 -6 3 -7 1 -3 -5 11 -19 32 -14 33 8
2 24 -5 26 -13 5z"/>
<path d="M4445 770 c3 -5 11 -10 16 -10 6 0 7 5 4 10 -3 6 -11 10 -16 10 -6 0
-7 -4 -4 -10z"/>
<path d="M1960 742 c0 -5 7 -13 16 -16 44 -17 232 -136 268 -169 56 -53 127
-102 120 -82 -7 18 -3 19 31 3 27 -12 32 -23 15 -33 -16 -10 -3 -22 61 -56 32
-18 57 -34 54 -37 -2 -3 3 -10 11 -17 13 -9 14 -16 6 -31 -12 -23 -18 -19 130
-100 57 -31 158 -90 224 -130 102 -62 129 -74 165 -74 42 0 43 0 21 16 -12 8
-27 12 -34 8 -7 -5 -8 -3 -3 6 6 10 4 12 -9 7 -10 -4 -15 -3 -11 3 6 9 -8 14
-28 11 -5 -1 -6 3 -2 9 3 5 1 11 -4 11 -6 1 -16 2 -21 3 -6 0 -14 6 -18 11 -4
6 -13 11 -20 13 -29 6 -292 186 -284 194 5 5 17 6 26 2 14 -5 15 -9 5 -15 -9
-5 16 -21 74 -48 88 -40 156 -78 325 -179 51 -30 95 -53 97 -50 11 11 -332
219 -583 353 -67 36 -110 65 -107 72 6 17 -47 59 -163 128 -136 82 -362 198
-362 187z m615 -410 c-3 -3 -11 0 -18 7 -9 10 -8 11 6 5 10 -3 15 -9 12 -12z
m65 -27 c0 -12 -19 -12 -23 0 -4 9 -1 12 9 8 7 -3 14 -7 14 -8z"/>
<path d="M2280 636 c0 -3 9 -10 20 -16 11 -6 20 -8 20 -6 0 3 -9 10 -20 16
-11 6 -20 8 -20 6z"/>
<path d="M1635 540 c-43 -142 -18 -126 30 18 11 34 14 57 8 63 -6 6 -20 -24
-38 -81z"/>
<path d="M1191 607 c-13 -17 -122 -289 -117 -294 2 -2 21 40 44 94 22 54 51
124 66 156 26 57 28 68 7 44z"/>
<path d="M1692 540 c-29 -99 -27 -123 4 -35 14 39 23 79 22 90 -2 11 -13 -14
-26 -55z"/>
<path d="M2500 491 c0 -6 5 -11 11 -11 6 0 8 -7 5 -16 -3 -8 -2 -12 3 -9 5 3
12 -3 15 -13 5 -16 54 -52 71 -52 11 0 -34 53 -71 83 -19 16 -34 24 -34 18z"/>
<path d="M4226 223 c5 -34 11 -77 20 -123 1 -8 6 -34 9 -58 5 -33 10 -42 26
-42 18 0 20 4 13 47 -3 27 -13 56 -21 65 -11 13 -13 24 -6 45 8 23 5 35 -15
66 -14 20 -26 37 -28 37 -1 0 -1 -17 2 -37z"/>
<path d="M2645 80 c-18 -19 -18 -24 -5 -47 20 -36 34 -38 48 -8 l12 25 50 -25
c27 -14 66 -25 87 -25 38 0 38 0 -42 46 -100 57 -124 62 -150 34z"/>
<path d="M1386 71 c-36 -8 -76 -40 -76 -62 0 -5 145 -9 333 -9 231 1 327 4
314 11 -9 5 -65 21 -125 35 -82 20 -142 26 -257 29 -82 2 -168 0 -189 -4z"/>
</g>
</svg>
