<?xml version="1.0" standalone="no"?>
<!DOCTYPE svg PUBLIC "-//W3C//DTD SVG 20010904//EN"
 "http://www.w3.org/TR/2001/REC-SVG-20010904/DTD/svg10.dtd">
<svg version="1.0" xmlns="http://www.w3.org/2000/svg"
 width="731.000000pt" height="479.000000pt" viewBox="0 0 731.000000 479.000000"
 preserveAspectRatio="xMidYMid meet">

<g transform="translate(0.000000,479.000000) scale(0.100000,-0.100000)"
fill="#000000" stroke="none">
<path d="M0 4420 l0 -369 25 -37 c24 -36 27 -49 29 -124 1 -28 23 -63 114
-185 62 -82 149 -195 194 -250 44 -54 83 -107 85 -116 8 -31 -17 -31 -72 1
-97 56 -245 238 -331 408 -42 85 -55 88 -33 8 6 -22 23 -51 38 -66 14 -15 32
-40 39 -55 31 -68 218 -309 302 -390 23 -22 66 -79 96 -127 45 -71 59 -103 71
-168 10 -49 19 -76 24 -68 6 9 13 0 23 -27 9 -22 29 -65 45 -95 24 -45 29 -68
28 -113 -1 -37 -5 -57 -13 -57 -21 0 -93 100 -99 138 -11 66 -13 68 -14 16 -1
-44 5 -60 39 -113 22 -34 55 -91 72 -127 17 -35 54 -92 82 -126 28 -35 59 -75
68 -89 9 -14 69 -59 133 -100 65 -41 166 -105 226 -144 59 -38 158 -99 220
-134 119 -69 122 -73 141 -169 19 -91 -12 -383 -63 -592 -55 -228 -136 -440
-221 -577 l-20 -33 181 0 181 0 0 70 c0 40 -4 70 -10 70 -5 0 -10 5 -10 10 0
11 30 13 54 4 13 -5 16 -23 16 -95 l0 -89 -215 0 -215 0 -16 -25 c-8 -13 -13
-29 -9 -35 3 -5 -1 -10 -9 -10 -8 0 -20 -9 -26 -20 -10 -20 -7 -20 132 -21
248 -2 358 -11 358 -28 0 -4 -22 -6 -49 -4 -42 2 -50 0 -54 -17 -5 -19 -14
-20 -151 -20 l-146 0 0 25 c0 24 -3 25 -57 25 l-58 0 -48 -60 c-29 -35 -45
-64 -41 -71 4 -8 3 -9 -4 -5 -16 10 -141 -112 -135 -133 2 -9 -3 -32 -12 -51
l-16 -35 5 37 c3 21 1 38 -3 38 -7 0 -44 -29 -100 -77 l-26 -22 112 -1 c108 0
112 1 116 22 l4 23 2 -22 c1 -22 5 -23 81 -23 l80 0 0 35 c0 19 5 35 10 35 6
0 10 -16 10 -35 0 -34 1 -35 40 -35 22 0 40 5 40 10 0 6 16 10 35 10 28 0 35
4 35 20 0 26 26 26 33 0 3 -12 14 -20 26 -20 12 0 21 -4 21 -8 0 -4 68 -9 150
-10 l150 -2 0 185 c0 185 0 185 -22 186 -16 0 -18 2 -8 6 37 14 40 58 5 67
-19 5 -25 13 -25 35 0 39 23 57 58 45 25 -9 27 -13 28 -74 1 -36 -2 -69 -6
-75 -12 -16 -21 -219 -14 -301 l7 -74 62 0 c34 0 64 2 66 5 3 2 2 29 -1 58 -4
37 -2 57 7 65 21 20 23 14 23 -58 l0 -70 30 0 30 0 1 78 c1 42 4 65 6 50 3
-22 10 -28 29 -28 l25 0 -2 225 c-2 213 -3 225 -21 225 -17 0 -18 5 -12 63 4
34 8 64 10 65 1 2 11 -1 21 -7 10 -6 14 -11 9 -11 -5 0 -3 -7 4 -15 7 -8 9
-15 4 -15 -5 0 -2 -4 5 -9 9 -6 22 -6 34 0 21 12 47 5 47 -11 0 -5 -21 -10
-47 -10 -35 0 -44 -3 -33 -10 8 -5 29 -10 45 -11 l30 -1 -34 -12 c-19 -7 -36
-17 -38 -22 -4 -12 44 -37 56 -30 4 3 7 -5 8 -17 0 -12 -1 -17 -3 -11 -8 19
-38 5 -51 -22 -6 -14 -7 -24 -1 -24 5 0 6 -6 1 -12 -17 -28 -11 -36 26 -35 20
1 39 6 42 11 4 5 14 -5 23 -23 15 -28 14 -35 -6 -32 -20 3 -59 -21 -55 -33 3
-7 1 -19 -3 -26 -7 -11 -12 -11 -23 -2 -12 10 -15 4 -21 -40 -10 -86 -7 -135
9 -152 18 -18 19 -33 3 -39 -10 -3 -10 -7 1 -20 9 -11 10 -17 2 -17 -6 0 -11
-4 -11 -10 0 -5 15 -10 33 -10 22 0 28 3 18 9 -21 13 -4 31 30 31 22 0 29 -5
29 -20 0 -19 7 -20 170 -20 l170 0 0 41 c0 36 -2 41 -20 36 -30 -8 -27 40 5
69 24 22 25 28 25 149 0 132 0 132 -47 126 -7 -1 -13 3 -13 9 0 5 16 10 35 10
32 0 34 2 29 28 -7 34 15 57 46 47 21 -7 28 -49 10 -60 -8 -5 -7 -12 1 -22 11
-12 8 -14 -17 -11 l-29 3 -3 -127 -3 -127 43 -3 c35 -2 44 -7 46 -25 3 -20 -2
-22 -45 -25 l-48 -3 43 -20 c23 -11 42 -23 42 -26 0 -4 9 -5 20 -2 11 3 20 0
20 -6 0 -6 -10 -11 -22 -11 -19 0 -20 -2 -8 -11 12 -9 11 -10 -7 -6 -12 3 -24
0 -27 -7 -3 -6 -3 -1 -1 10 6 24 -17 54 -41 54 -10 0 -14 -13 -14 -45 l0 -45
55 0 c78 0 105 19 105 75 0 25 -5 45 -12 48 -10 4 -10 6 0 6 6 1 12 12 12 25
0 13 -6 27 -12 29 -10 4 -10 6 0 6 9 1 12 41 12 168 0 172 13 211 24 73 9
-114 8 -109 31 -101 49 18 70 -10 81 -108 6 -53 4 -61 -10 -61 -10 0 -15 4
-11 9 3 5 -3 26 -12 45 -14 28 -24 36 -45 36 -25 0 -28 -4 -28 -34 0 -19 6
-37 13 -39 10 -4 10 -6 0 -6 -7 -1 -13 -10 -13 -20 0 -11 6 -22 13 -24 6 -3 3
-6 -7 -6 -31 -1 -9 -14 32 -18 20 -2 38 -8 40 -13 2 -5 10 -6 18 -3 16 6 19
-24 4 -47 -8 -13 -10 -12 -10 3 0 10 -4 16 -9 13 -5 -3 -12 4 -16 17 -7 21 -8
20 -15 -8 -4 -16 -8 -23 -10 -15 -1 11 -4 9 -9 -5 -5 -11 -6 -26 -4 -32 7 -17
60 -17 66 0 4 9 6 9 6 0 1 -16 1351 -19 1351 -3 0 32 130 343 149 354 3 2 42
-11 86 -31 44 -19 134 -55 200 -79 66 -25 128 -49 137 -54 10 -6 26 -10 36
-10 16 0 18 5 14 28 -3 15 -10 30 -16 34 -6 4 1 8 17 8 l27 0 0 95 0 94 -117
4 c-65 1 0 4 145 5 l262 2 0 -90 0 -90 -50 0 c-48 0 -50 1 -50 28 0 26 -3 28
-28 24 -39 -5 -59 20 -43 54 9 22 17 25 41 22 26 -4 30 -1 30 19 0 22 -2 23
-90 23 l-90 0 0 -95 0 -95 30 0 c32 0 40 -14 15 -24 -8 -3 -15 -1 -15 4 0 6
-6 10 -14 10 -15 0 -29 -60 -16 -73 4 -5 26 -11 49 -14 l41 -6 0 47 c0 29 -4
45 -10 41 -5 -3 -10 -1 -10 4 0 6 7 11 15 11 12 0 15 -14 15 -65 0 -37 4 -65
10 -65 6 0 10 33 10 80 0 50 4 80 11 80 6 0 10 -23 8 -57 -3 -98 0 -113 17
-113 10 0 14 6 11 15 -4 8 -2 17 4 20 5 4 9 12 8 18 -3 29 3 35 34 34 32 -2
32 -2 35 -59 l3 -57 47 -8 c55 -9 259 -9 269 0 3 4 6 23 5 42 -1 31 1 35 23
35 21 0 25 -5 25 -29 0 -17 4 -32 9 -35 13 -8 21 56 21 167 0 80 -3 97 -15 97
-8 0 -15 -3 -16 -7 0 -5 -1 -47 -1 -95 -1 -88 -1 -88 -27 -88 -19 0 -22 3 -12
9 8 5 11 16 8 25 -4 10 -1 16 8 16 17 0 20 16 6 24 -5 4 -12 0 -14 -6 -3 -7
-6 0 -6 15 -1 16 -5 26 -10 23 -14 -9 -22 40 -11 69 10 26 9 27 -15 21 -15 -4
-25 -2 -25 4 0 6 4 9 8 6 15 -9 32 10 36 41 3 30 39 87 50 81 3 -2 12 6 21 17
16 19 16 19 12 -8 -3 -20 -1 -27 8 -23 9 3 13 -5 13 -27 0 -55 2 -71 9 -63 4
4 8 26 9 49 2 60 2 59 25 47 62 -34 69 -48 69 -140 l0 -87 -37 -6 c-42 -7 -63
5 -56 32 3 10 0 22 -6 25 -7 5 -11 -7 -11 -33 0 -38 2 -41 28 -42 78 -2 158 3
167 12 5 6 5 9 -2 9 -7 0 -10 12 -9 27 2 16 4 38 5 51 2 34 18 26 29 -16 9
-33 10 -34 11 -9 1 15 5 27 9 27 22 0 35 66 42 215 9 172 14 198 56 274 21 40
37 55 80 75 59 28 85 60 57 70 -9 4 -21 2 -27 -4 -5 -5 -20 -10 -33 -10 -13 0
-23 -3 -23 -8 0 -6 -35 -7 -107 -3 -7 1 -13 8 -13 16 0 14 -4 14 -32 -1 -26
-14 -51 -15 -152 -9 -67 3 -137 10 -156 15 -91 23 -108 28 -118 34 -24 15
-142 55 -141 48 4 -22 -3 -24 -17 -4 -26 38 -42 21 -46 -49 -1 -23 -5 -25 -38
-25 -25 1 -36 -3 -33 -11 3 -6 11 -9 19 -6 8 3 14 0 14 -6 0 -6 7 -11 15 -11
20 0 19 -16 -1 -24 -8 -3 -13 -10 -10 -15 3 -5 -2 -15 -11 -22 -15 -12 -16
-12 -10 4 3 9 2 17 -3 17 -9 0 -15 -22 -11 -43 1 -5 -3 -6 -9 -2 -5 3 -10 35
-10 71 0 38 -4 64 -11 64 -5 0 -7 -4 -4 -10 3 -5 1 -10 -4 -10 -6 0 -11 12
-12 28 0 15 -3 22 -5 15 -3 -7 -12 -9 -20 -6 -13 5 -15 -3 -14 -43 4 -99 2
-104 -25 -104 -16 0 -25 -6 -25 -15 0 -8 -4 -15 -10 -15 -14 0 -13 317 1 326
8 4 7 9 -2 14 -8 6 0 14 27 26 31 14 68 18 184 18 80 1 152 5 160 11 20 13 37
15 185 21 107 4 147 2 223 -15 51 -11 99 -24 105 -29 7 -6 39 -13 72 -17 98
-11 120 -21 138 -63 9 -20 18 -48 20 -62 3 -16 5 -10 6 15 1 53 -14 104 -44
148 l-24 36 54 55 c92 95 123 232 71 320 -30 52 -53 132 -61 217 -7 61 -5 68
16 88 13 12 50 30 83 40 60 18 83 37 47 37 -11 0 -17 -4 -15 -8 7 -11 -42 -21
-71 -16 -14 3 -25 2 -25 -1 0 -4 -9 -7 -20 -7 -29 0 -25 13 10 31 35 18 57 19
63 3 4 -9 6 -8 6 2 1 12 12 15 49 13 81 -3 101 5 169 74 35 36 62 70 60 76 -2
6 5 19 15 29 10 10 18 26 18 36 0 15 -9 17 -76 14 -42 -2 -87 -1 -100 2 -40
10 -27 26 21 26 25 0 45 4 45 9 0 6 -8 9 -17 9 -39 -1 -278 14 -285 18 -4 3
-16 -1 -27 -8 -17 -11 -23 -10 -34 6 -15 21 -42 13 -33 -10 4 -11 -5 -14 -38
-14 -39 0 -45 3 -50 26 -8 29 -25 28 -37 -3 -7 -18 -1 -22 49 -33 32 -8 60
-13 65 -12 4 1 7 -3 7 -8 0 -6 -38 -10 -92 -11 -145 -1 -198 -5 -210 -17 -26
-26 7 -32 170 -33 92 -1 192 -4 222 -8 l55 -7 -65 -6 c-36 -4 -137 -7 -225 -8
-88 -1 -162 -3 -164 -6 -2 -2 43 -4 100 -4 l104 -1 -90 -44 c-93 -46 -134 -54
-182 -33 -63 27 -95 77 -50 79 24 1 18 4 -25 13 -35 8 -37 26 -3 26 29 0 36
34 9 44 -27 10 -54 7 -54 -8 0 -28 33 -172 43 -191 6 -11 11 -22 10 -25 -1 -3
15 -30 36 -59 27 -40 47 -58 76 -68 22 -7 54 -20 70 -27 17 -7 58 -26 92 -41
67 -29 86 -50 97 -105 10 -52 41 -78 107 -91 65 -13 73 -20 82 -66 8 -39 -4
-50 -63 -57 -25 -3 -62 -10 -82 -15 -21 -5 -38 -7 -38 -4 0 3 -6 1 -13 -5 -8
-7 -18 -7 -27 -2 -8 5 -22 4 -33 -2 -15 -7 -22 -7 -28 3 -7 11 -9 9 -9 -6 0
-15 -2 -17 -9 -6 -5 7 -11 9 -14 4 -4 -5 -16 -9 -29 -7 -13 1 -31 3 -41 3 -24
1 -11 21 14 21 10 0 19 5 19 11 0 5 4 7 10 4 6 -3 10 -1 10 5 0 6 4 8 10 5 6
-3 10 -2 10 2 0 14 81 39 135 42 59 3 74 11 22 11 -27 0 -35 4 -31 14 5 14
-29 15 -91 1 -16 -4 -52 -9 -79 -12 -46 -5 -48 -7 -30 -21 18 -14 18 -14 -4
-9 -12 3 -20 1 -17 -3 3 -5 0 -12 -6 -16 -6 -3 -15 0 -20 7 -5 8 -9 9 -9 3 0
-7 -15 -15 -33 -18 -17 -3 -53 -17 -79 -31 -26 -14 -57 -25 -69 -25 -12 0 -19
-3 -16 -7 12 -11 -28 -32 -74 -39 -24 -4 -51 -12 -59 -20 -19 -16 -156 -24
-272 -17 l-87 6 -3 36 c-3 33 -6 36 -35 38 l-33 1 -1 -126 c0 -70 0 -243 0
-384 0 -159 -3 -258 -9 -258 -6 0 -11 85 -13 213 l-2 212 -3 -212 c-2 -206 -3
-213 -22 -213 -20 0 -20 7 -20 420 0 413 0 420 20 420 17 0 20 -7 22 -42 l1
-43 4 40 c3 22 9 45 15 52 12 15 64 17 73 3 13 -21 21 -9 17 24 l-4 34 -44
-23 c-58 -31 -175 -31 -198 0 -12 16 -15 17 -16 4 0 -29 24 -49 63 -51 l38 -1
-3 -103 c-2 -56 -6 -100 -10 -97 -5 2 -8 22 -8 44 0 37 -2 39 -30 39 l-31 0 3
-137 c3 -136 3 -138 26 -141 13 -2 30 2 38 8 12 11 14 1 14 -65 0 -86 -10 -99
-11 -17 -2 52 -2 52 -35 52 l-33 0 -3 -228 c-2 -125 -3 -228 -3 -228 0 -1 107
-4 237 -7 194 -5 240 -3 252 8 9 10 16 11 24 3 6 -6 39 -12 74 -12 71 -2 167
-39 169 -65 4 -43 -4 -87 -19 -99 -22 -17 -28 -15 -52 10 -20 21 -20 23 -4 35
15 11 7 13 -52 14 -179 2 -639 -3 -647 -8 -7 -4 -4 289 3 322 1 6 -1 62 -5
125 -3 63 -6 199 -6 302 0 125 -3 189 -10 194 -17 10 -28 -16 -22 -53 4 -26 2
-33 -11 -33 -12 0 -16 10 -16 45 0 54 -11 57 -39 10 -11 -19 -27 -35 -36 -35
-8 0 -15 -9 -15 -20 0 -11 5 -20 10 -20 6 0 10 -4 10 -10 0 -5 -7 -10 -15 -10
-10 0 -15 -16 -18 -57 -3 -49 -4 -46 -5 23 -2 78 -3 82 -26 86 -14 3 -31 1
-38 -3 -10 -7 -9 -9 5 -9 9 0 17 -4 17 -10 0 -5 -12 -10 -26 -10 -14 0 -23 4
-19 10 3 6 2 10 -3 10 -12 0 -22 -25 -22 -56 0 -22 -4 -24 -54 -24 -47 0 -54
3 -60 23 -8 29 -8 222 0 281 l7 46 58 0 59 0 0 -55 c0 -42 3 -55 15 -55 19 0
19 -16 1 -27 -12 -7 -20 -50 -17 -90 1 -16 47 -17 56 -3 5 8 11 8 20 0 10 -8
14 -2 17 30 2 22 0 41 -3 42 -7 3 -12 55 -10 118 1 29 5 36 21 36 11 0 20 -3
20 -7 0 -4 9 -5 20 -2 11 3 20 10 20 17 0 6 5 4 10 -4 9 -13 11 -13 19 0 5 8
7 18 4 23 -8 14 18 27 55 27 17 0 32 4 32 9 0 4 -23 6 -51 3 l-50 -5 3 33 3
33 102 1 c56 1 104 4 108 8 19 19 -13 28 -101 28 l-94 0 -2 33 c0 17 -1 39 0
47 0 8 -4 22 -9 31 -6 12 -5 19 4 22 7 3 5 6 -5 6 -10 1 -18 -3 -18 -9 0 -5
-11 -10 -25 -10 -14 0 -25 -4 -25 -10 0 -11 -120 -14 -157 -4 -20 5 -23 13
-23 53 0 54 12 71 55 72 l30 1 -30 7 c-25 5 -31 12 -33 39 l-3 32 85 0 c85 0
86 0 86 -25 0 -14 -4 -25 -10 -25 -5 0 -10 -6 -10 -13 0 -11 23 -24 73 -41 9
-3 17 -15 17 -26 0 -11 7 -20 15 -20 11 0 15 12 15 50 l0 50 34 0 c37 0 60 19
54 47 -2 12 -12 18 -31 18 -28 -1 -36 9 -15 19 11 5 11 7 0 12 -8 4 -12 35
-12 105 0 99 0 99 -25 99 -24 0 -25 -2 -25 -65 0 -65 -10 -81 -29 -47 -8 14
-12 15 -22 5 -7 -7 -21 -13 -31 -13 -12 0 -18 -8 -19 -22 -1 -15 -4 -11 -9 12
-7 33 -7 33 -9 7 l-1 -29 -35 33 c-27 26 -35 42 -38 78 l-3 46 -2 -47 c-1 -27
-6 -48 -12 -48 -5 0 -11 21 -12 48 l-1 47 -7 -50 -7 -50 -3 50 -3 50 -6 -45
c-3 -25 -10 -45 -16 -45 -5 0 -13 20 -16 45 l-6 45 -1 -43 c-1 -26 -6 -41 -12
-37 -6 3 -10 2 -10 -4 0 -6 -12 -22 -27 -37 l-27 -27 -10 24 -9 24 -4 -22 c-5
-28 -53 -34 -53 -7 0 10 -6 14 -14 11 -7 -3 -19 0 -25 6 -15 15 -601 22 -601
7 0 -26 32 -68 60 -80 16 -7 30 -16 30 -21 0 -15 -57 19 -74 43 -15 21 -16 15
-16 -89 0 -97 2 -114 18 -122 18 -10 56 -9 107 3 l30 7 -30 -16 c-29 -15 -29
-15 33 -9 35 3 71 8 79 11 12 5 15 2 10 -10 -3 -9 -2 -17 3 -17 6 0 10 3 10 8
0 10 66 54 104 70 l31 12 -25 -19 c-13 -11 -27 -18 -31 -15 -9 5 -21 -27 -14
-34 3 -3 25 -1 48 5 30 8 56 9 87 2 44 -10 84 -28 64 -29 -7 0 -14 -9 -17 -20
-3 -11 -12 -20 -20 -20 -8 0 -17 -6 -20 -14 -9 -22 -44 -8 -51 20 -7 28 -14
29 -52 9 -16 -8 -37 -15 -47 -15 -10 0 -22 -10 -27 -22 -8 -21 -9 -20 -9 10
-1 39 -28 44 -37 6 -5 -19 -12 -24 -31 -22 -13 2 -22 7 -21 13 2 5 6 9 11 8 4
-2 7 1 7 6 0 4 -22 6 -50 3 -33 -3 -50 -1 -50 7 0 17 -107 14 -113 -3 -5 -12
-13 -13 -41 -5 -43 12 -106 18 -107 10 0 -3 -2 -29 -4 -58 -1 -28 -6 -56 -9
-62 -10 -16 -55 -13 -73 5 -14 14 -18 14 -31 1 -19 -20 -6 -40 23 -35 16 4 22
1 18 -9 -11 -28 -63 -10 -63 21 0 27 18 46 42 46 24 0 25 60 2 95 -15 23 -15
25 0 25 9 0 16 7 16 15 0 8 -8 15 -18 15 -27 0 -42 20 -41 55 2 30 2 30 8 -5
4 -26 12 -36 28 -38 22 -3 22 -2 21 107 -1 65 -5 108 -11 104 -5 -3 -4 4 2 15
18 33 14 37 -39 34 l-50 -4 0 -39 c0 -38 1 -39 35 -39 29 0 36 -4 41 -26 6
-25 -17 -87 -24 -65 -2 6 -12 11 -22 11 -17 0 -20 -10 -22 -87 -3 -83 -4 -88
-25 -91 l-23 -3 0 225 c0 217 1 226 19 226 11 0 23 -4 26 -10 3 -5 26 -10 51
-10 l44 0 0 170 0 170 -257 0 c-142 0 -269 -3 -281 -7 -22 -5 -23 -10 -20 -59
2 -33 -1 -53 -7 -51 -5 2 -11 24 -13 50 -2 33 -8 47 -20 50 -15 4 -15 5 1 6
10 0 15 6 12 11 -3 6 -44 10 -91 10 -98 0 -117 -19 -21 -22 l62 -2 -57 -3
c-42 -3 -58 -8 -58 -18 0 -20 -16 -19 -24 1 -3 8 -11 12 -16 9 -6 -4 -22 1
-37 10 -14 9 -22 12 -19 6 4 -6 0 -11 -8 -11 -9 0 -13 6 -10 14 4 10 -5 16
-25 21 -17 4 -31 11 -31 16 0 6 4 8 9 5 17 -11 41 6 41 29 0 13 4 26 8 29 5 3
120 6 256 7 224 2 249 1 258 -14 8 -15 32 -17 218 -17 l208 0 5 -57 c3 -32 6
-125 6 -208 1 -82 4 -151 6 -153 2 -3 28 -5 56 -5 40 0 55 5 65 19 7 11 18 24
24 31 16 19 12 73 -6 80 -9 3 -14 13 -11 24 3 11 1 17 -4 13 -5 -3 -9 -12 -9
-20 0 -8 -4 -14 -10 -14 -11 0 -33 37 -27 48 3 4 1 16 -4 27 -5 14 -8 2 -8
-38 -1 -38 -6 -64 -16 -73 -13 -14 -15 -13 -15 11 0 15 4 24 10 20 7 -4 11 76
12 232 2 228 2 232 8 83 3 -91 9 -150 14 -142 4 7 8 30 9 50 0 20 2 30 4 21 3
-12 14 -6 45 23 30 28 44 35 49 26 6 -9 0 -15 -19 -20 -15 -4 -38 -24 -51 -43
-23 -34 -23 -36 -6 -55 18 -20 19 -20 39 -2 38 33 75 47 88 34 9 -9 6 -12 -12
-12 -36 0 -93 -56 -84 -82 9 -29 12 -49 14 -83 l2 -30 9 31 c5 18 16 34 24 38
19 7 19 -8 0 -24 -8 -7 -13 -15 -11 -19 3 -4 0 -27 -5 -52 -20 -95 -20 -94
-30 -78 -8 11 -9 10 -7 -6 3 -19 12 -20 308 -23 289 -4 303 -3 289 14 -11 13
-11 18 -2 21 16 6 17 35 1 51 -9 9 -8 18 2 38 13 23 12 27 -3 35 -21 12 -22
29 -2 29 19 0 21 50 3 68 -10 10 -10 17 0 32 16 26 15 40 -3 40 -19 0 -19 14
0 34 30 30 19 46 -34 46 -29 0 -51 5 -53 12 -3 8 -15 9 -46 1 -23 -6 -42 -7
-42 -2 0 5 -20 9 -45 9 l-45 0 0 110 0 110 53 0 c28 0 58 4 66 9 8 5 -53 10
-150 13 -148 4 -165 3 -179 -13 -12 -14 -34 -18 -115 -20 -55 -2 -105 0 -112
4 -8 5 -11 29 -9 70 l3 62 111 3 111 3 6 -46 7 -45 107 1 c58 1 133 5 166 9
l60 7 -73 2 c-71 1 -73 2 -78 29 -6 29 -8 30 -126 32 -34 1 -46 5 -42 14 3 8
15 11 31 8 15 -3 29 1 35 9 8 11 9 11 5 -1 -4 -12 2 -16 25 -14 17 1 34 8 38
14 6 9 9 9 15 0 5 -8 13 -5 26 9 18 19 32 21 162 23 83 1 111 3 67 5 -73 4
-103 14 -81 27 6 4 11 2 11 -3 0 -6 18 -11 40 -11 33 0 40 3 40 19 0 11 -6 21
-12 24 -7 2 4 8 24 12 46 9 57 2 50 -31 -4 -20 -2 -25 7 -19 7 4 11 18 8 31
-5 30 9 34 91 30 34 -2 62 1 62 6 0 4 -38 8 -85 8 l-84 0 -7 34 c-3 19 -3 48
1 65 6 30 13 34 58 34 9 0 17 4 17 9 0 5 5 6 10 3 6 -3 10 -1 10 5 0 7 6 8 19
0 24 -12 34 -13 27 -1 -7 10 19 23 28 13 12 -11 36 -11 29 1 -4 7 0 8 11 4 10
-4 25 -3 35 2 11 6 44 5 92 -4 41 -7 68 -14 60 -14 -22 -1 -3 -15 26 -19 14
-2 43 -12 65 -23 21 -11 43 -17 48 -14 6 4 22 -3 36 -14 37 -29 70 -27 87 6
l14 26 19 -23 c63 -78 118 -99 179 -68 28 15 60 20 131 21 94 2 94 2 125 -30
30 -33 60 -46 89 -40 48 11 70 20 70 29 0 5 8 8 18 6 11 -2 34 16 64 51 47 53
91 85 102 73 3 -3 6 2 6 11 0 11 -8 17 -21 17 -17 0 -18 2 -7 13 7 6 25 18 41
26 29 15 37 41 12 41 -10 0 -15 10 -15 31 0 17 4 28 10 24 6 -3 11 4 11 17 1
17 3 18 6 5 2 -9 9 -15 14 -12 14 9 11 71 -5 84 -13 11 -12 15 2 31 9 11 19
15 22 10 3 -5 17 -3 34 5 16 8 46 15 67 15 21 0 41 5 44 10 3 6 18 10 32 10
24 0 25 2 18 38 -4 20 -9 48 -11 60 -4 39 -14 38 -14 -2 0 -71 -8 -76 -123
-75 -102 1 -105 2 -35 14 34 5 37 8 35 35 -1 17 -5 30 -9 30 -4 0 -5 9 -3 20
3 16 -2 20 -23 21 -17 1 -21 3 -9 6 23 6 26 113 2 113 -8 0 -15 -9 -15 -21 0
-30 -18 -59 -38 -59 -10 0 -13 3 -6 8 28 19 38 90 13 93 -5 1 -13 3 -19 4 -5
1 -15 3 -20 4 -6 0 -16 12 -22 26 -8 17 -17 24 -28 20 -28 -9 -48 5 -55 36 -8
34 -22 46 -38 30 -9 -9 -9 -14 -1 -19 17 -11 36 -51 29 -62 -3 -6 -1 -10 6
-10 7 0 10 -3 6 -6 -5 -5 -47 20 -90 55 -17 14 -16 15 10 27 35 15 27 16 -117
15 -72 0 -107 3 -112 12 -5 8 -11 8 -15 2 -9 -12 -36 -13 -44 -3 -3 5 -39 10
-80 12 -41 3 -90 8 -109 12 -31 6 -33 5 -17 -7 15 -12 11 -14 -35 -14 -36 0
-53 -4 -52 -12 1 -7 2 -71 3 -143 1 -121 2 -130 20 -130 11 0 22 6 24 13 3 7
6 4 6 -6 1 -15 8 -18 39 -15 34 3 38 6 46 40 11 44 36 60 36 23 0 -16 -6 -25
-15 -25 -18 0 -20 -36 -2 -43 30 -11 -9 -20 -77 -18 -66 2 -74 0 -79 -19 -6
-23 -48 -28 -65 -7 -12 14 -22 216 -11 222 4 3 5 23 2 45 -5 32 -2 44 13 54
17 13 15 14 -20 13 -33 -1 -36 -2 -20 -14 17 -12 16 -13 -5 -13 -18 0 -21 -4
-16 -22 5 -20 4 -21 -7 -7 -21 25 -38 11 -38 -32 0 -38 1 -39 35 -39 38 0 40
-5 25 -44 -10 -27 -43 -37 -38 -12 2 8 -1 16 -7 18 -6 2 -11 -38 -13 -101 -5
-125 -13 -154 -45 -149 -14 2 -23 11 -25 25 -3 19 -6 21 -29 12 -14 -5 -28 -7
-31 -5 -3 3 3 8 12 12 20 8 21 20 0 28 -8 3 -13 2 -10 -3 9 -14 -43 -4 -72 15
-28 18 -67 54 -57 54 3 0 -4 17 -15 37 -13 24 -20 57 -20 90 0 29 -4 53 -10
53 -6 0 -10 -35 -10 -84 l0 -83 41 -47 c30 -34 52 -49 85 -57 46 -12 59 -29
23 -29 -24 0 -81 31 -117 64 -32 28 -59 94 -68 162 -6 52 -8 56 -20 39 -20
-27 -17 -113 5 -160 24 -54 69 -105 91 -105 24 0 50 -10 50 -19 0 -4 -18 -8
-40 -9 -38 -3 -40 -1 -84 65 -25 37 -48 82 -51 98 -11 59 -23 180 -19 187 3 5
0 8 -5 8 -10 0 -16 -57 -12 -102 2 -13 -3 -16 -14 -12 -10 4 -14 14 -11 23 19
61 19 62 -3 68 -27 7 -27 17 2 32 15 8 16 9 2 4 -11 -3 -46 -7 -77 -7 -64 -1
-65 1 -70 87 -2 42 -13 56 -31 38 -7 -7 -6 -12 6 -17 23 -8 24 -116 2 -134
-20 -17 -32 -5 -15 15 7 8 9 15 5 15 -4 0 -4 6 1 13 5 7 2 5 -8 -5 -16 -18
-33 -25 -25 -10 3 4 1 25 -3 47 -7 38 -8 36 -9 -22 -1 -40 3 -63 10 -63 7 0 9
-13 5 -37 -3 -21 -8 -69 -11 -108 -12 -161 -16 -189 -34 -230 -17 -39 -85
-107 -96 -95 -2 3 -11 -4 -20 -15 -9 -11 -13 -14 -10 -7 9 17 -202 -112 -233
-142 -22 -21 -22 -24 -7 -40 21 -20 42 -22 25 -1 -10 12 -10 15 3 15 8 0 17
-6 20 -12 3 -10 11 -10 36 -1 17 6 29 7 26 3 -3 -5 16 -10 41 -12 26 -2 49 -8
51 -15 3 -9 -20 -11 -99 -6 -117 6 -138 16 -122 60 7 21 43 49 146 113 75 47
132 86 128 88 -5 2 -21 -4 -37 -13 -23 -14 -21 -11 6 12 63 51 88 82 95 114 3
17 3 36 0 41 -4 6 -6 45 -5 88 2 63 -1 77 -13 77 -13 0 -15 -18 -13 -120 l2
-119 -50 -44 c-27 -24 -53 -44 -56 -44 -10 0 -145 -78 -189 -108 l-35 -25 35
32 c19 17 42 38 51 46 9 8 21 15 27 15 7 0 12 5 12 10 0 6 9 10 21 10 11 0 18
4 15 8 -3 5 12 18 32 29 85 46 100 58 111 88 14 39 14 65 1 65 -6 0 -10 33
-10 80 0 44 -4 80 -9 80 -4 0 -7 -50 -6 -110 l3 -110 -36 -30 c-20 -17 -40
-30 -45 -30 -5 0 -21 -8 -35 -18 -34 -23 -62 -34 -62 -23 0 4 18 16 40 26 53
24 120 87 120 113 0 12 -7 25 -16 30 -11 6 -14 14 -8 23 11 18 5 130 -7 146
-7 8 -3 12 13 15 30 4 36 34 9 43 -15 4 -21 15 -21 36 0 34 -25 68 -33 46 -3
-7 -6 -5 -6 6 -1 11 6 17 19 17 18 0 20 7 20 55 0 54 0 55 30 55 l29 0 4 -102
3 -103 2 103 2 102 33 2 c22 1 15 4 -23 8 l-55 8 68 -2 c67 -1 68 -1 65 24 -1
14 1 30 5 37 5 8 -2 11 -22 11 -17 -1 -32 -7 -35 -15 -3 -7 -11 -13 -18 -13
-9 0 -9 3 2 11 11 8 12 12 3 16 -28 11 -11 18 34 14 43 -3 50 0 73 28 25 29
34 32 136 46 144 20 138 17 132 70 -4 31 -20 65 -54 115 -72 106 -74 106 -76
9 l-2 -84 -5 94 c-6 91 -7 94 -38 118 -30 24 -32 24 -28 5 6 -31 -29 -113 -59
-139 -15 -13 -40 -23 -57 -23 -17 0 -32 -6 -35 -15 -5 -13 -10 -13 -36 1 -29
15 -29 15 -18 -6 6 -11 15 -18 21 -15 5 4 9 2 9 -4 0 -16 -89 -36 -120 -26
-15 5 -19 13 -16 31 4 19 0 24 -15 24 -14 0 -19 7 -19 25 0 22 4 25 38 25 21
0 41 3 44 6 4 3 0 21 -8 41 -17 40 -10 91 15 110 14 11 12 12 -11 13 -16 0
-28 -5 -28 -11 0 -8 -4 -8 -14 0 -10 9 -16 9 -21 1 -4 -6 -4 -14 -1 -17 3 -4
6 0 6 8 1 10 4 9 11 -4 15 -26 2 -37 -34 -30 -41 8 -41 7 -27 32 9 18 8 21 -9
21 -11 0 -22 -8 -24 -17 -4 -17 -5 -17 -6 0 0 9 -6 17 -12 17 -7 0 -9 -10 -6
-26 5 -29 -15 -54 -44 -54 -19 0 -24 18 -20 63 2 14 -6 17 -51 17 -48 0 -57
-3 -76 -29 -12 -17 -18 -33 -12 -36 11 -7 10 -74 -2 -81 -4 -3 -8 2 -8 10 0 9
-5 16 -11 16 -7 0 -9 -9 -6 -22 6 -21 5 -22 -7 -5 -11 14 -15 15 -19 5 -4 -10
-6 -10 -6 0 -1 7 -15 12 -36 12 -19 0 -35 5 -35 10 0 6 9 10 20 10 27 0 25 18
-2 23 -13 2 -5 5 18 6 35 1 46 7 68 35 14 19 26 37 26 40 0 3 -99 5 -220 6
l-220 0 0 -60 c0 -53 2 -60 19 -60 11 0 23 -5 27 -11 4 -8 9 -7 15 2 7 11 9
10 9 -3 0 -9 -8 -22 -17 -27 -17 -10 -17 -10 0 -11 9 0 17 -4 17 -10 0 -5 -22
-10 -50 -10 -47 0 -50 2 -50 25 l0 26 -157 -2 c-87 0 -164 -1 -170 0 -9 1 -13
22 -13 72 l0 70 -325 -2 c-288 -1 -327 -3 -336 -18 -9 -14 -10 -14 -5 2 5 17
-4 18 -142 15 -81 -2 -156 -7 -166 -12 -14 -7 -17 -6 -12 2 5 9 -66 12 -293
12 l-301 0 0 -35 c0 -19 5 -35 10 -35 6 0 10 -10 10 -22 0 -12 -3 -18 -7 -15
-3 4 -12 2 -19 -4 -19 -15 -37 25 -32 72 l4 39 -448 0 -448 0 0 -370z m1650
340 c11 -21 6 -40 -11 -40 -6 0 -8 4 -4 9 3 5 1 12 -5 16 -13 8 -13 35 0 35 5
0 14 -9 20 -20z m834 -36 c9 -67 7 -104 -4 -104 -6 0 -10 -28 -10 -65 0 -57 2
-65 19 -65 10 0 24 -7 31 -15 11 -13 8 -14 -19 -9 l-31 7 6 -109 c3 -60 8
-112 10 -116 3 -4 1 -8 -4 -8 -5 0 -9 -32 -8 -72 1 -70 0 -71 -26 -79 -16 -4
-30 -3 -33 1 -3 5 -12 7 -19 4 -8 -3 -17 -1 -20 4 -3 6 -6 125 -6 266 -1 156
-5 256 -10 256 -14 0 -13 97 1 106 6 3 9 15 6 25 -5 17 1 19 53 19 l57 0 7
-46z m-655 32 c-20 -16 -99 -56 -99 -49 0 11 70 52 89 53 8 0 12 -2 10 -4z
m-109 -57 c0 -4 -9 -6 -19 -4 -11 2 -25 -3 -31 -10 -6 -7 -20 -12 -30 -10 -10
2 -21 -2 -23 -9 -3 -7 -43 -27 -89 -44 -196 -73 -218 -81 -218 -76 0 8 101 49
201 83 75 24 99 37 110 57 7 14 25 28 40 31 20 4 26 10 22 22 -3 10 3 8 16 -8
12 -13 21 -27 21 -32z m405 -3 c-10 -14 -22 -26 -27 -26 -10 0 -3 16 20 43 22
25 27 13 7 -17z m39 -37 c-9 -30 -20 -58 -24 -64 -5 -5 -7 -43 -6 -83 1 -60
-2 -72 -14 -70 -11 2 -16 21 -18 73 -2 39 -1 84 2 100 6 29 64 111 73 102 2
-3 -4 -29 -13 -58z m174 9 l-3 -53 -82 -3 c-59 -2 -83 1 -83 9 0 9 20 10 76 5
l76 -7 -7 40 c-7 41 -2 61 16 61 6 0 9 -22 7 -52z m839 10 c-3 -7 -5 -2 -5 12
0 14 2 19 5 13 2 -7 2 -19 0 -25z m233 2 c0 -5 -4 -10 -9 -10 -6 0 -13 5 -16
10 -3 6 1 10 9 10 9 0 16 -4 16 -10z m-368 -17 c6 -23 -1 -45 -13 -37 -12 7
-12 54 0 54 5 0 11 -8 13 -17z m-2009 -62 c26 -30 29 -41 10 -34 -28 11 -42
35 -42 73 l1 35 8 -29 c5 -15 15 -36 23 -45z m2558 30 c-10 -6 -18 -36 -20
-68 -1 -9 -19 -13 -54 -13 -52 0 -53 0 -55 31 -3 43 6 67 26 71 25 5 115 -14
103 -21z m-386 9 c3 -5 1 -10 -4 -10 -6 0 -11 5 -11 10 0 6 2 10 4 10 3 0 8
-4 11 -10z m40 0 c3 -5 1 -10 -4 -10 -6 0 -11 5 -11 10 0 6 2 10 4 10 3 0 8
-4 11 -10z m-1950 -19 c7 -12 -12 -24 -25 -16 -11 7 -4 25 10 25 5 0 11 -4 15
-9z m748 -31 c-41 -39 -63 -50 -63 -31 0 11 79 69 95 70 6 0 -9 -17 -32 -39z
m-813 -27 c13 -40 13 -44 -4 -56 -11 -8 -16 -19 -13 -24 4 -6 0 -13 -8 -16 -9
-4 -12 -1 -8 9 3 8 -1 14 -10 14 -8 0 -25 21 -38 46 -24 45 -24 45 -4 60 36
27 68 14 85 -33z m1917 41 c-3 -3 -12 -4 -19 -1 -8 3 -5 6 6 6 11 1 17 -2 13
-5z m53 -4 c0 -5 -4 -10 -10 -10 -5 0 -10 5 -10 10 0 6 5 10 10 10 6 0 10 -4
10 -10z m148 -9 c2 -1 2 -16 0 -33 -3 -30 -6 -33 -38 -35 -39 -2 -50 9 -50 50
0 27 1 28 43 23 23 -3 43 -5 45 -5z m-1753 -30 c-3 -6 -10 -9 -15 -6 -5 3 -11
1 -15 -5 -4 -6 -11 -7 -17 -4 -6 4 -8 -2 -4 -17 7 -24 7 -24 -8 1 -12 19 -15
21 -16 8 0 -10 -3 -17 -7 -16 -5 0 -34 -11 -66 -25 -32 -15 -61 -27 -66 -27
-18 0 -20 -32 -5 -63 l16 -32 -27 26 -27 27 18 31 c10 18 30 35 44 38 36 9
100 42 100 52 0 5 19 16 43 24 42 14 66 9 52 -12z m1305 14 c7 -8 21 -15 31
-15 11 0 19 -5 19 -11 0 -6 -10 -9 -22 -8 -13 2 -29 0 -36 -5 -19 -11 -42 0
-42 22 0 34 28 44 50 17z m-2497 -66 c74 -60 101 -97 85 -116 -32 -38 -99 5
-141 91 -46 94 -34 99 56 25z m700 44 c-7 -2 -19 -2 -25 0 -7 3 -2 5 12 5 14
0 19 -2 13 -5z m182 -15 c-19 -11 -30 -5 -21 11 4 6 14 7 22 4 15 -5 14 -7 -1
-15z m650 12 c-3 -5 -14 -10 -23 -10 -15 0 -15 2 -2 10 20 13 33 13 25 0z
m1065 -1 c0 -5 4 -8 9 -5 5 3 15 -2 22 -12 13 -15 12 -16 -3 -3 -14 10 -18 10
-18 1 0 -10 -3 -10 -15 0 -17 14 -20 30 -5 30 6 0 10 -5 10 -11z m-1946 -7 c3
-5 -1 -9 -9 -9 -8 0 -12 4 -9 9 3 4 7 8 9 8 2 0 6 -4 9 -8z m2038 -16 c15 -21
8 -36 -17 -36 -21 0 -25 5 -25 30 0 24 3 28 18 23 9 -4 20 -11 24 -17z m106 0
c-7 -8 -15 -12 -17 -11 -5 6 10 25 20 25 5 0 4 -6 -3 -14z m420 -43 c2 -34 0
-43 -12 -43 -9 0 -16 6 -17 13 0 10 -2 10 -6 0 -3 -8 -25 -13 -59 -13 -48 0
-54 2 -54 21 0 11 -4 18 -9 15 -5 -4 -4 8 2 24 12 31 12 31 82 28 l70 -3 3
-42z m452 -28 c0 -9 -6 -12 -17 -8 -24 9 -33 23 -33 53 l1 25 24 -28 c14 -15
25 -34 25 -42z m-1987 20 c4 -8 2 -17 -3 -20 -6 -4 -10 3 -10 14 0 25 6 27 13
6z m-985 -13 c2 -7 -3 -12 -12 -12 -9 0 -16 7 -16 16 0 17 22 14 28 -4z m2225
-12 c11 -16 27 -20 103 -22 l89 -3 5 -60 c3 -36 8 -55 13 -47 10 16 29 15 51
-1 16 -12 16 -14 -5 -41 -15 -19 -25 -24 -32 -17 -27 27 -30 4 -24 -224 3
-142 2 -237 -4 -240 -5 -4 -9 -1 -9 4 0 17 -37 13 -44 -4 -4 -12 -29 -15 -136
-15 l-130 0 -1 38 c-1 20 -1 43 0 50 1 6 -5 12 -14 12 -8 0 -15 9 -15 20 0 11
7 20 15 20 12 0 15 16 14 93 -1 82 -2 88 -11 50 -5 -24 -13 -43 -17 -43 -4 0
-18 11 -30 24 l-22 24 40 33 41 32 0 74 c0 56 -3 72 -12 67 -10 -6 -10 -4 0 7
14 15 16 39 3 39 -5 0 -17 -7 -26 -16 -9 -9 -18 -14 -20 -12 -3 3 8 17 25 31
19 17 30 37 30 53 0 14 -4 23 -8 20 -4 -2 -14 0 -22 5 -12 7 -11 10 8 15 12 4
22 13 22 21 0 9 -5 11 -12 7 -9 -5 -9 -2 1 9 20 26 115 24 134 -3z m-1143 -45
c0 -24 -4 -47 -10 -50 -6 -4 -10 15 -10 50 0 35 4 54 10 50 6 -3 10 -26 10
-50z m879 38 c0 -10 -4 -27 -8 -37 -7 -19 -8 -19 -14 3 -6 26 0 51 14 51 5 0
9 -8 8 -17z m-1925 1 c22 -8 20 -21 -4 -29 -28 -9 -44 3 -29 21 13 16 12 16
33 8z m1173 -26 c-3 -7 -5 -2 -5 12 0 14 2 19 5 13 2 -7 2 -19 0 -25z m846 -9
c-15 -31 -38 -47 -50 -35 -5 5 52 63 64 66 1 0 -5 -14 -14 -31z m-1855 1 c-4
-19 -76 -35 -123 -26 -52 10 -38 30 26 36 84 8 100 7 97 -10z m137 10 c3 -5 1
-10 -4 -10 -6 0 -11 5 -11 10 0 6 2 10 4 10 3 0 8 -4 11 -10z m-561 -7 c4 -5
11 -8 16 -8 4 0 26 -19 48 -42 22 -23 51 -43 64 -46 21 -4 21 -4 -4 -6 -20 -1
-37 11 -69 47 -23 26 -37 37 -30 25 18 -35 14 -55 -11 -51 -25 3 -53 50 -44
74 6 15 18 18 30 7z m730 -29 c9 -25 7 -72 -4 -79 -19 -12 -48 6 -58 34 -14
39 -4 50 49 60 4 0 10 -6 13 -15z m521 -22 c-22 -5 -27 1 -19 23 7 17 8 17 21
-1 12 -17 12 -19 -2 -22z m693 15 c6 -5 11 -19 11 -31 l-2 -21 -4 21 c-2 13
-18 28 -41 37 -33 14 -34 15 -7 10 17 -3 36 -10 43 -16z m111 7 c2 -2 1 -10
-2 -19 -8 -19 -37 -20 -37 0 0 8 -5 15 -10 15 -6 0 -8 -11 -4 -25 4 -17 2 -25
-7 -25 -7 0 -9 -3 -5 -7 4 -5 20 -8 34 -8 18 0 28 -6 30 -19 3 -16 -1 -18 -27
-14 -17 2 -31 1 -31 -4 0 -4 -4 -8 -10 -8 -6 0 -10 28 -10 64 l0 65 38 -6 c20
-3 39 -7 41 -9z m26 -14 c3 -5 1 -10 -4 -10 -6 0 -11 5 -11 10 0 6 2 10 4 10
3 0 8 -4 11 -10z m-1472 -7 c-13 -2 -33 -2 -45 0 -13 2 -3 4 22 4 25 0 35 -2
23 -4z m1612 -32 c6 -10 -21 -41 -36 -41 -5 0 -9 5 -9 10 0 6 5 9 12 8 7 -2
13 3 14 10 3 25 8 29 19 13z m642 3 c-3 -3 -12 -4 -19 -1 -8 3 -5 6 6 6 11 1
17 -2 13 -5z m-1813 -32 c2 -4 -11 -6 -30 -4 -19 2 -34 6 -34 8 0 8 59 4 64
-4z m-1268 -28 c16 -24 16 -26 0 -42 -16 -16 -18 -16 -37 7 -10 13 -19 32 -19
42 0 28 36 24 56 -7z m534 16 c0 -5 -5 -10 -11 -10 -5 0 -7 5 -4 10 3 6 8 10
11 10 2 0 4 -4 4 -10z m848 3 c-15 -2 -42 -2 -60 0 -18 2 -6 4 27 4 33 0 48
-2 33 -4z m945 0 c-7 -2 -21 -2 -30 0 -10 3 -4 5 12 5 17 0 24 -2 18 -5z
m-1423 -9 c-36 -8 -100 -9 -100 -2 0 5 26 7 58 7 31 -1 50 -3 42 -5z m203 -1
c-29 -2 -78 -2 -110 0 -32 2 -8 3 52 3 61 0 87 -1 58 -3z m-313 -7 c0 -2 -7
-7 -16 -10 -8 -3 -12 -2 -9 4 6 10 25 14 25 6z m1234 -11 c4 -11 -2 -15 -22
-15 -26 1 -26 1 -8 15 24 18 23 18 30 0z m366 -9 c0 -8 -4 -18 -10 -21 -5 -3
-10 3 -10 14 0 12 5 21 10 21 6 0 10 -6 10 -14z m120 11 c0 -2 -19 -18 -42
-36 l-43 -32 39 35 c37 34 46 40 46 33z m-1420 -35 c0 -4 -10 -18 -23 -32 -13
-14 -34 -46 -47 -73 -13 -26 -32 -55 -42 -63 -15 -14 -14 -8 6 42 44 112 58
134 83 134 13 0 23 -3 23 -8z m1320 -17 c-12 -13 -26 -22 -30 -20 -5 3 -10 -2
-14 -10 -3 -9 -12 -12 -22 -8 -15 5 -14 7 2 16 11 6 22 15 26 21 5 7 8 6 8 -4
0 -10 5 -7 16 8 8 12 20 22 26 22 6 0 1 -11 -12 -25z m-1662 -8 c2 -12 -3 -17
-17 -17 -23 0 -24 1 -15 25 8 19 28 15 32 -8z m1517 14 c3 -5 -3 -12 -12 -14
-10 -3 -5 -5 12 -6 22 -1 33 -8 42 -26 12 -27 5 -33 -15 -13 -9 9 -12 9 -12
-1 0 -7 -9 -11 -22 -9 -16 2 -24 12 -29 35 -3 18 -4 35 -1 38 9 8 30 6 37 -4z
m-1485 -46 c-12 -15 -40 -21 -40 -8 0 3 8 15 17 25 21 23 43 7 23 -17z m-949
6 c16 -13 34 -17 59 -14 26 4 44 -1 70 -19 44 -30 52 -58 16 -58 -26 0 -36
-15 -15 -22 11 -4 41 -79 35 -86 -2 -2 -17 9 -34 25 -16 15 -36 33 -44 38 -89
59 -127 100 -128 138 0 22 12 22 41 -2z m2099 11 c0 -13 -12 -22 -22 -16 -10
6 -1 24 13 24 5 0 9 -4 9 -8z m2421 -39 c13 -16 12 -17 -3 -4 -17 13 -22 21
-14 21 2 0 10 -8 17 -17z m-2071 -74 c0 -38 -1 -39 -35 -39 -48 0 -93 44 -71
69 11 12 28 15 60 13 l46 -4 0 -39z m118 10 c3 -41 -18 -58 -42 -34 -8 8 -19
15 -25 15 -5 0 -13 10 -16 21 -9 27 10 40 50 37 27 -3 30 -7 33 -39z m-981 -1
c-3 -7 -5 -2 -5 12 0 14 2 19 5 13 2 -7 2 -19 0 -25z m178 2 c3 -5 -1 -10 -9
-10 -9 0 -16 5 -16 10 0 6 4 10 9 10 6 0 13 -4 16 -10z m2592 -82 c-2 -13 -4
-5 -4 17 -1 22 1 32 4 23 2 -10 2 -28 0 -40z m-2032 27 c6 0 11 -10 13 -23 3
-20 0 -22 -25 -16 -33 7 -37 7 -125 3 -61 -3 -66 -4 -57 -22 22 -39 -38 -86
-69 -55 -20 20 -13 51 20 85 26 27 39 33 75 33 24 0 43 -4 43 -10 0 -13 68 -6
82 8 6 6 16 8 22 4 6 -4 16 -7 21 -7z m-2070 -11 c8 -4 22 -19 30 -34 12 -23
12 -30 1 -46 -13 -17 -15 -17 -39 -1 -64 41 -57 106 8 81z m2305 -54 c0 -60 0
-60 -27 -59 -16 1 -52 -1 -80 -5 l-53 -8 0 31 c0 20 5 31 14 31 8 0 21 3 30 6
12 4 16 0 16 -15 0 -27 16 -27 23 -1 4 16 11 19 39 15 18 -3 27 -3 21 1 -16 7
-17 36 -1 52 7 7 13 12 15 12 2 0 3 -27 3 -60z m-1445 25 c45 -7 332 -142 322
-151 -10 -10 13 -45 24 -39 5 4 0 -10 -11 -30 -11 -20 -16 -34 -10 -30 5 3 10
4 10 1 0 -2 3 -12 7 -22 6 -17 5 -17 -17 -1 -29 20 -53 23 -27 3 11 -8 15 -20
11 -32 -5 -15 -4 -16 5 -4 15 22 24 5 9 -19 -11 -18 -11 -23 2 -31 12 -8 12
-10 -3 -16 -10 -3 -21 -4 -24 0 -4 3 -1 6 6 6 7 0 9 5 6 10 -4 6 -11 8 -16 4
-6 -3 -18 3 -27 13 -41 45 -152 133 -203 162 -64 35 -134 41 -210 17 -24 -8
-56 -17 -71 -20 -16 -4 -27 -10 -26 -14 3 -17 -16 -42 -33 -42 -16 0 -18 6
-14 45 4 55 43 125 89 160 34 26 103 45 141 39 11 -1 38 -6 60 -9z m-980 -24
c-6 -5 -25 10 -25 20 0 5 6 4 14 -3 8 -7 12 -15 11 -17z m2247 -41 c4 -24 1
-30 -14 -30 -12 0 -18 7 -18 23 0 45 26 51 32 7z m815 8 c-3 -8 -6 -5 -6 6 -1
11 2 17 5 13 3 -3 4 -12 1 -19z m-2940 -14 c1 0 -1 -12 -5 -26 l-7 -26 -29 24
c-30 26 -29 46 1 23 15 -11 16 -11 6 1 -20 22 -15 31 10 18 12 -7 23 -13 24
-14z m4073 11 c0 -2 -6 -5 -13 -8 -8 -3 -14 1 -14 8 0 7 6 11 14 8 7 -3 13 -6
13 -8z m-4158 -30 c5 -44 -15 -47 -36 -6 -16 31 -13 41 15 41 12 0 18 -10 21
-35z m4336 -31 c2 -1 -1 -11 -7 -22 -8 -14 -21 -20 -41 -20 -26 1 -30 5 -30
29 0 26 2 27 38 22 20 -3 38 -7 40 -9z m560 4 c17 -17 15 -33 -3 -18 -12 10
-15 10 -15 -4 0 -9 7 -16 15 -16 8 0 15 -5 15 -11 0 -6 -7 -9 -15 -5 -10 3
-15 -1 -16 -12 -1 -9 -5 1 -9 23 -10 53 1 70 28 43z m-2758 -32 c36 10 39 10
28 -5 -7 -9 -17 -19 -23 -23 -5 -4 9 -7 32 -6 23 0 46 -3 52 -6 6 -4 11 0 11
9 0 27 23 11 32 -21 10 -35 4 -54 -17 -54 -10 0 -15 10 -15 28 -1 27 -1 27
-15 -7 -8 -18 -15 -51 -15 -73 0 -24 -4 -37 -10 -33 -6 3 -13 -1 -17 -10 -3
-10 0 -21 8 -25 21 -14 9 -16 -72 -12 -74 3 -77 4 -82 30 -3 15 -4 28 -2 30 1
1 24 3 51 4 27 0 52 6 56 12 6 8 8 7 8 -1 0 -7 9 -13 19 -13 14 0 20 9 23 36
6 47 -2 94 -14 94 -6 0 -8 -12 -5 -28 5 -27 4 -28 -29 -24 -36 4 -40 14 -24
56 9 24 7 26 -15 26 -17 0 -25 6 -25 18 0 14 2 15 10 2 7 -12 16 -12 50 -4z
m-2035 -12 c23 -24 16 -68 -12 -72 -24 -4 -43 27 -43 69 0 24 32 26 55 3z
m2280 -16 c3 -13 2 -62 -3 -110 -4 -47 -4 -84 0 -82 4 3 8 -11 8 -32 0 -31 -3
-36 -20 -31 -14 4 -20 0 -20 -11 0 -13 -2 -14 -8 -4 -5 8 -16 10 -27 6 -12 -5
-16 -4 -11 4 3 6 2 13 -4 17 -5 3 -10 -1 -10 -9 0 -12 -10 -16 -35 -16 l-35 0
0 49 c0 28 5 53 12 57 7 5 8 3 3 -5 -5 -10 4 -11 41 -6 27 4 54 8 60 10 13 4
24 73 12 77 -4 2 -8 18 -10 36 -1 19 -6 36 -10 38 -15 9 5 34 28 34 16 0 25
-7 29 -22z m-2795 2 c0 -5 -2 -10 -4 -10 -3 0 -8 5 -11 10 -3 6 -1 10 4 10 6
0 11 -4 11 -10z m1840 6 c0 -11 -19 -15 -25 -6 -3 5 1 10 9 10 9 0 16 -2 16
-4z m541 -33 c-12 -20 -14 -14 -5 12 4 9 9 14 11 11 3 -2 0 -13 -6 -23z m132
-5 c-7 -39 -16 -47 -49 -40 -31 6 -36 15 -24 44 10 22 10 22 5 -4 -7 -34 7
-37 24 -5 l12 22 -5 -23 c-2 -12 0 -20 5 -16 5 3 9 11 9 18 0 10 19 36 27 36
1 0 0 -15 -4 -32z m-2544 -20 c22 -29 27 -44 19 -49 -7 -5 -20 9 -35 36 -37
70 -30 76 16 13z m4738 -8 c23 -10 44 -16 47 -12 3 3 6 -2 6 -11 0 -9 5 -17
11 -17 5 0 8 -4 5 -9 -4 -5 0 -12 6 -14 7 -3 3 -6 -9 -6 -12 -1 -25 4 -28 10
-5 7 -15 5 -31 -5 -26 -17 -48 -22 -24 -5 12 8 10 9 -10 7 -19 -2 -26 2 -28
20 -4 28 -10 28 -34 -4 -12 -15 -29 -24 -42 -23 -30 2 -86 -12 -86 -22 0 -12
-37 -11 -61 1 -16 9 -19 7 -19 -10 0 -24 -22 -26 -44 -4 -15 14 -16 14 -16 -5
0 -27 -39 -39 -56 -17 -10 15 -12 15 -17 -3 -8 -32 -51 -37 -94 -11 l-38 22
24 -26 24 -26 -34 -14 c-19 -8 -37 -12 -41 -10 -5 3 -8 0 -8 -5 0 -6 -9 -11
-20 -11 -11 0 -20 -5 -20 -11 0 -5 -4 -7 -10 -4 -5 3 -10 2 -10 -4 0 -5 -9 -8
-20 -6 -11 2 -18 0 -15 -5 3 -5 1 -11 -5 -15 -5 -3 -10 3 -10 14 0 12 3 21 8
21 4 0 32 23 62 50 54 49 178 120 271 154 123 46 282 53 366 16z m-2868 -64
c1 -67 -5 -55 -12 24 -4 40 -2 57 3 45 5 -11 9 -42 9 -69z m1501 54 c0 -5 -5
-10 -11 -10 -5 0 -7 5 -4 10 3 6 8 10 11 10 2 0 4 -4 4 -10z m407 4 c-3 -3
-12 -4 -19 -1 -8 3 -5 6 6 6 11 1 17 -2 13 -5z m136 -1 c-18 -2 -48 -2 -65 0
-18 2 -4 4 32 4 36 0 50 -2 33 -4z m-873 -12 c0 -5 -7 -12 -16 -15 -14 -5 -15
-4 -4 9 14 17 20 19 20 6z m-2870 -37 c0 -8 4 -14 10 -14 5 0 14 -10 20 -22 7
-14 -3 -7 -25 16 -35 39 -48 70 -20 46 8 -7 15 -19 15 -26z m2287 4 c-3 -7 -5
-2 -5 12 0 14 2 19 5 13 2 -7 2 -19 0 -25z m130 0 c-3 -8 -6 -5 -6 6 -1 11 2
17 5 13 3 -3 4 -12 1 -19z m803 9 c0 -2 -15 -16 -32 -33 l-33 -29 29 33 c28
30 36 37 36 29z m-3070 -29 c0 -18 -2 -20 -9 -8 -6 8 -7 18 -5 22 9 14 14 9
14 -14z m2081 -18 c5 0 9 6 10 13 0 10 2 10 6 0 2 -7 12 -13 22 -13 11 0 17
-9 19 -30 l2 -30 -95 0 c-94 0 -95 0 -95 24 0 13 -6 27 -12 29 -7 3 17 6 55 6
56 1 67 4 68 19 1 16 2 16 6 0 2 -10 9 -18 14 -18z m-2311 11 c0 -5 3 -17 7
-27 4 -11 3 -15 -4 -11 -14 9 -24 47 -12 47 5 0 9 -4 9 -9z m2141 -20 c-8 -5
-11 -16 -6 -30 6 -20 3 -21 -49 -21 -52 0 -56 2 -56 23 0 34 7 37 69 37 35 0
51 -4 42 -9z m2604 -11 c7 -12 -2 -12 -30 0 -19 8 -19 9 2 9 12 1 25 -3 28 -9z
m-3705 -4 c0 -3 -4 -8 -10 -11 -5 -3 -10 -1 -10 4 0 6 5 11 10 11 6 0 10 -2
10 -4z m2150 0 c0 -11 -19 -15 -25 -6 -3 5 1 10 9 10 9 0 16 -2 16 -4z m-3110
-49 c0 -16 -18 3 -23 25 -6 22 -5 22 8 4 8 -11 15 -24 15 -29z m430 33 c0 -5
-7 -7 -15 -4 -8 4 -15 8 -15 10 0 2 7 4 15 4 8 0 15 -4 15 -10z m-275 -32 c15
-26 20 -29 24 -15 6 15 10 14 34 -8 32 -30 31 -28 11 -66 -9 -18 -22 -29 -31
-27 -16 3 -83 112 -83 136 0 23 26 12 45 -20z m3503 -60 c2 -67 0 -88 -13 -98
-12 -10 -21 -10 -38 -1 -14 7 -92 12 -207 14 l-185 2 188 3 c158 2 187 4 187
17 0 12 -18 15 -92 17 l-93 2 95 6 c88 6 102 15 17 12 -31 -2 -39 2 -49 23
-14 31 6 59 38 52 13 -2 28 -1 34 3 6 4 -3 7 -20 8 -57 1 -45 12 13 12 31 0
59 5 62 10 4 6 19 9 33 7 27 -4 27 -5 30 -89z m-2667 -89 c9 -13 29 -37 43
-54 30 -33 32 -42 41 -135 15 -163 18 -187 31 -219 8 -18 14 -42 14 -51 0 -10
15 -28 34 -40 19 -11 36 -24 38 -28 13 -30 232 -186 252 -179 6 2 19 -5 30
-15 23 -21 51 -25 40 -5 -6 9 -5 9 7 0 10 -8 19 -9 29 -1 12 8 11 9 -4 4 -16
-6 -17 -4 -6 9 7 8 21 15 31 15 27 0 23 15 -12 44 -34 29 -44 32 -55 15 -4 -8
-9 -8 -17 0 -14 14 -30 14 -22 1 10 -16 -1 -11 -16 7 -12 14 -12 16 0 8 10 -5
12 -4 7 3 -4 7 -14 12 -22 12 -8 0 -13 5 -11 12 1 7 -5 13 -13 14 -8 0 -18 2
-22 4 -11 4 -26 7 -39 9 -5 0 -7 6 -4 11 3 6 -2 10 -12 10 -10 0 -29 9 -43 20
-14 11 -30 20 -35 20 -6 0 -19 12 -30 27 -11 14 -25 32 -31 38 -48 48 -97 238
-94 365 3 172 7 201 30 225 42 45 115 23 205 -59 28 -25 53 -46 58 -46 15 0
-34 -40 -50 -41 -26 -1 -78 -35 -76 -48 2 -6 -3 -11 -11 -11 -17 0 -29 -27
-15 -36 6 -3 6 -11 1 -17 -4 -7 -7 -18 -6 -24 1 -7 2 -27 3 -44 1 -20 5 -28
13 -23 7 5 9 2 5 -8 -5 -15 19 -47 36 -47 22 1 74 -15 94 -28 12 -8 38 -48 59
-89 55 -111 119 -156 231 -163 12 -1 35 -44 48 -88 7 -26 78 -87 119 -103 16
-6 26 -13 23 -16 -3 -3 -90 -5 -193 -5 l-187 1 34 -39 34 -40 170 0 c211 1
213 0 207 -26 -3 -11 -10 -23 -15 -27 -7 -4 -6 -12 3 -22 17 -22 10 -27 -41
-29 -33 -2 -43 -6 -41 -17 3 -11 -1 -10 -17 4 -18 16 -37 18 -201 15 -199 -4
-200 -4 -200 58 0 17 5 35 10 38 17 11 11 20 -22 34 -18 8 -39 21 -46 28 -7 7
-30 17 -50 23 -23 6 -44 20 -54 37 -9 16 -34 47 -55 71 -50 55 -77 91 -93 122
-7 14 -16 27 -19 30 -8 7 -51 98 -51 109 0 5 -10 30 -22 57 -12 27 -23 54 -24
59 -2 6 -12 42 -24 80 -12 39 -23 79 -25 90 -1 11 -10 37 -19 59 -11 23 -16
55 -13 82 2 24 -1 45 -6 47 -5 1 -2 11 7 20 10 9 22 14 28 11 7 -4 8 -2 4 5
-4 7 -4 20 0 29 4 11 11 -10 18 -59 6 -41 18 -86 27 -100z m719 151 c0 -5 -2
-10 -4 -10 -3 0 -8 5 -11 10 -3 6 -1 10 4 10 6 0 11 -4 11 -10z m690 -10 c0
-5 -2 -10 -4 -10 -3 0 -8 5 -11 10 -3 6 -1 10 4 10 6 0 11 -4 11 -10z m-180
-20 c7 11 10 11 10 2 0 -7 5 -10 10 -7 6 3 10 1 10 -4 0 -11 -19 -15 -55 -11
-26 3 -29 6 -21 27 7 17 8 17 22 -2 13 -17 16 -18 24 -5z m62 -28 l-6 -27 -6
25 c-8 30 -1 58 10 40 4 -6 5 -23 2 -38z m-2273 -42 c34 -38 61 -71 61 -74 0
-3 -7 -6 -16 -6 -23 0 -134 115 -134 139 0 31 22 17 89 -59z m120 26 c51 -84
26 -107 -27 -25 -19 28 -31 58 -28 66 8 19 27 5 55 -41z m1881 24 c0 -34 -7
-33 154 -30 69 1 96 -2 91 -9 -3 -6 -3 -21 1 -34 7 -21 7 -21 14 -3 6 19 7 19
12 -2 l6 -22 -169 0 -169 0 0 55 c0 30 -4 55 -10 55 -5 0 -10 5 -10 10 0 6 18
10 40 10 38 0 40 -2 40 -30z m460 -75 l-5 -30 -3 28 c-2 15 -12 32 -22 37 -11
6 -25 20 -31 32 -12 22 -12 22 14 6 24 -17 25 -17 33 10 7 26 8 25 13 -13 3
-22 4 -53 1 -70z m585 88 c-2 -10 -4 -20 -4 -23 -1 -3 -5 2 -11 10 -6 9 -5 17
3 22 16 10 16 10 12 -9z m-2696 -47 c27 -24 44 -63 35 -78 -8 -13 -114 98
-114 119 0 13 4 13 28 -2 15 -10 38 -27 51 -39z m1581 20 c0 -8 -4 -18 -10
-21 -5 -3 -10 3 -10 14 0 12 5 21 10 21 6 0 10 -6 10 -14z m587 -13 c-4 -3 -2
-12 4 -20 6 -7 8 -13 4 -13 -4 0 -2 -6 4 -14 9 -10 8 -16 -4 -26 -8 -7 -12
-16 -9 -21 3 -5 -6 -4 -20 3 -14 6 -26 15 -26 20 0 5 9 4 19 -1 15 -8 20 -7
26 6 3 10 3 14 -1 11 -9 -10 -46 11 -39 22 3 5 13 7 23 4 13 -4 12 -2 -3 7
-19 12 -19 12 0 20 26 10 30 10 22 2z m-970 -18 c0 -8 -4 -12 -9 -9 -4 3 -8 9
-8 15 0 5 4 9 8 9 5 0 9 -7 9 -15z m1473 -25 c-12 -17 -24 -49 -27 -70 -3 -22
-9 -37 -13 -35 -21 13 27 135 52 135 5 0 0 -14 -12 -30z m-70 -11 c-7 -11 -14
-18 -17 -15 -3 3 0 12 7 21 18 21 23 19 10 -6z m1620 2 c0 -59 -56 -131 -102
-131 -27 0 -28 2 -28 45 0 43 1 45 30 45 18 0 33 6 36 15 4 8 12 15 19 15 7 0
15 7 19 15 8 22 26 19 26 -4z m-2187 -7 c12 -12 -6 -34 -28 -34 -18 0 -22 4
-18 20 5 19 32 27 46 14z m2043 -56 c-10 -39 -24 -54 -36 -42 -9 9 -8 20 5 43
9 17 13 37 9 44 -4 7 1 5 11 -5 12 -11 16 -24 11 -40z m-1394 10 c-8 -8 -9 -4
-5 13 4 13 8 18 11 10 2 -7 -1 -18 -6 -23z m1319 9 c-10 -9 -11 -8 -5 6 3 10
9 15 12 12 3 -3 0 -11 -7 -18z m-2191 -9 c0 -6 -3 -8 -7 -5 -3 4 -13 1 -21 -6
-13 -11 -14 -9 -2 10 14 22 30 22 30 1z m-1946 -30 c5 -8 6 -23 3 -32 -9 -22
-37 -8 -62 30 -14 22 -15 28 -4 35 15 9 47 -8 63 -33z m94 11 c3 -26 -19 -59
-39 -59 -19 0 -32 46 -19 69 16 31 54 25 58 -10z m1942 -33 c-15 -15 -13 -136
3 -136 8 0 7 -3 -3 -10 -18 -11 -26 1 -24 37 1 16 2 57 3 93 2 60 3 63 16 46
10 -13 12 -23 5 -30z m687 12 c-3 -8 -6 -5 -6 6 -1 11 2 17 5 13 3 -3 4 -12 1
-19z m-824 -8 c-3 -11 -10 -23 -16 -27 -7 -4 -8 0 -4 11 4 10 7 22 7 27 0 5 4
9 9 9 5 0 7 -9 4 -20z m267 -5 c0 -8 -9 -15 -20 -15 -20 0 -26 11 -13 23 12
13 33 7 33 -8z m695 -37 c6 -5 19 -15 30 -23 20 -14 20 -14 -3 -15 -12 0 -31
-6 -42 -12 -15 -10 -23 -10 -28 -2 -4 6 -17 14 -29 18 -33 11 -31 51 5 69 25
13 28 12 42 -6 8 -12 20 -25 25 -29z m-121 10 c9 -37 7 -48 -9 -42 -9 4 -15
19 -15 35 0 34 15 38 24 7z m-687 -20 c-3 -8 -6 -5 -6 6 -1 11 2 17 5 13 3 -3
4 -12 1 -19z m236 -8 c-6 -23 -23 -27 -23 -5 0 8 5 15 11 15 5 0 7 5 3 12 -4
6 -3 8 4 5 5 -4 8 -16 5 -27z m726 14 c37 2 36 -22 -1 -32 -37 -10 -98 -5 -98
9 0 5 11 9 24 9 13 0 27 8 30 17 5 12 9 14 14 6 4 -6 18 -10 31 -9z m-561 -10
c38 -19 44 -60 12 -89 -18 -16 -25 -14 -21 7 0 4 -17 11 -39 14 -22 4 -43 11
-47 17 -3 6 -1 7 5 3 7 -4 12 -3 12 1 0 7 40 63 45 63 1 0 16 -7 33 -16z
m-268 -57 c0 -5 -7 -4 -15 3 -13 11 -15 8 -15 -13 0 -26 45 -71 61 -62 4 3 13
-5 20 -17 9 -19 9 -21 -2 -10 -7 6 -17 12 -21 12 -4 0 -8 -48 -8 -107 0 -58
-2 -104 -5 -101 -3 3 -6 53 -6 111 0 93 -2 107 -20 123 l-21 19 4 -73 c2 -51
0 -72 -9 -72 -15 0 -26 17 -15 24 5 3 10 32 10 65 1 48 -4 68 -24 98 l-25 38
26 -28 c23 -26 25 -27 25 -7 0 12 -5 31 -11 43 -9 18 -6 16 20 -7 17 -17 31
-34 31 -39z m-568 8 c8 0 12 -11 11 -28 -1 -17 6 -36 18 -48 18 -18 18 -21 4
-43 -10 -15 -14 -33 -9 -50 5 -20 2 -26 -10 -26 -9 0 -16 -5 -16 -11 0 -17
-44 -53 -48 -40 -2 6 -8 11 -13 11 -4 0 -6 -7 -3 -15 7 -18 -3 -20 -19 -2 -17
18 -21 34 -25 112 -3 62 -1 74 22 105 14 19 31 45 38 58 l12 23 12 -23 c7 -13
18 -23 26 -23z m898 -10 c0 -40 -4 -55 -14 -55 -11 0 -12 8 -6 35 4 20 6 44 3
55 -3 11 0 20 6 20 7 0 11 -21 11 -55z m-1116 29 c3 -8 2 -12 -4 -9 -6 3 -10
10 -10 16 0 14 7 11 14 -7z m842 -8 c18 -14 18 -15 2 -21 -24 -9 -23 -26 3
-61 20 -27 19 -27 -9 3 -17 17 -32 30 -34 28 -2 -3 -2 11 0 30 5 39 9 41 38
21z m76 -87 c2 -35 -1 -55 -7 -53 -6 3 -8 35 -6 82 5 78 8 71 13 -29z m-2212
32 c5 -10 6 -21 3 -25 -15 -15 -34 -3 -50 32 -9 20 -19 41 -21 46 -9 17 58
-35 68 -53z m1793 33 c15 -19 16 -23 2 -34 -12 -10 -16 -8 -25 15 -6 15 -7 31
-4 37 3 5 7 8 8 6 0 -2 9 -12 19 -24z m-1588 -43 c-7 -23 -34 -28 -53 -9 -16
16 -15 34 4 53 16 15 18 15 37 -3 13 -13 17 -26 12 -41z m164 3 c25 -36 30
-49 19 -55 -25 -16 -89 64 -73 91 11 18 20 11 54 -36z m1511 14 c0 -5 -7 -8
-15 -8 -15 0 -20 21 -8 33 7 7 23 -11 23 -25z m760 -14 c0 -33 -1 -34 -37 -33
-21 1 -30 3 -20 6 9 2 17 11 17 18 0 8 -8 18 -17 24 -16 9 -15 11 7 19 36 14
50 4 50 -34z m243 35 c-6 -6 -8 -20 -5 -31 4 -15 7 -17 13 -6 7 10 9 9 9 -4 0
-10 7 -18 15 -18 10 0 15 10 15 29 0 24 14 41 35 41 2 0 2 -17 2 -37 l-2 -38
-52 -1 c-47 -2 -51 0 -56 23 -4 22 14 53 31 53 3 0 1 -5 -5 -11z m195 -6 c-6
-7 -12 -13 -13 -13 -2 0 -5 6 -8 13 -3 7 3 13 14 13 13 0 15 -3 7 -13z m140
-5 c2 -13 -1 -16 -12 -12 -9 3 -13 11 -9 17 4 6 0 8 -10 4 -10 -3 -17 -2 -17
4 0 18 45 5 48 -13z m-1647 -45 c13 -16 12 -17 -3 -4 -10 7 -18 15 -18 17 0 8
8 3 21 -13z m729 -7 c0 -3 -4 -8 -10 -11 -5 -3 -10 -1 -10 4 0 6 5 11 10 11 6
0 10 -2 10 -4z m-367 -64 c-3 -29 -10 -52 -14 -52 -12 0 -11 11 3 65 15 57 19
53 11 -13z m453 32 c-4 -15 -2 -32 5 -40 15 -19 -2 -39 -25 -31 -21 8 -20 55
1 79 22 24 26 23 19 -8z m-258 -29 c-3 -3 -9 2 -12 12 -6 14 -5 15 5 6 7 -7
10 -15 7 -18z m-351 -37 c-3 -8 -6 -5 -6 6 -1 11 2 17 5 13 3 -3 4 -12 1 -19z
m358 12 c3 -5 2 -10 -4 -10 -5 0 -13 5 -16 10 -3 6 -2 10 4 10 5 0 13 -4 16
-10z m82 -4 c0 -8 -6 -12 -15 -9 -11 5 -11 7 0 14 7 5 13 9 14 9 0 0 1 -6 1
-14z m-63 -24 c2 -4 -4 -8 -15 -8 -10 0 -19 4 -19 8 0 4 6 8 14 8 8 0 17 -4
20 -8z m296 -32 c0 -10 -7 -23 -15 -30 -13 -11 -15 -7 -15 30 0 37 2 41 15 30
8 -7 15 -20 15 -30z m-2495 -8 c-3 -3 -11 0 -18 7 -9 10 -8 11 6 5 10 -3 15
-9 12 -12z m1785 -8 c0 -8 -4 -14 -10 -14 -5 0 -10 9 -10 21 0 11 5 17 10 14
6 -3 10 -13 10 -21z m-1790 -66 c44 -98 5 -120 -49 -28 -29 48 -27 70 4 70 21
0 30 -9 45 -42z m2374 6 c5 -14 4 -15 -9 -4 -17 14 -19 20 -6 20 5 0 12 -7 15
-16z m-764 -13 c0 -3 -4 -12 -9 -19 -6 -10 -10 -10 -20 2 -15 18 -6 37 14 29
8 -3 15 -8 15 -12z m570 4 c0 -8 -2 -15 -4 -15 -2 0 -6 7 -10 15 -3 8 -1 15 4
15 6 0 10 -7 10 -15z m-330 -5 c0 -5 -18 -10 -41 -10 -24 0 -38 4 -34 10 3 6
22 10 41 10 19 0 34 -4 34 -10z m404 -86 c3 -9 -12 1 -34 22 -22 21 -40 40
-40 42 0 9 69 -51 74 -64z m771 36 c0 -21 -4 -24 -25 -22 -14 2 -46 6 -72 9
-60 6 -63 23 -4 23 25 0 48 5 51 11 4 5 17 9 28 7 16 -2 22 -10 22 -28z
m-2955 5 c6 -8 14 -32 17 -54 4 -32 2 -42 -11 -47 -26 -10 -38 9 -44 65 -4 41
-2 51 11 51 8 0 20 -7 27 -15z m225 -5 c3 -5 1 -10 -4 -10 -6 0 -11 5 -11 10
0 6 2 10 4 10 3 0 8 -4 11 -10z m1472 -12 c-3 -8 -6 -5 -6 6 -1 11 2 17 5 13
3 -3 4 -12 1 -19z m103 1 c0 -6 -4 -7 -10 -4 -5 3 -10 1 -10 -4 0 -6 8 -11 18
-11 14 0 15 -2 2 -10 -8 -5 -42 -10 -75 -10 -36 0 -55 4 -47 9 8 4 27 7 43 5
21 -3 29 1 29 12 0 8 4 13 9 10 5 -3 12 1 15 10 6 16 26 11 26 -7z m775 2 c-3
-6 -14 -11 -23 -11 -15 1 -15 2 2 15 21 16 32 13 21 -4z m-1040 -37 c1 -13 0
-24 -1 -24 -1 0 -10 12 -20 28 -17 26 -17 27 1 12 17 -14 18 -13 11 5 -4 11
-3 16 1 11 4 -4 8 -19 8 -32z m115 11 c0 -8 -7 -15 -16 -15 -14 0 -14 3 -4 15
7 8 14 15 16 15 2 0 4 -7 4 -15z m1264 -41 c48 -18 38 -94 -12 -94 -15 0 -33
5 -40 12 -17 17 -15 54 4 72 17 18 24 19 48 10z m-2759 -14 c-3 -5 -10 -10
-16 -10 -5 0 -9 5 -9 10 0 6 7 10 16 10 8 0 12 -4 9 -10z m-48 -64 c32 -24 77
-53 99 -64 45 -23 63 -50 42 -64 -32 -20 -136 -1 -140 26 0 6 -2 16 -2 22 -1
7 -25 33 -54 59 -84 76 -41 93 55 21z m181 -3 c-4 -39 -28 -42 -28 -4 0 21 5
31 16 31 11 0 14 -8 12 -27z m150 -6 c3 -23 0 -28 -15 -25 -11 2 -19 14 -21
31 -3 23 0 28 15 25 11 -2 19 -14 21 -31z m-92 8 c4 -8 4 -22 0 -30 -7 -19
-36 -8 -36 14 0 32 26 43 36 16z m2791 9 c-3 -3 -12 -4 -19 -1 -8 3 -5 6 6 6
11 1 17 -2 13 -5z m-417 -13 c0 -5 -7 -11 -14 -14 -10 -4 -13 -1 -9 9 6 15 23
19 23 5z m418 -18 c2 -8 -5 -13 -17 -13 -12 0 -21 6 -21 16 0 18 31 15 38 -3z
m-1558 -13 c0 -5 -11 -9 -24 -8 -14 1 -22 6 -20 10 7 12 44 10 44 -2z m1109
-26 c-9 -11 -15 -12 -23 -4 -8 8 -7 13 4 20 20 12 33 1 19 -16z m171 22 c0 -2
-7 -6 -15 -10 -8 -3 -15 -1 -15 4 0 6 7 10 15 10 8 0 15 -2 15 -4z m-472 -43
l-3 -38 -155 0 -155 0 -3 38 -3 37 161 0 161 0 -3 -37z m576 -13 c39 -47 52
-100 36 -155 -7 -25 -16 -45 -20 -45 -15 0 -18 13 -8 47 14 50 2 97 -32 137
-27 30 -30 46 -9 46 4 0 19 -14 33 -30z m176 9 c0 -5 -9 -9 -20 -9 -11 0 -20
6 -20 14 0 9 7 12 20 9 11 -3 20 -9 20 -14z m-2122 -33 c6 -49 -38 -74 -72
-40 -21 21 -20 40 4 64 26 26 64 13 68 -24z m1869 24 c-3 -13 0 -20 9 -20 28
0 44 -43 42 -113 -2 -66 -9 -76 -37 -58 -11 7 -11 14 4 39 27 45 14 98 -31
124 -44 26 -45 48 -1 48 14 0 18 -5 14 -20z m-112 -9 c-3 -6 -11 -8 -17 -5 -6
4 -5 9 3 15 16 10 23 4 14 -10z m111 -77 c6 -25 -12 -74 -27 -74 -14 0 -47 36
-54 58 -5 18 -2 22 14 22 13 0 21 -8 24 -22 3 -21 4 -22 12 -4 6 13 4 22 -7
30 -8 6 -13 17 -11 23 7 20 42 -4 49 -33z m244 26 c0 -5 -7 -10 -15 -10 -8 0
-15 5 -15 10 0 6 7 10 15 10 8 0 15 -4 15 -10z m-1420 -10 c0 -5 -7 -10 -15
-10 -8 0 -15 5 -15 10 0 6 7 10 15 10 8 0 15 -4 15 -10z m-1527 -99 c87 -42
109 -63 89 -83 -6 -6 -29 -4 -68 7 -33 9 -70 20 -84 24 -26 7 -76 83 -65 100
6 11 9 11 128 -48z m2937 38 c0 -5 -4 -9 -10 -9 -5 0 -10 7 -10 16 0 8 5 12
10 9 6 -3 10 -10 10 -16z m-3099 -54 c29 -25 59 -45 66 -45 22 0 81 -60 103
-104 11 -24 29 -46 38 -48 10 -3 61 -35 115 -72 66 -46 97 -74 97 -87 0 -36
-27 -22 -157 83 -39 32 -78 58 -85 58 -37 0 -130 75 -193 156 -59 75 -72 104
-45 104 4 0 32 -20 61 -45z m1508 9 c5 4 12 3 15 -2 7 -11 -43 -16 -165 -15
-59 0 -115 5 -125 11 -14 8 7 10 83 9 65 -1 106 2 113 9 9 9 19 8 41 -3 16 -8
33 -12 38 -9z m1108 -21 c-3 -10 -5 -4 -5 12 0 17 2 24 5 18 2 -7 2 -21 0 -30z
m130 15 c-3 -8 -6 -5 -6 6 -1 11 2 17 5 13 3 -3 4 -12 1 -19z m-2259 -5 c6
-19 -35 -16 -42 3 -4 11 0 15 16 12 12 -2 23 -9 26 -15z m1162 1 c0 -2 -7 -4
-15 -4 -8 0 -15 4 -15 10 0 5 7 7 15 4 8 -4 15 -8 15 -10z m212 -19 c-4 -24
-3 -25 52 -25 l56 0 0 -45 0 -45 -85 0 -85 0 0 -60 0 -60 38 -2 37 -1 -37 -4
c-21 -2 -38 -8 -38 -14 0 -5 46 -9 105 -9 59 0 105 -4 105 -9 0 -22 -35 -26
-135 -16 -33 4 -70 6 -82 6 -28 -1 -40 17 -18 25 13 6 14 8 3 15 -10 7 -10 9
0 9 8 0 12 18 12 55 0 59 -8 66 -70 62 -38 -3 -40 18 -2 21 21 2 32 9 33 20 1
15 2 15 6 0 6 -22 29 -23 37 -2 3 9 15 14 28 12 11 -2 23 3 25 10 4 9 -15 12
-71 12 -41 0 -78 5 -81 10 -4 6 23 10 75 10 78 0 81 1 80 23 -3 32 -1 39 9 33
4 -3 6 -17 3 -31z m308 25 c0 -5 -5 -10 -11 -10 -5 0 -7 5 -4 10 3 6 8 10 11
10 2 0 4 -4 4 -10z m-222 -7 c-10 -2 -28 -2 -40 0 -13 2 -5 4 17 4 22 1 32 -1
23 -4z m85 0 c-7 -2 -21 -2 -30 0 -10 3 -4 5 12 5 17 0 24 -2 18 -5z m1047 -3
c0 -5 -4 -10 -10 -10 -5 0 -10 5 -10 10 0 6 5 10 10 10 6 0 10 -4 10 -10z
m-913 -87 c-2 -16 -4 -3 -4 27 0 30 2 43 4 28 2 -16 2 -40 0 -55z m460 25 c-3
-7 -5 -2 -5 12 0 14 2 19 5 13 2 -7 2 -19 0 -25z m-20 0 c-3 -8 -6 -5 -6 6 -1
11 2 17 5 13 3 -3 4 -12 1 -19z m-2040 -128 c62 -127 73 -160 51 -160 -20 0
-128 89 -137 113 -16 39 -27 146 -18 162 19 35 43 8 104 -115z m-297 110 c0
-5 -5 -10 -11 -10 -5 0 -7 5 -4 10 3 6 8 10 11 10 2 0 4 -4 4 -10z m1410 1 c0
-5 -14 -11 -32 -13 -28 -5 -29 -4 -13 9 21 15 45 17 45 4z m-1317 -41 c14 -11
44 -49 66 -85 30 -46 56 -75 91 -96 56 -34 68 -64 23 -53 -41 10 -136 59 -171
89 -37 31 -85 125 -76 148 8 23 36 21 67 -3z m1285 -8 c2 -7 -3 -12 -12 -12
-9 0 -16 7 -16 16 0 17 22 14 28 -4z m592 -62 c0 -23 5 -40 11 -40 7 0 9 10 7
25 -3 14 -1 28 3 31 5 3 9 -11 9 -30 0 -32 -3 -36 -25 -36 -23 0 -25 4 -25 45
0 25 5 45 10 45 6 0 10 -18 10 -40z m-200 20 c0 -5 -9 -10 -20 -10 -11 0 -20
5 -20 10 0 6 9 10 20 10 11 0 20 -4 20 -10z m90 0 c0 -5 -13 -10 -30 -10 -16
0 -30 5 -30 10 0 6 14 10 30 10 17 0 30 -4 30 -10z m-420 -36 c0 -55 -59 -64
-85 -13 -14 26 -14 28 8 32 62 12 77 8 77 -19z m220 16 c0 -5 -12 -10 -27 -9
l-28 1 25 8 c14 4 26 8 28 9 1 1 2 -3 2 -9z m1165 -10 c-3 -5 -12 -10 -18 -10
-7 0 -6 4 3 10 19 12 23 12 15 0z m380 -19 c3 -5 1 -12 -5 -16 -5 -3 -10 1
-10 9 0 18 6 21 15 7z m275 -26 c0 -16 -6 -25 -15 -25 -9 0 -15 9 -15 25 0 16
6 25 15 25 9 0 15 -9 15 -25z m-1580 -21 c0 -9 10 -14 27 -14 26 0 26 1 7 15
-18 14 -17 14 12 15 l31 0 -5 -81 c-4 -62 -1 -83 9 -90 10 -6 11 -9 1 -9 -9 0
-12 -22 -10 -80 2 -75 8 -94 23 -70 10 17 25 11 25 -9 0 -22 -15 -29 -48 -23
-23 5 -24 6 -17 87 6 74 4 84 -12 94 -17 10 -17 10 0 11 13 0 17 9 17 39 0 22
-4 51 -10 65 -10 29 -37 35 -46 11 -7 -17 -44 -21 -44 -5 0 6 -14 10 -31 10
-17 0 -28 4 -24 10 3 6 17 10 31 10 13 0 24 6 24 13 0 7 9 13 20 14 11 1 20
-4 20 -13z m-440 -29 c0 -28 -24 -34 -34 -9 -10 26 -7 34 14 34 15 0 20 -7 20
-25z m330 5 c0 -23 -25 -27 -33 -6 -4 9 1 17 11 19 9 3 18 5 20 6 1 0 2 -8 2
-19z m966 -35 c-32 -25 -60 -45 -62 -45 -2 0 -4 9 -4 20 0 13 15 27 48 44 73
39 81 30 18 -19z m-266 25 c11 -7 1 -10 -35 -9 -37 0 -45 3 -30 9 27 12 47 12
65 0z m559 -32 c-7 -14 -21 -18 -57 -17 l-47 2 38 10 c23 7 36 15 33 23 -6 15
26 24 36 10 4 -5 2 -18 -3 -28z m123 15 c2 -10 1 -34 -2 -53 -4 -26 -10 -36
-27 -38 -17 -2 -24 3 -27 20 -16 80 -14 86 30 87 13 1 23 -6 26 -16z m1783 7
c3 -5 -1 -10 -9 -10 -8 0 -18 5 -21 10 -3 6 1 10 9 10 8 0 18 -4 21 -10z
m-3440 -65 c0 -56 -5 -65 -22 -42 -22 27 -22 60 -1 79 12 10 21 18 22 18 1 0
1 -25 1 -55z m1092 49 c-3 -3 -12 -4 -19 -1 -8 3 -5 6 6 6 11 1 17 -2 13 -5z
m281 -14 c22 -11 55 -20 71 -20 42 0 31 -24 -12 -27 -21 -2 -27 0 -18 6 10 6
3 12 -23 21 -33 10 -39 10 -50 -6 -18 -24 -46 -11 -46 21 0 31 21 33 78 5z
m-1150 -16 c39 -11 27 -34 -18 -34 -33 0 -40 3 -40 20 0 21 16 25 58 14z m122
-13 c0 -10 -24 -21 -46 -21 -8 0 -14 7 -14 15 0 10 10 15 30 15 17 0 30 -4 30
-9z m-200 -36 c0 -16 -28 -19 -67 -9 -37 10 -26 21 22 22 34 2 45 -1 45 -13z
m241 -7 c0 -7 0 -73 0 -145 l-2 -133 166 0 c150 0 165 2 166 18 1 16 2 16 6 0
4 -16 23 -18 224 -18 146 0 219 3 219 10 0 7 6 8 14 3 8 -4 49 -6 91 -3 42 3
79 2 82 -2 2 -5 42 -8 89 -8 l84 0 0 -35 0 -35 -87 0 c-49 -1 -305 0 -571 0
l-483 1 3 -86 c3 -96 4 -96 -75 -93 l-52 1 45 6 45 6 3 81 c2 63 -1 84 -13 94
-10 8 -15 9 -15 1 0 -6 -10 -10 -23 -9 -20 2 -22 5 -13 25 11 23 36 32 36 13
0 -5 7 -7 15 -4 12 5 15 33 15 165 0 135 2 159 15 159 8 0 15 -6 16 -12z
m-1508 -36 c11 -18 16 -40 13 -49 -6 -14 -10 -13 -31 7 -28 26 -40 54 -30 70
10 17 28 6 48 -28z m1404 32 c-3 -3 -12 -4 -19 -1 -8 3 -5 6 6 6 11 1 17 -2
13 -5z m2656 -11 c-7 -2 -19 -2 -25 0 -7 3 -2 5 12 5 14 0 19 -2 13 -5z m44 1
c-3 -3 -12 -4 -19 -1 -8 3 -5 6 6 6 11 1 17 -2 13 -5z m-1444 -31 c3 -5 -3
-22 -12 -39 l-17 -32 -18 22 c-14 15 -20 18 -23 8 -4 -10 -9 -6 -18 10 -17 32
-10 38 40 38 24 0 46 -3 48 -7z m-1553 -31 c0 -4 -9 -8 -19 -8 -11 0 -17 4
-15 8 3 4 12 8 20 8 8 0 14 -4 14 -8z m37 -34 c-3 -8 -6 -5 -6 6 -1 11 2 17 5
13 3 -3 4 -12 1 -19z m313 -5 c0 -8 -12 -13 -35 -13 -24 0 -35 5 -35 15 0 10
10 14 35 13 22 -1 35 -6 35 -15z m229 -40 c-1 -27 2 -56 6 -65 10 -24 -2 -38
-31 -38 -23 0 -24 2 -24 75 0 74 0 75 26 75 24 0 25 -3 23 -47z m1365 0 c0
-27 3 -53 8 -60 5 -7 5 -14 -2 -18 -5 -3 -10 -33 -10 -66 0 -46 -3 -59 -15
-59 -17 0 -19 34 -8 168 3 50 10 82 17 82 7 0 11 -18 10 -47z m-1034 11 c0 -8
-4 -14 -10 -14 -5 0 -10 9 -10 21 0 11 5 17 10 14 6 -3 10 -13 10 -21z m-920
-19 c5 3 7 -2 6 -10 -3 -18 -16 -33 -16 -17 0 5 -2 16 -3 24 -2 7 -2 10 0 5 3
-4 8 -5 13 -2z m330 -1 c0 -7 -7 -14 -15 -18 -8 -3 -15 -4 -15 -2 0 3 -3 11
-6 20 -4 11 0 14 15 13 12 -1 21 -7 21 -13z m26 -21 c-11 -11 -17 4 -9 23 7
18 8 18 11 1 2 -10 1 -21 -2 -24z m681 21 c-3 -3 -12 -4 -19 -1 -8 3 -5 6 6 6
11 1 17 -2 13 -5z m46 -1 c-7 -2 -19 -2 -25 0 -7 3 -2 5 12 5 14 0 19 -2 13
-5z m-3 -53 c-9 -6 -9 -9 1 -13 10 -4 9 -6 -3 -6 -10 -1 -18 5 -18 12 0 18 11
28 22 20 6 -3 5 -9 -2 -13z m720 -40 c0 -49 -1 -50 -30 -50 -29 0 -30 1 -30
50 0 49 1 50 30 50 29 0 30 -1 30 -50z m-1750 -46 c0 -8 -5 -12 -10 -9 -6 4
-8 11 -5 16 9 14 15 11 15 -7z m40 -19 c0 -14 -4 -25 -9 -25 -5 0 -11 11 -13
25 -4 17 -1 25 8 25 8 0 14 -11 14 -25z m125 -15 c-26 -11 -35 -12 -35 -2 0 4
12 8 28 9 23 1 24 1 7 -7z m45 -35 c0 -12 -29 -3 -34 10 -4 13 -2 14 14 5 11
-6 20 -13 20 -15z m-190 -32 c0 -33 -3 -43 -9 -33 -6 8 -8 17 -5 21 2 4 0 10
-5 13 -11 7 -2 46 10 46 5 0 9 -21 9 -47z m1364 31 c7 -19 -1 -34 -19 -34 -18
0 -28 17 -21 35 7 20 32 19 40 -1z m213 10 c-3 -3 -12 -4 -19 -1 -8 3 -5 6 6
6 11 1 17 -2 13 -5z m-1320 -36 c-3 -8 -6 -5 -6 6 -1 11 2 17 5 13 3 -3 4 -12
1 -19z m-66 -6 c-7 -2 -18 1 -23 6 -8 8 -4 9 13 5 13 -4 18 -8 10 -11z m354
-80 l5 -57 -14 70 c-17 83 -18 99 -5 67 5 -13 11 -49 14 -80z m525 53 c10 -12
15 -13 21 -4 8 14 157 13 192 -1 17 -7 18 -9 4 -9 -12 -1 -17 -8 -16 -23 6
-68 5 -68 -76 -68 -43 0 -75 -4 -75 -10 0 -6 -32 -10 -77 -10 l-76 0 5 -182
c2 -101 1 -203 -3 -228 -3 -25 -7 65 -7 200 0 135 -4 253 -7 262 -4 9 -5 27
-3 40 4 27 50 37 75 16 14 -11 15 -10 9 10 -9 26 14 31 34 7z m-1040 -15 c0
-5 -5 -10 -11 -10 -5 0 -7 5 -4 10 3 6 8 10 11 10 2 0 4 -4 4 -10z m254 1 c4
-5 -2 -7 -13 -4 -24 6 -36 -13 -20 -33 7 -9 20 -12 33 -8 16 5 18 3 10 -6 -29
-30 -76 5 -60 46 6 15 42 19 50 5z m-171 -8 c-19 -7 -16 -54 5 -70 15 -12 14
-13 -13 -11 -26 3 -30 7 -33 37 -2 21 0 31 7 26 6 -3 11 1 11 9 0 9 8 16 18
15 10 0 12 -3 5 -6z m44 -15 c-3 -8 -6 -5 -6 6 -1 11 2 17 5 13 3 -3 4 -12 1
-19z m1307 7 c-4 -9 0 -15 9 -15 9 0 17 8 20 18 3 14 6 13 15 -8 6 -14 11 -19
11 -12 1 6 8 12 16 12 18 0 20 -40 3 -41 -7 -1 -34 -3 -60 -5 -47 -4 -48 -4
-48 25 0 28 -2 30 -47 34 -40 3 -37 4 19 5 56 2 66 0 62 -13z m-118 -24 c5 -5
20 -11 34 -14 19 -3 16 -5 -12 -6 -43 -1 -70 7 -62 20 7 12 27 12 40 0z
m-1183 -16 c4 -8 2 -17 -3 -20 -6 -4 -10 3 -10 14 0 25 6 27 13 6z m640 -2
c-7 -2 -13 -17 -13 -33 0 -27 17 -42 50 -44 9 -1 16 -13 18 -29 3 -22 -1 -30
-17 -34 -12 -3 -21 -8 -22 -12 0 -3 -2 -19 -5 -36 -2 -16 -4 -153 -3 -302 0
-163 -3 -273 -9 -273 -5 0 -12 109 -16 258 -3 141 -9 314 -12 385 l-6 127 23
-1 c13 0 18 -3 12 -6z m50 0 c-7 -2 -19 -2 -25 0 -7 3 -2 5 12 5 14 0 19 -2
13 -5z m70 -4 c-6 -6 -9 -18 -6 -25 3 -8 -1 -14 -10 -14 -8 0 -17 11 -19 25
-5 21 -2 25 20 25 19 0 23 -3 15 -11z m450 -66 c11 -24 13 -41 7 -47 -13 -13
-13 -53 1 -62 8 -5 8 -9 -1 -14 -15 -9 2 -45 33 -71 20 -16 20 -16 -12 -11
-28 4 -32 2 -29 -14 1 -10 18 -27 36 -37 18 -11 31 -15 30 -11 -2 5 2 11 7 14
6 3 12 -6 14 -20 1 -14 8 -28 15 -32 7 -5 6 -8 -4 -8 -35 0 -125 73 -116 96 3
8 2 13 -2 13 -19 -3 -26 2 -13 10 17 11 4 34 -15 27 -11 -4 -14 9 -14 63 0 46
-4 71 -12 75 -10 5 -10 7 0 12 6 3 12 14 12 23 0 45 41 41 63 -6z m-1705 20
c-21 -2 -55 -2 -75 0 -21 2 -4 4 37 4 41 0 58 -2 38 -4z m892 -108 l0 -115
-52 0 -53 0 5 92 5 93 3 -87 3 -88 39 0 40 0 0 110 c0 61 2 110 5 110 3 0 5
-52 5 -115z m-152 93 c-5 -16 -48 -24 -48 -10 0 11 17 20 38 21 8 1 12 -5 10
-11z m-278 -8 c0 -5 -13 -10 -30 -10 -16 0 -30 5 -30 10 0 6 14 10 30 10 17 0
30 -4 30 -10z m500 -1 c0 -10 -39 -18 -45 -9 -3 5 1 10 7 12 20 7 38 5 38 -3z
m31 -3 c5 3 9 0 9 -5 0 -6 -7 -11 -15 -11 -8 0 -15 8 -14 18 0 10 3 12 6 4 2
-6 9 -10 14 -6z m410 -108 c1 -68 1 -145 1 -173 -1 -27 -1 -80 -1 -117 l-1
-68 -34 0 c-41 0 -46 13 -46 122 0 65 2 76 15 72 10 -4 15 0 15 11 0 11 -5 15
-15 11 -10 -4 -15 1 -15 15 0 12 8 23 20 26 18 5 20 14 20 114 0 102 1 109 20
109 19 0 20 -7 21 -122z m119 110 c0 -7 -4 -19 -9 -26 -7 -11 -10 -10 -15 3
-3 9 -4 21 0 26 8 13 24 11 24 -3z m-1528 -27 c-5 -3 -12 -13 -15 -21 -3 -9
-6 -4 -6 12 -1 21 3 26 15 21 9 -3 11 -9 6 -12z m1606 -3 c2 -11 -3 -18 -12
-18 -9 0 -15 5 -13 11 1 6 -3 13 -9 16 -7 2 -11 -7 -10 -23 0 -15 -4 -29 -10
-31 -6 -2 -10 6 -8 19 1 13 3 29 3 36 1 20 55 11 59 -10z m2096 -23 c-4 -8
-10 -15 -15 -15 -14 0 -11 -28 4 -33 7 -3 5 -6 -5 -6 -11 -1 -15 -6 -12 -15 5
-12 -5 -15 -50 -13 -31 1 -56 4 -56 7 0 3 25 19 56 35 30 17 60 36 66 43 14
16 19 15 12 -3z m-2434 -5 c12 -8 11 -10 -7 -10 -13 0 -23 5 -23 10 0 13 11
13 30 0z m250 -56 c0 -41 -4 -63 -10 -59 -18 11 -12 125 7 125 2 0 3 -30 3
-66z m-960 16 c0 -5 -7 -10 -15 -10 -8 0 -15 5 -15 10 0 6 7 10 15 10 8 0 15
-4 15 -10z m1720 -21 c0 -6 -4 -7 -10 -4 -5 3 -10 11 -10 16 0 6 5 7 10 4 6
-3 10 -11 10 -16z m1280 5 c0 -2 -7 -4 -15 -4 -8 0 -15 4 -15 10 0 5 7 7 15 4
8 -4 15 -8 15 -10z m-3688 -8 c6 -8 8 -8 8 2 0 6 8 12 18 11 10 0 12 -3 5 -6
-7 -2 -13 -11 -13 -19 0 -8 -12 -19 -26 -24 -33 -13 -34 -13 -34 4 0 7 -10 20
-21 28 -20 13 -19 14 17 15 22 0 42 -4 46 -11z m1168 -63 c0 -53 -25 -133 -41
-133 -12 0 -11 6 7 43 10 19 17 58 18 98 1 78 16 70 16 -8z m567 30 c-3 -10
-5 -2 -5 17 0 19 2 27 5 18 2 -10 2 -26 0 -35z m192 3 c-2 -2 -13 8 -23 22
l-19 27 24 -22 c12 -12 21 -24 18 -27z m991 33 c-64 -11 -182 -11 -200 1 -10
7 28 9 115 9 99 -1 119 -3 85 -10z m-2080 -29 c0 -5 -2 -10 -4 -10 -3 0 -8 5
-11 10 -3 6 -1 10 4 10 6 0 11 -4 11 -10z m1895 -20 c3 -5 2 -10 -4 -10 -5 0
-13 5 -16 10 -3 6 -2 10 4 10 5 0 13 -4 16 -10z m-1885 -10 c0 -5 -2 -10 -4
-10 -3 0 -8 5 -11 10 -3 6 -1 10 4 10 6 0 11 -4 11 -10z m-936 -25 c-4 -8 -10
-12 -15 -9 -14 8 -10 24 6 24 9 0 12 -6 9 -15z m99 9 c16 -6 12 -44 -5 -44 -5
0 -6 6 -2 13 5 9 4 9 -5 1 -9 -8 -9 -17 0 -37 9 -20 8 -29 -4 -48 -12 -16 -13
-27 -6 -41 7 -12 6 -18 -1 -18 -6 0 -8 -4 -5 -10 4 -6 -8 -11 -27 -11 -30 -2
-31 -2 -5 -6 45 -7 31 -23 -20 -23 -44 1 -47 2 -29 15 19 15 19 15 -5 16 -17
1 -19 3 -6 6 16 4 25 24 10 22 -20 -3 -30 2 -30 16 0 8 5 15 11 15 6 0 5 4 -3
9 -20 13 -22 38 -4 45 8 3 11 10 8 16 -3 6 1 7 9 4 9 -3 16 -1 16 5 0 6 -6 11
-12 11 -7 0 -4 6 7 13 21 12 26 14 51 16 8 0 12 6 9 11 -7 11 24 14 48 4z
m1662 -23 c3 -11 0 -29 -7 -40 -10 -16 -15 -18 -27 -8 -12 9 -13 9 -7 0 4 -7
2 -21 -3 -30 -8 -14 -10 -10 -11 24 0 23 3 48 6 57 9 22 41 20 49 -3z m495 15
c0 -3 -4 -8 -10 -11 -5 -3 -10 -1 -10 4 0 6 5 11 10 11 6 0 10 -2 10 -4z
m-365 -24 c-5 -4 -10 -13 -10 -21 0 -8 -6 -16 -12 -18 -8 -3 -13 4 -13 15 0
23 8 32 29 32 9 0 12 -3 6 -8z m-195 -12 c0 -5 -7 -7 -15 -4 -8 4 -15 8 -15
10 0 2 7 4 15 4 8 0 15 -4 15 -10z m-767 -20 c6 -22 -18 -49 -25 -28 -6 17 2
48 12 48 4 0 10 -9 13 -20z m487 5 c0 -8 -7 -15 -15 -15 -8 0 -15 7 -15 15 0
8 7 15 15 15 8 0 15 -7 15 -15z m380 -5 c0 -5 -2 -10 -4 -10 -3 0 -8 5 -11 10
-3 6 -1 10 4 10 6 0 11 -4 11 -10z m288 -40 c-2 -6 -8 -6 -18 0 -13 9 -13 11
0 20 15 10 25 0 18 -20z m-664 5 c-4 -8 -12 -15 -20 -15 -8 0 -14 7 -14 15 0
8 9 15 20 15 13 0 18 -5 14 -15z m66 -9 c0 -2 -7 -7 -16 -10 -8 -3 -12 -2 -9
4 6 10 25 14 25 6z m192 -75 c-2 -47 -9 -79 -18 -88 -12 -12 -14 -2 -14 74 0
78 2 89 18 89 15 0 17 -9 14 -75z m768 54 c0 -8 -4 -15 -10 -15 -5 0 -10 7
-10 15 0 8 5 15 10 15 6 0 10 -7 10 -15z m67 0 c8 -22 -2 -28 -32 -21 -21 5
-23 9 -13 21 17 19 37 19 45 0z m-1100 -1 c-3 -3 -12 -4 -19 -1 -8 3 -5 6 6 6
11 1 17 -2 13 -5z m-12 -24 c3 -5 1 -10 -4 -10 -6 0 -11 5 -11 10 0 6 2 10 4
10 3 0 8 -4 11 -10z m-980 -9 c-67 -8 -214 -5 -223 4 -3 3 60 4 139 4 105 -2
128 -4 84 -8z m1925 -6 c0 -8 -7 -15 -15 -15 -8 0 -15 7 -15 15 0 8 7 15 15
15 8 0 15 -7 15 -15z m-90 -137 c0 -78 -2 -139 -4 -137 -10 10 -16 279 -6 279
6 0 10 -54 10 -142z m-967 111 c14 -23 1 -67 -23 -74 -46 -15 -82 49 -48 83
17 17 58 11 71 -9z m127 1 c0 -5 -7 -10 -15 -10 -8 0 -15 5 -15 10 0 6 7 10
15 10 8 0 15 -4 15 -10z m1090 -30 c0 -5 -4 -10 -10 -10 -5 0 -10 5 -10 10 0
6 5 10 10 10 6 0 10 -4 10 -10z m-1095 -10 c-3 -5 -10 -10 -16 -10 -5 0 -9 5
-9 10 0 6 7 10 16 10 8 0 12 -4 9 -10z m991 -20 c41 0 54 -4 54 -15 0 -12 -13
-15 -59 -15 -32 0 -73 -3 -90 -6 -28 -6 -31 -4 -31 20 0 23 3 25 30 20 22 -5
30 -3 31 7 0 10 2 11 6 2 3 -8 25 -13 59 -13z m-392 -15 c-5 -12 -17 -16 -48
-13 -34 2 -41 0 -44 -17 -2 -11 -9 -24 -14 -30 -8 -7 -9 -6 -4 3 4 6 3 12 -3
12 -5 0 -15 -8 -20 -17 -9 -16 -10 -16 -11 -1 0 9 11 29 24 45 21 24 33 30 75
32 43 2 50 0 45 -14z m-1984 -15 c-20 -13 -47 -13 -55 0 -4 6 9 10 32 10 28 0
34 -3 23 -10z m47 4 c-3 -3 -12 -4 -19 -1 -8 3 -5 6 6 6 11 1 17 -2 13 -5z
m2427 -40 c18 -17 13 -34 -10 -34 -8 0 -14 10 -14 25 0 29 3 30 24 9z m136
-225 l-11 -24 6 25 c2 14 6 75 7 135 l2 110 3 -111 c2 -63 -1 -121 -7 -135z
m260 231 c0 -5 -2 -10 -4 -10 -3 0 -8 5 -11 10 -3 6 -1 10 4 10 6 0 11 -4 11
-10z m30 -56 c0 -28 -4 -43 -10 -39 -5 3 -10 26 -10 51 0 28 4 43 10 39 6 -3
10 -26 10 -51z m-3417 25 c14 -23 1 -66 -22 -72 -24 -6 -61 18 -61 39 0 9 5
24 11 35 12 24 57 23 72 -2z m237 7 c0 -3 -4 -8 -10 -11 -5 -3 -10 -1 -10 4 0
6 5 11 10 11 6 0 10 -2 10 -4z m250 -11 c0 -8 -4 -15 -10 -15 -5 0 -10 7 -10
15 0 8 5 15 10 15 6 0 10 -7 10 -15z m250 5 c0 -5 -4 -10 -10 -10 -5 0 -10 5
-10 10 0 6 5 10 10 10 6 0 10 -4 10 -10z m90 0 c0 -5 -5 -10 -11 -10 -5 0 -7
5 -4 10 3 6 8 10 11 10 2 0 4 -4 4 -10z m2560 -16 c0 -14 -4 -23 -9 -20 -5 3
-7 15 -4 26 7 28 13 25 13 -6z m-1365 6 c-3 -5 -10 -10 -16 -10 -5 0 -9 5 -9
10 0 6 7 10 16 10 8 0 12 -4 9 -10z m365 -4 c0 -18 -15 -36 -31 -36 -12 0 -19
7 -19 20 0 15 7 20 25 20 14 0 25 -2 25 -4z m1120 -16 c0 -5 -2 -10 -4 -10 -3
0 -8 5 -11 10 -3 6 -1 10 4 10 6 0 11 -4 11 -10z m-3007 -7 c-7 -2 -19 -2 -25
0 -7 3 -2 5 12 5 14 0 19 -2 13 -5z m3493 -5 c4 -7 4 -10 -1 -6 -4 4 -16 3
-26 -3 -12 -6 -19 -6 -19 0 0 5 8 12 18 14 9 3 18 5 19 6 1 0 5 -5 9 -11z
m-1286 -48 c0 -30 -30 -57 -50 -45 -15 9 -12 83 3 88 23 8 47 -13 47 -43z
m-2150 -9 c0 -29 -14 -42 -37 -34 -7 3 -13 18 -13 34 0 24 4 29 25 29 21 0 25
-5 25 -29z m284 14 c-4 -8 -8 -15 -10 -15 -2 0 -4 7 -4 15 0 8 4 15 10 15 5 0
7 -7 4 -15z m-369 -14 c-3 -6 -11 -8 -17 -5 -6 4 -5 9 3 15 16 10 23 4 14 -10z
m460 9 c-4 -6 -10 -8 -15 -5 -4 3 -11 -1 -13 -7 -3 -8 -6 -6 -6 5 -1 11 6 17
20 17 11 0 17 -5 14 -10z m103 -4 c-7 -8 -15 -12 -17 -11 -5 6 10 25 20 25 5
0 4 -6 -3 -14z m47 4 c3 -6 -1 -7 -9 -4 -18 7 -21 14 -7 14 6 0 13 -4 16 -10z
m1802 -12 c-3 -8 -6 -5 -6 6 -1 11 2 17 5 13 3 -3 4 -12 1 -19z m-2663 -24
c22 -22 35 -44 33 -57 -1 -14 5 -23 23 -28 17 -5 1 -7 -45 -8 -38 0 -77 4 -85
9 -12 8 -11 10 5 8 60 -4 69 11 34 56 -11 15 -18 33 -15 41 7 21 9 20 50 -21z
m2780 20 c9 -23 8 -24 -14 -24 -11 0 -20 2 -20 4 0 12 13 36 20 36 4 0 11 -7
14 -16z m314 -56 c-2 -34 1 -52 10 -55 9 -3 12 11 12 51 0 31 5 56 10 56 6 0
10 -28 10 -65 0 -37 4 -65 10 -65 6 0 10 28 10 65 0 63 1 65 25 65 23 0 25 -3
25 -48 0 -26 -6 -60 -12 -75 -12 -25 -17 -27 -73 -26 -33 1 -73 5 -90 9 -29 7
-29 8 -4 9 25 1 26 3 21 51 -6 61 1 80 29 80 19 0 21 -5 17 -52z m-2284 27 c3
-9 0 -15 -9 -15 -9 0 -12 6 -9 15 4 8 7 15 9 15 2 0 5 -7 9 -15z m2441 1 c-10
-7 -15 -18 -11 -24 4 -7 2 -12 -3 -12 -6 0 -11 10 -11 23 0 16 6 23 21 24 20
2 20 1 4 -11z m-2882 -17 c70 -1 76 -3 79 -22 2 -16 11 -23 31 -25 31 -4 38
21 10 37 -21 12 -14 13 45 11 25 -1 42 3 42 10 0 8 6 8 20 0 13 -7 18 -19 17
-38 l-2 -27 135 -5 c113 -4 126 -6 80 -12 -125 -16 -180 -19 -180 -8 0 6 -41
10 -115 10 -112 0 -115 1 -116 23 -1 12 -1 26 0 31 1 5 -5 6 -14 2 -8 -3 -22
-9 -30 -12 -8 -3 -15 -1 -15 6 0 6 -4 8 -10 5 -5 -3 -10 -17 -10 -31 0 -23 -3
-24 -65 -24 l-65 0 0 35 c0 30 3 35 24 35 14 0 28 5 31 10 5 8 11 8 20 0 7 -6
46 -11 88 -11z m2154 -101 c-2 -24 -4 -7 -4 37 0 44 2 63 4 43 2 -21 2 -57 0
-80z m-2599 82 c-7 -10 -14 -18 -15 -16 -6 6 9 36 18 36 5 0 4 -9 -3 -20z
m252 -15 c0 -32 -3 -35 -27 -34 -16 0 -22 3 -15 6 6 2 12 18 12 34 0 19 5 29
15 29 10 0 15 -11 15 -35z m-314 -2 c4 -21 0 -23 -36 -23 -36 0 -40 2 -40 26
0 23 3 25 37 22 29 -2 37 -8 39 -25z m2916 -4 c-3 -19 -9 -26 -18 -22 -8 3
-14 9 -14 13 0 5 -3 15 -6 24 -5 12 0 15 18 14 20 -2 23 -6 20 -29z m-2479
-46 c-13 -2 -35 -2 -50 0 -16 2 -5 4 22 4 28 0 40 -2 28 -4z m2462 -3 c3 -5 1
-10 -4 -10 -6 0 -11 5 -11 10 0 6 2 10 4 10 3 0 8 -4 11 -10z m-728 -26 c3 -9
0 -20 -8 -25 -21 -13 -29 -11 -29 9 0 33 26 44 37 16z m-1757 -4 c0 -5 -2 -10
-4 -10 -3 0 -8 5 -11 10 -3 6 -1 10 4 10 6 0 11 -4 11 -10z m510 -40 c0 -5 -7
-10 -16 -10 -8 0 -12 5 -9 10 3 6 10 10 16 10 5 0 9 -4 9 -10z m-62 -7 c-16
-2 -40 -2 -55 0 -16 2 -3 4 27 4 30 0 43 -2 28 -4z m1668 -38 c15 -23 15 -27
0 -51 -22 -32 -55 -29 -75 8 -14 24 -14 28 3 47 25 28 52 26 72 -4z m-1366
-22 c0 -16 -12 -39 -27 -56 -16 -17 -22 -27 -15 -23 7 4 12 1 12 -8 0 -9 -6
-13 -15 -10 -8 3 -14 16 -14 27 0 12 -3 35 -7 51 -8 31 6 46 44 46 17 0 22 -6
22 -27z m-146 2 c-4 -8 -12 -15 -20 -15 -8 0 -14 7 -14 15 0 8 9 15 20 15 13
0 18 -5 14 -15z m-222 -20 c-5 -29 -11 -28 -17 4 -2 13 1 21 9 21 9 0 12 -9 8
-25z m2818 -25 c-13 -24 -45 -26 -407 -22 -264 3 -273 3 -273 22 0 20 8 20
345 20 340 0 346 0 335 -20z m-2658 -15 c4 -17 1 -25 -8 -25 -8 0 -14 11 -14
25 0 14 4 25 9 25 5 0 11 -11 13 -25z m-266 3 c4 -6 3 -8 -4 -5 -16 11 -42 -3
-42 -23 0 -22 24 -32 39 -17 8 8 11 6 11 -7 0 -13 -7 -17 -27 -14 -22 2 -29 9
-31 32 -5 38 36 64 54 34z m314 -18 c0 -5 -4 -10 -9 -10 -6 0 -13 5 -16 10 -3
6 1 10 9 10 9 0 16 -4 16 -10z m2636 -76 c8 3 14 1 14 -3 0 -5 3 -18 7 -28 5
-14 1 -13 -20 6 -22 20 -27 33 -25 65 l1 41 4 -43 c3 -33 8 -42 19 -38z
m-3648 27 c-4 -35 -41 -37 -46 -2 -4 26 13 42 35 34 8 -3 13 -16 11 -32z
m1002 9 c0 -11 -4 -20 -10 -20 -5 0 -10 9 -10 20 0 11 5 20 10 20 6 0 10 -9
10 -20z m155 -54 c15 6 21 -7 9 -19 -12 -11 -44 13 -44 33 0 11 -6 20 -12 20
-9 0 -8 4 2 10 12 7 17 3 23 -20 5 -20 12 -27 22 -24z m1818 45 c27 -1 28 -2
25 -53 l-3 -53 -65 -3 c-63 -3 -65 -2 -66 22 -2 22 1 24 16 16 10 -6 37 -10
60 -10 39 0 41 1 38 28 -3 27 -26 37 -40 17 -5 -6 -8 -3 -8 8 0 21 -26 23 -34
1 -5 -14 -8 -14 -23 1 -20 21 -7 31 39 28 18 -1 46 -2 61 -2z m1023 -109 c7
-59 6 -62 -15 -62 -20 0 -21 5 -21 77 0 69 2 76 15 62 8 -8 18 -43 21 -77z
m-3199 56 c-3 -8 -6 -5 -6 6 -1 11 2 17 5 13 3 -3 4 -12 1 -19z m420 -45 c-3
-10 -5 -4 -5 12 0 17 2 24 5 18 2 -7 2 -21 0 -30z m-410 -35 c-3 -7 -5 -2 -5
12 0 14 2 19 5 13 2 -7 2 -19 0 -25z m-1127 -28 c0 -28 -3 -30 -35 -30 -30 0
-35 3 -35 23 0 31 7 37 42 37 24 0 28 -4 28 -30z m641 -6 c-5 -16 -10 -21 -10
-12 -1 18 10 51 15 45 2 -1 -1 -16 -5 -33z m639 13 c0 -8 -7 -14 -15 -14 -8 0
-15 6 -15 14 0 7 7 13 15 13 8 0 15 -6 15 -13z m2650 4 c0 -12 -20 -25 -27
-18 -7 7 6 27 18 27 5 0 9 -4 9 -9z m-3842 -41 c34 0 43 -3 32 -10 -11 -7 -7
-10 18 -10 20 0 31 4 27 10 -10 16 22 12 39 -5 16 -16 29 -7 18 13 -5 6 -42
13 -92 15 l-85 3 98 2 c101 2 107 -1 91 -42 -9 -22 -214 -24 -214 -2 0 23 13
51 18 38 2 -7 23 -12 50 -12z m760 8 c19 -19 14 -46 -13 -64 -24 -16 -27 -16
-45 1 -34 31 -19 75 25 75 12 0 26 -5 33 -12z m282 -8 c0 -5 -2 -10 -4 -10 -3
0 -8 5 -11 10 -3 6 -1 10 4 10 6 0 11 -4 11 -10z m2537 4 c-3 -3 -12 -4 -19
-1 -8 3 -5 6 6 6 11 1 17 -2 13 -5z m-2108 -72 c1 -8 -5 -12 -11 -9 -13 4 -18
34 -9 51 5 10 19 -19 20 -42z m2329 17 c-10 -5 -18 -15 -18 -21 0 -6 6 -6 15
2 12 10 21 10 38 2 12 -6 29 -13 37 -15 12 -4 11 -6 -2 -6 -10 -1 -18 -8 -18
-17 0 -21 -64 -46 -108 -42 -35 3 -37 5 -40 42 -5 60 1 66 60 66 41 -1 49 -3
36 -11z m-4178 -59 c0 -47 -24 -67 -54 -45 -15 11 -17 21 -12 49 6 32 11 36
36 36 28 0 30 -2 30 -40z m514 24 c3 -9 6 -21 5 -27 0 -7 -4 -1 -10 11 -8 22
-13 23 -59 17 -34 -5 -50 -3 -50 4 0 7 22 11 54 11 40 0 55 -4 60 -16z m-142
-38 c-3 -38 -7 -44 -23 -41 -31 6 -39 15 -39 44 0 34 6 41 39 41 25 0 26 -2
23 -44z m1363 31 c11 -11 10 -16 -7 -26 -24 -15 -29 -12 -21 17 6 26 10 27 28
9z m-650 -17 c3 -5 1 -10 -4 -10 -6 0 -11 5 -11 10 0 6 2 10 4 10 3 0 8 -4 11
-10z m-678 -32 c-3 -8 -6 -5 -6 6 -1 11 2 17 5 13 3 -3 4 -12 1 -19z m663 2
c0 -5 -5 -10 -11 -10 -5 0 -7 5 -4 10 3 6 8 10 11 10 2 0 4 -4 4 -10z m760
-21 c0 -5 -4 -9 -10 -9 -5 0 -10 7 -10 16 0 8 5 12 10 9 6 -3 10 -10 10 -16z
m-1365 -8 c-19 -8 -75 -4 -84 5 -2 2 20 4 50 3 37 0 48 -3 34 -8z m593 -2 c-5
-14 -21 -14 -26 0 -2 6 4 11 13 11 9 0 15 -5 13 -11z m439 -21 c-3 -8 -6 -5
-6 6 -1 11 2 17 5 13 3 -3 4 -12 1 -19z m351 -13 c-3 -14 -5 -14 -23 -1 -11 8
-16 18 -12 22 4 5 12 2 17 -6 8 -12 10 -11 11 5 0 11 3 14 6 8 2 -7 3 -20 1
-28z"/>
<path d="M3530 4616 c7 -7 13 -7 20 0 6 6 3 10 -10 10 -13 0 -16 -4 -10 -10z"/>
<path d="M3550 4579 c0 -6 -7 -9 -15 -5 -8 3 -15 1 -15 -4 0 -6 9 -10 20 -10
11 0 20 7 20 15 0 8 -2 15 -5 15 -3 0 -5 -5 -5 -11z"/>
<path d="M3210 4446 c0 -13 12 -16 56 -16 73 0 70 24 -4 28 -42 2 -52 0 -52
-12z"/>
<path d="M3420 4384 c0 -9 5 -14 12 -12 18 6 21 28 4 28 -9 0 -16 -7 -16 -16z"/>
<path d="M3550 4289 c0 -5 5 -7 10 -4 6 3 10 8 10 11 0 2 -4 4 -10 4 -5 0 -10
-5 -10 -11z"/>
<path d="M3215 4101 c-8 -15 3 -31 21 -31 9 0 14 7 12 17 -4 20 -24 28 -33 14z"/>
<path d="M3302 4096 c1 -10 8 -17 13 -17 15 1 12 24 -3 29 -9 3 -13 -2 -10
-12z"/>
<path d="M3370 4090 c0 -15 5 -20 18 -18 9 2 17 10 17 18 0 8 -8 16 -17 18
-13 2 -18 -3 -18 -18z"/>
<path d="M3145 4060 c3 -5 8 -10 11 -10 2 0 4 5 4 10 0 6 -5 10 -11 10 -5 0
-7 -4 -4 -10z"/>
<path d="M3315 3860 c-4 -6 -3 -16 3 -22 6 -6 12 -6 17 2 4 6 3 16 -3 22 -6 6
-12 6 -17 -2z"/>
<path d="M3395 3850 c-9 -15 4 -30 26 -30 12 0 19 7 19 20 0 21 -33 29 -45 10z"/>
<path d="M2877 4103 c-10 -9 -8 -43 2 -43 5 0 11 11 13 25 5 24 -2 32 -15 18z"/>
<path d="M2571 3956 c-9 -10 -9 -16 -1 -21 17 -10 37 12 24 25 -8 8 -15 6 -23
-4z"/>
<path d="M2760 3644 c0 -8 5 -12 10 -9 6 4 8 11 5 16 -9 14 -15 11 -15 -7z"/>
<path d="M3012 3800 c0 -19 2 -27 5 -17 2 9 2 25 0 35 -3 9 -5 1 -5 -18z"/>
<path d="M2961 3631 c-7 -5 -12 -14 -10 -20 3 -6 9 -7 18 -2 7 5 12 14 10 20
-3 6 -9 7 -18 2z"/>
<path d="M2540 3635 c0 -8 7 -15 15 -15 8 0 15 7 15 15 0 8 -7 15 -15 15 -8 0
-15 -7 -15 -15z"/>
<path d="M2630 3641 c0 -6 5 -13 10 -16 6 -3 10 1 10 9 0 9 -4 16 -10 16 -5 0
-10 -4 -10 -9z"/>
<path d="M2352 3639 c2 -6 8 -10 13 -10 5 0 11 4 13 10 2 6 -4 11 -13 11 -9 0
-15 -5 -13 -11z"/>
<path d="M3970 3569 c0 -24 4 -29 23 -29 18 0 23 5 22 28 0 21 -5 27 -22 28
-19 1 -23 -4 -23 -27z"/>
<path d="M3940 3566 c0 -8 -6 -17 -12 -19 -7 -3 -3 -6 10 -6 16 -1 22 5 22 19
0 11 -4 20 -10 20 -5 0 -10 -6 -10 -14z"/>
<path d="M3875 3561 c-6 -11 9 -23 19 -14 9 9 7 23 -3 23 -6 0 -12 -4 -16 -9z"/>
<path d="M1980 2590 c0 -5 5 -10 11 -10 5 0 7 5 4 10 -3 6 -8 10 -11 10 -2 0
-4 -4 -4 -10z"/>
<path d="M1854 2579 c-10 -17 13 -36 27 -22 12 12 4 33 -11 33 -5 0 -12 -5
-16 -11z"/>
<path d="M4900 3414 c0 -8 5 -12 10 -9 6 3 10 10 10 16 0 5 -4 9 -10 9 -5 0
-10 -7 -10 -16z"/>
<path d="M3430 3310 c0 -5 5 -10 10 -10 6 0 10 5 10 10 0 6 -4 10 -10 10 -5 0
-10 -4 -10 -10z"/>
<path d="M2240 3174 c0 -8 5 -12 10 -9 6 3 10 10 10 16 0 5 -4 9 -10 9 -5 0
-10 -7 -10 -16z"/>
<path d="M883 3234 c-8 -20 13 -42 27 -28 12 12 3 44 -11 44 -5 0 -12 -7 -16
-16z"/>
<path d="M3630 2780 c0 -5 5 -10 10 -10 6 0 10 5 10 10 0 6 -4 10 -10 10 -5 0
-10 -4 -10 -10z"/>
<path d="M2830 2665 c0 -23 3 -25 48 -23 40 1 42 2 12 5 -19 3 -39 9 -44 14
-6 5 43 9 127 9 85 0 137 4 137 10 0 6 -53 10 -140 10 l-140 0 0 -25z"/>
<path d="M1700 2615 c0 -8 7 -15 15 -15 8 0 15 7 15 15 0 8 -7 15 -15 15 -8 0
-15 -7 -15 -15z"/>
<path d="M2414 2255 c-7 -18 3 -35 21 -35 18 0 26 15 19 34 -8 20 -33 21 -40
1z"/>
<path d="M4160 2095 c0 -8 5 -15 10 -15 6 0 10 7 10 15 0 8 -4 15 -10 15 -5 0
-10 -7 -10 -15z"/>
<path d="M2933 1744 c-8 -21 13 -42 28 -27 13 13 5 43 -11 43 -6 0 -13 -7 -17
-16z"/>
<path d="M3301 1747 c-9 -11 -8 -17 4 -27 12 -10 16 -9 21 5 9 23 -10 40 -25
22z"/>
<path d="M3777 1744 c-13 -13 -7 -24 14 -24 11 0 19 5 17 12 -5 14 -22 21 -31
12z"/>
<path d="M3886 1743 c-11 -11 -6 -23 9 -23 8 0 15 4 15 9 0 13 -16 22 -24 14z"/>
<path d="M3984 1739 c-8 -14 11 -33 25 -25 6 4 11 14 11 22 0 16 -26 19 -36 3z"/>
<path d="M3756 1594 c-12 -31 -7 -74 9 -74 11 0 15 11 15 39 0 42 -14 62 -24
35z"/>
<path d="M3653 1583 c-14 -3 -25 -14 -29 -28 -3 -12 -15 -27 -27 -33 -19 -9
-14 -11 31 -11 l52 -1 0 40 c0 22 -1 39 -2 39 -2 -1 -13 -4 -25 -6z"/>
<path d="M3570 1565 c0 -8 5 -15 10 -15 6 0 10 7 10 15 0 8 -4 15 -10 15 -5 0
-10 -7 -10 -15z"/>
<path d="M2027 1163 c-13 -12 -7 -23 11 -23 10 0 23 -5 30 -12 13 -13 16 -1 6
26 -6 16 -35 22 -47 9z"/>
<path d="M2068 1093 c7 -3 16 -2 19 1 4 3 -2 6 -13 5 -11 0 -14 -3 -6 -6z"/>
<path d="M3272 1053 c5 -25 28 -28 28 -4 0 12 -6 21 -16 21 -9 0 -14 -7 -12
-17z"/>
<path d="M1490 900 c0 -15 5 -20 18 -18 9 2 17 10 17 18 0 8 -8 16 -17 18 -13
2 -18 -3 -18 -18z"/>
<path d="M4200 835 c0 -9 5 -15 11 -13 6 2 11 8 11 13 0 5 -5 11 -11 13 -6 2
-11 -4 -11 -13z"/>
<path d="M4102 548 c6 -18 28 -21 28 -4 0 9 -7 16 -16 16 -9 0 -14 -5 -12 -12z"/>
<path d="M2735 550 c-4 -6 -1 -17 5 -26 14 -16 40 -2 40 22 0 16 -36 19 -45 4z"/>
<path d="M2095 230 c-8 -14 3 -30 21 -30 8 0 14 9 14 20 0 21 -24 28 -35 10z"/>
<path d="M5186 151 c-7 -11 18 -33 27 -24 4 3 7 12 7 20 0 15 -26 18 -34 4z"/>
<path d="M950 111 c0 -11 26 -22 34 -14 12 12 5 23 -14 23 -11 0 -20 -4 -20
-9z"/>
<path d="M3725 4768 c4 -13 12 -27 19 -33 6 -5 16 -23 21 -39 6 -16 15 -31 21
-33 14 -5 47 44 48 71 1 15 12 23 45 33 65 19 62 23 -17 23 -70 0 -72 -1 -72
-25 0 -20 -5 -25 -25 -25 -20 0 -25 5 -25 25 0 14 -5 25 -11 25 -6 0 -8 -9 -4
-22z"/>
<path d="M3960 4780 c0 -5 7 -10 15 -10 15 0 138 -116 174 -165 15 -20 18 -22
11 -7 -13 26 -112 148 -142 175 -22 18 -58 23 -58 7z"/>
<path d="M4071 4757 c20 -18 50 -46 65 -62 18 -19 21 -21 9 -5 -38 48 -89 100
-100 100 -5 -1 6 -15 26 -33z"/>
<path d="M4115 4770 c10 -11 20 -20 22 -20 2 0 -2 9 -9 20 -7 11 -17 20 -22
20 -5 0 -1 -9 9 -20z"/>
<path d="M4210 4776 c0 -25 71 -138 89 -143 25 -6 27 -160 6 -288 -9 -53 -15
-99 -12 -101 2 -3 7 14 11 36 4 23 14 52 22 66 11 16 13 24 4 24 -14 0 -6 48
15 95 8 17 17 58 20 91 6 52 4 62 -14 78 -11 10 -28 17 -38 14 -14 -3 -24 9
-44 49 -16 32 -20 48 -11 40 13 -10 15 -8 9 13 -4 14 -7 28 -7 33 0 14 -50 7
-50 -7z"/>
<path d="M4270 4785 c0 -15 41 -83 52 -88 8 -2 27 1 42 7 l29 12 -32 37 c-24
27 -41 37 -62 37 -16 0 -29 -2 -29 -5z"/>
<path d="M4490 4783 c0 -5 9 -19 20 -33 18 -23 20 -24 20 -4 0 20 -17 44 -32
44 -4 0 -8 -3 -8 -7z"/>
<path d="M4924 4771 c0 -11 3 -18 7 -15 9 5 29 -52 29 -84 0 -25 1 -25 15 -6
8 11 14 41 15 72 l0 52 -33 0 c-26 0 -33 -4 -33 -19z"/>
<path d="M5020 4736 c0 -49 2 -55 22 -58 13 -2 29 -15 36 -30 12 -25 19 -28
68 -30 29 -1 62 -2 72 -2 11 -1 18 8 20 27 2 19 9 27 23 27 16 0 19 7 19 48 0
26 -5 53 -12 60 -7 7 -40 12 -80 12 l-68 0 0 -30 c0 -29 1 -30 50 -30 l50 0 0
-35 0 -35 -64 0 c-68 0 -75 5 -77 58 -1 27 -1 27 -9 -3 -7 -26 -8 -22 -9 23
-1 45 -4 52 -21 52 -18 0 -20 -7 -20 -54z"/>
<path d="M5339 4770 c-9 -9 -21 -19 -27 -21 -6 -2 -13 -21 -17 -41 l-7 -38 55
0 c31 0 59 4 62 10 3 5 3 32 -1 60 -6 43 -10 50 -28 49 -11 0 -28 -9 -37 -19z"/>
<path d="M6330 4710 l0 -80 30 0 c27 0 30 3 30 34 0 18 -3 54 -6 80 -6 40 -10
46 -30 46 -23 0 -24 -3 -24 -80z"/>
<path d="M2833 4754 c-8 -21 13 -42 28 -27 13 13 5 43 -11 43 -6 0 -13 -7 -17
-16z"/>
<path d="M5490 4739 c0 -24 23 -21 28 4 2 10 -3 17 -12 17 -10 0 -16 -9 -16
-21z"/>
<path d="M5755 4750 c3 -5 10 -10 16 -10 5 0 9 5 9 10 0 6 -7 10 -16 10 -8 0
-12 -4 -9 -10z"/>
<path d="M2760 4715 c0 -22 4 -26 23 -23 14 2 22 10 22 23 0 13 -8 21 -22 23
-19 3 -23 -1 -23 -23z"/>
<path d="M4280 4708 c0 -8 7 -23 15 -34 14 -19 14 -19 15 2 0 12 -7 27 -15 34
-12 10 -15 10 -15 -2z"/>
<path d="M3290 4694 c0 -9 5 -14 12 -12 18 6 21 28 4 28 -9 0 -16 -7 -16 -16z"/>
<path d="M3240 4690 c0 -5 7 -10 15 -10 8 0 15 5 15 10 0 6 -7 10 -15 10 -8 0
-15 -4 -15 -10z"/>
<path d="M4916 4682 c-4 -13 -5 -26 -2 -29 10 -11 18 4 14 29 l-4 23 -8 -23z"/>
<path d="M2880 4635 c0 -8 7 -15 15 -15 8 0 15 7 15 15 0 8 -7 15 -15 15 -8 0
-15 -7 -15 -15z"/>
<path d="M4950 4594 c0 -17 18 -36 30 -32 7 2 4 10 -9 22 -12 11 -21 15 -21
10z"/>
<path d="M5075 4582 c-2 -7 -18 -15 -35 -19 -29 -5 -29 -7 -12 -19 12 -8 54
-13 125 -13 107 -1 107 -1 107 24 0 14 -8 29 -20 35 -27 14 -158 9 -165 -8z"/>
<path d="M5852 4588 c2 -5 8 -9 13 -9 5 0 11 4 13 9 1 5 -4 9 -13 9 -9 0 -14
-4 -13 -9z"/>
<path d="M5270 4555 c0 -23 4 -25 44 -25 35 0 45 4 49 19 6 23 -10 31 -59 31
-30 0 -34 -3 -34 -25z"/>
<path d="M4177 4549 c4 -13 8 -18 11 -10 2 7 -1 18 -6 23 -8 8 -9 4 -5 -13z"/>
<path d="M6348 4563 c12 -2 30 -2 40 0 9 3 -1 5 -23 4 -22 0 -30 -2 -17 -4z"/>
<path d="M4222 4515 c0 -16 2 -22 5 -12 2 9 2 23 0 30 -3 6 -5 -1 -5 -18z"/>
<path d="M5447 4494 c-14 -14 -7 -35 11 -32 9 2 17 10 17 17 0 16 -18 25 -28
15z"/>
<path d="M6300 4485 c0 -8 7 -15 15 -15 8 0 15 7 15 15 0 8 -7 15 -15 15 -8 0
-15 -7 -15 -15z"/>
<path d="M5036 4425 c-11 -8 -35 -15 -54 -15 l-33 0 20 -25 c11 -14 22 -39 26
-55 4 -16 15 -32 26 -35 14 -5 18 -12 14 -26 -5 -15 -1 -19 19 -19 30 0 34 14
9 29 -12 7 -13 10 -5 11 11 0 12 11 7 50 -8 59 8 83 52 78 26 -3 28 -7 30 -52
1 -27 4 -55 7 -63 3 -8 -4 -15 -19 -19 -13 -3 -26 -12 -29 -20 -4 -10 4 -14
29 -14 l35 0 0 85 c0 50 4 85 10 85 6 0 10 -38 10 -95 0 -89 -1 -95 -21 -95
-11 0 -17 -4 -14 -10 3 -5 42 -10 85 -10 43 0 82 5 85 10 3 6 -2 10 -11 10
-10 0 -15 3 -11 6 3 4 45 6 92 5 84 -2 85 -2 85 23 0 29 -26 41 -71 31 -17 -4
-62 -4 -100 0 l-69 7 0 60 c0 49 -3 59 -15 55 -8 -4 -17 -2 -20 3 -3 5 7 11
22 13 21 3 18 4 -12 6 -23 0 -46 -4 -53 -11 -9 -9 -12 -9 -12 0 0 17 -91 15
-114 -3z"/>
<path d="M4252 4400 c0 -19 2 -27 5 -17 2 9 2 25 0 35 -3 9 -5 1 -5 -18z"/>
<path d="M5370 4413 c-52 -3 -77 -8 -83 -19 -5 -8 -12 -12 -18 -9 -5 4 -9 -11
-9 -33 l0 -39 113 -1 112 -2 -1 53 c-2 59 6 56 -114 50z"/>
<path d="M4155 4400 c-3 -5 -13 -6 -22 -3 -15 6 -16 5 -3 -9 17 -18 40 -13 40
8 0 16 -6 18 -15 4z"/>
<path d="M4190 4365 c0 -25 -15 -35 -22 -14 -2 6 -25 13 -52 16 -39 5 -48 3
-44 -8 2 -8 19 -15 36 -17 29 -3 32 -6 32 -38 0 -31 2 -34 30 -34 l30 0 0 60
c0 33 -2 60 -5 60 -3 0 -5 -11 -5 -25z"/>
<path d="M3936 4371 c-3 -4 6 -6 19 -3 14 2 25 6 25 8 0 8 -39 4 -44 -5z"/>
<path d="M5510 4310 c0 -40 4 -70 10 -70 6 0 10 14 10 31 0 17 4 28 10 24 6
-3 10 4 10 17 0 39 -12 68 -26 68 -11 0 -14 -17 -14 -70z"/>
<path d="M6385 4350 c-4 -6 -1 -9 7 -8 17 4 11 -43 -8 -58 -28 -22 -17 -44 22
-44 35 0 35 1 29 33 -15 67 -36 100 -50 77z"/>
<path d="M3871 4295 c0 -31 2 -36 9 -23 6 10 7 25 1 40 -9 20 -10 18 -10 -17z"/>
<path d="M4070 4300 c0 -27 3 -30 30 -30 27 0 30 3 30 30 0 27 -3 30 -30 30
-27 0 -30 -3 -30 -30z"/>
<path d="M3905 4290 c3 -5 1 -10 -4 -10 -6 0 -11 -5 -11 -10 0 -6 8 -5 19 2
19 12 19 28 0 28 -6 0 -7 -4 -4 -10z"/>
<path d="M4002 4291 c-8 -5 0 -8 23 -9 19 -1 35 3 35 8 0 12 -40 13 -58 1z"/>
<path d="M4977 4273 c-13 -12 -7 -23 13 -23 13 0 20 6 19 18 0 12 -2 13 -6 3
-4 -9 -7 -10 -12 -2 -4 6 -10 8 -14 4z"/>
<path d="M4078 4253 c6 -2 18 -2 25 0 6 3 1 5 -13 5 -14 0 -19 -2 -12 -5z"/>
<path d="M4157 4253 c18 -2 50 -2 70 0 21 2 7 4 -32 4 -38 0 -55 -2 -38 -4z"/>
<path d="M4426 4236 c-3 -13 -2 -35 3 -48 8 -19 10 -15 10 25 1 52 -4 60 -13
23z"/>
<path d="M4382 4230 c0 -14 2 -19 5 -12 2 6 2 18 0 25 -3 6 -5 1 -5 -13z"/>
<path d="M4890 4229 c0 -18 2 -19 15 -9 15 12 12 30 -6 30 -5 0 -9 -10 -9 -21z"/>
<path d="M4331 4224 c0 -11 3 -14 6 -6 3 7 2 16 -1 19 -3 4 -6 -2 -5 -13z"/>
<path d="M5403 4224 c8 -8 116 -9 124 0 3 3 -24 6 -62 6 -38 0 -66 -3 -62 -6z"/>
<path d="M6376 4221 c-3 -5 10 -9 29 -9 19 0 35 4 35 9 0 5 -13 9 -29 9 -17 0
-32 -4 -35 -9z"/>
<path d="M3712 4190 c0 -19 2 -27 5 -17 2 9 2 25 0 35 -3 9 -5 1 -5 -18z"/>
<path d="M3781 4204 c0 -11 3 -14 6 -6 3 7 2 16 -1 19 -3 4 -6 -2 -5 -13z"/>
<path d="M3814 4130 c0 -52 1 -74 3 -47 2 26 2 68 0 95 -2 26 -3 4 -3 -48z"/>
<path d="M4135 4181 c-6 -11 9 -23 19 -14 9 9 7 23 -3 23 -6 0 -12 -4 -16 -9z"/>
<path d="M4181 4174 c0 -11 3 -14 6 -6 3 7 2 16 -1 19 -3 4 -6 -2 -5 -13z"/>
<path d="M6410 4159 c-37 -5 -41 -7 -22 -14 12 -4 22 -12 22 -17 0 -6 7 -5 15
2 12 10 15 10 15 -3 0 -20 -36 -41 -57 -33 -12 5 -13 4 -5 -7 15 -18 3 -30
-15 -16 -7 7 -13 7 -13 2 0 -6 -10 -15 -22 -21 -18 -8 -19 -11 -5 -11 31 -2
18 -21 -15 -23 -47 -2 -51 -3 -65 -11 -7 -5 -13 -4 -13 1 0 14 -113 4 -121
-10 -11 -17 1 -37 17 -31 8 3 14 -1 14 -11 0 -9 8 -16 18 -16 23 0 42 -19 42
-42 0 -13 -8 -18 -32 -19 -31 -1 -31 -2 -8 -8 22 -6 23 -8 7 -14 -10 -4 -17
-13 -14 -20 6 -18 -32 -47 -62 -47 -32 0 -44 8 -60 38 -10 19 -9 27 8 48 26
33 18 53 -21 52 -24 -1 -29 -5 -24 -21 4 -15 2 -17 -7 -8 -16 16 -27 14 -21
-4 3 -8 14 -17 25 -20 27 -9 25 -59 -3 -79 l-22 -16 29 -1 c17 0 23 -3 15 -6
-8 -2 -22 -7 -30 -9 -26 -9 10 -24 56 -24 22 0 44 -3 47 -6 8 -9 -63 -74 -80
-74 -14 0 -43 -51 -43 -77 0 -10 -7 -31 -15 -47 -27 -52 -21 -158 15 -266 31
-94 143 -336 174 -375 15 -19 15 -18 16 26 0 66 21 127 64 187 41 56 50 61 64
36 7 -12 11 -6 16 27 6 40 4 45 -28 77 -32 33 -35 34 -51 18 -31 -31 -25 -10
19 67 60 107 63 110 104 102 25 -5 32 -3 26 6 -4 8 -3 10 5 5 6 -4 9 -11 6
-16 -3 -4 2 -11 11 -14 24 -9 31 -7 14 4 -11 7 0 10 40 11 36 2 44 4 23 6 -18
2 -33 7 -33 11 0 4 -13 13 -29 20 -27 12 -47 39 -37 49 3 3 20 0 38 -6 27 -9
43 -8 74 3 21 8 31 15 21 15 -10 1 -16 5 -13 10 3 5 -17 12 -46 16 l-52 7 62
29 c34 15 62 30 62 33 0 3 -7 2 -17 -1 -11 -5 -14 -3 -9 6 6 8 -2 7 -22 -3
-34 -18 -117 -22 -127 -6 -3 5 15 36 40 67 63 76 82 117 111 233 25 104 30
150 15 150 -4 0 -14 20 -21 45 -7 25 -16 47 -19 48 -3 2 -26 0 -51 -4z m-240
-199 c0 -5 -4 -10 -10 -10 -5 0 -10 5 -10 10 0 6 5 10 10 10 6 0 10 -4 10 -10z
m-67 -187 c-7 -2 -21 -2 -30 0 -10 3 -4 5 12 5 17 0 24 -2 18 -5z m67 -468 c0
-13 -5 -27 -10 -30 -12 -7 -30 34 -23 52 8 20 33 2 33 -22z"/>
<path d="M4463 4130 c-9 -16 -23 -30 -30 -30 -23 0 -15 -60 12 -92 29 -34 31
-57 10 -97 -8 -16 -11 -32 -7 -36 4 -4 -4 -5 -18 -1 -14 4 -34 9 -45 11 -11 3
-26 12 -32 22 -7 9 -16 13 -20 9 -5 -4 9 -23 29 -42 43 -39 94 -46 120 -16 20
22 26 236 7 258 -6 7 -9 21 -5 29 9 25 -2 17 -21 -15z"/>
<path d="M5420 4150 c0 -5 6 -10 14 -10 8 0 18 5 21 10 3 6 -3 10 -14 10 -12
0 -21 -4 -21 -10z"/>
<path d="M6340 4149 c0 -5 5 -7 10 -4 6 3 10 8 10 11 0 2 -4 4 -10 4 -5 0 -10
-5 -10 -11z"/>
<path d="M4690 4120 c0 -5 4 -10 9 -10 6 0 13 5 16 10 3 6 -1 10 -9 10 -9 0
-16 -4 -16 -10z"/>
<path d="M4183 4065 c0 -22 2 -30 4 -17 2 12 2 30 0 40 -3 9 -5 -1 -4 -23z"/>
<path d="M4318 4094 c-10 -10 -9 -123 1 -149 7 -18 8 -18 12 5 7 36 -5 153
-13 144z"/>
<path d="M4360 4054 c0 -27 4 -43 10 -39 6 3 10 24 10 46 0 21 -4 39 -10 39
-5 0 -10 -21 -10 -46z"/>
<path d="M3871 4074 c0 -11 3 -14 6 -6 3 7 2 16 -1 19 -3 4 -6 -2 -5 -13z"/>
<path d="M3841 4064 c0 -11 3 -14 6 -6 3 7 2 16 -1 19 -3 4 -6 -2 -5 -13z"/>
<path d="M3760 4009 c0 -11 4 -18 10 -14 5 3 7 12 3 20 -7 21 -13 19 -13 -6z"/>
<path d="M5620 3971 l0 -51 60 0 60 0 0 45 c0 27 -5 45 -11 45 -8 0 -10 -12
-6 -34 6 -38 2 -47 -19 -39 -9 3 -11 11 -6 21 5 10 8 26 8 37 -1 16 -9 21 -43
23 l-43 3 0 -50z"/>
<path d="M4386 3981 c-9 -15 23 -36 36 -23 5 5 7 15 4 21 -9 13 -33 14 -40 2z"/>
<path d="M3840 3857 c0 -109 -10 -151 -47 -189 -15 -15 -28 -38 -30 -51 -2
-19 1 -18 28 13 65 73 69 86 69 208 0 68 -4 112 -10 112 -6 0 -10 -38 -10 -93z"/>
<path d="M6098 3943 c7 -3 16 -2 19 1 4 3 -2 6 -13 5 -11 0 -14 -3 -6 -6z"/>
<path d="M4690 3855 c0 -8 5 -15 10 -15 6 0 10 7 10 15 0 8 -4 15 -10 15 -5 0
-10 -7 -10 -15z"/>
<path d="M6075 3860 c3 -5 8 -10 11 -10 2 0 4 5 4 10 0 6 -5 10 -11 10 -5 0
-7 -4 -4 -10z"/>
<path d="M5628 3688 c-5 -38 3 -98 14 -98 6 0 8 6 5 14 -4 10 2 16 21 18 22 2
28 9 30 36 3 27 -1 34 -23 42 -38 14 -43 13 -47 -12z"/>
<path d="M4375 3430 c-3 -5 -2 -10 4 -10 5 0 13 5 16 10 3 6 2 10 -4 10 -5 0
-13 -4 -16 -10z"/>
<path d="M4452 3379 c-7 -10 -18 -16 -27 -13 -9 4 -18 -1 -22 -12 -4 -11 -16
-27 -27 -37 -15 -14 -21 -15 -28 -5 -6 10 -8 10 -8 1 0 -7 -5 -12 -12 -10 -6
1 -14 -7 -16 -18 -4 -16 -2 -17 11 -7 13 11 19 10 39 -10 21 -21 31 -23 130
-23 66 0 107 -4 105 -10 -2 -5 -52 -10 -118 -10 -99 0 -116 -2 -128 -18 -19
-26 -5 -34 19 -12 21 19 21 19 11 -9 -18 -45 -14 -75 8 -69 14 3 20 -2 25 -23
5 -18 10 -24 15 -16 7 11 41 10 61 -3 6 -3 10 -1 10 4 0 16 26 13 40 -4 10
-12 10 -15 -4 -15 -9 0 -16 -8 -16 -20 0 -15 7 -20 24 -20 14 0 28 -5 31 -10
5 -8 11 -7 21 1 18 15 64 -6 64 -28 0 -11 6 -10 24 4 13 10 22 21 19 26 -2 4
0 7 5 7 5 0 15 -13 22 -30 12 -30 30 -32 30 -4 0 20 27 47 40 39 5 -3 10 -34
10 -68 l0 -62 45 3 c25 2 51 -1 59 -7 21 -18 26 -2 26 88 1 70 3 82 12 66 13
-22 34 -45 41 -45 3 0 8 13 12 29 3 16 16 40 28 53 12 13 27 35 34 48 l12 25
0 -27 c1 -24 20 -42 22 -20 3 32 11 57 20 63 6 4 8 22 5 45 -8 48 -40 76 -78
68 -17 -3 -28 -1 -28 5 0 6 -7 11 -16 11 -13 0 -14 -3 -5 -14 10 -12 8 -17 -8
-25 -27 -15 -31 -14 -31 9 0 13 -7 20 -19 20 -14 0 -17 -6 -14 -27 4 -26 3
-26 -10 -10 -16 20 -37 23 -37 5 0 -6 -6 -3 -14 7 -13 18 -14 18 -26 -5 -12
-22 -14 -22 -25 -6 -10 13 -14 14 -18 4 -4 -11 -8 -11 -26 0 -12 7 -26 10 -31
7 -6 -4 -10 3 -10 13 0 31 -27 34 -49 7 -18 -24 -39 -35 -26 -15 3 6 -2 10
-12 10 -15 0 -16 2 -3 10 13 8 12 10 -2 10 -10 0 -18 7 -18 15 0 8 5 15 12 15
9 0 9 3 0 12 -8 8 -15 8 -27 -2 -8 -7 -15 -17 -15 -22 0 -5 -6 -16 -14 -23
-22 -23 -40 6 -31 51 6 34 5 36 -14 31 -12 -3 -21 -1 -21 5 0 5 -4 6 -10 3
-17 -11 -11 -25 10 -25 18 0 19 -3 9 -22 -7 -13 -12 -24 -11 -25 1 -2 2 -13 2
-25 0 -32 -12 -13 -16 24 -1 18 -9 45 -16 60 -14 25 -15 25 -26 7z m553 -200
c4 -6 4 -25 1 -43 -6 -29 -10 -33 -31 -28 -19 3 -25 11 -25 31 0 41 38 69 55
40z m-412 -71 c3 -10 9 -10 26 0 27 16 24 17 48 -17 l21 -28 -66 -1 c-37 0
-62 1 -56 4 6 3 9 16 6 29 -4 25 13 35 21 13z m284 -100 c-3 -7 -5 -2 -5 12 0
14 2 19 5 13 2 -7 2 -19 0 -25z m5 -73 c4 -19 1 -25 -12 -25 -16 0 -17 3 -7
25 7 14 13 25 13 25 1 0 4 -11 6 -25z"/>
<path d="M4050 3330 c0 -5 5 -10 10 -10 6 0 10 5 10 10 0 6 -4 10 -10 10 -5 0
-10 -4 -10 -10z"/>
<path d="M4277 3240 c-3 -11 -1 -20 4 -20 5 0 9 9 9 20 0 11 -2 20 -4 20 -2 0
-6 -9 -9 -20z"/>
<path d="M3997 3243 c-13 -12 -7 -33 8 -33 8 0 15 9 15 20 0 20 -11 26 -23 13z"/>
<path d="M4269 3179 c-6 -30 -5 -38 2 -50 8 -12 11 -11 20 4 6 9 14 15 19 12
4 -3 11 2 14 11 5 12 2 15 -10 10 -9 -4 -23 -1 -30 5 -8 6 -14 10 -15 8z"/>
<path d="M3770 3143 c0 -21 3 -24 9 -14 5 8 7 20 4 28 -8 21 -13 15 -13 -14z"/>
<path d="M4338 3143 c7 -3 16 -2 19 1 4 3 -2 6 -13 5 -11 0 -14 -3 -6 -6z"/>
<path d="M3352 3088 c2 -17 11 -24 32 -26 45 -5 76 6 76 28 0 18 -7 20 -56 20
-52 0 -55 -1 -52 -22z"/>
<path d="M3470 3085 c0 -18 5 -25 20 -25 15 0 20 7 20 25 0 18 -5 25 -20 25
-15 0 -20 -7 -20 -25z"/>
<path d="M4420 3037 c0 -16 3 -18 9 -8 6 10 10 10 16 1 4 -6 13 -9 19 -7 9 4
11 -3 8 -19 -3 -17 0 -24 12 -24 12 0 16 10 16 38 0 37 -1 38 -40 39 -35 2
-40 -1 -40 -20z"/>
<path d="M4519 2972 c5 -10 9 -49 7 -86 -2 -66 -2 -67 21 -63 16 3 23 -1 24
-12 3 -42 16 41 15 94 -1 59 -1 60 -29 59 -20 -1 -27 3 -23 12 3 8 -1 14 -10
14 -11 0 -12 -4 -5 -18z m41 -77 c0 -30 -3 -55 -7 -55 -5 0 -6 25 -5 55 5 71
12 71 12 0z"/>
<path d="M3804 2949 c-10 -17 13 -36 27 -22 12 12 4 33 -11 33 -5 0 -12 -5
-16 -11z"/>
<path d="M4720 2915 c0 -16 6 -25 15 -25 9 0 15 9 15 25 0 16 -6 25 -15 25 -9
0 -15 -9 -15 -25z"/>
<path d="M4601 2915 c1 -11 5 -31 9 -45 8 -24 8 -24 9 5 0 17 -4 37 -9 45 -8
12 -10 11 -9 -5z"/>
<path d="M4760 2910 c0 -11 5 -20 10 -20 6 0 10 9 10 20 0 11 -4 20 -10 20 -5
0 -10 -9 -10 -20z"/>
<path d="M4678 2903 c-2 -5 -1 -26 3 -48 l6 -40 2 48 c1 44 -3 57 -11 40z"/>
<path d="M4653 2865 c0 -22 2 -30 4 -17 2 12 2 30 0 40 -3 9 -5 -1 -4 -23z"/>
<path d="M4528 2803 c6 -2 18 -2 25 0 6 3 1 5 -13 5 -14 0 -19 -2 -12 -5z"/>
<path d="M2365 2790 c-8 -14 3 -30 21 -30 8 0 14 9 14 20 0 21 -24 28 -35 10z"/>
<path d="M2497 2794 c-14 -14 -7 -35 11 -32 9 2 17 10 17 17 0 16 -18 25 -28
15z"/>
<path d="M2617 2794 c-14 -14 -7 -35 11 -32 9 2 17 10 17 17 0 16 -18 25 -28
15z"/>
<path d="M2740 2783 c0 -16 -2 -16 -11 -3 -8 12 -10 12 -7 1 6 -22 38 -22 38
0 0 10 -4 19 -10 19 -5 0 -10 -8 -10 -17z"/>
<path d="M4585 2790 c-4 -6 -19 -9 -33 -7 -15 2 -20 2 -12 -1 12 -4 11 -6 -5
-13 -18 -7 -17 -8 6 -8 14 -1 31 5 38 12 11 10 13 9 9 -3 -3 -9 -19 -16 -39
-18 -61 -6 -58 -23 4 -21 55 2 57 3 57 30 0 30 -14 46 -25 29z"/>
<path d="M4642 2760 c0 -19 2 -27 5 -17 2 9 2 25 0 35 -3 9 -5 1 -5 -18z"/>
<path d="M4681 2774 c0 -11 3 -14 6 -6 3 7 2 16 -1 19 -3 4 -6 -2 -5 -13z"/>
<path d="M4052 2578 c-1 -140 1 -208 9 -208 7 0 8 43 3 137 -5 102 -4 134 4
129 7 -4 12 -2 12 3 0 6 -4 11 -10 11 -5 0 -10 5 -10 11 0 5 5 7 10 4 6 -4 10
7 10 25 0 17 -4 29 -9 25 -6 -3 -12 12 -14 32 -2 21 -4 -55 -5 -169z"/>
<path d="M4240 2770 c0 -5 5 -10 10 -10 6 0 10 5 10 10 0 6 -4 10 -10 10 -5 0
-10 -4 -10 -10z"/>
<path d="M4270 2724 c-12 -13 -8 -14 41 -8 72 9 86 24 22 24 -34 0 -55 -5 -63
-16z"/>
<path d="M4413 2729 c11 -7 23 -7 35 0 14 9 11 10 -18 10 -29 0 -32 -1 -17
-10z"/>
<path d="M4131 2704 c0 -11 3 -14 6 -6 3 7 2 16 -1 19 -3 4 -6 -2 -5 -13z"/>
<path d="M4863 2712 l-43 -3 0 -51 c0 -34 6 -59 20 -78 11 -15 17 -30 13 -34
-3 -3 1 -6 10 -6 11 0 14 5 11 15 -8 19 15 77 27 70 4 -3 12 2 17 12 12 23 14
93 3 74 -5 -7 -10 -9 -12 -5 -2 5 -23 8 -46 6z"/>
<path d="M4277 2693 c-4 -3 -6 -27 -6 -52 l2 -46 7 50 c8 53 7 59 -3 48z"/>
<path d="M4360 2650 c0 -6 7 -10 15 -10 8 0 15 2 15 4 0 2 -7 6 -15 10 -8 3
-15 1 -15 -4z"/>
<path d="M3384 2621 c3 -18 6 -38 6 -43 0 -5 5 -6 10 -3 6 3 10 1 10 -4 0 -6
5 -11 10 -11 6 0 3 11 -5 24 -11 16 -13 26 -6 31 6 3 11 11 11 16 0 6 -5 7
-11 3 -6 -3 -16 0 -21 7 -7 10 -8 4 -4 -20z"/>
<path d="M3230 2555 c0 -8 7 -15 15 -15 8 0 15 4 15 9 0 5 -7 11 -15 15 -9 3
-15 0 -15 -9z"/>
<path d="M4232 2480 c0 -19 2 -27 5 -17 2 9 2 25 0 35 -3 9 -5 1 -5 -18z"/>
<path d="M4480 2461 c0 -18 6 -21 41 -21 33 0 40 3 37 18 -2 12 -14 18 -41 20
-32 3 -37 0 -37 -17z"/>
<path d="M4082 2400 c0 -14 2 -19 5 -12 2 6 2 18 0 25 -3 6 -5 1 -5 -13z"/>
<path d="M4155 2380 c3 -5 8 -10 11 -10 2 0 4 5 4 10 0 6 -5 10 -11 10 -5 0
-7 -4 -4 -10z"/>
<path d="M4242 2360 c0 -19 2 -27 5 -17 2 9 2 25 0 35 -3 9 -5 1 -5 -18z"/>
<path d="M4574 2295 c0 -55 1 -76 3 -47 2 29 2 74 0 100 -2 26 -3 2 -3 -53z"/>
<path d="M4593 2330 c6 -71 17 -75 17 -7 0 33 -4 57 -10 57 -7 0 -9 -20 -7
-50z"/>
<path d="M4431 2354 c0 -11 3 -14 6 -6 3 7 2 16 -1 19 -3 4 -6 -2 -5 -13z"/>
<path d="M4462 2350 c0 -14 2 -19 5 -12 2 6 2 18 0 25 -3 6 -5 1 -5 -13z"/>
<path d="M3212 2338 c6 -18 28 -21 28 -4 0 9 -7 16 -16 16 -9 0 -14 -5 -12
-12z"/>
<path d="M3467 2334 c-9 -10 2 -24 19 -24 8 0 14 7 14 15 0 15 -21 21 -33 9z"/>
<path d="M3770 2325 c0 -8 9 -15 20 -15 11 0 20 7 20 15 0 8 -9 15 -20 15 -11
0 -20 -7 -20 -15z"/>
<path d="M4090 2324 c0 -8 5 -12 10 -9 6 3 10 10 10 16 0 5 -4 9 -10 9 -5 0
-10 -7 -10 -16z"/>
<path d="M6315 2313 c-50 -5 -71 -23 -29 -24 16 -1 42 -2 59 -3 21 -1 31 4 33
17 2 10 -2 16 -10 15 -7 -1 -31 -3 -53 -5z"/>
<path d="M3280 2285 c-7 -9 -11 -18 -8 -20 3 -3 11 1 18 10 7 9 11 18 8 20 -3
3 -11 -1 -18 -10z"/>
<path d="M3299 2270 c-27 -26 -30 -36 -29 -82 4 -135 0 -178 -16 -178 -8 0
-13 -4 -9 -9 3 -5 24 -7 48 -4 23 2 50 5 60 5 12 -1 17 7 17 26 0 20 3 23 9
13 5 -8 7 -20 4 -28 -3 -7 0 -13 6 -13 6 0 11 12 11 28 0 21 2 24 10 12 7 -11
10 -3 10 28 0 26 -4 41 -10 37 -5 -3 -10 1 -10 10 0 9 5 13 10 10 6 -4 10 20
10 64 0 41 -4 71 -10 71 -5 0 -10 5 -10 11 0 5 5 7 10 4 6 -3 10 -2 10 3 0 13
-25 22 -62 22 -20 0 -40 -10 -59 -30z m64 -119 c4 -29 2 -40 -4 -30 -8 13 -14
88 -5 78 2 -2 6 -24 9 -48z"/>
<path d="M3217 2264 c-9 -10 2 -24 19 -24 8 0 14 7 14 15 0 15 -21 21 -33 9z"/>
<path d="M5457 2234 c4 -10 0 -12 -11 -8 -9 3 -16 1 -16 -5 0 -6 11 -10 23 -9
25 2 32 24 11 32 -8 3 -11 0 -7 -10z"/>
<path d="M3120 2165 c0 -27 9 -32 28 -13 18 18 14 38 -8 38 -15 0 -20 -7 -20
-25z m17 -7 c-3 -8 -6 -5 -6 6 -1 11 2 17 5 13 3 -3 4 -12 1 -19z"/>
<path d="M3220 2154 c0 -8 5 -14 10 -14 6 0 13 0 18 0 15 0 6 23 -10 26 -10 1
-18 -4 -18 -12z"/>
<path d="M3212 2070 c0 -14 2 -19 5 -12 2 6 2 18 0 25 -3 6 -5 1 -5 -13z"/>
<path d="M4640 2055 c0 -8 5 -15 10 -15 6 0 10 7 10 15 0 8 -4 15 -10 15 -5 0
-10 -7 -10 -15z"/>
<path d="M4570 2040 c0 -5 7 -10 16 -10 8 0 12 5 9 10 -3 6 -10 10 -16 10 -5
0 -9 -4 -9 -10z"/>
<path d="M4380 1975 c0 -8 5 -15 10 -15 6 0 10 7 10 15 0 8 -4 15 -10 15 -5 0
-10 -7 -10 -15z"/>
<path d="M4588 1983 c29 -2 74 -2 100 0 26 2 2 3 -53 3 -55 0 -76 -1 -47 -3z"/>
<path d="M3215 1950 c-4 -6 3 -10 14 -10 25 0 27 6 6 13 -8 4 -17 2 -20 -3z"/>
<path d="M4788 1783 c4 -19 7 -22 10 -10 2 9 10 17 18 17 10 0 14 -14 16 -47
l1 -48 6 45 6 45 139 3 c93 2 143 -1 152 -9 11 -9 14 -8 14 7 0 18 -12 19
-184 22 l-184 4 6 -29z"/>
<path d="M5370 1730 c0 -5 5 -10 10 -10 6 0 10 5 10 10 0 6 -4 10 -10 10 -5 0
-10 -4 -10 -10z"/>
<path d="M4517 1687 c-22 -33 -21 -37 3 -37 22 0 25 -7 10 -30 -6 -10 -10 -11
-10 -2 0 6 -10 12 -23 12 -16 0 -26 -8 -33 -27 l-11 -28 -13 27 -13 28 -19
-22 c-22 -25 -19 -43 8 -43 21 0 31 -32 15 -48 -15 -15 -14 -77 2 -76 19 1 82
79 64 79 -25 0 -31 37 -10 64 16 20 22 22 36 11 9 -6 23 -25 32 -41 15 -29 15
-28 15 39 0 37 -4 67 -8 67 -5 0 -12 12 -18 27 l-9 27 -18 -27z"/>
<path d="M4831 1654 c0 -11 3 -14 6 -6 3 7 2 16 -1 19 -3 4 -6 -2 -5 -13z"/>
<path d="M5250 1589 c0 -5 5 -7 10 -4 6 3 10 8 10 11 0 2 -4 4 -10 4 -5 0 -10
-5 -10 -11z"/>
<path d="M4490 1554 c0 -9 7 -14 17 -12 25 5 28 28 4 28 -12 0 -21 -6 -21 -16z"/>
<path d="M4200 1549 c0 -5 9 -9 20 -9 11 0 20 2 20 4 0 2 -9 6 -20 9 -11 3
-20 1 -20 -4z"/>
<path d="M4775 1510 c-3 -5 1 -10 9 -10 9 0 16 5 16 10 0 6 -4 10 -9 10 -6 0
-13 -4 -16 -10z"/>
<path d="M4880 1495 c0 -9 5 -15 11 -13 6 2 11 8 11 13 0 5 -5 11 -11 13 -6 2
-11 -4 -11 -13z"/>
<path d="M4638 1493 c-11 -3 -18 -14 -18 -26 1 -21 1 -21 14 -4 14 18 14 18
19 0 3 -12 5 -9 6 10 0 15 0 26 -1 26 -2 -1 -11 -3 -20 -6z"/>
<path d="M4830 1485 c0 -25 26 -35 90 -33 l65 2 -64 3 c-46 3 -68 9 -77 21 -8
9 -14 12 -14 7z"/>
<path d="M5013 1453 c15 -2 39 -2 55 0 15 2 2 4 -28 4 -30 0 -43 -2 -27 -4z"/>
<path d="M4200 1390 c0 -17 6 -20 43 -19 23 0 37 3 30 5 -7 3 -9 12 -6 20 4
10 -4 14 -31 14 -29 0 -36 -4 -36 -20z"/>
<path d="M4729 1303 c0 -60 -2 -115 -4 -124 -1 -9 1 -23 6 -30 5 -8 9 41 9
124 0 75 -2 137 -5 137 -3 0 -5 -48 -6 -107z"/>
<path d="M4248 1343 c7 -3 16 -2 19 1 4 3 -2 6 -13 5 -11 0 -14 -3 -6 -6z"/>
<path d="M4850 1005 c0 -8 5 -15 10 -15 6 0 10 7 10 15 0 8 -4 15 -10 15 -5 0
-10 -7 -10 -15z"/>
<path d="M1664 489 c-10 -17 13 -36 27 -22 12 12 4 33 -11 33 -5 0 -12 -5 -16
-11z"/>
<path d="M2497 494 c-14 -15 -6 -34 14 -34 14 0 19 5 17 17 -3 18 -20 27 -31
17z"/>
<path d="M5376 435 c-20 -21 -10 -45 20 -45 27 0 33 30 10 49 -11 9 -17 8 -30
-4z"/>
<path d="M4916 383 c-12 -12 -6 -33 9 -33 8 0 15 6 15 14 0 17 -14 28 -24 19z"/>
<path d="M1250 360 c0 -5 7 -10 15 -10 8 0 15 5 15 10 0 6 -7 10 -15 10 -8 0
-15 -4 -15 -10z"/>
<path d="M1490 354 c0 -17 22 -14 28 4 2 7 -3 12 -12 12 -9 0 -16 -7 -16 -16z"/>
<path d="M5452 350 c0 -14 2 -19 5 -12 2 6 2 18 0 25 -3 6 -5 1 -5 -13z"/>
<path d="M5450 144 c0 -45 24 -42 28 4 2 24 -1 32 -12 32 -12 0 -16 -10 -16
-36z"/>
<path d="M2430 105 c0 -9 6 -12 15 -9 8 4 15 10 15 15 0 5 -7 9 -15 9 -8 0
-15 -7 -15 -15z"/>
<path d="M2661 14 c0 -11 3 -14 6 -6 3 7 2 16 -1 19 -3 4 -6 -2 -5 -13z"/>
</g>
</svg>
