<?xml version="1.0" standalone="no"?>
<!DOCTYPE svg PUBLIC "-//W3C//DTD SVG 20010904//EN"
 "http://www.w3.org/TR/2001/REC-SVG-20010904/DTD/svg10.dtd">
<svg version="1.0" xmlns="http://www.w3.org/2000/svg"
 width="725.000000pt" height="481.000000pt" viewBox="0 0 725.000000 481.000000"
 preserveAspectRatio="xMidYMid meet">

<g transform="translate(0.000000,481.000000) scale(0.100000,-0.100000)"
fill="#000000" stroke="none">
<path d="M4012 4798 c-5 -7 -19 -35 -30 -61 l-22 -48 48 39 c26 22 56 49 66
61 19 21 19 21 -16 21 -20 0 -40 -6 -46 -12z"/>
<path d="M4001 4703 l-109 -108 -15 -95 c-24 -147 -27 -181 -14 -173 7 3 4 -3
-7 -15 -14 -16 -17 -30 -12 -54 3 -18 9 -55 12 -83 4 -40 3 -46 -6 -32 -11 18
-13 18 -38 -5 -26 -22 -26 -22 -8 -1 14 17 16 26 8 36 -9 10 -8 17 0 25 18 18
-2 32 -29 21 -13 -4 -23 -13 -23 -19 0 -5 -6 -10 -12 -10 -7 0 -33 -21 -57
-46 -24 -25 -49 -43 -56 -40 -14 5 -49 -27 -39 -36 8 -9 -28 -48 -39 -41 -5 3
-8 -3 -7 -13 4 -35 0 -42 -36 -65 l-37 -22 23 -19 c12 -10 25 -18 29 -18 4 0
58 47 120 105 62 58 114 105 116 105 3 0 20 -14 40 -31 33 -29 37 -30 54 -15
9 9 20 16 24 16 4 0 14 -26 23 -57 25 -89 43 -142 59 -173 11 -21 12 -36 6
-53 -6 -14 -7 -28 -3 -33 4 -4 -1 -4 -12 0 -21 7 -23 18 22 -154 35 -131 77
-257 94 -277 16 -20 30 -16 23 7 -8 25 11 27 24 2 5 -10 17 -58 26 -108 22
-117 44 -187 69 -218 28 -35 101 -41 154 -15 77 40 77 14 -1 -69 -48 -52 -49
-54 -31 -73 10 -11 20 -32 21 -47 2 -15 10 -60 18 -100 8 -41 12 -84 9 -96 -4
-16 5 -36 30 -69 20 -26 36 -52 36 -57 0 -6 4 -10 8 -10 4 0 20 -20 35 -43 16
-24 47 -58 71 -74 l44 -31 53 54 c29 30 58 54 63 54 6 0 -16 -26 -48 -59 l-58
-58 39 -24 c21 -12 88 -55 148 -95 l110 -71 86 -6 86 -6 44 45 44 45 -60 54
c-33 29 -57 56 -53 60 10 10 -61 155 -99 202 -26 33 -32 48 -27 67 3 14 10 23
15 20 5 -3 7 1 4 8 -9 23 74 107 138 140 46 23 69 29 98 25 31 -4 42 0 64 23
20 21 25 34 22 64 -3 26 4 52 25 94 45 91 26 127 -43 78 -76 -55 -201 -128
-267 -156 -82 -35 -185 -41 -236 -15 -32 17 -98 20 -126 5 -15 -8 -25 -4 -49
22 -48 51 -42 64 48 93 32 10 80 17 118 16 81 -2 91 15 41 66 l-35 35 -119 2
c-102 1 -119 3 -122 17 -2 13 8 19 49 24 29 4 66 13 84 21 67 28 220 27 289
-1 16 -7 17 -5 11 16 -14 49 -82 78 -112 48 -9 -9 -28 -8 -77 5 -75 18 -119
20 -146 6 -11 -6 -37 -7 -60 -4 -35 6 -40 10 -40 33 0 14 5 33 10 41 8 12 14
10 40 -15 28 -27 31 -28 47 -13 13 14 14 23 5 60 -14 54 -18 84 -12 88 3 2 22
0 42 -4 41 -8 78 6 78 29 0 34 -79 47 -118 19 -20 -14 -25 -14 -40 -2 -25 21
-101 48 -118 41 -8 -3 -14 -12 -14 -19 0 -8 -9 -24 -20 -36 -19 -21 -20 -21
-20 -2 0 10 11 48 24 84 12 36 31 112 40 170 25 151 24 148 63 161 32 10 36 9
51 -12 28 -41 50 -57 86 -68 20 -5 53 -23 74 -39 52 -41 119 -82 134 -82 7 0
0 8 -17 18 -16 11 -36 26 -44 35 -15 19 -16 19 66 37 56 13 79 31 69 55 -3 10
-19 15 -45 15 l-40 0 24 25 c14 13 25 32 25 41 0 11 5 14 18 9 37 -14 104 -22
135 -16 49 10 47 39 -7 91 l-46 44 21 22 21 22 -32 17 c-55 29 -123 31 -172 5
-24 -13 -84 -28 -138 -36 -122 -18 -155 -30 -191 -65 -32 -31 -63 -32 -123 -1
-78 39 -264 21 -323 -31 -43 -38 -48 -61 -29 -138 14 -58 23 -100 25 -121 1
-5 16 -25 35 -46 l35 -38 -30 -44 c-27 -40 -30 -51 -25 -100 l5 -55 -20 43
c-29 62 -49 164 -49 257 0 44 -7 125 -15 180 -19 133 -20 275 -1 301 15 19 15
19 35 -1 15 -15 23 -39 27 -85 9 -90 16 -100 67 -100 24 0 52 6 63 14 18 14
18 15 -9 44 -28 29 -28 31 -13 60 8 16 32 37 53 47 21 9 53 31 71 49 31 29 33
34 27 76 -5 39 -3 49 15 65 12 11 30 36 40 55 13 25 30 39 56 49 22 8 56 26
78 40 32 21 48 25 97 23 42 -2 68 3 94 17 22 11 48 17 63 15 42 -8 139 -63
174 -100 56 -57 118 -70 118 -25 0 25 10 51 20 51 18 0 42 -57 51 -118 15
-107 28 -136 90 -205 32 -36 63 -77 69 -93 l11 -27 42 39 c23 21 70 66 104 98
105 100 79 57 -31 -53 l-104 -103 13 -47 c6 -25 22 -66 35 -91 17 -33 24 -64
25 -113 2 -71 15 -101 36 -80 19 19 29 113 22 207 l-6 89 32 -6 c29 -6 38 -1
82 40 35 34 49 55 49 75 0 15 5 50 11 78 21 98 9 123 -106 230 -124 115 -135
132 -110 160 25 27 35 25 35 -7 1 -31 7 -40 72 -102 52 -49 85 -49 43 1 -17
20 -23 34 -16 41 12 12 34 -1 25 -15 -4 -6 -3 -8 3 -5 6 4 19 0 29 -8 23 -17
44 -19 44 -4 0 7 -21 34 -46 61 -25 26 -52 65 -60 84 -25 59 -66 115 -81 110
-7 -3 -13 1 -13 9 0 8 -5 15 -11 15 -5 0 -8 4 -5 8 3 5 -8 19 -24 30 -29 22
-30 22 -650 22 l-621 0 -108 -107z m1379 -16 c0 -2 -12 -14 -27 -28 l-28 -24
24 28 c23 25 31 32 31 24z m-86 -78 c-10 -11 -28 -26 -39 -31 -14 -8 -12 -2 9
21 33 34 61 44 30 10z m-1086 -23 c3 -12 -1 -17 -10 -14 -7 3 -15 13 -16 22
-3 12 1 17 10 14 7 -3 15 -13 16 -22z m1002 -61 c-7 -8 -17 -15 -23 -15 -5 0
-2 9 8 20 21 23 35 19 15 -5z m-1580 -429 c0 -2 -8 -10 -17 -17 -16 -13 -17
-12 -4 4 13 16 21 21 21 13z m1325 -148 c45 -20 27 -26 -37 -11 -35 8 -65 16
-67 19 -10 9 80 3 104 -8z m-809 -263 c-7 -19 -36 -19 -36 0 0 17 33 38 38 24
2 -5 1 -16 -2 -24z m113 -185 c1 -3 -12 -21 -27 -39 -26 -31 -32 -33 -65 -27
-20 4 -37 10 -37 14 0 4 14 31 31 60 l30 53 34 -28 c18 -15 34 -30 34 -33z
m39 -311 c7 -28 12 -85 11 -127 l-1 -77 -15 35 c-26 60 -44 166 -33 194 14 39
25 32 38 -25z m72 -333 c-13 -13 -35 7 -25 24 5 8 11 8 21 -1 10 -8 12 -15 4
-23z"/>
<path d="M5630 4445 c-1 -11 -4 -32 -5 -46 l-4 -27 23 22 c26 24 32 42 11 38
-7 -1 -16 5 -18 15 -4 16 -5 16 -7 -2z m30 -29 c0 -2 -7 -7 -16 -10 -8 -3 -12
-2 -9 4 6 10 25 14 25 6z"/>
<path d="M5858 4007 c-88 -85 -149 -152 -152 -167 -3 -14 -10 -60 -15 -103
-17 -149 -82 -224 -183 -213 l-48 5 0 -44 c0 -55 20 -135 35 -135 5 0 48 41
95 91 74 79 88 90 100 78 39 -37 50 -42 65 -29 20 17 43 6 99 -45 27 -25 55
-45 62 -43 7 2 52 41 99 87 91 90 89 83 43 135 -10 11 -18 23 -18 28 0 4 27
34 60 67 33 33 60 62 60 66 0 3 -10 5 -23 5 -27 0 -72 43 -62 60 5 7 -1 9 -19
4 -20 -5 -26 -2 -26 10 0 15 33 23 65 16 6 -1 7 2 3 6 -5 4 4 22 18 41 17 23
25 44 23 66 -4 39 -8 45 -78 106 l-57 49 -146 -141z m152 68 c0 -2 -10 -13
-21 -24 -25 -23 -19 -51 11 -51 11 0 20 -6 20 -14 0 -20 -23 -33 -28 -17 -3 8
-13 22 -23 32 -16 16 -17 21 -4 46 8 15 15 24 15 19 0 -6 5 -5 12 2 13 13 18
15 18 7z m80 -39 c0 -3 -4 -8 -10 -11 -5 -3 -10 -1 -10 4 0 6 5 11 10 11 6 0
10 -2 10 -4z m-133 -142 c-3 -3 -12 -4 -19 -1 -8 3 -5 6 6 6 11 1 17 -2 13 -5z
m68 -213 c3 -5 2 -12 -3 -15 -5 -3 -9 1 -9 9 0 17 3 19 12 6z"/>
<path d="M3595 4120 c3 -5 8 -10 11 -10 2 0 4 5 4 10 0 6 -5 10 -11 10 -5 0
-7 -4 -4 -10z"/>
<path d="M3364 4064 c-10 -8 -14 -13 -9 -11 6 3 21 -2 33 -12 21 -15 21 -18 7
-36 -9 -11 -14 -15 -11 -9 3 7 0 17 -8 23 -22 19 -14 -21 11 -53 20 -24 25
-27 39 -16 14 12 14 14 -2 23 -13 8 -14 11 -3 18 8 5 9 9 3 9 -6 0 -10 11 -9
24 2 14 -5 32 -14 40 -16 14 -19 14 -37 0z"/>
<path d="M6303 4055 c-7 -8 -9 -16 -5 -19 4 -3 13 4 20 15 14 22 3 25 -15 4z"/>
<path d="M6750 3873 c-83 -83 -140 -148 -132 -150 19 -7 14 -22 -5 -17 -13 4
-40 -19 -89 -73 -105 -115 -134 -150 -134 -160 0 -13 78 -63 98 -63 10 0 57
37 105 83 114 107 114 107 127 107 5 0 10 7 10 16 0 8 4 12 10 9 10 -6 80 46
185 140 33 29 77 69 98 87 l39 33 -75 68 c-42 37 -79 67 -84 67 -4 -1 -73 -66
-153 -147z m232 -36 c-22 -21 -24 -21 -33 -4 -9 16 -14 14 -49 -25 -30 -34
-41 -40 -51 -31 -20 20 5 65 35 61 13 -1 29 2 37 9 8 6 19 12 24 12 6 1 11 6
11 11 1 6 2 15 3 20 0 6 11 2 23 -10 l22 -20 -22 -23z m-65 27 c-3 -3 -12 -4
-19 -1 -8 3 -5 6 6 6 11 1 17 -2 13 -5z"/>
<path d="M5590 3995 c-11 -13 -10 -18 3 -28 8 -7 27 -34 41 -62 l27 -50 -7 40
c-4 22 -6 49 -6 59 2 47 -33 71 -58 41z"/>
<path d="M6179 3968 c-8 -7 -25 -25 -38 -40 l-23 -27 23 6 c17 5 21 3 16 -10
-7 -18 14 -29 34 -16 8 5 26 7 40 4 17 -4 30 0 39 10 11 13 7 20 -26 50 -45
39 -45 39 -65 23z"/>
<path d="M3424 3939 c-3 -6 0 -15 7 -20 23 -14 30 -10 19 11 -12 23 -16 24
-26 9z"/>
<path d="M5504 3843 c-6 -23 -1 -32 32 -60 45 -38 59 -41 74 -13 16 30 5 54
-39 78 -50 28 -59 28 -67 -5z"/>
<path d="M3550 3779 c-33 -41 -39 -73 -25 -119 8 -24 -20 -39 -38 -21 -16 16
-54 14 -61 -4 -3 -8 -12 -15 -20 -15 -8 0 -19 -6 -23 -13 -4 -7 -21 -17 -38
-22 -21 -7 -30 -17 -31 -33 -1 -12 2 -22 5 -22 4 0 25 -16 46 -35 l39 -36 62
62 c35 35 61 65 58 68 -3 3 -9 -1 -14 -9 -8 -12 -10 -12 -10 3 0 30 52 76 81
70 18 -3 34 6 67 40 l43 43 -50 42 c-27 23 -51 42 -54 42 -2 0 -19 -19 -37
-41z"/>
<path d="M7155 3584 c-73 -79 -87 -99 -78 -113 8 -13 7 -17 -9 -17 -12 0 -17
5 -13 16 8 23 -55 -52 -66 -78 -5 -13 -9 -33 -9 -45 1 -20 2 -20 11 -4 5 9 7
22 4 27 -3 6 1 13 9 16 9 3 14 10 11 14 -3 4 2 13 10 20 8 7 12 16 9 21 -3 5
3 6 12 2 16 -6 15 -7 -2 -20 -10 -7 -14 -13 -8 -13 5 -1 -1 -9 -14 -20 -13
-11 -18 -21 -12 -25 7 -4 5 -14 -5 -28 -20 -28 -19 -37 3 -37 16 0 140 115
135 125 -2 3 -2 4 0 3 2 -2 20 11 40 29 22 19 43 30 52 27 13 -5 15 9 15 95 0
56 -2 101 -3 101 -2 0 -44 -43 -92 -96z m-92 -219 c9 -21 -9 -27 -24 -8 -10
12 -10 14 -1 9 6 -4 12 -2 12 3 0 16 7 13 13 -4z m-33 -39 c0 -3 -4 -8 -10
-11 -5 -3 -10 -1 -10 4 0 6 5 11 10 11 6 0 10 -2 10 -4z"/>
<path d="M5480 3610 c0 -5 5 -10 11 -10 5 0 7 5 4 10 -3 6 -8 10 -11 10 -2 0
-4 -4 -4 -10z"/>
<path d="M6845 3342 c0 -17 3 -19 10 -10 6 7 17 18 24 25 10 9 8 11 -10 10
-18 -2 -24 -8 -24 -25z"/>
<path d="M3544 3329 c-18 -21 -18 -21 34 -66 44 -38 51 -48 40 -60 -7 -8 -17
-24 -23 -36 -5 -11 -27 -26 -47 -33 -21 -7 -47 -22 -60 -33 -23 -22 -48 -28
-48 -11 0 5 -6 9 -12 8 -7 -2 -13 6 -13 17 -1 12 -7 19 -15 17 -11 -2 -10 2 3
12 16 12 16 14 1 20 -10 4 -35 -10 -71 -41 l-55 -47 39 -33 c21 -18 43 -30 50
-28 7 2 10 -2 7 -8 -2 -7 9 -26 25 -41 29 -28 31 -28 55 -12 14 9 30 25 36 36
6 11 16 20 22 20 7 0 -7 -19 -30 -43 l-42 -43 25 -24 26 -24 42 40 c151 148
257 247 257 242 0 -3 -65 -70 -146 -149 -80 -79 -140 -145 -133 -148 6 -2 48
32 93 76 44 44 90 86 101 94 11 8 -27 -31 -84 -86 l-103 -99 32 -26 32 -26
-138 -136 c-137 -136 -138 -137 -120 -157 11 -12 24 -21 30 -21 6 0 44 33 86
72 l75 73 -77 -80 c-45 -46 -74 -85 -70 -91 4 -6 19 -13 34 -16 22 -4 36 5 89
58 60 60 62 64 46 82 -26 29 -21 46 33 105 28 30 50 58 50 63 0 4 -8 16 -17
27 -18 19 -14 24 132 163 l149 143 -24 26 c-13 14 -27 25 -31 25 -5 0 -19 10
-32 23 -111 103 -138 127 -178 160 -25 20 -48 37 -51 37 -3 0 -13 -9 -24 -21z
m61 -231 c-3 -13 -3 -18 2 -13 25 30 42 37 57 22 13 -13 12 -17 -9 -37 -14
-13 -28 -20 -32 -16 -4 4 3 16 17 26 14 11 20 20 14 20 -6 0 -17 -7 -24 -15
-17 -21 -40 -19 -40 3 0 17 8 32 17 32 3 0 1 -10 -2 -22z"/>
<path d="M6911 3317 c-17 -17 -13 -38 10 -64 l22 -22 29 21 30 21 -28 26 c-32
29 -47 34 -63 18z"/>
<path d="M5834 3239 c17 -81 16 -88 -14 -111 -16 -11 -26 -26 -23 -31 3 -6 1
-7 -5 -3 -6 4 -20 -1 -30 -11 -10 -10 -29 -25 -42 -33 -13 -8 -52 -43 -88 -77
-36 -34 -76 -63 -89 -65 l-24 -3 26 -35 c15 -19 40 -62 57 -94 28 -55 31 -71
36 -184 l5 -124 108 108 c60 60 109 105 109 101 0 -5 -52 -59 -115 -121 -89
-86 -114 -116 -109 -130 6 -15 14 -11 58 31 85 82 95 83 15 2 l-76 -76 -7 -70
c-4 -39 -9 -101 -11 -139 -3 -38 -8 -80 -11 -94 -6 -21 2 -16 48 28 31 30 58
49 62 44 3 -6 -26 -42 -65 -81 l-71 -71 7 -90 c4 -49 4 -90 1 -90 -3 0 -52 37
-108 83 -138 111 -294 227 -305 227 -5 0 -36 -20 -69 -45 -62 -47 -124 -62
-124 -30 0 10 -10 15 -31 15 -17 0 -39 5 -50 10 -17 10 -35 -5 -142 -115 -67
-70 -126 -133 -130 -141 -11 -19 27 -19 105 1 l60 16 39 -36 c21 -19 45 -35
52 -35 7 0 30 -17 51 -39 41 -42 41 -53 8 -136 -15 -39 -25 -137 -38 -370 l-6
-110 73 70 c68 64 56 46 -31 -48 l-35 -38 -2 -352 c-1 -194 -5 -441 -9 -549
l-7 -198 620 0 c537 0 622 2 633 15 16 19 34 19 50 0 10 -12 36 -15 114 -15
l102 0 98 97 c76 76 100 94 107 82 5 -8 9 -16 9 -19 0 -3 -34 -39 -76 -80
l-76 -75 213 -3 213 -2 71 69 c38 38 97 85 130 106 33 21 81 56 107 78 l48 40
0 706 0 706 -127 -126 c-71 -70 -136 -129 -145 -132 -43 -15 -22 20 62 104 81
81 92 90 108 78 15 -13 16 -12 3 4 -13 16 -9 24 42 75 l57 58 0 551 0 551 -52
39 c-71 54 -80 56 -141 32 -82 -33 -82 -42 1 -113 l52 -45 -121 -133 c-67 -73
-138 -144 -158 -158 -20 -14 -60 -49 -89 -78 -30 -29 -58 -52 -63 -52 -5 0 -9
-4 -9 -10 0 -5 7 -6 17 -3 11 4 14 3 9 -6 -4 -6 -15 -9 -25 -6 -11 3 -26 -4
-41 -20 -32 -34 -46 -32 -21 4 12 16 21 32 21 35 0 3 -20 24 -45 47 -25 23
-45 45 -45 49 0 4 16 27 35 51 19 24 35 49 35 56 0 16 -152 154 -165 150 -5
-2 -22 -22 -38 -45 -15 -22 -116 -126 -224 -231 l-196 -190 17 -26 c15 -23 15
-25 0 -25 -8 0 -14 -6 -11 -12 2 -7 10 -13 17 -13 7 0 15 -6 18 -12 5 -17 -2
-16 -45 7 -36 19 -62 16 -78 -10 -3 -6 -11 -10 -18 -10 -6 0 -1 7 11 16 12 8
22 20 22 26 0 5 11 23 25 40 14 16 25 38 25 49 0 13 4 18 12 13 7 -4 8 -3 4 4
-4 6 -13 9 -21 6 -8 -4 -12 -10 -9 -15 3 -5 -3 -12 -13 -16 -20 -7 -63 -49
-63 -61 0 -4 -15 -16 -32 -27 -44 -25 65 93 220 240 61 59 112 112 111 119 -1
16 -141 131 -156 128 -7 -2 -13 2 -13 7 0 9 289 298 370 369 44 39 33 54 -42
56 -47 2 -56 -2 -90 -32 l-38 -34 0 30 c0 35 -33 77 -112 144 -48 39 -55 42
-132 49 -44 4 -94 11 -110 15 -29 7 -29 6 -22 -27z m169 -177 c-194 -188 -183
-178 -183 -159 0 9 5 17 12 17 7 0 71 59 143 130 73 72 136 130 141 130 5 0
-46 -53 -113 -118z m1155 -304 c17 -17 15 -100 -4 -126 -19 -28 -41 -27 -78 2
-23 20 -27 29 -22 51 7 28 62 85 81 85 6 0 16 -5 23 -12z m-1078 -158 c13 -8
13 -10 -2 -10 -9 0 -20 5 -23 10 -8 13 5 13 25 0z m-390 -418 c0 -4 -10 -13
-22 -21 -23 -14 -23 -14 -4 8 20 22 26 25 26 13z m620 -1 c0 -6 -4 -13 -10
-16 -5 -3 -10 1 -10 9 0 9 5 16 10 16 6 0 10 -4 10 -9z m-137 -59 c10 -10 14
-22 10 -27 -5 -4 -3 -5 3 -2 12 7 29 -11 52 -51 10 -19 10 -23 -2 -28 -19 -7
-116 24 -116 37 0 6 -4 8 -9 4 -5 -3 -19 8 -30 24 -15 21 -18 32 -10 37 8 4 9
3 5 -4 -12 -19 20 -14 45 8 30 24 32 24 52 2z m597 -97 c-19 -19 -38 -35 -44
-35 -6 0 7 18 29 40 21 22 41 37 44 35 2 -3 -11 -21 -29 -40z m-445 -45 c3 -5
2 -10 -4 -10 -5 0 -13 5 -16 10 -3 6 -2 10 4 10 5 0 13 -4 16 -10z m150 -74
c-10 -14 -22 -23 -27 -20 -5 3 1 17 13 30 28 30 36 24 14 -10z m-180 14 c-3
-5 -10 -10 -16 -10 -5 0 -9 5 -9 10 0 6 7 10 16 10 8 0 12 -4 9 -10z m-195
-45 c0 -26 -14 -33 -25 -15 -9 14 1 40 15 40 5 0 10 -11 10 -25z m-706 -16
c14 -11 23 -25 20 -30 -12 -20 -15 -69 -5 -70 6 -1 17 -2 24 -3 6 -1 15 -4 18
-9 3 -4 13 1 23 12 13 14 14 21 5 27 -8 5 -10 3 -4 -6 6 -10 4 -12 -8 -7 -9 3
-19 2 -22 -3 -4 -6 -12 -10 -18 -9 -9 0 -8 2 1 6 6 2 9 10 6 15 -4 6 -2 8 4 4
6 -3 13 -2 16 3 3 5 -1 12 -10 15 -9 4 -14 9 -11 12 3 3 26 -8 51 -25 52 -36
67 -38 91 -11 27 30 31 16 5 -19 -12 -17 -17 -31 -11 -31 14 0 14 -159 1 -443
-10 -229 -27 -310 -81 -395 -16 -25 -29 -54 -29 -64 0 -10 -4 -18 -8 -18 -4 0
-14 -15 -20 -34 -18 -50 -38 -52 -61 -8 -14 27 -23 78 -31 177 -7 77 -27 240
-46 363 -36 234 -45 265 -126 403 -32 56 -32 57 -17 105 l15 48 49 -2 c28 -1
64 2 80 7 48 15 70 13 99 -10z m1096 13 c0 -4 -27 -34 -59 -66 -45 -44 -64
-57 -78 -52 -17 7 -17 8 -1 17 10 5 40 32 68 59 48 47 70 60 70 42z m-77 -9
c-7 -2 -19 -2 -25 0 -7 3 -2 5 12 5 14 0 19 -2 13 -5z m595 -2 c10 -6 10 -10
-1 -20 -12 -9 -16 -7 -20 9 -5 21 0 25 21 11z m-693 -111 c-26 -11 -105 -13
-105 -1 0 4 28 8 63 9 43 1 56 -2 42 -8z m565 -21 c0 -5 -7 -9 -15 -9 -8 0
-15 7 -15 15 0 9 6 12 15 9 8 -4 15 -10 15 -15z m-960 -126 c-47 -48 -77 -81
-68 -74 14 10 23 9 52 -4 49 -24 54 -47 17 -94 -47 -60 -58 -66 -70 -42 -6 11
-11 38 -11 60 0 44 -13 59 -36 40 -12 -10 -17 -8 -29 7 -25 33 -14 49 34 50
39 1 49 7 114 73 40 39 74 71 77 71 2 0 -34 -39 -80 -87z m951 -37 c-40 -40
-69 -76 -63 -80 5 -3 15 1 22 9 7 9 36 34 64 57 l51 42 -59 -61 c-47 -50 -57
-65 -51 -83 5 -15 4 -20 -4 -16 -6 4 -11 3 -11 -1 0 -5 -10 -19 -22 -33 -28
-30 -58 -93 -58 -120 0 -11 16 -38 36 -59 l35 -40 -23 -12 c-13 -6 -57 -47
-99 -91 -67 -70 -79 -78 -102 -73 -18 5 -27 14 -27 27 0 13 -6 18 -17 16 -11
-2 -18 -12 -18 -25 0 -12 -4 -25 -9 -30 -6 -5 -6 -2 -1 7 8 13 7 13 -8 1 -18
-14 -23 -26 -8 -16 5 3 13 0 17 -6 4 -8 9 -7 15 2 7 11 9 10 9 -4 0 -12 4 -16
13 -11 15 9 -4 -15 -57 -72 l-39 -43 -18 22 -18 22 -43 -40 c-61 -58 -88 -79
-88 -71 0 13 105 118 126 126 19 8 20 12 11 85 -9 70 -8 78 11 98 13 13 19 31
16 42 -3 15 13 38 60 85 36 36 65 70 66 76 0 16 341 344 357 344 4 0 -25 -33
-66 -74z m-301 34 c40 -35 66 -38 89 -9 11 14 25 20 41 17 23 -3 16 -12 -77
-108 l-102 -105 -51 52 c-64 67 -64 86 1 141 28 23 54 42 58 42 3 -1 22 -14
41 -30z m-496 -178 c-6 -4 -14 -16 -18 -26 -5 -15 -9 -17 -19 -7 -9 10 -8 15
7 27 11 8 25 14 30 14 8 0 8 -3 0 -8z m-339 -128 c27 -30 30 -40 15 -49 -10
-6 -29 4 -75 40 -17 14 -18 17 -5 25 24 16 39 12 65 -16z m625 -39 c15 -18 5
-35 -20 -35 -23 0 -32 13 -24 34 8 20 28 21 44 1z m-32 -155 c42 -26 48 -43
25 -73 -17 -23 -19 -23 -41 -9 -25 16 -52 61 -52 87 0 21 29 19 68 -5z m-558
-24 c0 -3 -4 -8 -10 -11 -5 -3 -10 -1 -10 4 0 6 5 11 10 11 6 0 10 -2 10 -4z
m505 -86 c3 -5 1 -10 -4 -10 -6 0 -11 5 -11 10 0 6 2 10 4 10 3 0 8 -4 11 -10z
m9 -56 c11 -4 13 -14 9 -35 -4 -21 -1 -30 11 -35 9 -3 16 -13 16 -20 0 -12 -6
-12 -32 2 -46 23 -64 54 -33 54 20 0 19 10 -2 26 -16 12 -17 13 -1 14 9 0 23
-3 32 -6z m-335 -43 c28 -18 -41 -95 -81 -89 -18 2 -23 9 -23 32 0 22 7 33 35
47 39 21 49 23 69 10z m391 -1 c0 -5 -2 -10 -4 -10 -3 0 -8 5 -11 10 -3 6 -1
10 4 10 6 0 11 -4 11 -10z m427 -82 l72 -73 -108 -107 c-59 -60 -111 -108
-114 -108 -4 0 -7 7 -7 16 0 9 5 12 12 8 7 -4 8 -3 4 4 -9 15 7 38 78 112 31
32 56 62 56 67 0 5 -24 33 -54 62 -36 36 -58 51 -68 46 -7 -5 -2 4 11 18 14
15 29 27 35 27 7 0 44 -33 83 -72z m-432 -78 c-60 -60 -111 -107 -114 -104 -6
6 205 214 217 214 4 0 -43 -49 -103 -110z m-505 71 c0 -6 -4 -13 -10 -16 -5
-3 -10 1 -10 9 0 9 5 16 10 16 6 0 10 -4 10 -9z m-217 -91 c-6 -23 -33 -27
-33 -6 0 13 13 23 32 25 3 1 4 -8 1 -19z m857 -23 c0 -1 -24 -25 -52 -52 l-53
-50 50 53 c46 48 55 57 55 49z m-1365 -167 c32 -33 56 -62 53 -65 -6 -7 -148
119 -180 160 l-23 30 46 -33 c25 -18 72 -60 104 -92z m882 36 c-3 -7 0 -19 6
-25 9 -9 7 -10 -8 -5 -18 7 -19 6 -5 -11 9 -11 10 -16 3 -11 -14 8 -17 -2 -14
-48 1 -21 -2 -27 -14 -23 -8 4 -17 2 -20 -3 -3 -4 -1 -10 5 -12 10 -3 -222
-248 -236 -248 -5 0 45 54 111 120 65 65 116 122 112 126 -4 4 -2 13 4 20 14
17 30 76 18 69 -5 -4 -9 -13 -9 -21 0 -9 -7 -14 -18 -12 -11 2 -27 -4 -37 -12
-17 -14 -17 -14 -6 5 7 11 33 35 57 54 24 18 44 37 44 42 0 5 3 9 6 9 3 0 4
-6 1 -14z m26 -1 c-3 -9 -8 -14 -10 -11 -3 3 -2 9 2 15 9 16 15 13 8 -4z
m-743 -4 c0 -10 -30 -24 -37 -17 -3 3 -2 9 2 15 8 13 35 15 35 2z m55 -61 c3
-5 -1 -10 -9 -10 -9 0 -16 5 -16 10 0 6 4 10 9 10 6 0 13 -4 16 -10z m689 1
c3 -4 -4 -17 -17 -27 -22 -19 -22 -19 -4 2 9 11 14 24 10 27 -3 4 -4 7 0 7 3
0 8 -4 11 -9z m-158 -73 c4 -7 4 -10 -1 -6 -4 4 -15 2 -24 -5 -14 -11 -14 -10
-2 6 16 20 18 21 27 5z m-60 -60 c4 -7 4 -10 -1 -6 -4 4 -15 2 -24 -5 -14 -11
-14 -10 -2 6 16 20 18 21 27 5z m683 -43 c32 -36 37 -46 24 -44 -5 1 -12 0
-18 -1 -5 -1 -27 -1 -48 0 -21 1 -45 -4 -54 -12 -9 -7 -6 2 7 20 13 17 28 32
33 32 5 0 7 6 4 14 -6 14 1 26 14 26 4 0 21 -16 38 -35z m-803 -67 c-12 -17
-13 -25 -4 -37 9 -12 7 -11 -7 1 -18 17 -18 18 0 38 24 26 30 26 11 -2z m-127
-142 c14 -14 20 -26 14 -26 -14 0 -173 149 -173 162 0 10 114 -87 159 -136z
m801 54 c0 -5 -4 -10 -10 -10 -5 0 -10 5 -10 10 0 6 5 10 10 10 6 0 10 -4 10
-10z"/>
<path d="M6465 959 c4 -5 0 -12 -8 -15 -7 -2 -14 -11 -14 -19 0 -13 3 -13 16
-2 9 8 23 17 31 21 9 5 8 2 -2 -7 -10 -8 -14 -18 -10 -22 4 -5 1 -5 -5 -1 -7
4 -13 2 -13 -3 0 -17 10 -13 40 17 15 16 23 29 17 30 -7 0 -22 3 -35 6 -13 3
-20 1 -17 -5z"/>
<path d="M6440 890 c0 -5 5 -10 11 -10 5 0 7 5 4 10 -3 6 -8 10 -11 10 -2 0
-4 -4 -4 -10z"/>
<path d="M6473 285 c0 -8 4 -12 9 -9 5 3 6 10 3 15 -9 13 -12 11 -12 -6z"/>
<path d="M2775 3239 c-9 -14 -2 -20 14 -10 8 6 9 11 3 15 -6 3 -14 1 -17 -5z"/>
<path d="M2807 3203 c-4 -3 -7 -11 -7 -17 0 -6 5 -5 12 2 6 6 9 14 7 17 -3 3
-9 2 -12 -2z"/>
<path d="M3409 3193 c-13 -16 -12 -17 4 -4 16 13 21 21 13 21 -2 0 -10 -8 -17
-17z"/>
<path d="M4095 2839 c-36 -38 -38 -41 -15 -35 14 4 41 9 60 12 63 10 65 12 40
39 -13 14 -29 25 -35 25 -6 0 -29 -19 -50 -41z"/>
<path d="M6285 2586 c-37 -17 -83 -67 -77 -85 3 -8 0 -11 -7 -7 -6 4 -11 1
-11 -8 0 -9 -7 -13 -19 -11 -14 3 -18 -1 -14 -11 3 -9 0 -14 -8 -12 -9 2 -13
-4 -11 -16 3 -18 2 -19 -15 -5 -16 13 -17 13 -4 -3 8 -11 9 -18 3 -18 -6 0
-17 -10 -23 -22 -7 -13 17 5 52 39 35 34 90 83 122 109 73 61 77 79 12 50z"/>
<path d="M4322 2571 c1 -9 -1 -22 -5 -28 -6 -9 -3 -11 10 -6 17 6 17 5 1 -13
-19 -22 -78 -143 -78 -160 0 -7 -17 -19 -37 -27 -31 -12 -39 -12 -51 -1 -7 8
-16 14 -19 14 -11 0 -90 -66 -159 -132 -63 -60 -87 -74 -117 -69 -11 2 -207
-98 -252 -129 -22 -15 -62 -38 -90 -52 -61 -30 -264 -153 -279 -169 -8 -9 -3
-10 19 -6 30 6 30 6 -4 -9 -18 -8 -40 -22 -48 -30 -8 -7 -18 -14 -23 -14 -5 0
-15 -6 -22 -13 -7 -7 -49 -32 -93 -55 -97 -51 -96 -51 -168 -133 -50 -59 -59
-76 -72 -136 -8 -38 -14 -90 -13 -116 0 -26 -2 -50 -5 -54 -4 -3 -41 26 -84
64 -91 81 -120 100 -136 84 -8 -8 25 -46 112 -132 l122 -122 -7 -61 c-11 -104
-23 -139 -17 -51 l5 80 -68 66 c-38 36 -81 73 -95 83 -26 16 -28 16 -58 -10
l-31 -26 19 -26 c15 -22 16 -29 6 -39 -9 -8 -16 -8 -23 -1 -8 8 -9 5 -5 -10 5
-22 5 -22 35 3 16 14 35 25 42 25 24 0 74 -66 91 -120 10 -30 28 -81 41 -112
13 -32 24 -69 24 -83 0 -17 5 -25 17 -25 14 0 13 -3 -5 -23 -23 -25 -32 -84
-23 -152 l6 -40 55 50 55 49 -52 -54 c-42 -44 -51 -60 -46 -81 4 -22 -22 -51
-218 -243 l-222 -218 39 -39 39 -39 172 166 c94 90 173 174 175 185 4 28 74
54 82 32 7 -18 3 -25 -45 -83 l-37 -45 -6 -143 -6 -142 598 0 c465 0 601 3
611 13 11 10 13 10 7 0 -6 -10 74 -13 384 -13 l390 0 -5 37 c-3 21 -8 63 -11
94 -6 52 -8 55 -31 51 -14 -3 -34 -20 -49 -43 -13 -22 -28 -39 -33 -39 -29 0
-41 14 -41 49 0 20 -9 49 -20 66 -13 20 -16 33 -9 41 10 12 8 31 -21 189 -5
28 -19 118 -30 200 -34 236 -34 238 -49 243 -11 4 -13 -6 -8 -49 4 -30 10 -66
13 -81 5 -22 -2 -35 -41 -77 -26 -28 -53 -51 -59 -51 -6 0 -41 29 -76 65 -35
36 -68 65 -71 65 -16 0 -39 -33 -39 -56 0 -17 -18 -44 -51 -80 -29 -30 -55
-54 -58 -54 -4 0 -21 29 -39 65 -17 36 -37 65 -44 65 -6 0 -23 -10 -37 -22
-23 -20 -22 -19 2 8 20 22 28 40 25 58 -2 22 12 40 82 109 47 45 96 90 110 99
14 10 25 27 25 40 0 17 6 23 23 23 12 0 30 12 39 25 9 14 32 43 50 64 18 22
33 45 33 51 0 7 11 24 25 39 39 42 45 58 35 102 -5 21 -10 67 -10 101 0 56 2
61 20 56 13 -4 30 6 53 30 31 33 32 39 27 89 -4 44 -8 52 -23 50 -9 -2 -26 3
-37 11 -17 12 -18 16 -6 26 16 13 14 25 -35 181 -38 125 -41 218 -8 260 31 39
40 69 29 90 -7 13 -6 21 5 30 19 15 6 41 -43 87 l-34 33 5 123 c4 103 2 124
-9 124 -8 0 -14 -7 -12 -16z m-687 -658 c-248 -241 -407 -399 -416 -415 -12
-22 -33 -24 -25 -2 4 9 -4 28 -19 46 -30 35 -31 44 -7 57 21 11 56 -5 46 -21
-4 -7 -2 -8 5 -4 9 6 9 11 0 22 -9 11 -6 18 15 35 14 11 26 28 26 38 0 20 19
41 36 41 7 0 28 15 47 33 104 96 253 219 292 240 18 10 66 23 90 26 5 1 -35
-43 -90 -96z m-527 -385 c1 -51 -1 -55 -45 -95 -39 -36 -49 -41 -62 -30 -12
10 -13 9 -6 -2 5 -10 4 -12 -3 -7 -7 4 -12 15 -12 25 0 19 -23 45 -32 35 -3
-2 -8 2 -12 11 -3 9 -2 13 4 10 6 -3 10 -2 10 3 0 6 -7 12 -15 16 -21 8 -19
38 5 64 18 19 32 22 94 22 l73 0 1 -52z m259 -85 c-20 -18 -42 -33 -48 -33
-14 0 26 55 54 75 38 27 33 -5 -6 -42z m-341 -120 c50 -53 67 -98 53 -140 -13
-40 -24 -36 -32 11 -3 19 -19 62 -36 96 -43 86 -40 92 15 33z m404 -28 c19
-23 5 -43 -36 -51 -39 -7 -85 4 -91 21 -5 16 48 44 83 45 17 0 37 -7 44 -15z
m565 -65 c-3 -5 -1 -10 4 -10 6 0 11 5 11 12 0 9 3 9 13 -1 10 -10 9 -14 -3
-21 -9 -5 -28 -20 -44 -35 -16 -14 -46 -38 -67 -52 -20 -13 -40 -31 -43 -39
-12 -32 -30 -12 -46 52 -6 28 -5 31 12 26 14 -3 16 -7 7 -18 -9 -11 -8 -14 4
-14 9 0 21 10 28 21 9 17 13 19 20 8 7 -11 13 -9 31 10 13 14 15 19 6 12 -11
-8 -18 -9 -18 -3 0 6 5 14 10 17 6 4 8 10 6 14 -3 4 1 8 9 8 8 0 15 -4 15 -9
0 -4 9 1 20 12 21 21 35 27 25 10z m-914 -173 c-16 -16 -26 0 -10 19 9 11 15
12 17 4 2 -6 -1 -17 -7 -23z m49 -133 c0 -8 -4 -14 -10 -14 -5 0 -10 9 -10 21
0 11 5 17 10 14 6 -3 10 -13 10 -21z m406 -69 c-9 -23 -26 -9 -26 23 0 24 1
25 16 10 10 -9 14 -24 10 -33z m203 -59 c5 -13 17 -26 25 -29 31 -12 15 -38
-86 -135 -279 -267 -446 -417 -456 -407 -4 3 1 13 11 20 18 13 18 14 0 25 -16
10 -16 11 0 6 11 -3 17 0 17 9 0 15 -23 11 -48 -8 -9 -7 -11 -5 -6 8 6 14 4
16 -7 10 -8 -4 105 112 251 258 145 147 270 267 277 267 8 0 18 -11 22 -24z
m-199 -16 c0 -11 -7 -20 -15 -20 -8 0 -15 9 -15 20 0 11 7 20 15 20 8 0 15 -9
15 -20z m80 -259 c14 -27 13 -51 -4 -51 -15 0 -26 21 -26 51 0 25 16 24 30 0z
m-125 -130 c3 -5 1 -12 -5 -16 -5 -3 -10 1 -10 9 0 18 6 21 15 7z m185 -16
c15 -18 6 -45 -14 -45 -18 0 -40 36 -31 50 9 15 31 12 45 -5z m-560 -78 c0 -2
-15 -16 -32 -33 l-33 -29 29 33 c28 30 36 37 36 29z m-25 -67 c-16 -16 -31
-28 -33 -25 -4 4 48 54 57 55 3 0 -8 -13 -24 -30z m-573 -47 c22 -20 23 -33 3
-33 -8 0 -15 -7 -15 -17 0 -14 -2 -14 -20 2 -25 22 -27 65 -3 65 9 0 25 -7 35
-17z m1973 -38 c0 -25 -4 -30 -24 -30 -28 0 -47 25 -38 49 5 12 16 16 34 14
24 -3 28 -8 28 -33z"/>
<path d="M3268 318 c-10 -6 -10 -8 2 -8 12 0 13 -2 1 -9 -7 -5 -12 -13 -10
-18 2 -6 14 2 26 17 22 27 11 37 -19 18z"/>
<path d="M4295 2549 c-4 -6 -5 -12 -2 -15 2 -3 7 2 10 11 7 17 1 20 -8 4z"/>
<path d="M2829 2354 l-156 -154 86 -85 c48 -47 92 -85 97 -85 5 0 63 54 129
120 66 66 115 120 110 120 -5 0 7 12 28 27 43 30 44 34 17 58 -20 18 -22 18
-83 -41 -34 -33 -71 -67 -82 -74 -26 -19 68 87 109 122 17 14 29 28 26 30 -3
2 -32 29 -65 60 l-60 57 -156 -155z m231 6 c0 -5 -4 -10 -10 -10 -5 0 -10 5
-10 10 0 6 5 10 10 10 6 0 10 -4 10 -10z"/>
<path d="M3574 2249 l-149 -151 39 -34 39 -34 39 35 c36 33 55 45 45 28 -3 -5
1 -14 9 -21 8 -7 14 -10 14 -6 0 3 6 1 13 -5 10 -8 19 -7 32 3 17 12 18 17 7
41 -11 24 -10 29 7 42 11 7 18 20 15 28 -7 18 22 49 37 39 8 -4 9 -3 5 4 -4 7
10 30 33 54 23 23 41 47 41 53 0 10 -15 26 -61 62 -13 11 -38 -11 -165 -138z"/>
<path d="M4445 1650 c-16 -7 -17 -9 -3 -9 9 -1 20 4 23 9 7 11 7 11 -20 0z"/>
<path d="M2432 1076 l-67 -65 22 -22 22 -22 59 51 c83 72 88 79 62 87 -11 3
-18 10 -15 15 3 5 1 12 -5 15 -6 4 -41 -23 -78 -59z"/>
<path d="M4405 1088 c4 -9 7 -42 8 -74 2 -49 -1 -62 -23 -88 -14 -18 -17 -25
-6 -16 10 8 28 19 40 25 13 6 22 22 24 40 5 37 -13 99 -33 115 -13 11 -14 10
-10 -2z"/>
<path d="M2052 767 c-36 -37 -41 -53 -13 -37 28 14 29 14 36 -21 l7 -31 31 31
32 31 -31 30 -30 30 -32 -33z"/>
<path d="M2446 618 c-21 -29 -20 -40 4 -61 11 -9 19 -27 19 -39 -1 -17 -2 -19
-6 -5 -2 9 -11 17 -18 17 -7 0 -15 3 -18 8 -2 4 -3 2 -1 -4 1 -6 -2 -16 -7
-21 -6 -6 -2 -16 10 -27 19 -18 22 -17 75 30 31 26 56 53 56 58 0 15 -65 66
-84 66 -8 0 -22 -10 -30 -22z"/>
<path d="M1876 594 c-4 -10 1 -25 11 -36 17 -19 17 -21 -22 -53 -34 -29 -37
-35 -21 -41 13 -5 29 5 61 38 l43 46 -32 31 c-29 28 -34 30 -40 15z"/>
<path d="M2387 529 c7 -7 15 -10 18 -7 3 3 -2 9 -12 12 -14 6 -15 5 -6 -5z"/>
<path d="M1657 306 c-125 -122 -145 -145 -132 -156 13 -11 38 10 161 134 125
126 157 168 126 166 -4 -1 -73 -65 -155 -144z"/>
<path d="M7115 130 l-130 -130 133 0 132 0 0 130 c0 72 -1 130 -3 130 -1 0
-61 -58 -132 -130z"/>
</g>
</svg>
