<?xml version="1.0" standalone="no"?>
<!DOCTYPE svg PUBLIC "-//W3C//DTD SVG 20010904//EN"
 "http://www.w3.org/TR/2001/REC-SVG-20010904/DTD/svg10.dtd">
<svg version="1.0" xmlns="http://www.w3.org/2000/svg"
 width="728.000000pt" height="485.000000pt" viewBox="0 0 728.000000 485.000000"
 preserveAspectRatio="xMidYMid meet">

<g transform="translate(0.000000,485.000000) scale(0.100000,-0.100000)"
fill="#000000" stroke="none">
<path d="M920 4809 c0 -24 -4 -38 -10 -34 -16 10 -12 -69 12 -232 22 -143 24
-152 43 -147 36 11 279 132 317 158 20 13 39 22 42 18 3 -3 6 -32 6 -65 0 -43
3 -58 13 -54 6 3 30 13 51 22 l39 17 -42 -43 c-23 -24 -40 -48 -37 -54 2 -6
-42 -40 -98 -75 -55 -35 -150 -96 -211 -135 -111 -72 -287 -175 -299 -175 -3
0 -6 18 -6 39 0 43 -12 50 -76 43 l-31 -4 13 -66 c10 -55 10 -69 -1 -80 -26
-28 -324 -204 -427 -254 -101 -48 -107 -53 -101 -76 4 -18 3 -23 -6 -17 -8 4
-31 -12 -62 -44 -41 -43 -49 -57 -49 -89 0 -42 13 -59 66 -85 30 -16 55 -21
254 -52 150 -23 676 -40 778 -25 47 7 87 9 91 4 5 -5 13 -45 19 -89 14 -106
84 -345 137 -467 6 -16 4 -17 -24 -7 -24 9 -35 8 -47 -2 -13 -11 -9 -16 36
-38 48 -24 54 -31 80 -96 15 -38 43 -108 63 -155 l34 -85 62 -20 c33 -10 61
-25 61 -32 0 -16 -4 -16 -62 1 -35 11 -48 12 -51 3 -3 -8 -18 -5 -51 11 -60
28 -68 28 -33 -2 15 -13 26 -30 25 -37 -2 -7 21 -25 51 -40 l54 -27 68 -209
c38 -114 69 -216 69 -225 0 -25 -21 -22 -120 12 -46 17 -87 27 -91 22 -22 -22
-5 -37 121 -101 l135 -69 56 -143 c65 -166 101 -230 201 -355 63 -79 204 -214
306 -294 26 -21 34 -37 46 -95 22 -109 15 -188 -24 -265 -18 -35 -43 -81 -56
-102 -72 -113 -224 -380 -224 -393 0 -11 79 -4 83 8 4 9 6 9 6 0 1 -19 81 -17
81 1 0 8 3 16 8 18 4 2 18 15 31 30 l24 27 -28 11 c-15 6 -25 13 -21 17 3 3 0
13 -7 22 -7 9 1 7 24 -7 49 -30 55 -18 11 24 l-37 35 39 -26 c41 -26 58 -27
36 0 -7 8 -9 15 -4 15 4 0 -5 13 -21 30 -31 33 -24 40 15 13 l25 -16 -24 26
c-28 31 -23 44 11 26 23 -12 23 -12 4 10 -17 19 -17 21 -3 21 10 0 17 5 17 11
0 7 33 9 95 7 l96 -3 48 -150 48 -150 887 -2 886 -3 0 46 c0 41 -2 44 -19 34
-34 -18 -43 -12 -27 18 29 57 36 57 134 8 78 -39 91 -49 94 -73 3 -27 5 -28
63 -28 l60 0 -2 30 c-1 17 -12 38 -24 47 -12 10 -19 24 -15 33 9 24 -54 64
-108 69 -27 3 -44 1 -41 -5 4 -5 2 -9 -3 -9 -15 0 -116 37 -150 54 -40 21 -40
17 0 -20 17 -16 27 -22 23 -14 -8 13 -7 13 8 1 18 -14 23 -26 8 -16 -5 3 -12
1 -16 -5 -3 -5 -16 -11 -28 -11 -17 -1 -18 -2 -5 -6 17 -4 16 -7 -2 -44 -11
-21 -25 -39 -30 -39 -6 0 -10 32 -10 73 0 39 -3 90 -7 111 -5 33 -4 38 9 34 8
-4 41 -9 74 -14 54 -6 58 -6 45 10 -19 22 -7 20 46 -10 26 -14 43 -20 41 -12
-6 14 20 148 42 216 15 47 7 66 -14 36 -14 -19 -15 -19 -29 0 -12 16 -16 17
-36 5 -20 -13 -24 -12 -42 11 -17 21 -20 21 -14 5 5 -15 3 -17 -6 -8 -13 13
-3 37 12 28 5 -4 9 -2 9 3 0 5 23 19 51 32 33 16 61 39 79 65 15 22 40 51 54
64 14 14 26 28 26 33 0 7 -29 59 -96 176 -1 1 -13 -2 -28 -7 -21 -9 -26 -8
-26 5 0 21 -25 68 -79 148 l-46 69 -3 -34 c-3 -26 2 -37 21 -51 67 -49 69 -51
58 -81 l-11 -29 -31 26 c-17 14 -35 26 -39 26 -5 0 -7 6 -4 13 3 10 -5 12 -31
9 -39 -5 -42 -9 -18 -27 14 -11 12 -13 -16 -23 -30 -11 -35 -32 -7 -32 7 0 21
-6 31 -14 18 -13 14 -14 -33 -9 -57 5 -62 0 -32 -32 l21 -22 -33 -25 c-19 -14
-59 -31 -90 -38 -66 -15 -90 -41 -27 -30 51 10 41 -3 -29 -35 -31 -15 -61 -32
-67 -39 -14 -16 -136 -67 -146 -61 -4 3 -31 37 -58 76 -55 79 -81 96 -147 103
-25 2 -48 6 -51 9 -3 3 -23 -1 -46 -10 -39 -16 -41 -16 -58 5 -20 25 -31 29
-23 7 7 -17 -13 -20 -36 -5 -13 9 -13 11 0 20 10 6 11 10 3 10 -8 0 -13 14
-13 36 0 21 -4 33 -10 29 -5 -3 -10 -15 -10 -26 0 -10 -4 -19 -10 -19 -5 0 -7
-6 -4 -14 4 -10 -8 -16 -43 -21 -26 -4 -51 -12 -55 -18 -6 -9 -12 -9 -25 -1
-12 7 -21 32 -28 75 -6 39 -19 76 -31 92 -33 41 -38 32 -9 -16 30 -53 31 -67
5 -67 -20 0 -20 0 1 -30 21 -28 21 -31 6 -48 -9 -10 -17 -26 -17 -35 0 -10 -5
-14 -15 -11 -8 4 -15 1 -15 -6 0 -8 -18 -10 -66 -4 l-67 7 6 -26 c6 -22 3 -25
-26 -30 -21 -3 -38 1 -49 11 -16 14 -18 13 -18 -2 0 -9 -4 -14 -10 -11 -5 3
-10 1 -10 -4 0 -6 5 -11 12 -11 6 0 8 -3 4 -8 -4 -4 -46 -8 -92 -9 l-84 -2
-12 44 c-7 24 -14 42 -18 40 -3 -2 -16 3 -29 10 -23 12 -21 12 24 13 67 2 67
9 0 14 -33 2 -71 -3 -91 -11 l-34 -13 23 -20 22 -19 -22 10 c-12 6 -25 16 -28
21 -4 6 -10 8 -15 5 -9 -6 -168 103 -190 130 -23 27 18 17 67 -16 28 -20 48
-28 54 -22 10 10 -7 32 -24 31 -14 0 -67 24 -67 31 0 10 77 81 87 81 5 0 16 9
26 20 9 11 24 20 32 20 8 0 15 4 15 8 0 5 15 14 33 19 17 6 68 27 112 47 126
55 317 126 342 126 13 0 28 -8 35 -19 14 -22 28 -17 148 49 71 39 79 41 148
38 79 -3 78 -4 73 67 l-3 30 41 -39 c22 -22 38 -43 35 -48 -3 -4 29 -8 70 -8
l76 0 0 80 c0 78 -1 80 -30 95 -37 19 -41 19 -33 -1 6 -16 -90 39 -130 75 -18
15 -18 16 5 22 21 6 19 8 -24 28 -26 12 -50 26 -53 31 -3 6 -21 10 -38 10 -30
1 -31 1 -13 15 23 17 2 21 -24 5 -9 -6 -17 -5 -21 2 -4 7 -15 5 -32 -6 -22
-15 -25 -15 -30 -1 -4 8 -14 15 -22 15 -10 0 -13 -5 -9 -12 5 -7 2 -9 -9 -5
-9 3 -31 1 -49 -4 -18 -6 -109 -15 -203 -20 -93 -5 -194 -12 -223 -15 -28 -3
-65 -1 -81 4 -24 9 -34 7 -52 -9 -17 -15 -19 -19 -6 -19 17 0 47 -36 47 -57 0
-7 -4 -13 -10 -13 -5 0 -10 7 -10 15 0 20 -13 19 -41 -4 -23 -18 -23 -20 -6
-39 13 -14 14 -21 6 -24 -8 -3 -7 -13 6 -37 l17 -34 -44 -39 c-23 -22 -38 -37
-31 -34 25 13 42 -9 63 -84 18 -64 20 -83 11 -94 -13 -15 -79 -55 -188 -112
l-63 -33 0 97 c0 101 -7 145 -20 137 -10 -6 -50 56 -50 78 0 9 -20 28 -45 42
-36 22 -45 33 -51 63 -9 56 -14 72 -24 72 -5 0 -6 -8 -3 -17 6 -16 5 -17 -12
-3 -10 8 -16 10 -12 4 11 -18 -16 -24 -37 -8 -11 7 -22 11 -27 9 -10 -7 -21
89 -16 135 2 19 9 36 16 38 8 3 8 9 -1 25 -7 12 -13 28 -14 36 -2 8 -7 17 -12
20 -9 6 -15 28 -29 96 -6 28 -7 28 -12 7 -6 -21 -8 -21 -60 22 -30 25 -59 52
-64 61 -4 9 -11 66 -14 126 l-6 111 32 -16 c17 -9 42 -35 56 -57 14 -22 30
-37 34 -34 5 2 11 -2 15 -10 3 -8 1 -15 -5 -15 -6 0 -7 -5 -4 -10 4 -6 13 -4
23 7 24 24 20 230 -4 248 -14 10 -14 18 5 78 26 86 79 187 98 187 9 0 11 -5 7
-12 -6 -9 -3 -9 9 0 13 11 14 17 5 32 -7 10 -17 16 -23 13 -5 -3 -5 0 2 7 6 7
26 15 45 19 32 7 33 8 38 66 4 49 12 69 40 106 34 44 109 141 130 166 23 27
49 80 59 118 6 22 18 62 26 88 8 26 10 45 5 42 -6 -4 -10 -11 -10 -17 0 -21
-117 -141 -130 -133 -5 3 -7 -1 -4 -9 4 -10 -43 -70 -135 -175 -78 -88 -146
-163 -151 -166 -6 -3 -23 3 -39 14 -16 12 -39 21 -51 21 -11 0 -19 4 -16 9 7
11 -43 33 -57 25 -7 -4 -8 -3 -4 1 4 5 -7 17 -25 26 -18 9 -51 26 -72 38 -31
16 -42 18 -48 8 -6 -9 -8 -9 -8 1 0 8 -10 22 -22 31 -12 10 -18 23 -14 29 4 7
83 75 177 153 93 77 169 145 169 151 0 15 -25 -4 -251 -194 -64 -54 -122 -98
-129 -98 -6 0 -18 6 -26 14 -12 13 -1 26 81 102 52 48 95 93 95 101 0 7 6 13
14 13 7 0 34 22 59 49 26 27 56 52 67 56 12 4 79 4 150 0 105 -6 127 -10 123
-22 -3 -8 -12 -12 -19 -9 -7 3 -16 1 -19 -4 -4 -6 1 -10 9 -10 9 0 16 -2 16
-4 0 -2 -16 -37 -35 -79 -46 -99 -44 -107 6 -27 23 36 46 68 51 71 5 3 9 9 9
13 -3 20 0 26 9 21 6 -4 8 -10 6 -13 -4 -7 40 -8 119 -2 39 2 40 2 10 10 l-30
8 27 1 c18 1 31 -6 38 -19 14 -27 34 -16 55 31 10 21 24 39 32 39 7 0 13 5 13
11 0 5 14 38 31 72 l31 62 -5 200 c-6 184 -4 207 15 280 21 77 21 87 9 269 -6
103 -11 190 -9 191 2 2 54 5 116 7 l112 5 0 -29 c0 -36 20 -37 21 0 0 24 1 25
9 7 5 -11 11 -33 15 -48 5 -24 10 -28 33 -25 21 2 27 -1 27 -17 0 -11 8 -31
18 -45 17 -24 17 -24 31 -5 64 91 116 158 116 150 0 -5 7 0 16 11 8 10 13 14
10 7 -4 -6 0 -14 6 -16 10 -4 10 -6 1 -6 -7 -1 -13 -6 -13 -12 0 -6 16 -1 35
11 31 19 37 20 49 7 13 -13 13 -17 -3 -31 -10 -9 -25 -14 -35 -10 -11 4 -32
-10 -69 -50 -29 -31 -58 -56 -64 -56 -17 0 -46 -47 -40 -64 3 -7 -1 -23 -10
-35 -8 -12 -13 -25 -11 -30 2 -6 82 -76 251 -220 16 -14 17 -12 15 15 -2 16 2
31 7 32 6 2 15 8 22 13 8 7 10 5 7 -8 -4 -13 1 -19 13 -21 33 -3 52 -8 58 -14
8 -8 -44 -48 -61 -48 -8 0 -14 -3 -13 -7 1 -5 48 -50 106 -102 98 -88 105 -92
122 -77 17 15 22 14 78 -13 91 -45 108 -47 136 -17 13 14 35 30 48 35 17 7 19
10 7 10 -10 1 -18 6 -18 11 0 18 -54 59 -78 60 -22 0 -52 43 -39 56 3 4 66 9
139 13 112 5 135 4 144 -8 10 -13 14 -13 30 -1 10 9 15 10 10 3 -5 -9 4 -11
36 -8 66 7 91 14 98 26 4 6 10 10 14 10 19 -3 26 0 26 13 0 11 -10 13 -40 9
-55 -8 -51 10 8 32 26 10 48 19 50 20 2 2 -27 77 -33 83 -4 5 -55 -21 -55 -27
0 -4 7 -17 16 -29 9 -13 14 -25 12 -27 -2 -2 -39 -13 -83 -25 -74 -19 -81 -19
-90 -4 -33 55 -34 55 -132 48 -89 -7 -93 -8 -93 -30 0 -13 -6 -24 -13 -24 -7
0 -13 12 -12 28 0 25 -3 27 -42 30 -71 5 -48 19 35 21 65 1 152 14 250 36 13
3 29 20 39 40 10 20 24 35 34 35 10 0 24 3 33 6 12 4 15 -3 14 -35 0 -23 -4
-41 -9 -41 -5 0 -9 -4 -9 -9 0 -12 32 -6 89 14 23 8 39 11 36 6 -2 -5 2 -25
10 -45 14 -32 17 -35 30 -22 19 18 19 30 0 66 -9 17 -11 31 -6 35 5 3 12 1 15
-4 7 -11 66 -32 65 -23 -4 25 2 32 19 23 14 -7 31 -3 70 20 56 32 61 42 35 71
-16 18 -16 22 6 64 20 37 27 43 47 38 14 -4 24 -2 24 5 0 6 7 8 17 4 32 -12 3
17 -38 37 -31 17 -39 26 -39 49 0 15 -8 35 -18 43 -9 9 -95 51 -191 93 -173
76 -175 77 -207 61 -28 -13 -32 -13 -27 -1 3 8 0 15 -6 15 -6 0 -11 -6 -12
-12 0 -7 -4 -4 -9 8 -6 16 -20 22 -62 27 -96 12 -94 7 16 -38 59 -24 109 -45
111 -47 4 -3 -281 1 -324 5 l-23 2 22 28 c12 15 25 25 30 22 5 -3 11 4 15 15
10 32 34 38 114 28 69 -8 76 -7 117 17 59 34 121 42 164 20 27 -14 34 -14 41
-3 8 12 13 5 10 -14 0 -4 6 -5 14 -2 8 4 12 10 9 15 -3 5 19 9 50 9 30 0 62 3
72 7 11 4 15 3 10 -5 -4 -7 1 -10 14 -9 20 1 20 2 4 14 -10 7 -22 13 -27 13
-4 0 -5 5 -1 12 5 7 2 9 -9 5 -25 -9 -9 23 17 33 l21 9 -21 0 c-13 1 -24 9
-27 21 -3 12 -14 20 -25 20 -11 0 -27 3 -36 6 -10 4 -16 1 -16 -9 0 -19 -18
-25 -55 -17 -24 4 -29 10 -28 28 3 20 -1 22 -52 22 -45 0 -58 4 -78 26 -21 22
-29 25 -61 18 -28 -5 -34 -9 -24 -16 8 -5 -10 -6 -47 -2 -33 3 -67 13 -76 20
-11 10 -31 13 -64 10 -27 -3 -57 0 -67 5 -14 7 -23 7 -33 -1 -20 -17 -85 -21
-122 -7 -37 12 -40 22 -16 49 15 17 13 18 -66 18 -63 0 -83 -3 -87 -15 -5 -13
-8 -13 -21 0 -12 12 -51 15 -208 15 l-194 0 4 -130 c3 -100 1 -133 -10 -144
-7 -7 -15 -28 -18 -47 -2 -19 -5 46 -5 144 l-2 177 -367 0 -368 -1 -170 -104
-170 -104 -5 56 c-5 61 -14 70 -44 48 -13 -10 -16 -20 -11 -32 10 -24 6 -95
-7 -110 -15 -19 -28 -16 -28 7 0 32 -28 22 -49 -17 -6 -13 -19 -23 -28 -23
-14 0 -14 2 2 20 10 11 16 22 13 25 -3 3 -13 -6 -22 -20 -15 -23 -22 -25 -91
-25 -66 0 -75 2 -75 19 0 18 69 71 172 132 l47 28 6 -37 c11 -65 13 -68 14
-25 0 23 6 45 11 48 17 11 11 50 -10 65 -12 9 -18 21 -14 32 5 16 -2 18 -60
18 -59 0 -65 -2 -68 -22 -2 -17 -11 -24 -32 -26 -16 -2 -32 2 -36 9 -6 8 -14
6 -31 -10 l-24 -22 25 4 c14 2 19 2 13 0 -7 -3 -13 -8 -13 -13 0 -5 -7 -7 -15
-4 -9 4 -15 0 -16 -7 -1 -26 -18 26 -18 59 l-1 32 -230 0 -230 0 0 -41z m2700
-40 c0 -5 -10 -9 -21 -9 -18 0 -19 2 -9 15 12 15 30 12 30 -6z m40 -3 c-7 -7
-13 -7 -20 0 -6 6 -3 10 10 10 13 0 16 -4 10 -10z m-1174 -11 c-3 -8 -1 -15 5
-15 6 0 7 -4 4 -10 -3 -5 -23 -10 -43 -10 l-36 0 34 25 c42 29 44 29 36 10z
m-1042 -96 c-34 -36 -44 -36 -44 -4 0 18 5 25 19 25 11 0 23 5 26 10 4 6 11 8
17 4 5 -4 -2 -18 -18 -35z m1098 -116 c3 -132 -6 -285 -12 -203 -2 25 -3 57
-2 71 1 20 -7 30 -41 49 -59 32 -77 49 -70 68 4 13 1 12 -11 -3 -10 -11 -15
-15 -12 -8 4 6 2 14 -4 18 -5 3 -10 1 -10 -6 0 -7 -3 -10 -6 -6 -3 3 -3 15 1
26 4 14 18 22 50 27 25 3 43 10 40 14 -3 5 3 6 14 3 22 -6 30 5 33 41 1 14 8
26 15 26 8 0 13 -33 15 -117z m358 -132 c0 -5 3 -18 6 -28 5 -16 4 -16 -10 1
-18 23 -20 36 -6 36 6 0 10 -4 10 -9z m295 -31 c3 -5 1 -10 -4 -10 -6 0 -11 5
-11 10 0 6 2 10 4 10 3 0 8 -4 11 -10z m967 -35 c13 -5 58 -85 58 -105 0 -5
-39 13 -87 39 -49 27 -99 52 -113 56 -24 8 -24 8 -5 16 20 9 119 5 147 -6z
m-722 -31 c0 -2 -7 -4 -15 -4 -8 0 -15 4 -15 10 0 5 7 7 15 4 8 -4 15 -8 15
-10z m440 -29 c14 -8 39 -14 55 -15 36 0 98 -36 92 -53 -6 -20 -53 -19 -95 2
-44 23 -165 28 -242 12 -60 -13 -59 -14 -57 9 1 21 57 45 67 29 3 -4 17 1 30
11 30 24 113 26 150 5z m199 -94 c24 -19 24 -19 3 -25 -12 -4 -31 -2 -42 4
-17 9 -19 14 -9 26 15 18 19 18 48 -5z m-204 -57 c0 -10 -8 -20 -18 -22 -22
-4 -35 27 -16 39 20 12 34 5 34 -17z m235 16 c0 -5 -4 -10 -10 -10 -5 0 -10 5
-10 10 0 6 5 10 10 10 6 0 10 -4 10 -10z m-496 -106 c9 -3 16 -14 16 -25 0
-10 15 -32 33 -48 l32 -31 -56 0 c-65 0 -89 19 -96 75 -3 33 -2 35 26 35 16 0
36 -3 45 -6z m-469 -14 c3 -6 -1 -7 -9 -4 -18 7 -21 14 -7 14 6 0 13 -4 16
-10z m699 -39 c16 -18 16 -19 -9 -23 -26 -6 -51 14 -40 32 10 16 30 12 49 -9z
m-348 -128 c-11 -11 -19 6 -11 24 8 17 8 17 12 0 3 -10 2 -21 -1 -24z m34 7
c0 -5 -5 -10 -11 -10 -5 0 -7 5 -4 10 3 6 8 10 11 10 2 0 4 -4 4 -10z m-1605
-31 c-8 -12 -35 -12 -35 0 0 11 22 20 33 14 4 -2 5 -9 2 -14z m123 -2 c4 -20
-25 -34 -40 -19 -15 15 -1 44 19 40 10 -2 19 -11 21 -21z m1507 -62 c13 0 21
-8 23 -22 6 -41 -40 -26 -52 17 -4 14 -4 21 1 15 4 -5 17 -10 28 -10z m-1414
-11 c10 -12 10 -20 1 -35 -7 -11 -10 -24 -7 -29 7 -11 -27 -30 -53 -30 -23 0
-22 8 4 67 20 46 34 52 55 27z m1366 0 c-3 -3 -12 -4 -19 -1 -8 3 -5 6 6 6 11
1 17 -2 13 -5z m-1352 -120 c-19 -14 -18 -15 20 -9 39 6 40 6 15 -9 -28 -18
-195 -71 -252 -80 -33 -6 -38 -4 -38 12 0 22 18 32 59 32 14 0 34 9 44 20 9
11 29 20 44 21 16 0 46 6 68 14 54 17 64 17 40 -1z m-2011 -39 c3 -8 1 -15 -4
-15 -6 0 -10 7 -10 15 0 8 2 15 4 15 2 0 6 -7 10 -15z m2171 -414 c-9 -8 -36
-10 -30 -2 2 4 11 8 20 8 8 0 13 -3 10 -6z m-702 -301 c14 -11 30 -20 36 -20
6 0 11 -6 11 -12 0 -10 2 -10 8 -1 6 10 12 9 28 -3 15 -13 16 -15 2 -10 -12 4
-15 1 -11 -11 5 -13 1 -13 -28 2 -49 25 -89 55 -89 66 0 14 15 11 43 -11z
m368 -747 c13 -16 12 -17 -3 -4 -17 13 -22 21 -14 21 2 0 10 -8 17 -17z m46
-85 c-3 -8 -6 -5 -6 6 -1 11 2 17 5 13 3 -3 4 -12 1 -19z m1459 -1280 c4 -5
-4 -8 -17 -6 -12 1 -24 8 -26 15 -5 14 34 6 43 -9z m38 -14 c3 -8 2 -12 -4 -9
-6 3 -10 10 -10 16 0 14 7 11 14 -7z m650 -46 c-3 -5 -10 -8 -15 -8 -6 0 -8 4
-4 9 3 5 1 12 -5 16 -6 4 -8 11 -4 16 3 6 12 3 19 -8 7 -10 11 -21 9 -25z
m-38 -3 c-1 -8 -5 -17 -8 -21 -5 -4 -4 16 1 34 3 9 9 -1 7 -13z m-746 -42 c0
-27 3 -65 6 -85 l7 -38 -38 0 c-37 0 -37 1 -31 31 3 17 6 53 6 80 0 47 4 52
43 58 4 0 7 -20 7 -46z m1020 -178 c0 -7 -30 -13 -34 -7 -3 4 4 9 15 9 10 1
19 0 19 -2z m-456 -91 c20 -20 20 -48 1 -64 -13 -11 -13 -15 -3 -23 9 -6 8 -7
-5 -3 -10 3 -27 6 -38 6 -10 0 -26 11 -35 25 -15 23 -15 27 0 50 19 29 56 33
80 9z m-403 -95 c-9 -22 -10 -22 -10 -3 -1 11 2 24 6 27 12 12 14 0 4 -24z
m407 -24 c12 -2 24 1 28 6 3 6 12 5 22 -3 13 -11 14 -11 8 1 -6 9 -5 12 3 10
7 -3 12 -8 11 -13 -3 -13 23 -26 41 -21 12 4 18 -3 23 -26 3 -17 3 -35 0 -40
-3 -5 -3 -9 1 -9 3 0 10 10 16 23 9 20 9 20 4 -5 -3 -16 -1 -28 4 -28 17 0 1
-27 -22 -38 -117 -55 -177 -80 -172 -72 3 5 1 10 -4 10 -6 0 -11 -7 -11 -15 0
-8 -5 -15 -10 -15 -7 0 -7 6 0 20 6 11 17 20 25 20 28 0 15 17 -59 79 -41 34
-76 71 -79 81 -4 17 -2 18 15 9 15 -8 30 -4 71 19 29 16 55 26 58 21 3 -5 15
-11 27 -14z m132 11 c0 -2 -7 -7 -16 -10 -8 -3 -12 -2 -9 4 6 10 25 14 25 6z
m-520 -36 c0 -5 25 -14 55 -20 30 -6 61 -18 69 -25 7 -8 15 -13 18 -12 27 13
-51 -43 -89 -65 -29 -17 -56 -34 -59 -39 -3 -5 -12 -9 -20 -9 -10 0 -14 13
-14 49 0 84 11 140 26 134 8 -3 14 -9 14 -13z m150 -16 c0 -8 -19 -13 -24 -6
-3 5 1 9 9 9 8 0 15 -2 15 -3z m37 -29 c4 -4 3 -5 -4 -2 -6 4 -13 2 -15 -5 -3
-8 -6 -6 -10 4 -7 17 15 19 29 3z m-1487 -31 c0 -2 -9 0 -20 6 -11 6 -20 13
-20 16 0 2 9 0 20 -6 11 -6 20 -13 20 -16z m2223 -46 c32 -14 47 -26 47 -39 0
-17 -8 -15 -74 18 -41 20 -72 41 -70 45 6 10 29 4 97 -24z"/>
<path d="M1694 4834 c3 -9 6 -22 6 -29 0 -11 6 -11 30 1 42 22 39 44 -6 44
-29 0 -35 -3 -30 -16z"/>
<path d="M4412 4793 c10 -32 22 -60 26 -64 4 -4 81 6 171 21 91 16 168 27 173
24 12 -7 139 -196 135 -200 -4 -4 -275 -47 -375 -59 -29 -4 -51 -9 -49 -12 3
-2 94 7 202 22 108 14 198 25 200 23 1 -2 -13 -26 -31 -55 -50 -77 -139 -115
-274 -115 -17 0 1 -13 60 -43 47 -24 87 -42 90 -40 3 2 70 -55 150 -126 l145
-129 110 108 c60 59 127 123 147 142 l38 34 26 -25 c14 -13 35 -37 46 -53 l21
-28 -98 -92 -99 -92 66 -47 c36 -26 70 -47 76 -47 6 0 61 42 123 93 189 154
362 277 375 266 7 -6 24 0 50 17 21 15 36 23 31 18 -4 -4 1 -16 10 -27 17 -18
17 -20 -12 -40 -49 -36 -96 -79 -91 -84 3 -3 23 10 45 27 31 25 44 30 54 22
10 -9 25 -1 67 38 30 28 56 50 57 50 12 0 498 391 583 470 l65 59 -542 1
c-299 0 -543 -2 -543 -4 0 -2 29 -57 65 -121 36 -65 64 -119 63 -120 -12 -6
-337 -287 -347 -299 -11 -13 -19 -11 -66 25 -29 22 -56 47 -59 56 -4 10 27 53
94 128 55 62 100 115 100 119 0 3 29 53 65 111 l65 105 -183 0 c-133 0 -187
-3 -196 -12 -11 -11 -13 -10 -7 0 10 16 -791 17 -811 0 -9 -7 -13 -7 -13 1 0
6 -4 11 -9 11 -4 0 0 -26 11 -57z"/>
<path d="M3548 4793 c7 -3 16 -2 19 1 4 3 -2 6 -13 5 -11 0 -14 -3 -6 -6z"/>
<path d="M6881 4650 c-30 -26 -15 -26 24 0 17 11 23 20 15 20 -8 -1 -26 -10
-39 -20z"/>
<path d="M4324 4584 c0 -35 3 -64 8 -64 13 0 13 108 0 122 -4 4 -7 -22 -8 -58z"/>
<path d="M7079 4584 c-41 -36 -88 -79 -105 -97 -17 -18 -54 -52 -82 -76 -28
-24 -48 -49 -45 -55 3 -6 2 -8 -2 -3 -11 9 -64 -41 -61 -57 2 -6 1 -8 -1 -3
-10 17 -24 5 -18 -14 6 -16 4 -20 -6 -14 -12 7 -12 5 0 -6 10 -11 15 -11 18
-1 3 7 23 25 46 41 23 17 59 46 80 65 20 19 37 33 37 31 0 -2 12 6 26 19 34
31 51 45 99 81 22 16 49 37 60 47 11 9 31 25 44 36 l25 19 -20 25 -20 26 -75
-64z"/>
<path d="M4355 4620 c3 -5 8 -10 11 -10 2 0 4 5 4 10 0 6 -5 10 -11 10 -5 0
-7 -4 -4 -10z"/>
<path d="M6809 4573 c-13 -16 -12 -17 4 -4 9 7 17 15 17 17 0 8 -8 3 -21 -13z"/>
<path d="M4326 4498 c3 -5 28 -19 55 -32 l49 -24 -21 26 c-19 24 -96 52 -83
30z"/>
<path d="M4448 4493 c7 -3 16 -2 19 1 4 3 -2 6 -13 5 -11 0 -14 -3 -6 -6z"/>
<path d="M5798 4168 c-22 -6 -35 -14 -32 -22 6 -16 -47 -83 -90 -114 l-33 -23
-34 20 -34 20 -175 -130 c-96 -71 -209 -155 -250 -187 -41 -32 -103 -78 -137
-102 -35 -24 -63 -47 -63 -51 0 -5 32 -8 71 -8 39 0 73 -2 76 -4 2 -3 -8 -13
-24 -22 -16 -9 -36 -35 -46 -58 -20 -51 -21 -58 -4 -81 12 -17 15 -17 51 8 22
14 52 26 68 26 16 0 31 6 34 15 5 12 24 15 88 15 50 0 87 5 94 12 8 8 12 9 12
1 0 -6 7 -13 15 -15 10 -2 0 -18 -31 -51 -31 -31 -50 -45 -58 -39 -9 8 -94 32
-110 32 -2 0 -7 -18 -11 -40 -4 -22 -7 -43 -8 -46 -1 -4 8 -10 21 -15 18 -7
30 -2 61 26 47 43 65 46 26 5 -28 -29 -28 -30 -6 -30 12 0 20 4 17 9 -18 28
79 46 150 28 12 -3 33 1 48 8 15 8 29 14 31 15 3 0 6 0 8 1 22 6 56 9 73 5 18
-5 21 -13 20 -53 -1 -27 4 -49 9 -50 6 -1 12 -12 15 -25 7 -29 50 -45 88 -32
22 8 27 16 29 44 1 19 2 41 2 48 1 6 8 12 16 12 8 0 15 3 15 6 0 3 -26 41 -58
83 -32 42 -73 97 -91 124 l-32 47 58 1 c32 1 67 3 78 4 11 1 47 5 80 9 l60 7
33 -60 c23 -42 39 -61 53 -61 24 0 24 -6 -1 -55 -11 -22 -20 -51 -20 -65 0
-14 -10 -45 -21 -70 -11 -25 -32 -73 -45 -107 -29 -73 -54 -117 -130 -233
l-56 -85 47 45 c26 25 69 78 96 118 47 69 72 87 82 60 5 -16 13 -10 21 20 6
19 4 22 -18 22 l-26 0 34 44 c34 45 46 88 61 226 10 88 42 228 74 325 37 115
46 171 31 190 -6 8 -9 23 -5 35 8 24 3 25 -35 5 -17 -9 -30 -13 -30 -10 0 3
-12 -5 -27 -19 -15 -14 -29 -23 -31 -21 -3 2 17 25 44 50 l48 46 -19 36 c-34
62 -86 110 -135 123 -72 18 -73 18 -112 8z m127 -164 c30 -33 31 -39 4 -101
-11 -26 -27 -70 -34 -98 -9 -33 -18 -49 -27 -46 -7 2 -32 8 -55 14 l-41 10 41
21 c34 17 45 30 59 71 10 28 18 53 18 57 0 4 -19 12 -42 18 -75 19 -74 18 -43
50 38 40 86 41 120 4z m-355 -85 c-42 -36 -76 -57 -65 -39 8 13 85 70 94 70 3
-1 -10 -14 -29 -31z m445 -189 c12 -35 15 -65 10 -98 -10 -73 -20 -81 -34 -25
-7 26 -23 72 -36 101 -17 38 -21 54 -12 57 7 2 19 6 27 8 8 3 18 6 22 6 3 1
14 -22 23 -49z m-704 -63 c-11 -11 -3 -39 10 -31 16 10 49 -7 49 -24 -1 -16
-2 -15 -11 1 -12 20 -39 23 -39 5 -1 -7 -8 -1 -16 15 -8 15 -20 27 -27 27 -9
0 -9 2 1 8 18 12 45 11 33 -1z m44 -6 c3 -6 -3 -9 -14 -8 -11 0 -17 5 -15 9 7
11 22 10 29 -1z m-60 -49 c-8 -8 -25 10 -19 20 4 6 9 5 15 -3 4 -7 6 -15 4
-17z m-62 -17 c-3 -9 -8 -14 -10 -11 -3 3 -2 9 2 15 9 16 15 13 8 -4z m108
-13 c-7 -2 -18 1 -23 6 -8 8 -4 9 13 5 13 -4 18 -8 10 -11z m80 1 c13 -16 12
-17 -3 -4 -10 7 -18 15 -18 17 0 8 8 3 21 -13z m-146 -43 c10 -11 14 -20 9
-20 -5 0 -15 9 -22 20 -7 11 -11 20 -9 20 2 0 12 -9 22 -20z m128 -5 c-3 -9
-8 -14 -10 -11 -3 3 -2 9 2 15 9 16 15 13 8 -4z m32 -5 c3 -5 1 -10 -4 -10 -6
0 -11 5 -11 10 0 6 2 10 4 10 3 0 8 -4 11 -10z m-181 -16 c3 -8 2 -12 -4 -9
-6 3 -10 10 -10 16 0 14 7 11 14 -7z m65 2 c9 -11 9 -16 -1 -22 -7 -4 -10 -4
-6 1 4 4 3 14 -3 22 -6 7 -9 13 -6 13 2 0 10 -6 16 -14z m-26 -21 c-3 -9 -8
-14 -10 -11 -3 3 -2 9 2 15 9 16 15 13 8 -4z m382 -166 c4 -6 -1 -16 -11 -24
-23 -16 -25 -15 -17 13 6 24 18 28 28 11z"/>
<path d="M6633 4163 c4 -3 1 -13 -6 -22 -11 -14 -10 -14 5 -2 16 12 16 31 1
31 -4 0 -3 -3 0 -7z"/>
<path d="M630 4136 c0 -12 10 -16 39 -16 22 0 46 -3 55 -6 11 -4 16 -1 16 10
0 11 -9 16 -32 16 -18 0 -43 3 -55 6 -17 5 -23 2 -23 -10z"/>
<path d="M6884 4108 l-29 -33 33 29 c30 28 37 36 29 36 -2 0 -16 -15 -33 -32z"/>
<path d="M6595 4110 c-4 -6 -11 -7 -17 -4 -7 5 -8 2 -3 -6 6 -10 4 -12 -8 -7
-11 4 -17 1 -17 -8 0 -8 -5 -15 -11 -15 -16 0 -39 -26 -31 -35 4 -5 -1 -5 -11
-2 -11 4 -16 3 -12 -3 3 -6 1 -10 -6 -10 -7 0 -10 -2 -7 -5 10 -10 58 14 56
27 -2 7 2 12 8 11 6 -1 26 14 44 32 19 19 31 35 28 35 -4 0 -10 -5 -13 -10z"/>
<path d="M6789 4023 c-13 -16 -12 -17 4 -4 16 13 21 21 13 21 -2 0 -10 -8 -17
-17z"/>
<path d="M6709 3953 c-13 -16 -12 -17 4 -4 16 13 21 21 13 21 -2 0 -10 -8 -17
-17z"/>
<path d="M6624 3878 l-19 -23 23 19 c12 11 22 21 22 23 0 8 -8 2 -26 -19z"/>
<path d="M5197 3844 c-38 -29 -45 -39 -36 -50 7 -8 16 -11 23 -6 63 47 96 75
96 83 0 19 -37 7 -83 -27z"/>
<path d="M6569 3833 l-24 -28 28 24 c15 14 27 26 27 28 0 8 -8 1 -31 -24z"/>
<path d="M6489 3763 l-24 -28 28 24 c15 14 27 26 27 28 0 8 -8 1 -31 -24z"/>
<path d="M6429 3713 c-13 -16 -12 -17 4 -4 16 13 21 21 13 21 -2 0 -10 -8 -17
-17z"/>
<path d="M6349 3643 c-13 -16 -12 -17 4 -4 16 13 21 21 13 21 -2 0 -10 -8 -17
-17z"/>
<path d="M3726 3562 c-33 -15 -36 -19 -24 -30 20 -16 52 -11 79 14 11 10 24
18 27 16 4 -2 8 1 10 7 6 17 -48 13 -92 -7z"/>
<path d="M4250 3496 c-21 -57 -31 -111 -24 -135 4 -14 6 -33 5 -40 -2 -8 5
-20 14 -27 9 -7 17 -21 18 -33 3 -47 19 -17 67 124 16 49 30 92 30 96 0 6 -83
39 -97 39 -2 0 -8 -11 -13 -24z"/>
<path d="M5225 3415 c22 -8 54 -14 70 -14 26 0 24 2 -15 15 -25 7 -56 13 -70
13 -20 -1 -17 -4 15 -14z"/>
<path d="M5092 3393 c-21 -18 -21 -18 7 -40 l28 -22 16 39 c15 40 15 40 -8 40
-12 0 -32 -8 -43 -17z"/>
<path d="M4562 3318 c-51 -46 -88 -84 -82 -86 12 -4 180 144 180 159 0 5 -1 9
-3 9 -1 0 -44 -37 -95 -82z"/>
<path d="M4980 3325 c0 -59 14 -64 27 -10 9 39 8 44 -9 48 -15 4 -18 -1 -18
-38z"/>
<path d="M5050 3335 c0 -8 15 -22 33 -31 l32 -16 -29 31 c-34 35 -36 36 -36
16z"/>
<path d="M6442 3271 c-31 -23 -49 -42 -43 -46 12 -7 54 20 90 59 35 37 15 32
-47 -13z"/>
<path d="M4738 3289 c-40 -15 -37 -50 7 -80 20 -13 38 -34 41 -46 4 -13 10
-23 16 -23 5 0 6 -4 3 -10 -9 -14 1 -12 37 6 24 13 36 14 50 5 19 -12 68 1 68
18 0 32 -42 102 -70 116 -40 21 -117 28 -152 14z"/>
<path d="M5447 3249 c7 -7 15 -10 18 -7 3 3 -2 9 -12 12 -14 6 -15 5 -6 -5z"/>
<path d="M5092 3204 c-23 -14 -42 -32 -42 -40 0 -17 2 -17 32 -3 23 10 63 57
56 64 -2 2 -23 -7 -46 -21z"/>
<path d="M5540 3211 c0 -7 -4 -10 -9 -7 -5 3 -12 -1 -15 -10 -9 -24 -7 -28 7
-16 10 8 12 3 9 -26 -3 -30 -11 -42 -39 -61 l-36 -23 26 -26 26 -25 25 24 c17
16 26 35 26 57 0 29 3 32 30 32 17 0 30 4 30 8 0 4 -18 26 -40 47 -22 21 -40
33 -40 26z"/>
<path d="M5240 3164 c0 -27 4 -43 10 -39 6 3 10 24 10 46 0 21 -4 39 -10 39
-5 0 -10 -21 -10 -46z"/>
<path d="M4380 3138 c0 -4 17 -10 38 -14 20 -3 68 -12 107 -20 72 -14 79 -13
89 22 6 20 3 20 -114 20 -66 0 -120 -4 -120 -8z"/>
<path d="M5040 3129 c0 -5 5 -7 10 -4 6 3 10 8 10 11 0 2 -4 4 -10 4 -5 0 -10
-5 -10 -11z"/>
<path d="M5355 3130 c-3 -5 -1 -10 4 -10 6 0 11 5 11 10 0 6 -2 10 -4 10 -3 0
-8 -4 -11 -10z"/>
<path d="M4948 3074 c-40 -45 -48 -61 -48 -93 0 -44 -28 -67 -37 -31 -5 18 -7
18 -39 5 l-34 -14 -1 32 c-2 31 -2 32 -6 4 -3 -17 -23 -46 -50 -73 -26 -24
-44 -46 -41 -49 3 -3 30 8 61 25 46 24 61 28 82 20 15 -6 65 -13 112 -17 l86
-6 -7 39 c-4 21 -9 78 -13 127 -3 48 -9 87 -12 86 -3 0 -27 -25 -53 -55z"/>
<path d="M4772 3050 c0 -19 2 -27 5 -17 2 9 2 25 0 35 -3 9 -5 1 -5 -18z"/>
<path d="M5240 3070 c0 -25 16 -44 25 -30 4 7 0 19 -9 28 -13 14 -16 14 -16 2z"/>
<path d="M4721 3046 c-6 -7 -8 -26 -5 -43 8 -41 -11 -51 -25 -13 -12 36 -11
35 -62 10 -30 -16 -54 -43 -99 -113 -32 -50 -58 -92 -57 -93 1 -1 37 -4 79 -7
l78 -7 -5 93 c-4 68 -3 86 5 68 7 -15 15 -21 26 -17 9 3 19 6 22 6 4 0 24 15
45 33 33 28 37 36 31 65 -7 35 -15 40 -33 18z"/>
<path d="M2944 2998 c-32 -23 -83 -63 -112 -89 l-54 -47 -81 35 c-45 19 -86
40 -92 47 -9 11 -118 66 -131 66 -2 0 0 -8 5 -19 12 -22 8 -65 -9 -103 -15
-33 -75 -44 -103 -20 -17 15 -17 14 -7 -13 14 -36 57 -114 77 -136 12 -15 8
-26 -33 -93 -28 -45 -44 -80 -38 -85 5 -5 33 -16 62 -26 28 -9 52 -20 52 -24
0 -4 -9 -46 -19 -94 -13 -60 -16 -98 -11 -123 10 -44 20 -55 21 -23 l1 24 8
-25 c12 -39 11 -105 -2 -118 -7 -7 -20 -12 -30 -12 -15 0 -17 -3 -8 -19 12
-23 0 -34 -27 -25 -17 5 -17 5 0 -6 25 -16 21 -30 -10 -30 -26 0 -26 -2 27
-55 56 -56 56 -76 1 -29 -23 19 -31 22 -31 10 0 -24 -20 -30 -39 -12 -17 16
-19 15 -23 -2 -3 -11 -2 -26 3 -34 5 -9 3 -22 -5 -34 -14 -18 -15 -18 -35 0
l-21 19 0 -47 c0 -26 -7 -63 -15 -83 -21 -50 -19 -90 5 -103 11 -6 20 -16 20
-23 1 -7 12 -25 26 -42 15 -17 24 -22 20 -12 -4 12 0 17 13 17 10 0 28 9 41
20 27 23 32 24 48 8 10 -10 15 -10 21 1 6 9 18 11 35 7 24 -6 26 -4 20 19 -4
18 -2 25 8 25 8 0 34 20 58 45 41 42 70 57 70 37 0 -5 11 -15 25 -22 13 -7 29
-25 34 -39 l9 -26 1 26 c1 14 11 41 24 60 12 19 28 46 36 62 17 33 48 43 93
29 76 -24 113 -24 154 -1 21 12 46 28 55 36 14 12 86 35 157 50 13 3 41 -2 62
-12 28 -13 43 -15 52 -7 9 7 38 6 98 -5 47 -9 87 -19 90 -22 3 -3 28 -6 55 -7
28 0 92 -6 143 -14 80 -12 98 -19 131 -47 38 -32 89 -58 98 -49 3 2 0 13 -6
24 -8 15 -6 23 8 36 10 9 22 13 27 9 5 -4 -7 9 -25 30 -34 36 -32 43 9 37 10
-1 7 5 -7 18 -13 10 -20 21 -18 24 10 10 -46 60 -61 54 -8 -3 -13 -2 -9 3 3 5
-1 11 -7 14 -7 2 -19 -5 -26 -17 l-13 -21 4 21 c2 12 -2 32 -9 45 -7 13 -13
19 -14 13 0 -7 -7 -14 -15 -18 -8 -3 -14 -2 -12 2 1 5 -10 22 -25 40 -18 22
-28 27 -31 18 -3 -8 0 -20 6 -27 10 -11 9 -11 -5 0 -10 7 -16 16 -13 20 2 4
-17 15 -42 24 -45 17 -45 17 -40 -4 5 -18 2 -20 -19 -16 -27 5 -31 -2 -12 -21
20 -20 -11 -34 -36 -16 -32 22 -40 17 -21 -13 16 -23 16 -25 1 -20 -19 7 -20
3 -5 -25 12 -22 2 -19 -31 7 -8 7 -22 12 -30 12 -8 0 -71 32 -140 70 -191 108
-201 108 -355 28 -102 -53 -119 -54 -196 -4 -38 24 -52 28 -67 20 -10 -5 -61
-55 -112 -111 -51 -55 -96 -100 -101 -100 -5 0 -9 18 -9 40 0 38 4 43 68 90
37 28 82 55 100 62 23 9 32 18 32 34 0 13 5 26 10 29 6 3 10 17 10 29 0 28 55
101 65 86 3 -5 4 -14 0 -19 -3 -5 -1 -12 5 -16 6 -4 8 -10 5 -15 -3 -5 6 -7
20 -4 14 2 31 1 38 -3 37 -23 131 -26 149 -5 27 31 37 77 26 119 -22 88 -22
87 -3 79 16 -6 17 -5 1 19 -9 14 -18 37 -21 52 -2 16 -5 37 -7 48 -5 32 55 55
127 50 55 -4 57 -4 25 6 -40 13 -25 23 26 17 19 -2 34 -1 34 3 0 4 9 11 20 14
30 10 50 34 50 61 0 13 4 24 9 24 15 0 72 97 66 113 -4 8 -32 35 -64 60 -47
36 -74 48 -135 62 -45 10 -92 15 -114 11 -33 -6 -35 -5 -19 7 21 18 22 33 1
41 -25 9 -27 8 -90 -36z m156 -213 c10 -12 10 -15 -2 -15 -8 0 -15 7 -15 15 0
8 1 15 2 15 2 0 8 -7 15 -15z m-120 -46 c0 -5 -7 -9 -15 -9 -9 0 -12 6 -9 15
6 15 24 11 24 -6z"/>
<path d="M5357 2951 c-28 -47 -37 -76 -43 -130 -3 -39 -10 -68 -14 -66 -5 3
-3 -7 3 -21 12 -25 14 -26 82 -21 95 8 185 40 237 86 l42 38 -54 7 c-30 3 -71
2 -90 -4 -62 -18 -92 -12 -133 26 -43 40 -40 51 19 79 38 18 40 30 7 52 -19
13 -23 10 -56 -46z"/>
<path d="M4782 2885 c4 -4 1 -14 -7 -22 -8 -8 -15 -24 -14 -36 0 -21 1 -21 10
2 5 14 14 30 20 37 7 8 6 15 -3 20 -7 4 -10 4 -6 -1z"/>
<path d="M4350 2822 c0 -10 3 -28 7 -41 l6 -23 13 23 c19 34 17 46 -6 52 -14
4 -20 0 -20 -11z"/>
<path d="M5125 2810 c45 -11 125 -11 125 0 0 6 -32 10 -77 9 -57 -1 -70 -3
-48 -9z"/>
<path d="M4695 2768 c-22 -23 -32 -36 -22 -28 15 11 20 11 26 1 11 -17 34 13
36 45 0 13 0 24 0 24 -1 0 -19 -19 -40 -42z"/>
<path d="M5710 2730 c-8 -5 -12 -12 -9 -15 4 -3 12 1 19 10 14 17 11 19 -10 5z"/>
<path d="M5257 2694 c-4 -21 -7 -60 -7 -86 0 -26 -4 -49 -9 -52 -5 -3 -51 -8
-102 -12 l-94 -6 -39 31 c-39 31 -51 38 -42 22 3 -4 -15 -34 -39 -66 -45 -58
-56 -85 -32 -85 22 0 38 -16 31 -33 -3 -9 -12 -17 -20 -17 -12 0 -14 -32 -12
-182 l3 -183 2 178 c2 97 6 177 9 177 3 0 18 -8 32 -19 66 -45 66 -45 113 12
l44 53 53 -11 53 -10 -23 -22 c-16 -17 -18 -23 -8 -23 8 0 24 -3 36 -6 19 -5
22 0 28 63 14 137 16 143 42 137 16 -4 24 -2 24 6 0 14 6 12 101 -24 l65 -24
26 32 c16 20 42 37 69 45 45 13 119 74 119 98 0 18 -7 16 -40 -7 -16 -12 -54
-32 -85 -46 -56 -26 -56 -26 -108 -9 -29 10 -65 18 -81 19 -20 2 -40 15 -66
46 l-37 43 -6 -39z"/>
<path d="M4771 2568 c0 -37 4 -70 9 -73 12 -7 12 31 1 95 -8 44 -9 44 -10 -22z"/>
<path d="M4844 2600 c-31 -12 -38 -40 -17 -61 33 -32 80 -28 94 7 7 21 6 31
-7 45 -18 20 -37 23 -70 9z"/>
<path d="M1030 2579 c0 -5 17 -17 38 -26 20 -8 90 -40 155 -70 109 -50 161
-62 112 -27 -40 29 -191 102 -244 118 -65 19 -61 19 -61 5z"/>
<path d="M3097 2529 c7 -7 15 -10 18 -7 3 3 -2 9 -12 12 -14 6 -15 5 -6 -5z"/>
<path d="M3093 2385 c0 -22 2 -30 4 -17 2 12 2 30 0 40 -3 9 -5 -1 -4 -23z"/>
<path d="M5212 2268 c-6 -18 -31 -62 -55 -98 -23 -36 -55 -86 -70 -112 -29
-51 -57 -82 -64 -74 -3 3 4 17 15 31 20 25 20 55 1 55 -10 0 -26 -37 -32 -72
-1 -13 -9 -34 -17 -48 -8 -14 -13 -28 -12 -32 1 -4 -4 -5 -11 -3 -17 7 -123
-92 -119 -111 2 -11 -1 -14 -10 -9 -7 3 -3 -2 10 -13 12 -11 18 -22 14 -24 -5
-1 -6 -13 -3 -25 6 -24 10 -21 163 107 26 22 49 36 52 31 5 -7 -91 -99 -178
-172 -5 -4 0 -6 10 -3 10 3 28 -2 39 -9 16 -13 17 -19 8 -40 -23 -51 -72 -44
-73 11 0 12 -4 22 -8 22 -13 0 -82 -74 -82 -88 0 -14 -2 -14 36 -3 16 5 48 6
70 2 l39 -7 -32 -19 c-27 -16 -33 -25 -33 -55 0 -53 -17 -103 -53 -157 -32
-47 -33 -48 -90 -51 -32 -1 -56 2 -53 7 3 4 -12 22 -34 40 -22 17 -43 43 -46
56 -5 22 -12 18 -127 -74 -69 -54 -139 -102 -160 -108 l-38 -12 15 24 c9 14
16 28 16 32 0 4 -11 -9 -25 -30 -14 -20 -30 -37 -35 -37 -23 0 -7 -37 27 -64
l36 -29 -6 36 c-5 33 -3 37 16 37 12 0 40 3 62 6 29 4 36 3 25 -5 -24 -16 -3
-25 29 -12 22 10 34 10 50 1 20 -10 20 -13 6 -40 -23 -44 -34 -45 -74 -6 -48
47 -60 46 -24 -1 16 -21 47 -64 68 -96 22 -32 42 -60 46 -63 4 -2 18 6 33 17
15 12 31 17 38 13 7 -4 65 -49 129 -100 l116 -92 24 19 c27 20 26 21 -18 38
-41 16 -41 32 -4 63 l29 25 -33 44 c-17 24 -39 50 -48 58 -20 16 -51 7 -44
-13 4 -10 -4 -12 -36 -9 -23 3 -54 5 -69 6 l-28 2 23 17 c12 10 54 37 92 60
39 23 87 58 108 77 50 46 117 141 153 214 24 49 32 57 50 53 17 -5 25 2 42 37
50 102 88 203 97 257 7 42 7 44 -11 30 -11 -7 -38 -32 -61 -54 -67 -63 -50
-32 23 44 l66 69 14 108 c8 59 18 133 23 163 12 71 24 190 19 190 -2 0 -9 -15
-16 -32z m-234 -433 c-3 -3 -9 2 -12 12 -6 14 -5 15 5 6 7 -7 10 -15 7 -18z
m-698 -665 c0 -5 -8 -10 -17 -10 -15 0 -16 2 -3 10 19 12 20 12 20 0z m339
-53 c12 8 21 10 21 5 0 -6 -7 -12 -15 -16 -8 -3 -14 -11 -13 -18 2 -7 -17 -23
-42 -36 l-45 -22 -7 52 c-4 29 -5 64 -2 78 6 25 6 25 44 -16 36 -39 40 -41 59
-27z"/>
<path d="M4504 2244 c3 -9 6 -35 6 -58 0 -32 6 -50 26 -71 20 -22 23 -30 12
-36 -8 -6 -9 -9 -2 -9 7 0 20 -22 30 -50 19 -52 47 -68 58 -32 7 21 46 211 46
222 0 8 -144 50 -169 50 -8 0 -11 -6 -7 -16z"/>
<path d="M4743 2205 c0 -22 2 -30 4 -17 2 12 2 30 0 40 -3 9 -5 -1 -4 -23z"/>
<path d="M6174 1998 c-184 -138 -574 -453 -574 -464 0 -11 538 409 660 515 64
55 24 32 -86 -51z"/>
<path d="M2043 1934 c-12 -32 13 -61 59 -67 23 -4 56 -9 72 -13 44 -11 25 9
-55 55 -57 33 -71 38 -76 25z"/>
<path d="M4735 1910 c-3 -6 1 -7 9 -4 18 7 21 14 7 14 -6 0 -13 -4 -16 -10z"/>
<path d="M4011 1884 c0 -11 3 -14 6 -6 3 7 2 16 -1 19 -3 4 -6 -2 -5 -13z"/>
<path d="M4665 1844 c-49 -29 -97 -57 -106 -60 -10 -4 -15 -13 -12 -25 5 -16
14 -12 80 33 73 52 143 107 133 107 -3 0 -45 -25 -95 -55z"/>
<path d="M4664 1874 c-18 -14 -18 -14 6 -3 31 14 36 19 24 19 -6 0 -19 -7 -30
-16z"/>
<path d="M4036 1865 c4 -8 8 -15 10 -15 2 0 4 7 4 15 0 8 -4 15 -10 15 -5 0
-7 -7 -4 -15z"/>
<path d="M3296 1862 c-7 -11 -1 -60 8 -69 3 -3 8 6 11 20 7 28 -8 67 -19 49z"/>
<path d="M4081 1834 c0 -11 3 -14 6 -6 3 7 2 16 -1 19 -3 4 -6 -2 -5 -13z"/>
<path d="M4588 1834 c-16 -8 -28 -17 -28 -19 0 -11 19 -4 41 15 29 23 24 25
-13 4z"/>
<path d="M2087 1730 c-3 -10 1 -24 7 -29 10 -8 11 -3 8 19 -5 35 -8 37 -15 10z"/>
<path d="M2166 1733 c-11 -11 -6 -23 9 -23 8 0 15 4 15 9 0 13 -16 22 -24 14z"/>
<path d="M4546 1660 c-20 -22 -36 -42 -36 -44 0 -8 124 60 127 69 2 6 -10 12
-26 13 -22 2 -37 -7 -65 -38z"/>
<path d="M4174 1658 c3 -18 6 -94 7 -168 1 -74 5 -146 11 -160 l9 -25 32 35
c18 19 46 43 62 52 16 9 31 21 33 27 2 5 -19 27 -46 48 -43 33 -50 44 -56 85
-4 26 -14 64 -23 85 -9 21 -16 41 -15 46 1 4 -3 7 -9 7 -7 0 -9 -12 -5 -32z"/>
<path d="M2110 1669 c0 -5 5 -7 10 -4 6 3 10 8 10 11 0 2 -4 4 -10 4 -5 0 -10
-5 -10 -11z"/>
<path d="M5193 1594 c-24 -24 -25 -31 -20 -90 3 -41 11 -72 22 -84 16 -18 16
-22 -4 -74 -27 -74 -37 -152 -21 -171 9 -11 32 -15 77 -15 78 0 108 13 93 39
-5 11 -13 51 -16 90 -7 76 -21 107 -17 38 l3 -42 -24 50 -23 49 36 27 c59 43
76 67 76 111 0 33 -6 45 -33 69 -44 40 -111 41 -149 3z"/>
<path d="M4110 1588 c0 -21 -37 -88 -44 -81 -3 4 -6 -1 -6 -9 0 -9 -7 -18 -15
-22 -11 -4 -14 -13 -9 -30 5 -22 3 -25 -16 -21 -18 3 -21 1 -17 -15 6 -23 -3
-26 -22 -7 -10 10 -11 8 -5 -8 7 -17 6 -18 -8 -7 -13 10 -15 9 -13 -12 2 -14
7 -31 11 -38 18 -32 -53 44 -103 110 -31 40 -58 70 -61 67 -3 -2 6 -18 19 -34
36 -44 196 -247 234 -297 27 -35 35 -41 45 -29 14 17 1 46 -32 64 -30 18 -106
104 -84 95 10 -4 22 0 29 10 12 16 14 16 38 -2 14 -11 47 -23 73 -27 l48 -8
-3 146 c-3 80 -6 148 -9 150 -3 3 -15 8 -27 11 -16 5 -23 3 -23 -6z"/>
<path d="M4490 1560 c0 -5 4 -10 9 -10 6 0 13 5 16 10 3 6 -1 10 -9 10 -9 0
-16 -4 -16 -10z"/>
<path d="M2350 1493 c1 -43 3 -54 11 -41 15 26 16 90 2 95 -10 3 -13 -11 -13
-54z"/>
<path d="M5569 1513 c-13 -16 -12 -17 4 -4 16 13 21 21 13 21 -2 0 -10 -8 -17
-17z"/>
<path d="M4341 1471 c-1 -34 2 -42 11 -33 8 8 8 20 1 44 l-11 33 -1 -44z"/>
<path d="M3745 1370 c25 -46 70 -110 77 -110 16 0 8 16 -33 65 -47 58 -55 66
-44 45z"/>
<path d="M2499 1313 c-13 -16 -12 -17 4 -4 9 7 17 15 17 17 0 8 -8 3 -21 -13z"/>
<path d="M5098 1195 c-3 -14 -1 -25 3 -25 5 0 9 11 9 25 0 14 -2 25 -4 25 -2
0 -6 -11 -8 -25z"/>
<path d="M4061 1104 c-17 -38 -6 -42 14 -5 8 17 12 31 7 31 -5 0 -14 -12 -21
-26z"/>
<path d="M4206 1046 c-5 -30 -13 -46 -24 -49 -15 -4 -15 -5 1 -6 14 -1 17 -6
12 -22 -5 -15 -3 -20 6 -17 8 3 15 14 17 26 2 11 11 23 20 25 14 4 14 5 2 6
-12 1 -15 10 -12 35 6 51 -15 53 -22 2z"/>
<path d="M3610 921 c0 -5 -25 -19 -55 -32 -30 -12 -53 -24 -52 -25 5 -6 132
27 141 36 4 4 -1 13 -13 19 -12 7 -21 8 -21 2z"/>
<path d="M5950 774 c-85 -58 -159 -109 -163 -113 -4 -5 94 33 218 83 l227 91
-49 22 c-26 13 -55 23 -63 22 -8 0 -85 -47 -170 -105z"/>
<path d="M5056 828 c-49 -57 -102 -165 -111 -225 -4 -30 -1 -76 9 -122 l15
-73 -44 -52 c-25 -28 -45 -53 -45 -57 0 -3 33 -54 74 -114 l75 -109 -18 -25
c-36 -53 -38 -51 48 -51 65 0 81 3 81 15 0 8 5 15 10 15 6 0 10 -7 10 -15 0
-19 53 -20 69 -1 9 10 8 16 -4 26 -8 7 -12 17 -9 22 4 6 9 45 13 87 l6 76 48
3 c33 2 47 0 42 -7 -3 -6 30 -58 75 -116 l81 -105 226 0 225 0 -38 53 c-21 28
-77 104 -125 167 -47 63 -105 149 -129 190 -23 41 -49 86 -57 99 l-15 24 -29
-58 c-16 -32 -32 -62 -36 -66 -5 -5 -27 34 -49 86 -45 103 -47 96 22 110 27 5
36 2 59 -27 18 -21 22 -24 13 -8 -8 14 -20 35 -26 47 l-12 21 -51 -19 c-28
-11 -52 -19 -53 -17 -1 2 -19 37 -40 78 -39 78 -40 65 -1 -32 l22 -56 -59 -17
c-33 -9 -58 -18 -56 -21 3 -2 27 3 54 11 27 8 53 15 57 15 9 0 87 -161 87
-179 0 -5 -9 -15 -20 -21 -17 -9 -25 -6 -46 15 -30 30 -38 32 -25 6 8 -14 5
-23 -12 -38 -41 -38 -75 -55 -82 -43 -4 6 -13 9 -21 6 -8 -3 -14 -1 -14 4 0
19 -82 69 -138 85 -43 13 -64 14 -95 6 l-40 -10 32 30 c18 16 37 29 42 29 6 0
8 4 5 9 -3 5 2 8 12 7 15 -1 17 16 22 189 3 105 4 191 4 193 -1 2 -18 -16 -38
-40z m406 -470 c-6 -6 -15 -8 -19 -4 -4 4 -1 11 7 16 19 12 27 3 12 -12z"/>
<path d="M3875 820 c5 -27 3 -46 -5 -55 -11 -13 0 -15 79 -15 50 0 91 4 91 8
0 25 -86 82 -143 96 l-29 7 7 -41z"/>
<path d="M5396 777 c3 -10 9 -15 12 -12 3 3 0 11 -7 18 -10 9 -11 8 -5 -6z"/>
<path d="M4710 605 c0 -8 36 -78 60 -117 l19 -31 27 59 c14 32 31 67 36 77 8
15 2 17 -67 17 -41 0 -75 -2 -75 -5z"/>
<path d="M4572 534 c-21 -33 -22 -34 -3 -25 11 6 23 20 26 32 11 33 2 30 -23
-7z"/>
<path d="M5885 465 c-30 -30 -32 -64 -4 -99 33 -42 99 -35 124 15 20 38 19 42
-11 78 -33 39 -74 41 -109 6z"/>
<path d="M6217 291 c-10 -4 -17 -10 -15 -14 2 -4 -21 -23 -49 -42 -29 -20 -53
-38 -53 -41 0 -5 32 11 69 35 27 17 61 16 74 -3 6 -7 7 -4 3 7 -3 9 -1 28 4
42 10 27 2 30 -33 16z"/>
<path d="M2261 41 c-12 -16 -21 -31 -21 -34 0 -3 41 -5 90 -6 59 -1 90 2 90 9
0 6 -4 8 -10 5 -5 -3 -10 -1 -10 5 0 6 -4 8 -10 5 -5 -3 -10 -2 -10 3 0 6 -8
9 -17 8 -10 0 -17 4 -16 11 2 8 -4 10 -14 6 -9 -4 -14 -2 -10 3 3 5 -5 11 -18
12 -16 1 -30 -8 -44 -27z"/>
</g>
</svg>
