<?xml version="1.0" standalone="no"?>
<!DOCTYPE svg PUBLIC "-//W3C//DTD SVG 20010904//EN"
 "http://www.w3.org/TR/2001/REC-SVG-20010904/DTD/svg10.dtd">
<svg version="1.0" xmlns="http://www.w3.org/2000/svg"
 width="727.000000pt" height="486.000000pt" viewBox="0 0 727.000000 486.000000"
 preserveAspectRatio="xMidYMid meet">

<g transform="translate(0.000000,486.000000) scale(0.100000,-0.100000)"
fill="#000000" stroke="none">
<path d="M0 4731 c0 -94 3 -131 13 -134 9 -4 9 -6 0 -6 -18 -1 -18 -232 0
-250 9 -11 9 -14 0 -18 -16 -6 -18 -225 -3 -253 7 -13 7 -21 0 -25 -6 -4 -10
-95 -10 -242 l0 -236 20 18 c20 18 79 129 83 156 6 40 66 115 159 200 56 52
134 124 173 160 38 37 76 64 82 62 20 -7 -1 -31 -197 -229 -99 -100 -180 -187
-180 -193 0 -17 41 16 65 53 25 38 97 76 145 76 31 0 46 11 138 105 l102 104
-50 -74 c-91 -134 -134 -172 -206 -181 -53 -6 -76 -19 -133 -72 -37 -35 -52
-56 -47 -67 3 -9 2 -13 -4 -10 -6 4 -13 -7 -16 -24 -4 -17 -14 -36 -23 -43
-14 -12 -15 -11 -1 7 12 17 12 18 0 7 -8 -7 -15 -20 -15 -30 0 -9 -5 -17 -12
-17 -6 0 -15 -4 -20 -9 -5 -5 -3 -6 5 -2 20 12 14 -2 -26 -62 -35 -52 -38 -63
-40 -131 -1 -41 2 -71 6 -65 27 30 72 93 72 99 0 4 -12 -1 -27 -11 l-28 -17
19 29 c11 16 38 52 61 79 49 58 64 85 70 123 8 55 42 145 58 154 15 8 17 3 17
-32 0 -22 -9 -58 -20 -80 -25 -49 -25 -62 0 -31 20 23 20 23 20 2 0 -26 -103
-195 -188 -309 -50 -67 -62 -91 -62 -120 0 -37 1 -36 48 43 27 44 72 115 100
158 28 42 56 93 62 112 8 25 18 35 32 35 16 0 19 -5 14 -22 -3 -13 -6 -30 -6
-39 0 -9 -38 -72 -84 -140 -115 -171 -166 -256 -166 -277 1 -17 75 94 135 200
28 50 30 51 33 26 4 -29 -36 -108 -120 -237 -26 -40 -48 -81 -48 -90 0 -9 15
7 32 34 42 66 47 42 15 -67 -45 -149 -48 -198 -45 -617 l3 -395 94 -41 c105
-45 122 -64 101 -115 -23 -54 -64 -90 -104 -90 -28 0 -43 -7 -66 -32 l-30 -33
1 -327 c0 -244 3 -328 12 -332 9 -3 9 -5 0 -5 -9 -1 -13 -24 -13 -82 l0 -81
75 4 c41 2 75 0 75 -4 0 -5 -34 -8 -75 -8 l-75 0 0 -45 0 -45 175 0 175 0 0
45 0 45 -70 0 c-40 0 -70 4 -70 10 0 6 32 10 76 10 l76 0 -4 29 c-2 17 -1 28
4 25 4 -3 8 -16 8 -30 0 -21 5 -24 38 -25 20 0 46 -4 57 -9 14 -6 4 -9 -37 -9
l-58 -1 0 -45 0 -45 175 0 c158 0 201 6 163 24 -7 3 -4 4 7 3 11 -2 19 -9 17
-16 -1 -7 2 -10 7 -7 11 7 161 -63 161 -76 0 -5 -5 -6 -12 -2 -8 5 -9 2 -5
-10 4 -10 7 -24 7 -32 0 -9 4 -13 9 -10 5 3 11 -3 14 -13 3 -14 0 -17 -14 -14
-18 5 -19 -6 -19 -261 l0 -266 49 0 c28 0 53 5 56 10 3 6 11 10 16 10 6 0 8
-4 4 -10 -3 -5 93 -8 257 -7 l263 2 3 33 c3 25 7 32 19 28 8 -3 26 -9 39 -12
19 -5 23 -11 18 -30 -6 -22 -3 -24 26 -24 l33 0 -23 20 c-28 24 -30 24 48 0
69 -21 126 -27 87 -9 -18 8 -17 9 5 5 14 -3 77 -7 140 -11 95 -5 112 -4 100 7
-9 7 -29 30 -45 51 -39 53 -215 137 -285 137 -33 0 -60 -36 -67 -90 -5 -36 -4
-38 32 -50 20 -7 35 -14 32 -16 -2 -2 -35 7 -73 19 -60 21 -69 27 -70 49 -1
13 -4 36 -7 50 -5 20 -1 29 23 47 17 12 30 25 30 30 0 4 -37 16 -82 26 -80 18
-127 34 -100 35 6 0 12 8 12 18 0 14 -9 17 -52 16 -35 -1 -40 0 -15 3 24 3 37
9 37 19 0 17 -30 18 -82 4 -21 -6 -41 -10 -44 -10 -4 1 -11 -4 -16 -12 -8 -10
-9 -10 -5 2 2 8 10 14 16 13 6 -2 11 2 11 8 0 5 4 8 9 5 5 -4 11 -2 13 4 1 5
23 11 47 12 24 2 46 8 47 13 2 6 -70 54 -159 107 -230 138 -347 196 -368 182
-7 -4 -9 -3 -6 3 4 6 -46 28 -121 53 -149 50 -258 97 -248 107 13 14 38 12 32
-3 -4 -11 -2 -12 14 -2 16 10 22 10 32 -1 11 -11 10 -12 -1 -6 -10 6 -12 4 -7
-4 5 -7 12 -9 19 -3 7 4 18 7 25 6 6 -1 16 -2 22 -3 5 0 7 -9 3 -18 -5 -16 -4
-15 9 1 11 13 17 16 22 7 4 -6 12 -9 17 -6 5 4 9 1 9 -5 0 -6 4 -9 9 -6 14 9
142 -34 136 -44 -3 -6 0 -7 8 -5 7 3 60 -16 118 -43 57 -27 127 -57 154 -67
28 -11 54 -24 58 -29 4 -6 7 12 5 39 l-3 50 105 -55 c126 -66 163 -83 157 -73
-3 5 1 14 8 20 11 10 15 9 20 -7 4 -12 13 -17 25 -15 14 3 17 -1 13 -12 -4
-10 -2 -14 4 -10 6 4 14 0 17 -8 4 -13 2 -14 -14 -5 -11 6 -20 16 -20 22 0 6
-3 8 -7 5 -3 -4 -12 -2 -20 4 -9 8 -13 8 -13 0 0 -6 17 -19 39 -30 30 -16 41
-17 51 -8 10 10 12 9 7 -4 -4 -12 -1 -15 13 -12 10 3 21 -1 26 -8 5 -9 2 -11
-9 -6 -24 9 -21 0 4 -14 17 -8 20 -8 14 1 -5 8 -3 11 6 8 8 -3 13 -10 12 -16
-2 -7 4 -9 14 -5 10 4 14 2 10 -4 -4 -6 8 -20 26 -32 33 -20 76 -61 64 -61 -4
0 -22 8 -42 17 -29 14 -38 15 -44 4 -5 -8 -17 -11 -32 -7 -32 9 59 -38 146
-75 39 -16 95 -45 125 -65 31 -20 47 -27 37 -16 -18 20 -18 21 2 34 31 19 26
39 -23 87 -39 38 -44 41 -39 20 3 -13 17 -37 32 -54 22 -25 20 -24 -19 8 -53
43 -250 186 -335 244 -73 49 -325 186 -342 186 -7 0 -13 5 -13 10 0 5 -7 7
-15 3 -8 -3 -14 0 -12 7 1 7 -6 11 -15 11 -10 -1 -15 2 -12 7 4 7 -116 69
-292 150 -48 22 -59 35 -147 166 -94 140 -95 142 -102 218 -4 43 -4 137 0 210
l7 133 -53 42 c-29 23 -55 37 -57 31 -2 -6 -7 -9 -11 -6 -5 2 -16 -1 -26 -9
-15 -11 -16 -16 -5 -37 7 -13 24 -34 39 -47 l26 -23 -28 17 c-42 25 -35 -1 23
-87 28 -41 50 -78 50 -83 0 -11 -51 47 -117 132 -33 43 -44 51 -49 38 -3 -9
-10 -14 -14 -11 -4 3 -8 -17 -8 -45 -1 -27 3 -52 9 -55 11 -7 2 -25 -12 -25
-6 0 -8 32 -5 88 3 48 6 94 7 103 0 9 17 25 37 35 63 32 63 33 29 64 -18 16
-29 31 -26 34 6 6 111 -59 170 -103 l25 -19 29 116 c15 64 36 141 47 171 10
30 15 58 11 61 -5 4 -91 76 -193 160 -102 84 -220 187 -263 229 -119 115 -216
252 -179 251 17 -1 95 -71 155 -140 36 -41 112 -118 169 -171 122 -113 329
-292 332 -287 1 2 15 35 30 73 16 39 66 149 112 245 107 227 108 229 83 223
-34 -9 -48 3 -40 33 5 20 16 30 39 36 31 8 32 10 19 36 -8 15 -20 54 -27 87
-7 33 -20 65 -29 72 -9 7 -11 13 -5 13 23 0 67 -45 86 -89 22 -51 27 -48 54
34 18 53 30 73 40 62 3 -3 -10 -51 -29 -105 -34 -95 -35 -100 -16 -105 15 -4
17 -10 10 -28 -4 -13 -18 -26 -31 -29 -18 -4 -41 -44 -113 -195 -49 -105 -107
-235 -128 -289 l-39 -99 85 -82 c47 -45 85 -89 85 -98 0 -18 -15 -23 -24 -8
-3 4 -18 7 -33 5 -24 -4 -25 -3 -8 5 18 9 18 10 2 10 -10 1 -15 6 -12 11 3 5
-1 10 -9 10 -9 0 -16 8 -16 19 0 23 -69 86 -80 74 -12 -11 -49 -162 -65 -255
l-12 -77 29 -28 c45 -43 91 -103 84 -110 -3 -4 -11 -2 -17 4 -6 6 -19 9 -28 6
-12 -4 -13 -3 -2 5 10 7 6 13 -19 26 -65 32 -65 30 -60 -204 1 -89 4 -98 34
-145 18 -27 63 -81 100 -118 36 -38 67 -73 67 -78 1 -5 2 -13 3 -18 2 -15 11
-21 37 -26 44 -9 229 -106 223 -117 -4 -6 -2 -8 4 -4 15 9 63 -15 55 -28 -3
-6 -3 -8 2 -4 4 4 20 1 35 -7 26 -14 28 -13 32 10 3 13 2 22 -2 20 -8 -5 -20
29 -20 59 0 11 28 49 63 86 34 36 78 84 98 105 73 82 241 231 292 259 69 39
131 40 211 3 78 -36 149 -88 348 -254 248 -208 607 -454 753 -517 63 -27 81
-30 175 -31 118 0 164 16 214 76 40 47 98 169 136 283 23 71 43 110 68 138 42
47 99 78 142 78 56 0 118 21 142 48 l23 27 -28 -25 -28 -25 10 26 c10 28 -8
69 -43 98 -39 33 -80 96 -86 135 -4 22 -10 48 -14 57 -6 13 -2 16 19 12 31 -7
65 -47 65 -79 0 -13 5 -24 10 -24 12 0 12 6 0 49 -5 19 -8 37 -6 39 8 7 96
-80 96 -94 0 -17 -4 -18 73 6 35 11 71 28 78 38 13 16 12 16 -6 2 -11 -8 -5 2
14 23 19 20 38 34 42 31 4 -2 11 1 15 7 4 8 3 9 -4 5 -7 -4 -12 -3 -12 3 0 5
5 13 10 16 18 11 10 23 -12 18 -17 -3 -19 -2 -10 5 22 15 11 56 -15 60 -24 4
-30 -7 -13 -24 15 -15 -12 -35 -50 -38 l-30 -2 20 21 c11 12 20 26 20 32 0 12
-32 23 -67 23 -12 0 -25 4 -28 10 -4 6 10 8 39 4 52 -8 85 1 68 18 -5 5 -74
14 -152 18 -169 9 -193 20 -198 88 -3 38 -6 42 -36 48 -38 7 -59 38 -60 87 -1
30 -3 32 -36 32 -41 0 -52 25 -24 56 16 18 18 18 36 2 19 -17 20 -16 16 17 -2
27 -7 35 -23 35 -12 0 -21 -8 -24 -20 -2 -11 -14 -33 -27 -48 -21 -25 -24 -26
-24 -8 0 11 -4 23 -10 26 -5 3 -10 -1 -10 -11 0 -30 -23 -94 -31 -88 -10 6
-12 97 -3 143 5 22 12 31 26 31 18 0 19 9 18 208 -1 114 2 300 6 413 7 195 6
209 -13 250 -12 24 -35 76 -53 114 -44 94 -66 186 -62 263 l3 62 40 0 c22 0
53 -7 68 -15 39 -20 95 -98 122 -171 17 -45 37 -73 83 -117 76 -73 144 -116
156 -97 6 9 22 11 59 6 55 -7 63 0 30 30 -29 27 -127 152 -104 134 36 -29 -16
49 -67 101 -77 77 -55 67 41 -19 49 -44 114 -99 145 -121 31 -23 70 -63 87
-89 28 -43 31 -42 12 5 -13 33 17 2 38 -39 16 -31 20 -53 16 -86 -4 -41 -3
-43 17 -38 16 4 28 -3 49 -29 28 -35 62 -48 51 -20 -3 8 0 21 8 29 12 12 16 8
27 -31 14 -45 11 -218 -3 -241 -10 -17 -36 -15 -42 3 -5 11 -10 12 -26 4 -25
-13 -40 5 -32 38 5 18 2 21 -14 16 -15 -3 -21 -17 -26 -54 -5 -38 -16 -61 -51
-102 -40 -47 -84 -102 -213 -264 -34 -43 -38 -51 -18 -38 l26 17 0 -34 c0 -32
21 -88 82 -215 29 -61 111 -108 176 -99 34 5 50 2 63 -10 17 -15 21 -15 52 5
31 19 47 20 198 18 133 -2 171 1 200 14 39 18 109 76 109 90 0 5 -14 -5 -30
-23 -17 -18 -28 -25 -24 -16 3 9 -18 64 -51 130 -61 122 -89 224 -105 393 -5
49 -13 91 -18 93 -5 1 -6 16 -4 32 4 28 2 30 -29 30 -24 0 -30 3 -20 9 8 5 21
7 29 3 13 -4 14 2 8 39 -4 24 -11 45 -16 47 -6 2 -7 15 -4 28 7 25 -12 58 -27
48 -5 -3 -7 -18 -4 -35 3 -16 1 -29 -5 -29 -5 0 -10 18 -10 40 0 30 4 40 16
40 13 0 14 6 8 33 -18 73 -10 149 23 217 17 36 34 80 38 97 6 29 4 34 -22 45
-15 7 -30 13 -32 14 -4 3 30 96 41 110 13 18 -8 131 -33 172 -46 76 -129 169
-202 227 -51 40 -72 62 -64 68 7 5 4 6 -8 3 -11 -3 -26 -2 -34 3 -21 13 -2 34
26 28 18 -3 28 2 39 19 17 25 10 49 -11 40 -7 -2 -25 2 -40 10 -15 8 -53 15
-84 15 -46 1 -51 3 -26 9 27 7 24 8 -20 10 -73 3 -21 18 68 19 37 1 67 5 67
11 0 6 14 10 30 10 39 0 41 27 3 32 -26 3 -28 7 -31 56 l-3 52 -35 0 c-33 0
-34 1 -33 38 l2 37 7 -35 7 -35 2 43 c0 27 -3 41 -9 37 -5 -3 -10 -1 -10 4 0
7 -28 11 -72 11 -39 0 -68 3 -64 7 4 4 26 8 49 8 33 1 42 4 41 18 -1 12 6 17
22 17 16 0 24 6 25 18 1 11 4 9 9 -8 7 -22 8 -21 9 13 1 23 -3 36 -9 32 -6 -3
-10 3 -10 14 0 13 6 21 18 21 14 0 17 -7 14 -45 -4 -40 -2 -45 17 -45 19 0 21
6 21 55 0 42 3 55 15 55 11 0 15 -12 16 -47 1 -27 1 -51 0 -55 0 -5 55 -8 124
-8 l125 0 0 39 c0 48 -6 51 -121 51 -52 0 -90 4 -90 10 -1 6 -3 15 -4 20 -1 6
-3 15 -4 21 -1 8 -14 10 -36 6 -19 -3 -35 -2 -35 4 0 5 69 9 165 9 l165 0 0
25 0 25 -131 0 c-112 0 -130 2 -125 15 3 10 -1 15 -12 15 -10 0 -31 14 -48 31
-36 39 -176 104 -255 120 -40 8 -138 10 -300 7 -207 -4 -242 -7 -257 -21 -15
-16 -12 -17 43 -17 43 0 56 -3 45 -10 -8 -5 -38 -10 -66 -10 -33 0 -56 -5 -64
-15 -11 -13 22 -15 285 -15 164 0 296 -2 293 -5 -3 -3 -117 -6 -253 -5 -184 0
-252 -3 -263 -13 -13 -9 -14 -9 -8 1 8 13 -22 16 -61 6 -21 -6 -75 -76 -121
-158 -28 -49 -62 -87 -62 -67 0 7 12 36 26 65 37 73 36 70 72 115 24 29 29 41
19 41 -9 0 -25 -12 -36 -26 -12 -15 -21 -22 -21 -17 0 5 3 13 8 17 13 14 8 31
-13 38 -17 5 -16 6 8 8 15 1 33 3 40 4 6 1 11 8 9 17 -1 9 7 24 18 34 11 10
20 22 20 26 0 5 -159 10 -352 12 l-353 2 362 3 c351 2 363 3 373 22 8 15 8 20
-2 20 -7 0 -2 6 11 13 39 19 38 37 -2 37 -31 0 -75 -29 -62 -42 3 -3 -4 -13
-15 -23 -17 -16 -20 -16 -15 -3 5 12 -1 18 -22 21 l-28 4 31 2 c29 1 54 16 54
33 0 4 -345 9 -767 11 l-768 2 766 3 c667 2 768 4 779 17 7 8 17 15 22 15 6 0
8 -7 4 -15 -4 -12 4 -15 43 -15 27 0 56 3 65 6 26 10 19 34 -10 34 -21 0 -23
2 -12 13 24 24 53 36 68 27 8 -4 40 -11 70 -15 54 -7 55 -6 55 19 l0 26 -1052
0 c-579 -1 -1053 -4 -1053 -9 0 -4 -11 -13 -25 -19 -39 -18 -43 -14 -10 8 l30
20 -692 0 -693 0 0 -129z m814 91 c4 -8 -137 -116 -274 -210 l-35 -24 26 23
c15 13 42 36 62 51 19 15 34 34 33 42 0 8 37 39 84 70 89 58 96 61 104 48z
m2446 -25 c8 -3 -55 -5 -140 -4 l-155 1 128 3 c83 3 127 7 127 15 0 7 4 7 13
1 6 -6 19 -13 27 -16z m-2851 -1 c-8 -8 -88 -10 -95 -3 -4 4 17 7 46 7 29 0
51 -2 49 -4z m69 -3 c-10 -2 -28 -2 -40 0 -13 2 -5 4 17 4 22 1 32 -1 23 -4z
m1609 1 c-3 -3 -12 -4 -19 -1 -8 3 -5 6 6 6 11 1 17 -2 13 -5z m251 -1 c-10
-2 -26 -2 -35 0 -10 3 -2 5 17 5 19 0 27 -2 18 -5z m175 0 c-18 -2 -48 -2 -65
0 -18 2 -4 4 32 4 36 0 50 -2 33 -4z m417 -3 c0 -5 -20 -10 -45 -10 -25 0 -45
5 -45 10 0 6 20 10 45 10 25 0 45 -4 45 -10z m-1871 -23 c14 -18 0 -30 -115
-96 -88 -50 -91 -51 -124 -38 l-33 14 44 25 c117 67 195 108 205 108 6 0 17
-6 23 -13z m-629 -24 c-8 -4 -21 -13 -28 -22 -8 -9 -10 -10 -6 -2 3 7 0 17 -7
22 -10 6 -3 8 21 8 19 0 28 -3 20 -6z m320 -29 c-8 -8 -23 -20 -34 -25 -13 -6
-10 0 9 15 34 29 43 33 25 10z m-393 -20 c-3 -3 -12 -4 -19 -1 -8 3 -5 6 6 6
11 1 17 -2 13 -5z m1466 -1 c-29 -2 -78 -2 -110 0 -32 2 -8 3 52 3 61 0 87 -1
58 -3z m120 0 c-7 -2 -19 -2 -25 0 -7 3 -2 5 12 5 14 0 19 -2 13 -5z m200 0
c-7 -2 -21 -2 -30 0 -10 3 -4 5 12 5 17 0 24 -2 18 -5z m565 2 c-7 -7 -389 -7
-396 0 -3 3 86 5 198 5 112 0 201 -2 198 -5z m195 -2 c-35 -2 -91 -2 -125 0
-35 2 -7 3 62 3 69 0 97 -1 63 -3z m-1890 -42 c-33 -53 -72 -90 -142 -137 -59
-39 -72 -44 -90 -34 -26 13 -26 22 -3 43 16 14 243 156 250 157 2 0 -4 -13
-15 -29z m-613 6 c0 -2 -10 -12 -22 -23 l-23 -19 19 23 c18 21 26 27 26 19z
m84 -18 c-10 -12 -46 -42 -79 -67 -36 -27 -49 -34 -34 -17 25 26 119 102 128
104 2 1 -4 -9 -15 -20z m161 -9 c-15 -16 -33 -26 -38 -23 -6 3 3 17 19 30 41
33 53 29 19 -7z m1433 13 c-32 -2 -84 -2 -115 0 -32 2 -6 3 57 3 63 0 89 -1
58 -3z m345 0 c-40 -2 -106 -2 -145 0 -40 1 -8 3 72 3 80 0 112 -2 73 -3z
m-1655 -51 c4 -23 -30 -47 -54 -38 -20 8 -18 22 7 47 24 24 43 21 47 -9z
m2349 -9 c-3 -3 -11 -2 -17 2 -9 6 -9 10 1 16 14 8 27 -7 16 -18z m-2787 2
c-7 -9 -15 -13 -19 -10 -3 3 1 10 9 15 21 14 24 12 10 -5z m1363 8 c-7 -2 -19
-2 -25 0 -7 3 -2 5 12 5 14 0 19 -2 13 -5z m775 0 c-10 -2 -28 -2 -40 0 -13 2
-5 4 17 4 22 1 32 -1 23 -4z m510 0 c-53 -2 -143 -2 -200 0 -57 1 -13 3 97 3
110 0 156 -2 103 -3z m702 -6 c0 -8 -251 2 -260 10 -3 3 55 3 127 1 73 -1 133
-7 133 -11z m68 -4 c-10 -2 -28 -2 -40 0 -13 2 -5 4 17 4 22 1 32 -1 23 -4z
m-2388 -43 c62 -32 137 -111 168 -178 27 -60 41 -185 28 -256 -13 -71 -116
-177 -211 -220 -36 -16 -32 -9 51 71 51 48 100 104 110 123 27 51 26 170 -3
230 -25 52 -88 124 -102 116 -5 -3 -15 2 -22 12 -13 15 -12 16 4 3 25 -19 21
-8 -5 15 -12 10 -18 13 -14 7 4 -7 5 -13 1 -13 -8 0 -89 54 -93 61 -14 30
-214 -48 -286 -111 -46 -41 -64 -76 -117 -226 -35 -102 -42 -135 -46 -226 -6
-120 3 -210 18 -187 8 11 9 10 7 -6 -1 -11 0 -24 3 -30 3 -5 12 -36 19 -67 7
-32 17 -58 22 -58 5 0 6 -4 3 -10 -3 -5 2 -27 12 -47 17 -38 121 -183 130
-183 3 0 0 7 -7 15 -7 9 -11 18 -8 20 2 2 22 -26 43 -63 59 -101 113 -175 138
-189 30 -17 82 -16 116 1 40 21 110 101 134 154 34 75 30 170 -11 249 -42 82
-41 116 5 187 21 31 43 56 50 56 19 0 17 -6 -21 -69 -53 -87 -53 -93 -9 -179
21 -43 42 -80 46 -83 5 -3 6 -26 4 -50 -16 -132 -83 -246 -170 -288 -84 -41
-160 -21 -225 58 -79 96 -221 327 -262 426 -74 181 -83 268 -50 471 24 151 61
268 100 322 64 88 246 176 351 168 30 -2 75 -14 99 -26z m1070 6 c0 -2 -13 -6
-29 -8 -17 -2 -28 -1 -25 4 5 8 54 12 54 4z m-2167 -13 c-7 -2 -19 -2 -25 0
-7 3 -2 5 12 5 14 0 19 -2 13 -5z m-233 -82 c0 -27 2 -64 5 -82 l5 -34 -14 30
c-17 34 -21 135 -6 135 6 0 10 -22 10 -49z m1754 -67 c3 -9 6 -65 6 -125 l0
-109 -75 0 -75 0 0 125 0 125 69 0 c54 0 70 -4 75 -16z m1351 -45 c-32 -44
-35 -47 -35 -20 0 24 52 89 58 72 2 -7 -8 -30 -23 -52z m395 51 c13 -8 12 -10
-2 -10 -13 0 -18 -9 -19 -32 0 -26 -2 -29 -8 -14 -8 21 -3 66 8 66 3 0 13 -5
21 -10z m347 4 c-3 -3 -12 -4 -19 -1 -8 3 -5 6 6 6 11 1 17 -2 13 -5z m-2793
-66 c-59 -62 -125 -160 -139 -207 -5 -15 -10 -20 -17 -13 -14 14 28 104 81
170 36 45 113 112 129 112 3 0 -22 -28 -54 -62z m-926 6 c-4 -3 -12 5 -18 18
-12 22 -12 22 6 6 10 -10 15 -20 12 -24z m3177 26 c-3 -5 -15 -10 -25 -10 -10
0 -22 -5 -25 -11 -9 -13 -56 -31 -63 -24 -13 12 54 54 86 55 20 0 31 -4 27
-10z m530 -18 c-6 -7 -34 11 -29 19 3 5 11 3 19 -4 7 -6 12 -13 10 -15z
m-3415 3 c0 -2 -13 -11 -30 -20 -38 -19 -40 -11 -2 9 31 17 32 18 32 11z
m3399 -121 c-1 -58 2 -108 6 -112 7 -7 9 -8 43 -12 10 -1 12 -3 5 -7 -7 -2
-13 -11 -13 -19 0 -9 -11 -14 -30 -14 l-30 0 0 141 c0 92 3 138 10 134 6 -4
10 -50 9 -111z m-1021 46 l-4 -40 38 0 c59 0 52 -15 -8 -17 l-54 -1 0 49 c0
38 3 49 16 49 13 0 15 -8 12 -40z m1357 30 c3 -5 -1 -10 -10 -10 -9 0 -13 5
-10 10 3 6 8 10 10 10 2 0 7 -4 10 -10z m169 -5 c-4 -8 -8 -15 -10 -15 -2 0
-4 7 -4 15 0 8 4 15 10 15 5 0 7 -7 4 -15z m-28 -30 c-3 -8 -10 -15 -16 -15
-14 0 -12 37 3 43 15 5 21 -8 13 -28z m-1300 -52 c-3 -3 -18 -2 -33 2 -21 6
-23 9 -10 12 10 3 17 14 17 28 0 39 25 36 28 -3 2 -19 1 -36 -2 -39z m104 53
c0 -7 -7 -19 -15 -26 -16 -13 -20 -3 -9 24 8 20 24 21 24 2z m1080 -7 c0 -5
-9 -9 -20 -9 -19 0 -26 11 -14 23 8 8 34 -3 34 -14z m-3770 7 c0 -2 -7 -7 -16
-10 -8 -3 -12 -2 -9 4 6 10 25 14 25 6z m328 -39 c-58 -35 -77 -67 -88 -147
-10 -74 -7 -107 5 -52 3 17 16 38 27 48 21 19 21 19 14 -6 -4 -14 -9 -86 -13
-160 -11 -244 28 -472 95 -561 15 -20 70 -92 122 -159 115 -147 200 -267 200
-280 0 -6 -3 -10 -8 -10 -4 0 -13 -15 -21 -32 -33 -80 -62 -140 -67 -135 -5 4
2 26 47 140 l22 58 -54 55 c-48 49 -68 62 -103 68 -6 1 -28 8 -49 15 -49 17
-61 6 -62 -53 0 -40 -14 -57 -15 -18 -1 13 -8 9 -28 -14 -29 -33 -62 -54 -84
-54 -7 1 1 9 18 18 49 26 84 75 84 115 0 30 -4 36 -32 47 -18 6 -40 15 -48 19
-28 14 -90 115 -109 176 -26 82 -45 281 -36 380 13 163 45 434 54 457 13 32
49 63 101 87 60 26 73 26 28 -2z m-484 -3 c9 -22 8 -24 -9 -24 -8 0 -15 9 -15
20 0 24 15 27 24 4z m181 -59 c-26 -30 -51 -53 -55 -50 -18 11 -17 45 2 62 30
27 93 60 96 51 2 -4 -17 -33 -43 -63z m3472 69 c-3 -3 -12 -4 -19 -1 -8 3 -5
6 6 6 11 1 17 -2 13 -5z m-1106 -58 c1 -6 1 -18 0 -27 -1 -9 8 -20 21 -23 23
-7 23 -7 -5 -18 -16 -6 -26 -16 -25 -25 2 -9 -3 -18 -9 -20 -10 -3 -13 13 -13
60 0 50 3 64 15 64 8 0 16 -5 16 -11z m319 -9 c0 -7 -4 -6 -10 3 -8 13 -10 12
-10 -2 0 -10 -7 -18 -17 -18 -14 0 -14 2 2 20 18 20 35 18 35 -3z m-970 -7 c0
-5 -9 -10 -20 -10 -11 0 -20 5 -20 10 0 6 9 10 20 10 11 0 20 -4 20 -10z m970
-55 c0 -32 -4 -45 -14 -45 -17 0 -19 57 -3 78 15 19 17 15 17 -33z m-2076 23
c-5 -7 -18 -28 -31 -47 -21 -31 -23 -45 -23 -155 -1 -97 -3 -117 -12 -101 -7
11 -14 56 -16 101 -5 86 4 113 56 182 24 31 41 44 26 20z m2501 -23 c0 -5 -10
-11 -22 -13 -16 -2 -23 2 -23 13 0 11 7 15 23 13 12 -2 22 -7 22 -13z m-3037
-23 c-29 -34 -136 -132 -145 -132 -7 0 13 23 62 74 17 17 33 30 36 29 3 -1 19
11 34 27 36 38 44 39 13 2z m1650 15 c6 3 12 0 12 -6 0 -10 -13 -15 -35 -12
-5 1 -2 -5 8 -12 23 -19 21 -27 -6 -27 -13 0 -32 9 -42 20 -10 11 -13 20 -7
20 6 0 9 7 6 15 -5 11 0 13 23 6 15 -4 34 -6 41 -4z m1542 3 c0 -5 -4 -10 -10
-10 -5 0 -10 5 -10 10 0 6 5 10 10 10 6 0 10 -4 10 -10z m280 -6 c0 -2 -17 -4
-37 -3 -29 0 -33 2 -18 8 18 7 55 4 55 -5z m-3086 -10 c3 -8 2 -12 -4 -9 -6 3
-10 10 -10 16 0 14 7 11 14 -7z m816 -4 c0 -5 -18 -10 -40 -10 -22 0 -40 5
-40 10 0 6 18 10 40 10 22 0 40 -4 40 -10z m2307 -22 c-3 -8 -6 -5 -6 6 -1 11
2 17 5 13 3 -3 4 -12 1 -19z m-1913 -24 c9 -23 7 -44 -3 -44 -5 0 -11 8 -15
18 -3 9 -9 23 -12 30 -3 6 1 12 9 12 8 0 18 -7 21 -16z m1760 1 c4 -12 -3 -15
-32 -14 -23 1 -29 3 -14 6 12 2 22 9 22 14 0 15 17 10 24 -6z m-1934 -25 c0
-18 -19 -11 -30 11 -11 19 -10 20 9 9 12 -6 21 -15 21 -20z m-280 -5 c0 -18
-5 -25 -20 -25 -21 0 -24 8 -14 34 10 25 34 19 34 -9z m-783 -32 c-3 -10 -5
-2 -5 17 0 19 2 27 5 18 2 -10 2 -26 0 -35z m883 32 c0 -8 -4 -15 -9 -15 -13
0 -22 16 -14 24 11 11 23 6 23 -9z m2074 -10 c-4 -8 -7 -15 -9 -15 -2 0 -5 7
-9 15 -3 9 0 15 9 15 9 0 12 -6 9 -15z m36 11 c0 -3 -4 -8 -10 -11 -5 -3 -10
-1 -10 4 0 6 5 11 10 11 6 0 10 -2 10 -4z m-450 -36 c-8 -5 -31 -9 -50 -9 -32
1 -33 2 -10 9 14 4 36 8 50 9 20 1 22 -1 10 -9z m-3220 -3 c0 -11 -91 -92
-104 -93 -23 -2 -4 20 54 62 46 34 50 37 50 31z m1460 -12 c0 -8 7 -11 20 -8
11 3 20 10 20 15 0 6 7 5 16 -3 11 -9 17 -10 22 -2 5 7 12 2 19 -13 l11 -24
-74 0 c-70 0 -74 1 -74 23 0 16 6 23 20 24 11 1 20 -4 20 -12z m-748 -190 c21
-79 31 -145 19 -125 -5 8 -20 65 -35 125 -18 79 -24 121 -18 150 7 39 7 38 13
-25 3 -36 12 -92 21 -125z m2908 169 c0 -10 -7 -14 -22 -12 -32 5 -35 28 -4
28 17 0 26 -5 26 -16z m-3286 -53 c-9 -29 -18 -50 -21 -47 -3 2 3 28 12 56 22
67 29 60 9 -9z m2856 51 c0 -10 -47 -22 -86 -22 -25 0 -33 15 -12 22 26 9 98
8 98 0z m-1236 -61 c25 -26 25 -29 9 -35 -9 -4 -14 -4 -10 0 10 11 -12 34 -28
28 -10 -4 -12 0 -8 15 3 12 6 21 7 21 1 0 15 -13 30 -29z m-259 -29 c5 -27
-29 -26 -53 2 -16 19 -16 20 0 7 21 -16 39 -6 31 17 -4 13 -3 14 6 6 6 -6 13
-20 16 -32z m1515 -2 c0 -25 -4 -30 -25 -30 -21 0 -25 5 -25 30 0 25 4 30 25
30 21 0 25 -5 25 -30z m60 3 c0 -23 -5 -28 -25 -29 -21 -2 -25 2 -25 27 0 24
4 29 25 29 21 0 25 -5 25 -27z m60 -1 c0 -21 -5 -28 -20 -29 -16 -1 -20 4 -20
28 0 22 5 29 20 29 15 0 20 -7 20 -28z m56 1 c-4 -40 -32 -42 -38 -4 -4 27 -1
31 18 31 19 0 22 -5 20 -27z m74 17 c0 -5 -8 -10 -17 -11 -11 0 -13 -3 -5 -6
17 -7 15 -23 -3 -23 -9 0 -15 9 -15 25 0 18 5 25 20 25 11 0 20 -4 20 -10z
m60 0 c0 -5 -10 -11 -22 -11 -17 -1 -19 -2 -5 -6 23 -6 22 -23 -3 -23 -15 0
-20 7 -20 25 0 20 5 25 25 25 14 0 25 -4 25 -10z m58 -20 c1 -25 -3 -30 -24
-30 -20 0 -24 5 -24 30 0 25 4 30 23 30 20 0 24 -5 25 -30z m-1679 6 c9 -11 9
-16 -1 -22 -7 -4 -10 -4 -6 1 4 4 3 14 -3 22 -6 7 -9 13 -6 13 2 0 10 -6 16
-14z m1009 -4 c6 -15 18 -19 62 -19 95 -1 107 -2 90 -13 -9 -5 -52 -9 -95 -10
-118 -2 -115 -3 -115 24 0 36 45 50 58 18z m-1361 2 c-3 -3 -12 -4 -19 -1 -8
3 -5 6 6 6 11 1 17 -2 13 -5z m338 -44 c3 -5 1 -10 -4 -10 -6 0 -11 5 -11 10
0 6 2 10 4 10 3 0 8 -4 11 -10z m1772 -52 c-3 -8 -6 -5 -6 6 -1 11 2 17 5 13
3 -3 4 -12 1 -19z m-3457 -3 c0 -17 -106 -260 -158 -362 -14 -28 -14 -35 -1
-59 12 -23 14 -24 17 -8 12 80 28 88 24 12 -4 -58 -10 -46 110 -215 70 -98
105 -131 53 -49 -40 63 -89 166 -82 173 3 2 30 -45 60 -104 74 -144 102 -173
194 -198 43 -12 45 -13 17 -14 -18 -1 -58 13 -89 29 -66 34 -69 35 -61 15 12
-32 -5 -11 -64 81 -34 53 -80 120 -102 148 l-41 51 5 -67 c2 -37 0 -69 -5 -71
-6 -2 -3 -27 7 -58 13 -46 36 -79 126 -185 120 -141 193 -206 255 -228 22 -8
33 -15 24 -15 -9 -1 -43 13 -76 29 -47 23 -83 55 -155 133 -189 205 -200 224
-203 327 -2 50 -10 80 -34 130 -31 64 -38 95 -23 102 12 5 51 135 71 234 17
81 38 139 62 170 7 8 69 8 69 -1z m-335 -24 c-8 -17 -20 -33 -26 -37 -11 -7 5
29 24 54 17 21 18 13 2 -17z m2695 -36 l0 -55 -75 0 -75 0 0 55 0 55 75 0 75
0 0 -55z m-1030 31 c0 -8 -6 -16 -12 -19 -8 -3 -6 -7 7 -12 39 -13 50 -23 47
-40 -2 -10 2 -22 10 -26 11 -7 11 -12 -1 -31 l-13 -23 23 23 c21 19 22 24 9
32 -13 9 -13 11 0 20 11 7 16 5 18 -6 3 -13 6 -13 19 -2 9 7 19 13 22 13 3 0
5 9 3 20 -1 15 0 17 7 6 7 -11 10 -9 13 9 4 29 33 35 35 8 2 -20 1 -20 -13 -2
-15 18 -15 18 -11 -3 3 -13 1 -23 -4 -23 -4 0 -5 -7 -2 -17 4 -11 3 -14 -6 -9
-9 6 -10 1 -5 -18 5 -21 3 -25 -9 -20 -8 3 -21 -3 -28 -14 -8 -10 -26 -27 -41
-36 -25 -16 -28 -24 -28 -71 0 -51 1 -54 28 -58 15 -2 -1 -5 -34 -6 -66 -1
-66 -1 -80 67 -4 23 -14 27 -34 14 -27 -17 -30 -16 -30 14 0 18 4 25 14 21 7
-3 19 0 25 6 9 9 14 8 21 -3 8 -13 10 -13 10 2 0 33 -20 70 -35 65 -9 -4 -12
-1 -8 8 3 10 13 13 29 9 23 -6 24 -4 24 39 0 25 3 52 6 61 8 20 24 21 24 2z
m1260 -6 c6 -11 9 -20 7 -20 -2 0 -12 9 -22 20 -10 11 -13 20 -7 20 6 0 16 -9
22 -20z m-1048 -12 c-7 -7 -12 -8 -12 -2 0 14 12 26 19 19 2 -3 -1 -11 -7 -17z
m2121 3 c75 -29 144 -145 148 -251 l3 -64 -35 -9 c-19 -5 -45 -19 -60 -33 -32
-31 -39 -30 -39 2 0 16 -13 39 -34 60 -19 19 -30 37 -25 40 18 11 9 104 -17
169 -21 53 -24 68 -14 80 14 17 38 19 73 6z m-1858 -31 c-3 -5 -15 -10 -26
-10 -11 0 -17 5 -14 10 3 6 15 10 26 10 11 0 17 -4 14 -10z m-175 -10 c0 -5
-2 -10 -4 -10 -3 0 -8 5 -11 10 -3 6 -1 10 4 10 6 0 11 -4 11 -10z m1827 -42
c-2 -13 -4 -5 -4 17 -1 22 1 32 4 23 2 -10 2 -28 0 -40z m-1862 32 c3 -5 1
-10 -4 -10 -6 0 -11 5 -11 10 0 6 2 10 4 10 3 0 8 -4 11 -10z m1772 -22 c-3
-7 -5 -2 -5 12 0 14 2 19 5 13 2 -7 2 -19 0 -25z m-2579 -2 c51 -26 82 -84 63
-115 -20 -32 -71 32 -71 89 0 11 -5 19 -11 18 -6 -2 -14 3 -16 10 -6 16 2 15
35 -2z m-788 -36 c-6 -11 -13 -20 -16 -20 -2 0 0 9 6 20 6 11 13 20 16 20 2 0
0 -9 -6 -20z m1703 13 c-7 -2 -19 -2 -25 0 -7 3 -2 5 12 5 14 0 19 -2 13 -5z
m340 -44 c-8 -8 -16 -8 -30 0 -16 9 -14 10 12 11 21 0 26 -3 18 -11z m-333
-19 c0 -5 -10 -10 -22 -9 -22 0 -22 1 -3 9 11 5 21 9 23 9 1 1 2 -3 2 -9z
m-215 -18 c-12 -9 -27 -25 -35 -35 -13 -17 -10 -18 71 -11 72 5 88 4 101 -10
11 -10 19 -12 23 -6 7 12 25 4 25 -11 0 -12 -38 -10 -80 5 -21 7 -49 9 -70 5
-109 -22 -108 -22 -103 6 7 32 47 75 70 75 16 0 16 -2 -2 -18z m1229 3 c3 -8
1 -15 -4 -15 -6 0 -10 7 -10 15 0 8 2 15 4 15 2 0 6 -7 10 -15z m-2774 -25
c-6 -11 -13 -20 -16 -20 -2 0 0 9 6 20 6 11 13 20 16 20 2 0 0 -9 -6 -20z
m2220 2 c0 -13 -2 -14 -9 -3 -5 7 -14 10 -20 7 -6 -4 -18 -3 -27 2 -12 6 -6 9
20 10 28 1 36 -2 36 -16z m-280 -18 c0 -14 -3 -14 -15 -4 -8 7 -15 14 -15 16
0 2 7 4 15 4 8 0 15 -7 15 -16z m-950 -110 c0 -52 -1 -54 -27 -55 -54 -2 -88
3 -95 15 -5 6 -8 1 -8 -14 0 -23 -1 -23 -17 -8 -9 10 -17 34 -17 59 -1 42 0
43 38 52 35 9 38 12 32 38 l-5 28 49 -31 c50 -31 50 -31 50 -84z m1610 81 c0
-8 -4 -15 -8 -15 -13 0 -32 23 -32 37 0 11 5 11 20 3 11 -6 20 -17 20 -25z
m-436 3 c65 3 66 3 64 -22 -2 -27 -7 -30 -46 -26 -12 1 -25 -6 -28 -15 -9 -23
3 -30 23 -14 11 9 14 10 9 2 -5 -9 -1 -13 13 -13 11 0 22 8 24 18 3 9 5 0 6
-20 1 -28 -3 -38 -15 -38 -8 0 -13 -4 -9 -9 3 -5 1 -12 -5 -16 -5 -3 -10 1
-10 9 0 9 -8 16 -17 15 -11 0 -13 -3 -5 -6 19 -7 14 -23 -8 -23 -16 0 -19 8
-22 63 l-3 62 -37 3 c-40 3 -47 14 -25 36 8 10 14 11 19 3 4 -7 32 -10 72 -9z
m-2501 -12 c-10 -13 -20 -22 -22 -20 -4 4 29 44 36 44 2 0 -4 -11 -14 -24z
m2287 4 c0 -5 -13 -10 -30 -10 -20 0 -30 -5 -30 -15 0 -11 -11 -15 -39 -15
-31 0 -38 4 -37 18 0 9 12 20 26 23 41 11 110 10 110 -1z m952 -15 c-5 -28 -6
-29 -33 -15 -29 16 -24 40 10 40 25 0 28 -3 23 -25z m-416 5 c23 0 24 -2 24
-80 l0 -80 -41 0 -40 0 2 55 c1 30 5 53 8 51 10 -6 51 13 51 24 0 5 -13 10
-30 10 -21 0 -30 5 -30 16 0 11 5 14 16 10 9 -3 27 -6 40 -6z m317 3 c-7 -2
-19 -2 -25 0 -7 3 -2 5 12 5 14 0 19 -2 13 -5z m-1030 -17 c4 -10 1 -13 -9 -9
-15 6 -19 23 -5 23 5 0 11 -7 14 -14z m1724 -8 c-3 -8 -6 -5 -6 6 -1 11 2 17
5 13 3 -3 4 -12 1 -19z m20 0 c-3 -8 -6 -5 -6 6 -1 11 2 17 5 13 3 -3 4 -12 1
-19z m141 -15 c41 -33 71 -78 59 -89 -4 -4 -20 4 -35 18 -41 39 -94 68 -124
68 -22 0 -28 5 -28 21 0 20 4 21 46 16 30 -3 58 -15 82 -34z m-3707 4 c-10 -9
-11 -8 -5 6 3 10 9 15 12 12 3 -3 0 -11 -7 -18z m1366 -13 c-3 -3 -12 -4 -19
-1 -8 3 -5 6 6 6 11 1 17 -2 13 -5z m93 -3 c0 -5 -11 -8 -25 -7 -38 4 -43 16
-7 16 18 0 32 -4 32 -9z m1010 -11 c0 -5 -4 -10 -10 -10 -5 0 -10 5 -10 10 0
6 5 10 10 10 6 0 10 -4 10 -10z m340 -15 c0 -12 -15 -15 -75 -15 -60 0 -75 3
-75 15 0 12 15 15 75 15 60 0 75 -3 75 -15z m-2200 -85 c0 -5 -16 0 -35 11
-50 30 -53 41 -5 18 22 -11 40 -24 40 -29z m2190 35 c0 -8 -4 -15 -9 -15 -5 0
-11 7 -15 15 -3 9 0 15 9 15 8 0 15 -7 15 -15z m725 -4 c3 -5 1 -12 -5 -16
-13 -8 -50 3 -50 16 0 12 47 12 55 0z m125 -21 c11 -11 20 -29 20 -40 0 -58
-59 -130 -106 -130 -30 0 -40 17 -15 25 11 3 32 20 47 38 22 27 25 38 22 79
-5 52 2 58 32 28z m-80 -64 c0 -51 -31 -72 -50 -35 -9 15 -8 24 1 35 6 8 8 14
5 14 -4 0 -2 9 4 21 16 28 40 7 40 -35z m-2923 38 c-3 -3 -12 -4 -19 -1 -8 3
-5 6 6 6 11 1 17 -2 13 -5z m1483 -30 c0 -8 -4 -12 -10 -9 -5 3 -10 10 -10 16
0 5 5 9 10 9 6 0 10 -7 10 -16z m1231 -11 c13 -16 12 -17 -3 -4 -10 7 -18 15
-18 17 0 8 8 3 21 -13z m-3454 -15 c-3 -8 -6 -5 -6 6 -1 11 2 17 5 13 3 -3 4
-12 1 -19z m2188 -35 c-15 -10 -20 -10 -27 -1 -4 8 -1 15 10 19 26 10 37 -2
17 -18z m1762 21 c-3 -3 -12 -4 -19 -1 -8 3 -5 6 6 6 11 1 17 -2 13 -5z
m-3907 -88 c0 -23 -28 22 -35 54 l-7 35 21 -40 c12 -21 21 -44 21 -49z m1568
72 c-6 -18 -28 -21 -28 -4 0 9 7 16 16 16 9 0 14 -5 12 -12z m622 2 c0 -5 -2
-10 -4 -10 -3 0 -8 5 -11 10 -3 6 -1 10 4 10 6 0 11 -4 11 -10z m50 1 c0 -10
-26 -9 -36 2 -4 4 2 7 14 7 12 0 22 -4 22 -9z m-533 -7 c-3 -3 -12 -4 -19 -1
-8 3 -5 6 6 6 11 1 17 -2 13 -5z m318 -4 c3 -5 1 -10 -4 -10 -6 0 -11 5 -11
10 0 6 2 10 4 10 3 0 8 -4 11 -10z m755 -70 c0 -38 -2 -40 -30 -40 -28 0 -30
2 -30 40 0 38 2 40 30 40 28 0 30 -2 30 -40z m158 -7 l-3 -38 -57 -3 -58 -3 0
41 0 40 61 0 60 0 -3 -37z m-1320 9 c2 -7 -3 -12 -12 -12 -9 0 -16 7 -16 16 0
17 22 14 28 -4z m960 -17 c-10 -11 -48 -14 -53 -4 -4 5 8 9 26 9 18 0 30 -2
27 -5z m-2368 -168 c23 -17 23 -17 -9 0 -43 23 -118 89 -133 117 -6 11 18 -6
53 -39 35 -33 75 -68 89 -78z m747 113 c15 -17 30 -20 114 -20 l96 0 6 -42 c4
-28 2 -45 -6 -50 -17 -12 -52 -5 -50 9 2 7 -6 17 -17 23 -11 6 -20 18 -21 28
0 14 -2 14 -9 -3 -5 -11 -9 -14 -9 -7 -1 17 -27 15 -50 -5 -20 -17 -19 -33 2
-33 7 0 6 4 -3 10 -13 8 -13 10 2 10 9 0 19 6 22 13 3 6 3 2 1 -10 -3 -12 0
-25 6 -29 7 -4 9 -3 5 4 -8 13 10 26 24 17 19 -12 -2 -32 -33 -31 -22 1 -37 9
-49 26 -17 24 -18 21 -18 -117 l0 -143 40 0 40 0 0 -84 c0 -80 1 -85 23 -88
12 -2 35 0 50 5 15 5 41 7 57 5 l30 -5 0 84 0 83 41 0 c39 0 41 -2 37 -25 -7
-32 5 -32 31 1 14 18 28 25 47 22 26 -3 26 -3 28 -96 l1 -92 -42 0 c-42 0 -43
0 -43 -35 0 -34 1 -35 40 -35 l40 0 0 -60 c0 -59 -1 -60 -27 -60 -16 0 -45 3
-65 6 -31 6 -39 12 -48 40 -12 34 -12 34 -76 34 l-64 0 0 41 c0 32 -4 42 -20
46 -11 3 -20 10 -21 17 0 6 -4 2 -9 -9 l-9 -20 0 20 c-1 16 -3 17 -10 5 -6 -8
-7 -19 -3 -25 3 -5 -1 -4 -10 2 -8 7 -18 10 -21 6 -12 -11 -45 81 -72 202 -30
134 -48 384 -26 371 6 -4 11 -2 11 3 0 17 19 13 37 -9z m503 -4 c0 -3 -4 -8
-10 -11 -5 -3 -10 -1 -10 4 0 6 5 11 10 11 6 0 10 -2 10 -4z m1122 -12 c-13
-9 -27 -26 -32 -38 -7 -17 -9 -15 -9 17 -1 35 1 37 31 37 l32 0 -22 -16z
m1288 12 c0 -11 -19 -15 -25 -6 -3 5 1 10 9 10 9 0 16 -2 16 -4z m30 -6 c0 -5
-4 -10 -10 -10 -5 0 -10 5 -10 10 0 6 5 10 10 10 6 0 10 -4 10 -10z m-2618
-100 c3 -63 4 -65 33 -71 l30 -6 -33 -8 c-28 -6 -33 -12 -31 -34 4 -55 -1 -81
-16 -81 -8 0 -15 5 -15 10 0 6 6 10 13 10 8 0 9 3 1 8 -15 10 -24 72 -10 72 6
0 2 6 -9 12 -11 6 -22 12 -24 14 -1 1 6 13 18 25 12 13 22 37 23 53 0 17 2 36
3 41 2 6 4 19 5 30 4 32 9 -2 12 -75z m166 72 c13 11 14 11 10 -2 -6 -18 -30
-20 -34 -2 -1 7 0 8 3 2 3 -7 10 -7 21 2z m42 -6 c0 -3 -4 -8 -10 -11 -5 -3
-10 -1 -10 4 0 6 5 11 10 11 6 0 10 -2 10 -4z m-1143 -130 c18 -9 41 -16 52
-16 11 0 23 -5 26 -10 12 -20 -100 12 -152 42 -35 21 -46 36 -14 18 34 -18 36
-11 5 23 -26 29 -25 29 11 -4 22 -20 54 -44 72 -53z m3666 77 c-7 -2 -21 -2
-30 0 -10 3 -4 5 12 5 17 0 24 -2 18 -5z m-2640 -10 c-7 -2 -19 -2 -25 0 -7 3
-2 5 12 5 14 0 19 -2 13 -5z m-803 -48 c0 -2 -10 -10 -22 -16 -21 -11 -22 -11
-9 4 13 16 31 23 31 12z m1705 -5 c4 -6 -9 -10 -33 -10 -47 0 -50 -2 -44 -41
4 -27 7 -30 31 -24 14 4 29 11 32 17 6 9 19 -13 19 -33 0 -5 -22 -9 -50 -9
l-50 0 0 55 0 55 44 0 c25 0 48 -4 51 -10z m83 3 c-10 -2 -26 -2 -35 0 -10 3
-2 5 17 5 19 0 27 -2 18 -5z m1692 -28 c0 -26 -6 -39 -26 -52 -25 -16 -27 -16
-39 0 -7 9 -20 17 -29 17 -12 0 -16 9 -16 35 l0 35 55 0 55 0 0 -35z m-3037 8
c-7 -2 -19 -2 -25 0 -7 3 -2 5 12 5 14 0 19 -2 13 -5z m1355 -30 c-3 -35 -6
-38 -35 -41 -32 -3 -33 -2 -33 37 0 40 1 41 36 41 35 0 35 -1 32 -37z m204 8
c-2 -16 1 -32 7 -35 7 -5 11 5 11 28 0 39 19 51 21 14 1 -13 3 -33 4 -45 2
-20 -2 -23 -31 -23 -22 0 -34 5 -34 14 0 7 -3 28 -6 45 -6 26 -4 31 13 31 16
0 19 -5 15 -29z m1348 9 c0 -5 -4 -10 -10 -10 -5 0 -10 5 -10 10 0 6 5 10 10
10 6 0 10 -4 10 -10z m-3433 -6 c-3 -3 -12 -4 -19 -1 -8 3 -5 6 6 6 11 1 17
-2 13 -5z m1333 -24 c0 -5 -4 -10 -10 -10 -5 0 -10 5 -10 10 0 6 5 10 10 10 6
0 10 -4 10 -10z m1304 -10 c16 -15 -3 -42 -26 -38 -17 2 -24 11 -26 31 -3 26
-1 28 20 22 13 -4 27 -11 32 -15z m-1361 -21 c7 -1 16 -1 20 0 5 1 6 -3 3 -8
-3 -5 -14 -8 -24 -6 -9 2 -28 4 -42 5 -16 1 -20 4 -10 7 8 3 19 13 25 22 8 14
10 14 13 -1 2 -10 9 -19 15 -19z m-73 -3 c0 -3 -4 -8 -10 -11 -5 -3 -10 -1
-10 4 0 6 5 11 10 11 6 0 10 -2 10 -4z m170 -6 c0 -4 -7 -7 -15 -6 -23 3 -26
12 -5 13 11 1 20 -2 20 -7z m40 0 c0 -5 -2 -10 -4 -10 -3 0 -8 5 -11 10 -3 6
-1 10 4 10 6 0 11 -4 11 -10z m2050 -63 c11 -5 9 -6 -4 -4 -11 1 -21 9 -23 17
-3 10 -2 11 4 4 4 -6 15 -14 23 -17z m-2430 -7 c0 -5 -4 -10 -10 -10 -5 0 -10
5 -10 10 0 6 5 10 10 10 6 0 10 -4 10 -10z m2487 4 c-3 -3 -12 -4 -19 -1 -8 3
-5 6 6 6 11 1 17 -2 13 -5z m-3420 -46 c-3 -8 -6 -5 -6 6 -1 11 2 17 5 13 3
-3 4 -12 1 -19z m180 8 c-4 -10 4 -13 31 -12 l37 1 3 -48 c3 -41 1 -48 -14
-45 -9 1 -22 12 -28 23 -6 11 -18 31 -27 45 -15 22 -16 50 -2 50 3 0 3 -6 0
-14z m313 -1 c0 -8 -4 -15 -10 -15 -5 0 -10 7 -10 15 0 8 5 15 10 15 6 0 10
-7 10 -15z m1200 5 c0 -5 -4 -10 -10 -10 -5 0 -10 5 -10 10 0 6 5 10 10 10 6
0 10 -4 10 -10z m-360 -45 c0 -8 9 -15 20 -15 11 0 20 -6 21 -12 0 -10 2 -10
6 0 2 6 13 12 23 12 13 0 17 -5 13 -19 -4 -15 -16 -20 -59 -23 -81 -5 -98 2
-102 40 -3 31 -2 32 37 32 30 0 41 -4 41 -15z m80 11 c0 -11 -19 -15 -25 -6
-3 5 1 10 9 10 9 0 16 -2 16 -4z m240 -10 c0 -11 -19 -15 -25 -6 -3 5 1 10 9
10 9 0 16 -2 16 -4z m650 -43 c0 -7 -4 -13 -10 -13 -5 0 -10 12 -10 28 0 21 2
24 10 12 5 -8 10 -21 10 -27z m1230 -18 c0 -8 -2 -15 -4 -15 -2 0 -6 7 -10 15
-3 8 -1 15 4 15 6 0 10 -7 10 -15z m-1660 -10 c0 -9 -6 -12 -16 -8 -13 5 -13
7 -2 14 17 11 18 11 18 -6z m1367 -5 c2 -22 -2 -23 -32 -10 -19 8 -19 8 5 18
14 6 25 11 25 11 1 1 1 -8 2 -19z m-1811 -27 c-1 -14 -8 -29 -16 -31 -13 -5
-13 -3 -1 12 8 9 11 20 7 23 -11 12 -100 12 -113 1 -9 -7 -13 -7 -13 1 0 6 -4
11 -10 11 -5 0 -10 -7 -10 -15 0 -8 6 -15 13 -15 8 0 7 -4 -3 -10 -24 -16 -30
-12 -30 20 l0 30 89 0 88 0 -1 -27z m429 7 c18 -8 17 -9 -7 -9 -15 -1 -30 -6
-34 -12 -4 -8 -9 -7 -15 2 -5 9 -2 16 9 21 22 8 23 8 47 -2z m-1925 -10 c0 -5
-7 -7 -15 -4 -8 4 -15 8 -15 10 0 2 7 4 15 4 8 0 15 -4 15 -10z m53 -15 c-6
-17 -25 -15 -31 3 -2 7 5 12 17 12 14 0 19 -5 14 -15z m3307 -30 c0 -8 -7 -15
-15 -15 -26 0 -18 20 13 29 1 1 2 -6 2 -14z m-1548 -25 c-5 -35 -22 -30 -22 6
0 13 6 24 13 24 9 0 12 -10 9 -30z m204 14 c-3 -9 -6 -20 -6 -26 0 -6 -7 -8
-15 -4 -8 3 -15 1 -15 -4 0 -6 -4 -10 -10 -10 -5 0 -9 3 -9 8 4 26 -5 32 -11
7 -8 -30 -8 -30 -9 8 -1 37 -1 37 40 37 33 0 40 -3 35 -16z m-2110 -11 c0 -10
-5 -21 -9 -24 -5 -3 -23 -35 -41 -70 -20 -39 -40 -65 -52 -68 -18 -3 -18 -2
-3 15 9 11 22 34 29 52 12 31 66 112 74 112 2 0 3 -8 2 -17z m3364 -12 c0 -6
-4 -12 -8 -15 -5 -3 -9 1 -9 9 0 8 4 15 9 15 4 0 8 -4 8 -9z m80 5 c0 -2 -15
-6 -34 -8 -19 -2 -32 0 -30 4 5 8 64 12 64 4z m-2827 -32 c-7 -3 -9 -13 -6
-22 4 -14 3 -14 -5 -2 -12 16 -7 30 11 29 9 0 9 -2 0 -5z m44 -19 c0 -8 -9
-15 -19 -15 -10 0 -18 5 -18 11 0 5 5 7 12 3 7 -5 9 -2 5 9 -4 10 -2 14 7 11
7 -3 13 -11 13 -19z m933 -21 l0 -46 -80 4 c-82 3 -89 1 -68 -20 9 -9 7 -12
-9 -12 -19 0 -21 6 -22 60 l-1 60 90 0 90 0 0 -46z m270 18 c0 -9 -4 -23 -9
-30 -10 -16 -89 -23 -98 -9 -3 6 -1 7 4 4 6 -4 13 6 16 23 5 24 12 29 39 32
41 4 48 1 48 -20z m-1790 3 c0 -8 -4 -15 -8 -15 -5 0 -9 7 -9 15 0 8 4 15 9
15 4 0 8 -7 8 -15z m11 -41 c-15 -29 -20 -34 -21 -18 0 28 23 75 33 65 5 -5
-1 -26 -12 -47z m1561 34 c2 -19 9 -23 41 -23 20 0 37 -3 37 -7 0 -5 -27 -8
-60 -8 l-60 0 0 30 c0 23 5 30 19 30 13 0 21 -8 23 -22z m958 -18 c0 -5 -4
-10 -10 -10 -5 0 -10 5 -10 10 0 6 5 10 10 10 6 0 10 -4 10 -10z m-1320 -67
c-16 -7 -40 -29 -40 -37 0 -3 24 -7 53 -8 l52 -2 -52 -3 c-29 -2 -53 -8 -53
-13 0 -5 -13 -5 -29 0 -16 4 -32 6 -34 3 -3 -2 -7 -1 -10 4 -3 5 6 13 19 20
13 6 22 7 18 2 -3 -5 2 -9 11 -9 11 0 15 5 12 14 -8 19 13 36 43 35 15 0 19
-3 10 -6z m53 0 c-7 -2 -19 -2 -25 0 -7 3 -2 5 12 5 14 0 19 -2 13 -5z m190 0
c-7 -2 -19 -2 -25 0 -7 3 -2 5 12 5 14 0 19 -2 13 -5z m297 -3 c0 -5 -7 -7
-15 -4 -8 4 -15 8 -15 10 0 2 7 4 15 4 8 0 15 -4 15 -10z m1621 -18 c101 -65
142 -159 76 -176 -48 -12 -75 8 -92 67 -10 35 -28 65 -50 87 -19 19 -35 38
-35 42 0 18 59 6 101 -20z m-2295 -21 c-7 -11 -56 -21 -56 -10 0 4 12 10 28
12 15 2 28 5 30 6 2 0 1 -3 -2 -8z m299 -1 c-3 -5 -13 -10 -21 -10 -8 0 -12 5
-9 10 3 6 13 10 21 10 8 0 12 -4 9 -10z m158 -1 c23 -1 34 -3 24 -6 -9 -2 -15
-9 -12 -14 8 -12 -1 -11 -53 4 -23 7 -39 16 -35 20 4 4 13 5 21 2 7 -3 32 -6
55 -6z m687 -34 c0 -43 -1 -45 -30 -45 -27 0 -30 3 -30 34 0 29 3 33 20 29 11
-3 20 -1 20 5 0 6 -10 13 -22 15 -17 3 -14 5 10 6 32 1 32 0 32 -44z m-104 19
c-3 -9 -6 -21 -6 -27 -1 -8 -5 -6 -13 3 -7 8 -27 16 -44 16 -26 2 -33 -2 -33
-17 0 -20 10 -22 68 -19 17 1 32 -3 32 -9 0 -7 -24 -11 -60 -11 l-60 0 0 40 0
40 61 0 c52 0 60 -2 55 -16z m-1113 -9 c-3 -9 -8 -14 -10 -11 -3 3 -2 9 2 15
9 16 15 13 8 -4z m-43 -91 c0 -23 -3 -24 -60 -24 -60 0 -71 8 -52 37 7 11 76
22 100 15 6 -2 12 -15 12 -28z m40 0 c0 -21 -4 -33 -10 -29 -5 3 -10 19 -10
36 0 16 5 29 10 29 6 0 10 -16 10 -36z m576 19 c19 -26 17 -33 -11 -33 -20 0
-25 5 -25 25 0 29 17 33 36 8z m147 10 c-13 -2 -33 -2 -45 0 -13 2 -3 4 22 4
25 0 35 -2 23 -4z m150 -10 c8 10 23 13 45 10 26 -4 32 -10 32 -30 0 -23 -3
-24 -37 -18 -21 3 -44 6 -50 7 -7 1 -12 13 -12 27 1 18 3 21 6 8 4 -16 6 -16
16 -4z m-730 -14 c-4 -13 -9 -17 -15 -11 -11 11 -3 32 12 32 4 0 6 -9 3 -21z
m267 1 c0 -11 -7 -20 -15 -20 -8 0 -15 9 -15 20 0 11 7 20 15 20 8 0 15 -9 15
-20z m-210 0 c0 -5 -4 -10 -10 -10 -5 0 -10 5 -10 10 0 6 5 10 10 10 6 0 10
-4 10 -10z m310 0 c0 -5 -7 -10 -16 -10 -8 0 -12 5 -9 10 3 6 10 10 16 10 5 0
9 -4 9 -10z m215 0 c7 -11 4 -12 -37 -15 -33 -2 -37 12 -5 18 12 2 25 5 29 6
4 0 10 -3 13 -9z m1865 -44 c0 -3 -4 -8 -10 -11 -5 -3 -10 -1 -10 4 0 6 5 11
10 11 6 0 10 -2 10 -4z m50 -16 c0 -5 -5 -10 -11 -10 -5 0 -7 5 -4 10 3 6 8
10 11 10 2 0 4 -4 4 -10z m-253 -16 c-3 -3 -12 -4 -19 -1 -8 3 -5 6 6 6 11 1
17 -2 13 -5z m-2017 -19 c0 -8 -4 -15 -10 -15 -5 0 -10 7 -10 15 0 8 5 15 10
15 6 0 10 -7 10 -15z m-210 -5 c0 -5 -4 -10 -10 -10 -5 0 -10 5 -10 10 0 6 5
10 10 10 6 0 10 -4 10 -10z m235 0 c3 -5 1 -10 -4 -10 -6 0 -11 5 -11 10 0 6
2 10 4 10 3 0 8 -4 11 -10z m15 -46 c0 -9 -11 -14 -29 -14 -35 0 -50 27 -18
32 30 5 47 -1 47 -18z m-302 -28 c5 -23 -14 -44 -28 -30 -12 12 -1 56 14 51 6
-2 13 -12 14 -21z m582 -21 c13 -14 21 -28 17 -31 -10 -10 -57 24 -57 41 0 22
13 18 40 -10z m-282 -17 c-3 -32 -8 -35 -47 -29 -5 0 -8 12 -8 25 0 23 5 27
50 35 5 0 7 -14 5 -31z m-1598 -38 c0 -28 -1 -28 -47 -25 -27 2 -64 4 -83 4
-26 1 -31 4 -20 11 13 8 12 10 -2 10 -10 0 -18 -4 -18 -10 0 -5 -7 -10 -15
-10 -9 0 -15 -9 -15 -22 0 -12 -3 -18 -7 -15 -3 4 -12 -1 -19 -11 -12 -15 -13
-9 -14 41 0 54 1 57 24 57 19 0 23 -4 19 -20 -3 -12 0 -20 6 -20 7 0 10 4 7 9
-11 16 63 18 80 1 13 -11 15 -11 9 -1 -6 11 -4 13 8 8 12 -4 17 -1 17 11 0 15
7 17 35 14 31 -4 35 -8 35 -32z m-353 -2 c-3 -8 -6 -5 -6 6 -1 11 2 17 5 13 3
-3 4 -12 1 -19z m560 -4 c-3 -3 -12 -4 -19 -1 -8 3 -5 6 6 6 11 1 17 -2 13 -5z
m158 -74 c-10 -17 -23 -11 -45 20 -31 44 -14 61 22 21 16 -18 26 -36 23 -41z
m1225 61 c0 -15 -20 -24 -21 -9 0 10 -2 10 -6 1 -7 -18 -23 -16 -23 2 0 9 9
15 25 15 14 0 25 -4 25 -9z m1280 -1 c0 -5 -9 -10 -21 -10 -11 0 -17 5 -14 10
3 6 13 10 21 10 8 0 14 -4 14 -10z m-2610 -16 c0 -2 -9 -4 -20 -4 -11 0 -20 4
-20 9 0 5 9 7 20 4 11 -3 20 -7 20 -9z m2570 -46 c0 -6 -7 -5 -15 2 -8 7 -15
17 -15 22 0 6 7 5 15 -2 8 -7 15 -17 15 -22z m-1525 2 c3 -6 -1 -7 -9 -4 -18
7 -21 14 -7 14 6 0 13 -4 16 -10z m-917 -29 c3 -8 -1 -12 -9 -9 -7 2 -15 10
-17 17 -3 8 1 12 9 9 7 -2 15 -10 17 -17z m1208 -28 c1 -41 -1 -43 -28 -43
-19 0 -28 5 -28 16 0 8 5 12 10 9 6 -3 10 3 10 14 0 12 -4 21 -10 21 -5 0 -10
7 -10 16 0 11 8 14 28 12 25 -3 27 -7 28 -45z m234 -29 c0 -9 -7 -14 -17 -12
-10 1 -24 -1 -31 -6 -16 -10 -42 -1 -42 15 0 7 10 9 25 7 14 -3 28 -1 31 3 9
15 34 10 34 -7z m-95 -52 c-3 -3 -11 0 -18 7 -9 10 -8 11 6 5 10 -3 15 -9 12
-12z m1064 -18 c3 -3 -6 -16 -21 -29 -21 -18 -27 -34 -30 -72 l-3 -48 -41 -3
c-39 -3 -40 -4 -36 -32 3 -22 0 -30 -11 -30 -8 0 -18 -6 -21 -12 -3 -7 -4 9
-2 37 3 36 10 53 25 64 14 9 21 24 21 44 0 16 9 45 20 63 19 30 25 32 57 28
20 -2 39 -7 42 -10z m45 -47 c-4 -7 -4 -9 1 -5 9 8 80 -41 121 -83 34 -35 43
-36 40 -4 -3 21 -1 23 15 14 11 -5 19 -12 19 -15 0 -3 -6 -2 -12 1 -7 4 -3 -2
8 -12 12 -10 24 -33 28 -52 7 -38 13 -40 -74 30 -25 20 -66 49 -93 64 -26 15
-45 31 -41 36 3 5 -2 6 -10 3 -12 -5 -16 1 -16 21 0 15 4 24 10 20 6 -4 7 -12
4 -18z m146 -81 c9 -15 3 -12 -19 8 -17 17 -31 31 -31 33 0 9 39 -23 50 -41z
m-2822 -13 c2 -7 -4 -13 -13 -13 -9 0 -14 4 -11 9 4 5 0 12 -6 15 -7 3 -4 5 6
3 11 -1 21 -8 24 -14z m86 -5 c-5 -8 -2 -9 10 -5 15 6 17 -1 14 -71 l-3 -77
-47 -3 -48 -3 3 33 c2 24 8 33 20 32 14 -2 15 1 7 11 -9 11 -6 12 11 8 16 -5
20 -3 14 6 -4 8 -17 10 -31 7 -22 -6 -24 -4 -24 34 l0 40 41 0 c28 0 38 -4 33
-12z m2153 6 c-3 -3 -12 -4 -19 -1 -8 3 -5 6 6 6 11 1 17 -2 13 -5z m-647 -14
c0 -5 -5 -10 -11 -10 -5 0 -7 5 -4 10 3 6 8 10 11 10 2 0 4 -4 4 -10z m235 0
c3 -5 -1 -10 -9 -10 -9 0 -16 5 -16 10 0 6 4 10 9 10 6 0 13 -4 16 -10z
m-2195 -30 c0 -13 -7 -20 -20 -20 -11 0 -20 -5 -20 -11 0 -6 6 -9 13 -6 7 2
17 -9 23 -26 5 -17 18 -31 28 -33 39 -6 26 -14 -22 -14 l-52 0 0 49 c0 62 7
81 31 81 12 0 19 -7 19 -20z m2190 -10 c0 -5 -4 -10 -10 -10 -5 0 -10 5 -10
10 0 6 5 10 10 10 6 0 10 -4 10 -10z m75 0 c3 -5 1 -10 -4 -10 -6 0 -11 5 -11
10 0 6 2 10 4 10 3 0 8 -4 11 -10z m-2449 -18 c-3 -5 5 -8 16 -8 14 1 27 -9
37 -29 9 -16 24 -36 34 -43 21 -16 22 -35 2 -52 -20 -16 -121 -1 -117 18 1 7
-3 11 -9 10 -7 -2 -14 11 -16 29 -3 24 1 35 19 47 19 14 21 18 8 26 -12 8 -10
10 8 10 13 0 21 -4 18 -8z m2994 -6 c0 -3 -4 -8 -10 -11 -5 -3 -10 -1 -10 4 0
6 5 11 10 11 6 0 10 -2 10 -4z m-610 -24 c0 -5 -7 -9 -15 -9 -8 0 -15 4 -15 9
0 4 7 8 15 8 8 0 15 -4 15 -8z m-1842 -40 c2 -7 -3 -12 -12 -12 -9 0 -16 7
-16 16 0 17 22 14 28 -4z m2452 8 c0 -5 -4 -10 -10 -10 -5 0 -10 5 -10 10 0 6
5 10 10 10 6 0 10 -4 10 -10z m-605 -10 c3 -5 -3 -10 -14 -10 -12 0 -21 5 -21
10 0 6 6 10 14 10 8 0 18 -4 21 -10z m65 0 c0 -5 -4 -10 -10 -10 -5 0 -10 5
-10 10 0 6 5 10 10 10 6 0 10 -4 10 -10z m50 0 c0 -5 -4 -10 -10 -10 -5 0 -10
5 -10 10 0 6 5 10 10 10 6 0 10 -4 10 -10z m280 -30 c0 -5 -4 -10 -10 -10 -5
0 -10 5 -10 10 0 6 5 10 10 10 6 0 10 -4 10 -10z m100 0 c0 -5 -2 -10 -4 -10
-3 0 -8 5 -11 10 -3 6 -1 10 4 10 6 0 11 -4 11 -10z m-2368 -48 c14 -20 64
-87 112 -147 103 -132 100 -128 104 -144 5 -23 -18 0 -37 37 -10 20 -37 57
-58 82 -76 87 -163 210 -150 210 3 0 16 -17 29 -38z m1878 28 c0 -5 -4 -10
-10 -10 -5 0 -10 5 -10 10 0 6 5 10 10 10 6 0 10 -4 10 -10z m105 0 c3 -5 1
-10 -4 -10 -6 0 -11 5 -11 10 0 6 2 10 4 10 3 0 8 -4 11 -10z m-2204 -56 c20
-22 26 -32 14 -26 -27 14 -67 62 -52 62 2 0 19 -16 38 -36z m10 -83 c-11 -15
-28 -34 -38 -42 -10 -8 -3 4 14 25 18 22 29 44 26 49 -3 6 -1 7 6 3 8 -5 6
-15 -8 -35z m2686 23 c-3 -3 -12 -4 -19 -1 -8 3 -5 6 6 6 11 1 17 -2 13 -5z
m-107 -44 c0 -5 -5 -10 -11 -10 -5 0 -7 5 -4 10 3 6 8 10 11 10 2 0 4 -4 4
-10z m110 0 c0 -5 -7 -10 -15 -10 -8 0 -15 5 -15 10 0 6 7 10 15 10 8 0 15 -4
15 -10z m-2862 -30 c18 -11 31 -24 28 -28 -2 -4 8 -7 23 -8 15 0 101 -42 191
-91 91 -50 239 -128 330 -173 182 -91 176 -88 167 -96 -3 -3 -34 7 -69 24 -35
17 -112 52 -173 77 -121 51 -305 143 -357 178 -18 13 -54 35 -80 50 -26 15
-53 36 -61 47 -8 11 -16 18 -18 16 -2 -2 -10 2 -17 10 -18 20 -2 17 36 -6z
m2812 -10 c0 -5 -5 -10 -11 -10 -5 0 -7 5 -4 10 3 6 8 10 11 10 2 0 4 -4 4
-10z m50 0 c0 -5 -4 -10 -10 -10 -5 0 -10 5 -10 10 0 6 5 10 10 10 6 0 10 -4
10 -10z m315 -57 c-9 -21 -22 -44 -29 -53 -7 -8 -16 -37 -19 -64 -5 -52 -74
-199 -88 -190 -5 3 -6 -1 -4 -8 9 -23 -54 -107 -99 -133 -50 -29 -64 -32 -40
-8 17 17 17 18 0 21 -12 3 -16 10 -13 23 3 11 -2 23 -11 30 -13 8 -13 9 -2 6
16 -5 16 0 9 280 0 39 2 76 5 82 8 12 197 8 217 -5 7 -4 17 -1 23 7 10 14 56
49 63 49 2 0 -4 -17 -12 -37z m-425 7 c0 -5 -2 -10 -4 -10 -3 0 -8 5 -11 10
-3 6 -1 10 4 10 6 0 11 -4 11 -10z m110 0 c0 -5 -4 -10 -10 -10 -5 0 -10 5
-10 10 0 6 5 10 10 10 6 0 10 -4 10 -10z m-2995 -56 c17 -7 24 -13 17 -14 -15
0 -142 57 -142 64 0 5 33 -8 125 -50z m2885 16 c0 -5 -2 -10 -4 -10 -3 0 -8 5
-11 10 -3 6 -1 10 4 10 6 0 11 -4 11 -10z m112 -20 c-5 -37 -29 -39 -42 -4
-13 34 -14 34 18 34 26 0 28 -3 24 -30z m-2935 -16 c-3 -3 -12 -4 -19 -1 -8 3
-5 6 6 6 11 1 17 -2 13 -5z m488 -24 c3 -6 -1 -7 -9 -4 -18 7 -21 14 -7 14 6
0 13 -4 16 -10z m-400 -28 c-3 -3 -11 0 -18 7 -9 10 -8 11 6 5 10 -3 15 -9 12
-12z m-15 -26 c0 -11 -19 -15 -25 -6 -3 5 1 10 9 10 9 0 16 -2 16 -4z m44 -22
c9 -8 22 -12 28 -8 10 5 10 4 2 -5 -12 -13 -78 5 -68 20 8 13 21 11 38 -7z
m521 -15 c4 -5 10 -7 14 -5 4 3 12 -4 18 -14 10 -15 9 -18 -4 -16 -9 2 -21 10
-28 19 -14 20 -30 23 -19 5 5 -9 2 -9 -9 1 -21 17 -21 16 3 18 11 1 22 -3 25
-8z m-858 -5 c-3 -3 -12 -4 -19 -1 -8 3 -5 6 6 6 11 1 17 -2 13 -5z m422 -8
c14 -8 19 -16 13 -20 -13 -8 -63 14 -56 25 7 12 14 11 43 -5z m525 -55 c-7 -7
-34 21 -34 36 0 10 6 8 19 -8 11 -13 18 -26 15 -28z m46 19 c0 -5 -2 -10 -4
-10 -3 0 -8 5 -11 10 -3 6 -1 10 4 10 6 0 11 -4 11 -10z m-540 -40 c19 -11 32
-19 29 -20 -11 0 -79 30 -79 35 0 9 14 5 50 -15z m544 5 c5 0 11 -7 13 -15 4
-12 3 -12 -5 -2 -5 8 -12 13 -16 13 -19 -3 -26 0 -26 10 0 6 5 7 13 2 6 -4 16
-8 21 -8z m104 -56 c13 -23 13 -23 -2 -5 -9 11 -16 16 -16 12 0 -4 -6 -4 -12
1 -7 4 -19 8 -26 9 -29 5 -22 12 9 10 22 -2 37 -10 47 -27z m-513 -17 c-3 -3
-11 0 -18 7 -9 10 -8 11 6 5 10 -3 15 -9 12 -12z m508 -12 c10 0 14 -5 11 -15
-5 -12 -11 -10 -35 7 -16 12 -29 26 -29 31 0 6 8 3 18 -6 10 -10 26 -17 35
-17z m-856 5 c0 -8 -4 -15 -9 -15 -4 0 -8 7 -8 15 0 8 4 15 8 15 5 0 9 -7 9
-15z m153 -5 c0 -5 -7 -10 -15 -10 -8 0 -15 5 -15 10 0 6 7 10 15 10 8 0 15
-4 15 -10z m802 -13 c5 -10 15 -14 21 -11 7 4 6 1 -2 -7 -10 -11 -15 -11 -18
-1 -3 6 -8 10 -13 7 -4 -3 -18 3 -31 14 l-23 18 28 -1 c15 -1 32 -10 38 -19z
m-547 3 c-3 -5 -16 -10 -28 -9 -21 0 -21 1 -2 9 28 12 37 12 30 0z m2405 -10
c0 -5 -2 -10 -4 -10 -3 0 -8 5 -11 10 -3 6 -1 10 4 10 6 0 11 -4 11 -10z
m-1800 -34 c0 -6 5 -4 10 4 6 10 10 11 10 3 0 -7 5 -12 12 -10 7 1 12 -3 13
-10 0 -16 15 -29 15 -13 0 10 5 9 18 -3 10 -10 22 -14 25 -11 4 4 9 -1 13 -10
3 -9 11 -13 17 -9 5 3 7 1 3 -5 -4 -7 -17 -5 -39 6 -17 9 -39 17 -47 19 -8 1
-19 8 -25 15 -5 7 -17 14 -25 16 -22 5 -33 19 -15 19 8 0 15 -5 15 -11z m-399
-19 c-10 -9 -11 -8 -5 6 3 10 9 15 12 12 3 -3 0 -11 -7 -18z m40 -2 c5 4 6 -1
3 -10 -7 -17 16 -17 28 0 5 6 8 5 8 -3 0 -7 4 -11 9 -7 5 3 13 0 17 -6 5 -8 3
-9 -6 -4 -10 6 -12 4 -7 -7 4 -11 0 -15 -11 -14 -9 2 -18 8 -20 14 -2 7 -8 10
-13 6 -5 -3 -12 2 -15 10 -3 9 -10 13 -15 10 -5 -3 -6 3 -2 12 4 11 8 13 11 6
2 -7 8 -10 13 -7z m95 -47 c5 -7 3 -8 -6 -3 -10 6 -12 4 -6 -11 5 -14 4 -16
-5 -7 -6 6 -8 16 -5 22 9 14 13 14 22 -1z m44 -72 c0 -3 -4 -8 -10 -11 -5 -3
-10 -1 -10 4 0 6 5 11 10 11 6 0 10 -2 10 -4z m50 -133 c0 -2 -18 11 -40 28
-22 18 -40 36 -40 41 0 5 18 -8 40 -28 22 -21 40 -39 40 -41z m-64 -32 c0 -11
-4 -17 -8 -15 -4 3 -8 12 -8 20 0 8 4 14 8 14 4 0 8 -9 8 -19z m-76 -49 c0 -5
-7 -17 -15 -28 -14 -18 -14 -17 -4 9 12 27 19 34 19 19z m148 -92 c-34 -55
-47 -66 -23 -20 8 16 15 32 15 36 0 4 -28 4 -62 1 -37 -3 -55 -1 -43 3 11 5
43 9 72 9 28 1 55 6 58 11 3 6 8 10 10 10 2 0 -10 -22 -27 -50z m72 23 c-1
-12 -50 -66 -56 -60 -3 2 7 19 21 36 27 31 35 37 35 24z m189 -11 c19 -9 36
-25 37 -34 2 -15 -1 -16 -17 -8 -24 13 -25 21 -1 14 14 -5 14 -3 -2 10 -11 9
-32 16 -47 16 -15 0 -31 5 -34 10 -10 16 27 12 64 -8z m-190 -92 c-22 -41 -33
-53 -22 -22 8 20 34 62 39 62 2 0 -6 -18 -17 -40z m-136 23 c-7 -2 -19 -2 -25
0 -7 3 -2 5 12 5 14 0 19 -2 13 -5z m325 -65 c17 -17 15 -38 -5 -60 -18 -20
-48 -24 -59 -6 -5 8 -2 9 9 5 10 -3 24 -4 32 -1 22 9 -1 34 -26 29 -23 -5 -24
3 -2 27 19 21 34 23 51 6z m-335 -5 c-7 -2 -19 -2 -25 0 -7 3 -2 5 12 5 14 0
19 -2 13 -5z"/>
<path d="M642 3423 c3 -50 13 -106 23 -128 9 -22 18 -49 21 -59 6 -33 76 -96
119 -107 22 -6 49 -15 60 -20 30 -14 65 -19 65 -10 0 17 -48 76 -59 73 -7 -1
-10 2 -7 7 3 5 -31 46 -75 92 -82 85 -129 162 -129 212 0 15 -5 27 -11 27 -8
0 -10 -26 -7 -87z"/>
<path d="M3085 3830 c3 -5 8 -10 11 -10 2 0 4 5 4 10 0 6 -5 10 -11 10 -5 0
-7 -4 -4 -10z"/>
<path d="M230 3314 c1 -11 7 -32 15 -49 l13 -30 1 36 c1 21 -5 42 -14 49 -12
10 -15 9 -15 -6z"/>
<path d="M2640 3685 l0 -46 63 3 62 3 3 43 3 42 -65 0 -66 0 0 -45z"/>
<path d="M2221 3441 c-9 -6 -7 -10 8 -14 12 -3 21 -1 21 3 0 14 -15 19 -29 11z"/>
<path d="M3010 3120 c0 -5 4 -10 9 -10 6 0 13 5 16 10 3 6 -1 10 -9 10 -9 0
-16 -4 -16 -10z"/>
<path d="M3010 3080 c0 -5 5 -10 10 -10 6 0 10 5 10 10 0 6 -4 10 -10 10 -5 0
-10 -4 -10 -10z"/>
<path d="M3110 3100 c0 -17 3 -19 18 -11 10 6 24 6 32 1 17 -11 30 -4 30 16 0
10 -12 14 -40 14 -34 0 -40 -3 -40 -20z"/>
<path d="M1396 2932 c-2 -4 4 -8 14 -8 10 0 16 4 14 8 -3 4 -9 8 -14 8 -5 0
-11 -4 -14 -8z"/>
<path d="M4268 2803 c7 -3 16 -2 19 1 4 3 -2 6 -13 5 -11 0 -14 -3 -6 -6z"/>
<path d="M2600 2823 c0 -13 5 -23 10 -23 13 0 13 11 0 30 -8 12 -10 11 -10 -7z"/>
<path d="M2136 2615 c4 -8 7 -15 9 -15 2 0 5 7 9 15 3 9 0 15 -9 15 -9 0 -12
-6 -9 -15z"/>
<path d="M2144 2388 c-5 -7 -2 -9 7 -6 14 5 42 -15 33 -24 -2 -3 3 -5 11 -5
18 0 18 2 5 28 -12 21 -45 26 -56 7z"/>
<path d="M2269 2393 c-1 -5 -1 -11 0 -15 0 -5 -7 -8 -16 -8 -12 0 -14 -3 -6
-11 15 -15 32 -3 30 21 -1 20 -6 27 -8 13z"/>
<path d="M2950 2211 c0 -12 5 -21 10 -21 6 0 10 6 10 14 0 8 -4 18 -10 21 -5
3 -10 -3 -10 -14z"/>
<path d="M3525 4835 c0 -20 6 -26 32 -31 18 -3 52 -3 75 0 124 18 178 18 215
1 29 -14 51 -16 107 -11 38 4 73 11 77 17 4 6 38 10 85 9 108 -3 107 -4 92 19
-11 18 -28 19 -347 20 l-336 1 0 -25z"/>
<path d="M4330 4845 c7 -8 18 -14 25 -13 7 2 49 -42 93 -97 183 -226 268 -423
291 -669 11 -114 5 -205 -34 -506 -40 -308 -64 -382 -163 -511 -48 -63 -72
-101 -72 -114 0 -4 21 21 47 56 121 165 148 225 178 397 31 182 65 491 65 597
0 215 -52 450 -138 620 -60 122 -157 255 -184 255 -14 0 -8 -13 29 -57 58 -72
121 -169 160 -248 35 -68 86 -206 79 -212 -2 -2 -12 20 -21 49 -40 121 -169
342 -255 436 -24 26 -37 32 -71 32 -36 0 -40 -2 -29 -15z"/>
<path d="M6360 4821 c0 -61 22 -71 152 -71 l108 0 0 55 0 55 -130 0 -130 0 0
-39z m47 -23 c-2 -13 -4 -5 -4 17 -1 22 1 32 4 23 2 -10 2 -28 0 -40z"/>
<path d="M5090 4810 l0 -30 90 0 90 0 0 30 0 30 -90 0 -90 0 0 -30z"/>
<path d="M7046 4833 c-17 -3 -30 -12 -33 -24 -3 -10 -12 -19 -19 -19 -11 0
-14 -21 -14 -99 0 -88 2 -99 18 -97 9 0 16 -5 14 -12 -1 -7 11 -15 27 -18 22
-5 27 -10 24 -25 -5 -18 1 -19 101 -19 l106 0 0 160 0 160 -97 -1 c-54 -1
-111 -4 -127 -6z m18 -78 c-4 -8 -8 -15 -10 -15 -2 0 -4 7 -4 15 0 8 4 15 10
15 5 0 7 -7 4 -15z m1 -35 c3 -5 1 -10 -4 -10 -6 0 -11 5 -11 10 0 6 2 10 4
10 3 0 8 -4 11 -10z m-25 -51 c0 -5 -4 -9 -10 -9 -5 0 -10 7 -10 16 0 8 5 12
10 9 6 -3 10 -10 10 -16z m30 6 c0 -8 -4 -15 -10 -15 -5 0 -10 7 -10 15 0 8 5
15 10 15 6 0 10 -7 10 -15z m0 -39 c0 -3 -4 -8 -10 -11 -5 -3 -10 -1 -10 4 0
6 5 11 10 11 6 0 10 -2 10 -4z m97 -82 c-3 -3 -12 -4 -19 -1 -8 3 -5 6 6 6 11
1 17 -2 13 -5z"/>
<path d="M4620 4783 l0 -48 52 0 53 1 3 47 3 47 -55 0 -56 0 0 -47z"/>
<path d="M6650 4815 c0 -8 2 -15 4 -15 2 0 6 7 10 15 3 8 1 15 -4 15 -6 0 -10
-7 -10 -15z"/>
<path d="M5438 4798 c-8 -21 2 -38 21 -38 24 0 30 8 24 31 -6 21 -38 26 -45 7z"/>
<path d="M5583 4783 c-3 -8 -1 -19 6 -26 8 -8 11 -8 11 1 0 6 12 18 26 25 l26
14 -32 0 c-18 0 -34 -6 -37 -14z"/>
<path d="M5720 4780 c0 -5 6 -10 14 -10 8 0 18 5 21 10 3 6 -3 10 -14 10 -12
0 -21 -4 -21 -10z"/>
<path d="M5803 4778 c21 -7 32 -7 40 1 8 8 0 11 -28 10 -40 -1 -40 -1 -12 -11z"/>
<path d="M3279 4714 c-11 -14 -10 -15 11 -12 13 1 25 9 28 16 5 17 -23 15 -39
-4z"/>
<path d="M3370 4712 c-19 -5 -14 -8 25 -13 l50 -6 -48 -1 c-31 -1 -58 -9 -74
-22 -24 -19 -24 -19 249 -19 206 -1 268 2 254 11 -11 6 -53 14 -95 19 -42 4
-89 14 -106 23 -22 12 -56 16 -130 15 -55 -1 -111 -4 -125 -7z"/>
<path d="M5090 4590 l0 -130 135 0 135 0 0 130 0 130 -135 0 -135 0 0 -130z
m190 5 c0 -12 -14 -15 -65 -15 -51 0 -65 3 -65 15 0 12 14 15 65 15 51 0 65
-3 65 -15z"/>
<path d="M5434 4706 c-11 -29 3 -46 38 -45 30 1 31 2 8 8 -14 4 -25 14 -25 23
0 24 -14 33 -21 14z"/>
<path d="M5720 4710 c0 -5 7 -7 15 -4 8 4 15 8 15 10 0 2 -7 4 -15 4 -8 0 -15
-4 -15 -10z"/>
<path d="M5880 4701 c0 -5 8 -11 18 -14 9 -2 26 -8 37 -12 11 -4 7 2 -10 14
-32 23 -45 26 -45 12z"/>
<path d="M6330 4657 c0 -29 6 -59 12 -65 10 -10 10 -15 -1 -21 -11 -7 -10 -11
5 -19 18 -11 18 -11 -1 -27 -17 -14 -17 -16 -2 -11 17 5 25 -9 8 -16 -5 -1
-11 -21 -13 -43 l-3 -40 138 0 139 0 3 50 c2 28 4 55 5 60 2 6 2 49 1 98 l-1
87 -145 0 -145 0 0 -53z m138 -34 c3 -19 -1 -23 -22 -23 -28 0 -41 14 -32 36
9 24 50 13 54 -13z m95 -47 c-4 -14 -86 -11 -91 3 -3 9 10 11 44 9 27 -2 48
-7 47 -12z m-68 -36 c3 -5 -1 -10 -9 -10 -9 0 -16 5 -16 10 0 6 4 10 9 10 6 0
13 -4 16 -10z m-57 -12 c-2 -8 12 -15 36 -18 35 -4 37 -7 23 -19 -11 -9 -17
-10 -17 -2 0 7 -20 11 -50 11 -49 0 -50 1 -32 19 19 22 43 27 40 9z m-14 -54
c5 -14 4 -15 -9 -4 -17 14 -19 20 -6 20 5 0 12 -7 15 -16z"/>
<path d="M3260 4672 c-33 -14 -33 -16 -11 -20 13 -2 31 3 39 12 23 23 12 26
-28 8z"/>
<path d="M5583 4675 c11 -7 25 -11 33 -8 22 8 6 23 -24 23 -25 -1 -26 -2 -9
-15z"/>
<path d="M6670 4600 c0 -83 2 -90 20 -91 11 0 47 0 80 0 33 0 69 0 80 0 18 1
20 8 20 91 l0 90 -100 0 -100 0 0 -90z"/>
<path d="M4727 4653 c-10 -9 -9 -123 1 -123 5 0 18 -9 31 -21 17 -16 21 -27
16 -50 -6 -25 -4 -29 14 -29 11 0 35 9 52 19 l32 19 -51 26 c-74 37 -80 89
-15 131 26 17 26 19 8 26 -25 10 -80 11 -88 2z"/>
<path d="M3223 4618 c-15 -17 -15 -18 3 -18 19 0 44 17 44 30 0 14 -31 6 -47
-12z"/>
<path d="M5435 4597 c-4 -15 0 -37 9 -55 20 -40 20 -42 -5 -42 -28 0 -19 -24
11 -28 22 -4 23 -2 17 50 -12 97 -21 119 -32 75z"/>
<path d="M5568 4602 c-4 -12 1 -18 13 -19 13 -1 19 5 19 18 0 24 -26 25 -32 1z"/>
<path d="M5628 4613 c7 -3 16 -2 19 1 4 3 -2 6 -13 5 -11 0 -14 -3 -6 -6z"/>
<path d="M3186 4564 c-10 -25 -1 -27 25 -5 24 20 24 20 3 21 -12 0 -25 -7 -28
-16z"/>
<path d="M5890 4568 c0 -4 16 -8 35 -8 19 0 35 2 35 4 0 2 -16 6 -35 8 -19 2
-35 0 -35 -4z"/>
<path d="M5628 4513 c-10 -2 -18 -10 -18 -16 0 -8 -4 -7 -12 1 -16 16 -28 15
-28 -3 0 -10 11 -15 35 -15 24 0 35 5 35 14 0 8 6 17 13 19 15 7 -2 6 -25 0z"/>
<path d="M5720 4480 c0 -5 7 -10 16 -10 8 0 12 5 9 10 -3 6 -10 10 -16 10 -5
0 -9 -4 -9 -10z"/>
<path d="M5855 4480 c-19 -8 -19 -9 3 -9 12 -1 22 4 22 9 0 6 -1 10 -2 9 -2 0
-12 -4 -23 -9z"/>
<path d="M6140 4448 l0 -38 51 0 50 0 -3 36 c-3 36 -3 37 -51 38 l-47 1 0 -37z"/>
<path d="M6740 4370 l0 -40 65 0 65 0 0 40 0 40 -65 0 -65 0 0 -40z"/>
<path d="M6920 4300 l0 -111 138 3 137 3 3 108 3 107 -141 0 -140 0 0 -110z"/>
<path d="M5050 4341 c0 -38 4 -61 13 -65 9 -3 8 -8 -3 -18 -15 -13 -16 -25 -6
-98 2 -19 5 -38 5 -42 1 -5 62 -8 136 -8 l135 0 1 48 c0 26 2 55 4 64 2 10 0
20 -4 23 -4 2 -6 38 -3 80 l4 75 -141 0 -141 0 0 -59z m158 -30 c3 -19 0 -22
-25 -19 -32 3 -44 34 -16 41 28 7 38 2 41 -22z m82 -44 c0 -9 -15 -14 -45 -15
-34 -2 -45 1 -45 13 0 11 12 15 45 15 31 0 45 -4 45 -13z m-115 -7 c-3 -5 -10
-10 -16 -10 -5 0 -9 5 -9 10 0 6 7 10 16 10 8 0 12 -4 9 -10z m-61 -30 c-10
-4 -23 -5 -28 -2 -13 7 16 21 32 14 13 -4 12 -7 -4 -12z m79 -3 c-3 -5 1 -14
8 -19 10 -6 7 -7 -10 -3 -18 6 -23 4 -19 -6 3 -8 0 -19 -6 -24 -14 -13 -46
-15 -46 -4 0 5 -9 9 -20 9 -13 0 -18 5 -14 15 5 13 9 13 22 3 14 -11 15 -10 8
7 -4 11 -4 16 0 13 4 -4 15 -2 24 5 21 15 61 17 53 4z m47 -7 c0 -5 -4 -10
-10 -10 -5 0 -10 5 -10 10 0 6 5 10 10 10 6 0 10 -4 10 -10z"/>
<path d="M5629 4388 c-1 -2 -3 -22 -5 -45 l-4 -43 68 0 67 0 -3 45 -4 45 -59
0 c-32 0 -59 -1 -60 -2z"/>
<path d="M6062 4303 c3 -37 4 -38 49 -41 l47 -3 4 36 c2 19 2 38 -1 40 -2 3
-26 5 -53 5 l-49 0 3 -37z m76 10 c-10 -2 -26 -2 -35 0 -10 3 -2 5 17 5 19 0
27 -2 18 -5z"/>
<path d="M6415 4284 c-4 -31 -5 -57 -3 -59 3 -3 90 -8 116 -6 11 1 13 15 8 59
-3 31 -5 58 -6 60 0 1 -24 2 -54 2 l-54 0 -7 -56z"/>
<path d="M4820 4245 c0 -64 7 -68 105 -63 l60 3 3 58 3 57 -86 0 -85 0 0 -55z
m130 30 c-14 -17 -24 -20 -15 -5 4 6 -13 10 -44 10 l-50 0 -4 -37 -4 -38 -1
43 -2 42 66 0 c58 0 65 -2 54 -15z"/>
<path d="M6740 4260 l0 -40 66 0 65 0 -3 38 -3 37 -62 3 -63 3 0 -41z"/>
<path d="M5529 4199 c-1 -17 -3 -19 -6 -6 -10 39 -23 13 -23 -49 l0 -65 93 3
92 2 -3 63 c-4 61 -4 63 -31 63 -16 0 -49 3 -75 6 -43 6 -46 5 -47 -17z"/>
<path d="M4050 4145 c0 -38 3 -45 20 -45 17 0 20 7 20 45 0 38 -3 45 -20 45
-17 0 -20 -7 -20 -45z"/>
<path d="M4193 4152 c-48 -3 -53 -5 -53 -27 0 -13 -3 -30 -6 -39 -5 -14 9 -16
115 -16 l121 0 0 39 0 39 -62 4 c-35 1 -87 2 -115 0z m47 -21 c0 -13 -49 -20
-53 -7 -3 8 -9 7 -18 -2 -12 -11 -12 -14 1 -22 8 -5 11 -12 8 -15 -12 -12 -28
6 -28 31 0 22 4 24 45 24 25 0 45 -4 45 -9z m90 -1 c0 -5 -4 -10 -10 -10 -5 0
-10 5 -10 10 0 6 5 10 10 10 6 0 10 -4 10 -10z m6 -31 c4 -8 9 -7 16 2 8 11 9
11 5 -1 -5 -18 -59 -20 -64 -2 -6 15 33 16 43 1z m-116 -9 c13 -8 13 -10 -2
-10 -9 0 -20 5 -23 10 -8 13 5 13 25 0z"/>
<path d="M7194 4141 c6 -9 -16 -21 -37 -21 -7 0 -6 4 3 10 11 7 12 10 2 10
-19 0 -42 -26 -42 -47 0 -15 2 -16 10 -3 5 8 12 11 16 7 4 -4 0 -15 -9 -25
-13 -14 -14 -21 -5 -30 17 -17 28 -15 28 6 1 16 2 16 15 -1 18 -25 61 -19 58
8 -1 11 3 23 9 26 6 4 8 14 5 24 -4 9 -12 13 -18 9 -8 -4 -7 -9 2 -15 11 -7
10 -9 -3 -9 -13 0 -18 8 -18 30 0 17 -5 30 -11 30 -5 0 -8 -4 -5 -9z m21 -92
c-10 -15 -25 -10 -19 6 4 8 10 12 15 9 5 -3 7 -10 4 -15z"/>
<path d="M6070 4100 l0 -40 70 0 70 0 0 40 0 40 -70 0 -70 0 0 -40z"/>
<path d="M6650 4025 c0 -64 5 -125 10 -136 10 -17 22 -19 115 -19 l104 0 6 43
c3 23 4 83 3 132 l-3 90 -118 3 -117 3 0 -116z m95 -3 c0 -46 -19 -44 -23 2
-3 28 0 37 10 34 7 -3 13 -19 13 -36z m45 -52 c0 -29 -4 -40 -15 -40 -11 0
-15 11 -15 40 0 29 4 40 15 40 11 0 15 -11 15 -40z"/>
<path d="M6982 4098 c3 -38 6 -43 28 -43 14 0 25 6 24 13 -1 6 -2 26 -2 42 -2
25 -6 30 -28 30 -23 0 -25 -3 -22 -42z"/>
<path d="M5071 3980 l0 -100 32 -1 c48 -2 96 -2 158 -1 l57 2 1 100 2 100
-125 0 -125 0 0 -100z m129 86 c0 -3 -4 -8 -10 -11 -5 -3 -10 -1 -10 4 0 6 5
11 10 11 6 0 10 -2 10 -4z m-2 -32 c24 -5 31 -12 34 -35 4 -25 1 -29 -18 -29
-17 0 -21 5 -17 19 4 14 -1 20 -18 23 -12 2 -24 9 -27 16 -4 14 3 15 46 6z
m-81 -126 c-2 -13 -4 -3 -4 22 0 25 2 35 4 23 2 -13 2 -33 0 -45z"/>
<path d="M5733 4070 c-13 -5 -23 -17 -24 -27 0 -10 -3 -30 -5 -45 -4 -26 -2
-28 31 -28 l35 0 0 55 c0 58 -1 59 -37 45z m7 -40 c0 -5 -5 -10 -11 -10 -5 0
-7 5 -4 10 3 6 8 10 11 10 2 0 4 -4 4 -10z"/>
<path d="M4163 4043 c15 -2 37 -2 50 0 12 2 0 4 -28 4 -27 0 -38 -2 -22 -4z"/>
<path d="M4248 4043 c7 -3 16 -2 19 1 4 3 -2 6 -13 5 -11 0 -14 -3 -6 -6z"/>
<path d="M5412 4033 c-28 -13 -32 -20 -32 -54 0 -28 4 -39 15 -39 8 0 15 5 15
10 0 6 8 10 18 10 14 0 15 -2 2 -10 -13 -8 -12 -10 3 -10 9 0 17 5 17 12 0 17
13 0 17 -22 2 -14 -4 -21 -22 -26 -13 -3 -27 -4 -32 -1 -4 2 -17 1 -28 -4 -15
-6 -10 -8 20 -8 80 -1 85 3 85 80 0 65 -10 93 -26 68 -4 -8 -9 -8 -13 -1 -4 7
-17 6 -39 -5z"/>
<path d="M6333 4043 c9 -2 23 -2 30 0 6 3 -1 5 -18 5 -16 0 -22 -2 -12 -5z"/>
<path d="M6393 4043 c9 -2 23 -2 30 0 6 3 -1 5 -18 5 -16 0 -22 -2 -12 -5z"/>
<path d="M6440 4031 c0 -25 -16 -36 -24 -16 -6 16 -66 21 -66 6 0 -15 21 -25
29 -13 4 6 11 4 20 -6 13 -14 11 -15 -22 -9 l-37 6 0 -55 c0 -45 3 -54 18 -54
13 0 18 8 17 27 0 23 4 28 25 28 18 0 26 -6 28 -22 2 -14 -2 -23 -9 -23 -10 0
-10 -3 -2 -11 7 -7 19 -9 27 -6 13 5 16 23 16 87 0 47 -4 80 -10 80 -5 0 -10
-9 -10 -19z"/>
<path d="M6544 4036 c-3 -7 -3 -35 -1 -62 l3 -49 2 58 c2 54 3 57 27 57 24 0
25 -3 25 -59 0 -33 5 -63 10 -66 6 -4 10 20 10 64 l0 71 -35 0 c-21 0 -38 -6
-41 -14z"/>
<path d="M6541 3904 c0 -11 3 -14 6 -6 3 7 2 16 -1 19 -3 4 -6 -2 -5 -13z"/>
<path d="M6130 3881 c0 -6 15 -11 34 -11 32 0 35 -3 39 -32 4 -27 4 -25 3 7
-1 39 -2 40 -38 43 -22 2 -38 -1 -38 -7z"/>
<path d="M7231 3624 c0 -11 3 -14 6 -6 3 7 2 16 -1 19 -3 4 -6 -2 -5 -13z"/>
<path d="M7261 3624 c0 -11 3 -14 6 -6 3 7 2 16 -1 19 -3 4 -6 -2 -5 -13z"/>
<path d="M5314 3583 c-10 -16 -13 -16 -29 -3 -11 8 -16 10 -12 4 5 -8 -18 -12
-75 -13 -123 -3 -108 -11 20 -11 105 0 112 1 112 20 0 24 -2 25 -16 3z"/>
<path d="M6090 3510 l0 -90 80 0 80 0 0 90 0 90 -80 0 -80 0 0 -90z m140 56
c0 -7 -3 -28 -6 -45 -7 -34 -34 -43 -34 -11 0 16 -7 20 -35 20 -25 0 -35 -4
-35 -16 0 -8 -4 -12 -10 -9 -14 9 -12 62 3 68 6 3 36 6 65 6 38 1 52 -3 52
-13z"/>
<path d="M6850 3589 c11 -8 8 -9 -13 -4 -16 3 -34 1 -41 -4 -6 -5 -41 -12 -76
-14 -36 -2 -12 -3 53 -3 71 1 117 5 116 11 -1 6 -5 9 -10 8 -5 -2 -9 2 -9 7 0
6 -8 10 -17 10 -16 0 -16 -2 -3 -11z"/>
<path d="M4860 3480 c0 -45 4 -60 14 -60 9 0 12 7 9 19 -3 11 2 21 11 24 20 8
29 -7 21 -33 -6 -19 -3 -21 37 -18 l43 3 3 63 3 62 -71 0 -70 0 0 -60z m115
10 c3 -5 1 -10 -4 -10 -6 0 -11 5 -11 10 0 6 2 10 4 10 3 0 8 -4 11 -10z"/>
<path d="M7130 3475 l0 -65 70 0 70 0 0 65 0 65 -70 0 -70 0 0 -65z m120 15
c0 -5 -5 -10 -11 -10 -5 0 -7 5 -4 10 3 6 8 10 11 10 2 0 4 -4 4 -10z m-70
-45 c0 -8 -7 -15 -15 -15 -8 0 -15 7 -15 15 0 8 7 15 15 15 8 0 15 -7 15 -15z"/>
<path d="M5760 3475 l0 -55 65 0 65 0 0 57 c0 52 -1 55 -14 37 -14 -18 -15
-18 -21 -1 -4 9 -18 17 -31 17 -19 0 -24 -5 -24 -25 0 -14 -4 -25 -10 -25 -5
0 -10 11 -10 25 0 14 -4 25 -10 25 -5 0 -10 -25 -10 -55z"/>
<path d="M6627 3524 c-4 -4 -7 -28 -7 -54 0 -46 1 -47 33 -48 17 0 47 1 65 4
33 5 33 6 30 52 l-3 47 -55 3 c-31 2 -59 0 -63 -4z m53 -34 c0 -11 -7 -20 -15
-20 -8 0 -15 9 -15 20 0 11 7 20 15 20 8 0 15 -9 15 -20z"/>
<path d="M5070 3470 l0 -50 38 0 c72 0 82 7 82 56 l0 44 -60 0 -60 0 0 -50z
m55 20 c0 -8 -8 -16 -17 -18 -13 -2 -18 3 -18 18 0 15 5 20 18 18 9 -2 17 -10
17 -18z"/>
<path d="M5438 3403 l-38 -4 0 -50 0 -49 55 0 55 0 0 55 c0 46 -3 55 -17 53
-10 -1 -35 -3 -55 -5z m30 -35 c-5 -32 -28 -35 -28 -4 0 17 5 26 16 26 10 0
14 -7 12 -22z"/>
<path d="M6950 3355 l0 -55 60 0 59 0 0 55 -1 55 -59 0 -59 0 0 -55z m68 13
c-2 -13 -7 -23 -13 -23 -5 0 -11 10 -13 23 -2 15 2 22 13 22 11 0 15 -7 13
-22z"/>
<path d="M7113 3253 c15 -2 39 -2 55 0 15 2 2 4 -28 4 -30 0 -43 -2 -27 -4z"/>
<path d="M7113 3203 c20 -2 54 -2 75 0 20 2 3 4 -38 4 -41 0 -58 -2 -37 -4z"/>
<path d="M4461 2904 c0 -11 3 -14 6 -6 3 7 2 16 -1 19 -3 4 -6 -2 -5 -13z"/>
<path d="M4453 2820 c0 -25 2 -35 4 -22 2 12 2 32 0 45 -2 12 -4 2 -4 -23z"/>
<path d="M4000 2771 c0 -25 6 -27 13 -6 4 8 2 17 -3 20 -6 4 -10 -3 -10 -14z"/>
<path d="M4040 2741 c0 -30 4 -41 16 -41 11 0 14 9 12 37 -4 52 -28 56 -28 4z"/>
<path d="M7198 2743 c6 -2 18 -2 25 0 6 3 1 5 -13 5 -14 0 -19 -2 -12 -5z"/>
<path d="M4461 2714 c0 -11 3 -14 6 -6 3 7 2 16 -1 19 -3 4 -6 -2 -5 -13z"/>
<path d="M4000 2710 c0 -5 5 -10 10 -10 6 0 10 5 10 10 0 6 -4 10 -10 10 -5 0
-10 -4 -10 -10z"/>
<path d="M3453 2663 c-3 -10 -8 -22 -11 -28 -3 -5 -2 -7 3 -3 4 4 15 2 23 -5
13 -10 14 -9 3 11 -10 18 -9 22 4 22 9 0 13 5 10 10 -10 15 -25 12 -32 -7z"/>
<path d="M7198 2623 c6 -2 18 -2 25 0 6 3 1 5 -13 5 -14 0 -19 -2 -12 -5z"/>
<path d="M3452 2601 c-11 -6 -10 -10 4 -15 9 -3 19 -4 22 -1 3 3 -1 5 -9 5
-11 0 -11 2 1 10 8 5 11 10 5 10 -5 0 -16 -4 -23 -9z"/>
<path d="M3554 2591 c4 -5 1 -12 -4 -14 -6 -3 -5 -4 2 -3 15 3 23 26 8 26 -6
0 -9 -4 -6 -9z"/>
<path d="M7198 2563 c6 -2 18 -2 25 0 6 3 1 5 -13 5 -14 0 -19 -2 -12 -5z"/>
<path d="M7200 2526 c0 -2 7 -6 15 -10 8 -3 15 -1 15 4 0 6 -7 10 -15 10 -8 0
-15 -2 -15 -4z"/>
<path d="M7197 2456 c-3 -8 2 -16 14 -19 15 -4 18 -2 10 7 -6 7 -8 16 -4 19 3
4 2 7 -4 7 -6 0 -13 -6 -16 -14z"/>
<path d="M3560 2401 c0 -5 9 -11 20 -14 13 -3 20 0 20 9 0 8 -9 14 -20 14 -11
0 -20 -4 -20 -9z"/>
<path d="M4550 2395 c0 -5 5 -17 10 -25 5 -8 10 -10 10 -5 0 6 -5 17 -10 25
-5 8 -10 11 -10 5z"/>
<path d="M4570 2345 c0 -5 5 -17 10 -25 5 -8 10 -10 10 -5 0 6 -5 17 -10 25
-5 8 -10 11 -10 5z"/>
<path d="M4600 2265 c0 -5 5 -17 10 -25 5 -8 10 -10 10 -5 0 6 -5 17 -10 25
-5 8 -10 11 -10 5z"/>
<path d="M7205 2251 c-3 -5 0 -13 6 -17 7 -4 9 -3 5 4 -3 5 0 13 6 15 9 4 10
6 1 6 -6 1 -14 -3 -18 -8z"/>
<path d="M3485 2206 c-18 -14 -18 -15 -2 -16 10 0 17 -8 17 -21 0 -11 -4 -18
-9 -15 -5 4 -12 -12 -16 -35 -5 -30 -3 -44 6 -50 22 -14 31 -10 25 9 -4 10 -2
38 2 63 5 25 6 53 3 62 -6 16 -8 16 -26 3z"/>
<path d="M7194 2178 c-4 -6 -2 -14 4 -16 7 -2 10 -7 7 -12 -3 -4 1 -10 9 -13
10 -4 13 3 12 24 -1 29 -19 39 -32 17z"/>
<path d="M3470 1975 c-14 -16 -5 -35 16 -35 15 0 20 35 5 44 -5 3 -14 -1 -21
-9z"/>
<path d="M4 1855 c-8 -31 -12 -26 53 -59 l52 -26 15 22 c9 12 16 25 16 29 0 6
-111 59 -124 59 -3 0 -8 -11 -12 -25z"/>
<path d="M0 1756 c0 -30 4 -35 30 -41 30 -7 60 7 60 26 0 8 -71 49 -85 49 -3
0 -5 -15 -5 -34z"/>
<path d="M0 1662 l1 -37 19 24 c25 29 25 37 0 44 -17 4 -20 0 -20 -31z"/>
<path d="M4062 1680 c0 -14 2 -19 5 -12 2 6 2 18 0 25 -3 6 -5 1 -5 -13z"/>
<path d="M1621 1319 c-12 -35 -21 -68 -20 -73 0 -6 11 20 25 58 13 38 22 71
20 73 -2 2 -13 -24 -25 -58z"/>
<path d="M1590 1226 c0 -4 -16 -68 -36 -142 -19 -75 -34 -140 -32 -146 2 -6
21 56 41 137 21 81 36 150 33 153 -4 3 -6 2 -6 -2z"/>
<path d="M950 941 c0 -6 4 -13 10 -16 6 -3 7 1 4 9 -7 18 -14 21 -14 7z"/>
<path d="M1510 901 c0 -12 3 -20 8 -19 11 4 403 -206 515 -276 54 -34 146 -98
205 -144 97 -75 124 -87 109 -48 -14 36 -328 226 -660 400 -81 43 -154 84
-162 92 -13 14 -15 13 -15 -5z"/>
<path d="M1501 828 c1 -18 3 -25 6 -16 6 24 31 12 49 -24 9 -17 34 -51 57 -77
44 -49 38 -45 -56 33 -53 44 -58 47 -55 25 2 -18 32 -43 122 -102 121 -80 152
-115 50 -56 -52 29 -58 31 -69 16 -7 -9 -14 -16 -16 -14 -3 1 4 -6 14 -15 11
-10 23 -15 28 -12 5 3 31 -7 57 -22 29 -17 42 -21 33 -11 -12 15 -11 17 9 17
24 0 155 -120 165 -151 3 -9 13 -20 21 -23 12 -5 14 -1 9 17 -5 17 2 12 29
-18 45 -51 126 -169 126 -185 0 -6 9 -28 19 -48 31 -61 51 -112 43 -112 -4 0
-45 23 -92 51 -156 93 -244 137 -325 162 -106 34 -197 72 -189 79 3 4 -5 4
-18 1 -19 -4 -20 -3 -8 7 12 10 11 11 -9 6 -14 -3 -41 4 -65 16 -23 11 -34 14
-26 6 19 -18 285 -128 343 -142 15 -3 27 -11 27 -16 0 -5 7 -7 15 -4 8 4 15 1
15 -5 0 -6 3 -10 8 -9 14 4 52 -13 52 -23 0 -6 5 -7 10 -4 6 3 10 1 10 -5 0
-6 5 -8 10 -5 6 3 10 1 10 -5 0 -6 4 -9 9 -6 5 3 11 -1 15 -9 3 -9 12 -12 22
-8 12 4 15 3 10 -5 -5 -8 -1 -10 10 -5 11 4 15 3 11 -5 -5 -6 28 -31 80 -63
104 -62 117 -68 83 -40 -32 26 -11 27 23 1 32 -25 62 -27 53 -3 -6 15 -5 16
11 1 10 -8 35 -16 55 -16 l37 -1 -128 127 c-70 70 -167 181 -216 247 -50 65
-123 155 -164 200 -84 91 -128 135 -91 91 16 -20 5 -13 -32 18 -52 44 -75 67
-48 51 6 -3 10 -2 10 4 0 5 -30 31 -67 58 -97 70 -93 69 -92 31z m124 -228 c3
-6 -1 -7 -9 -4 -18 7 -21 14 -7 14 6 0 13 -4 16 -10z m260 -130 c10 -11 16
-20 13 -20 -3 0 -13 9 -23 20 -10 11 -16 20 -13 20 3 0 13 -9 23 -20z m240
-428 c-4 -5 -115 57 -115 64 0 3 27 -9 60 -27 32 -18 57 -35 55 -37z"/>
<path d="M1672 714 c10 -10 20 -16 22 -13 3 3 -5 11 -17 18 -21 13 -21 12 -5
-5z"/>
<path d="M0 600 l0 -70 212 0 c210 0 211 0 193 20 -15 17 -32 20 -109 22 l-91
2 80 5 c47 4 75 9 67 14 -7 5 -9 13 -6 19 4 6 -1 8 -14 4 -11 -4 -23 -2 -27 4
-4 6 4 10 19 10 15 0 26 6 26 14 0 16 -98 26 -252 26 l-98 0 0 -70z"/>
<path d="M448 663 c-60 -3 -78 -7 -78 -18 0 -13 35 -15 232 -15 207 0 230 2
211 15 -22 16 -222 26 -365 18z"/>
<path d="M370 606 c0 -8 7 -17 16 -20 9 -3 119 -6 245 -6 222 0 229 1 229 20
0 19 -7 20 -245 20 -203 0 -245 -2 -245 -14z"/>
<path d="M1260 578 c0 -30 6 -36 60 -66 59 -32 216 -102 228 -102 4 0 0 5 -8
10 -11 8 -8 9 13 4 15 -3 27 -4 27 -1 0 9 -151 79 -230 107 -70 24 -75 28 -72
53 2 15 -1 27 -7 27 -6 0 -11 -15 -11 -32z"/>
<path d="M1833 586 c19 -13 51 -41 72 -62 20 -22 33 -33 29 -25 -5 10 -3 12 5
7 7 -4 10 -13 8 -19 -2 -7 7 -20 20 -30 13 -10 20 -23 17 -29 -4 -6 -3 -8 2
-5 6 3 16 -3 23 -15 10 -16 10 -19 -1 -13 -7 4 0 -4 16 -19 16 -14 26 -26 22
-26 -9 0 60 -87 93 -117 13 -13 20 -23 16 -23 -23 0 195 -199 224 -205 36 -7
24 10 -58 84 -43 39 -131 138 -197 223 -206 267 -238 298 -305 298 -19 0 -17
-4 14 -24z m100 -59 c4 3 7 4 7 0 0 -17 -20 -14 -36 6 -19 22 -19 22 2 4 11
-9 24 -14 27 -10z"/>
<path d="M420 550 c23 -18 42 -20 233 -20 200 0 207 1 207 20 0 19 -7 20 -190
20 -133 0 -196 -4 -210 -12 -15 -10 -22 -10 -32 0 -6 6 -17 12 -22 12 -6 0 0
-9 14 -20z"/>
<path d="M0 500 c0 -18 8 -20 113 -23 l112 -3 -112 -2 c-105 -2 -113 -3 -113
-22 0 -18 8 -20 113 -23 l112 -3 -112 -2 -113 -2 0 -210 0 -210 270 3 c148 1
270 5 270 9 0 8 21 5 36 -5 6 -3 70 -6 143 -6 l131 0 0 97 c0 53 3 148 7 209
l6 113 -77 -1 c-42 -1 -76 -5 -76 -10 0 -5 -7 -9 -15 -9 -8 0 -15 5 -15 10 0
17 -21 11 -41 -12 l-20 -23 6 23 c6 20 3 22 -37 23 -29 0 -37 3 -24 8 10 4 58
6 107 4 83 -3 89 -1 89 17 0 19 -9 20 -197 23 l-198 2 248 3 c240 2 247 3 247
22 0 20 -7 20 -430 20 -421 0 -430 0 -430 -20z m333 -27 c-18 -2 -48 -2 -65 0
-18 2 -4 4 32 4 36 0 50 -2 33 -4z m0 -50 c-18 -2 -48 -2 -65 0 -18 2 -4 4 32
4 36 0 50 -2 33 -4z m130 0 c-18 -2 -48 -2 -65 0 -18 2 -4 4 32 4 36 0 50 -2
33 -4z m297 -98 c0 -8 -4 -15 -10 -15 -5 0 -7 7 -4 15 4 8 8 15 10 15 2 0 4
-7 4 -15z m-470 -36 c0 -27 -2 -30 -15 -19 -8 7 -15 21 -15 31 0 11 7 19 15
19 10 0 15 -10 15 -31z"/>
<path d="M1790 469 c19 -18 34 -37 32 -42 -1 -5 1 -6 6 -3 5 3 18 -1 28 -9 10
-8 24 -14 29 -14 12 -1 -22 28 -85 70 l-45 31 35 -33z"/>
<path d="M770 455 c0 -11 12 -15 45 -15 33 0 45 4 45 15 0 11 -12 15 -45 15
-33 0 -45 -4 -45 -15z"/>
<path d="M1930 373 c16 -7 46 -44 43 -54 -3 -10 55 -74 61 -68 10 10 -87 129
-104 128 -13 0 -13 -1 0 -6z"/>
<path d="M2390 357 c0 -27 13 -36 26 -16 3 6 -1 18 -10 27 -15 15 -16 14 -16
-11z"/>
<path d="M2460 301 c0 -28 90 -135 103 -122 19 19 0 55 -50 99 -48 40 -53 42
-53 23z"/>
<path d="M2580 178 c0 -53 24 -79 33 -35 3 14 5 9 6 -14 1 -45 27 -73 34 -37
3 16 5 12 6 -13 2 -52 35 -81 44 -37 3 17 5 14 6 -9 1 -26 5 -33 21 -33 11 0
20 3 20 6 0 10 -95 126 -134 163 l-36 35 0 -26z"/>
</g>
</svg>
