<?xml version="1.0" standalone="no"?>
<!DOCTYPE svg PUBLIC "-//W3C//DTD SVG 20010904//EN"
 "http://www.w3.org/TR/2001/REC-SVG-20010904/DTD/svg10.dtd">
<svg version="1.0" xmlns="http://www.w3.org/2000/svg"
 width="726.000000pt" height="476.000000pt" viewBox="0 0 726.000000 476.000000"
 preserveAspectRatio="xMidYMid meet">

<g transform="translate(0.000000,476.000000) scale(0.100000,-0.100000)"
fill="#000000" stroke="none">
<path d="M0 2380 l0 -2380 3630 0 3630 0 0 224 0 224 -27 6 c-44 8 -270 33
-653 71 -195 20 -515 54 -710 75 -195 22 -400 45 -455 50 -212 23 -252 29
-331 53 -78 24 -327 80 -409 92 -22 3 24 -14 103 -39 78 -24 146 -47 150 -51
4 -4 -15 -5 -43 -1 -27 3 -84 8 -125 11 -41 4 -122 13 -180 22 -58 8 -127 15
-155 14 -44 -1 -421 42 -730 84 -107 14 -221 28 -670 79 -478 56 -851 112
-897 137 -43 23 -11 53 92 87 209 68 972 253 987 239 2 -3 0 -15 -7 -26 -9
-19 -8 -21 12 -20 40 1 155 27 123 28 -16 0 -47 -4 -69 -8 l-38 -9 28 29 c15
16 36 31 45 34 14 5 17 13 13 33 -5 25 3 36 74 97 141 125 130 117 142 95 19
-35 10 -46 -82 -104 -110 -68 -133 -84 -127 -90 5 -5 34 0 428 73 l274 51 61
-27 c34 -14 65 -30 69 -33 10 -9 -35 -16 -183 -30 -63 -6 -155 -17 -205 -25
-49 -7 -134 -19 -188 -26 -76 -10 -100 -17 -108 -31 -7 -13 -21 -18 -54 -18
-25 0 -45 -4 -45 -9 0 -16 350 -3 530 20 116 14 271 24 460 29 157 5 339 13
404 20 82 7 127 8 145 1 14 -6 49 -15 76 -20 28 -6 84 -20 125 -31 68 -20 92
-21 257 -16 100 3 183 2 185 -3 2 -4 54 -25 116 -46 61 -22 112 -43 112 -47 0
-4 16 -8 36 -8 44 0 136 -22 279 -66 119 -37 163 -60 147 -76 -7 -7 -47 6
-124 40 -130 58 -254 92 -325 91 -47 -1 -47 -1 23 -14 101 -18 176 -41 284
-87 93 -40 113 -45 195 -49 28 -1 18 -4 -33 -9 -71 -8 -76 -7 -155 30 -107 50
-225 88 -290 95 -48 5 -47 4 23 -14 87 -23 178 -57 268 -99 l62 -30 -33 -6
c-27 -5 -53 3 -129 38 -130 61 -212 87 -283 92 l-60 3 48 -9 c84 -15 188 -50
287 -97 l95 -44 70 10 c39 6 106 13 150 15 44 2 67 2 50 0 -40 -6 -334 -52
-365 -58 -14 -3 9 -3 50 -1 l75 3 -65 -16 -65 -16 40 -9 c35 -9 367 1 575 18
l55 4 -52 -11 c-29 -6 -53 -15 -53 -19 0 -5 3 -9 7 -9 47 0 352 -34 363 -41
11 -6 7 -9 -15 -10 -29 -1 -29 -1 -5 -8 23 -7 23 -8 5 -14 -49 -15 -446 -46
-594 -47 -24 0 -42 -3 -38 -6 9 -9 468 15 591 31 119 16 149 14 64 -4 -165
-36 -633 -82 -810 -80 -98 1 -132 14 -58 23 30 3 89 10 130 15 49 5 61 9 35
10 -58 1 -218 -18 -228 -28 -5 -5 8 -14 29 -21 78 -26 644 13 879 61 l99 20
86 -30 c176 -62 214 -62 52 0 -68 26 -96 42 -94 52 2 11 -4 14 -20 10 -13 -3
-20 -2 -16 2 16 17 65 13 136 -11 102 -35 122 -26 37 16 -63 31 -67 34 -42 38
19 2 42 -5 68 -22 l39 -26 0 34 c0 23 -6 38 -17 45 -17 9 -17 10 0 16 16 7 17
106 17 1891 l0 1884 -3630 0 -3630 0 0 -2380z m5208 2114 c-37 -51 -48 -61
-48 -42 0 17 58 88 71 88 6 0 -5 -21 -23 -46z m-173 -109 c-39 -31 -50 -32
-29 0 9 14 26 25 38 25 19 0 18 -2 -9 -25z m-31 -124 c3 -5 -20 -48 -50 -97
-31 -49 -107 -170 -169 -269 -62 -99 -158 -252 -213 -340 -55 -88 -109 -173
-119 -190 -14 -22 -26 -29 -43 -27 -14 1 -28 6 -32 10 -7 7 226 371 506 790
82 122 106 146 120 123z m226 -44 c-8 -12 -26 -44 -42 -72 -27 -49 -28 -50
-28 -18 0 40 59 138 74 123 7 -7 6 -17 -4 -33z m-838 -199 c-1 -9 3 -20 9 -24
8 -5 9 -3 4 7 -7 11 -6 12 7 2 8 -7 18 -10 21 -6 4 3 8 0 8 -8 8 -73 7 -79
-10 -79 -16 0 -17 -13 -16 -139 3 -155 -7 -196 -24 -105 -16 82 -29 110 -43
96 -9 -9 -18 -6 -35 10 -21 20 -23 20 -17 4 6 -16 4 -18 -15 -13 -13 3 -20 3
-17 0 3 -3 -3 -22 -14 -43 -11 -21 -18 -39 -16 -41 2 -2 6 -27 9 -56 6 -63
-13 -63 -34 0 -14 41 -63 107 -80 107 -5 0 -6 -13 -3 -29 5 -23 2 -32 -15 -41
-12 -6 -34 -28 -49 -49 -23 -31 -32 -37 -45 -29 -12 6 -17 5 -17 -3 0 -7 -3
-10 -6 -6 -4 3 -23 -15 -44 -41 -40 -51 -100 -110 -100 -99 0 3 -12 -6 -27
-21 -18 -17 -28 -22 -31 -14 -3 9 -10 6 -23 -9 -10 -12 -19 -19 -19 -15 0 4
-15 -7 -32 -23 -18 -17 -48 -36 -65 -42 -37 -12 -41 -23 -16 -37 16 -10 29
-92 15 -92 -7 0 -9 -44 -11 -195 -1 -77 -2 -81 -33 -108 l-33 -28 46 6 c25 3
56 1 70 -4 13 -5 19 -10 12 -10 -8 -1 -10 -13 -6 -38 4 -25 3 -34 -5 -29 -8 4
-8 -3 -1 -26 6 -18 12 -55 14 -83 2 -27 7 -66 11 -85 4 -19 7 -45 7 -57 -1
-14 3 -20 11 -16 8 4 8 3 -1 -7 -8 -8 -8 -21 -1 -44 5 -17 11 -35 12 -41 2 -5
7 -25 11 -42 4 -18 12 -33 17 -33 6 0 8 -6 5 -14 -3 -8 1 -20 9 -26 17 -15 19
-44 2 -34 -7 4 -8 3 -4 -5 4 -6 16 -9 26 -6 24 8 33 -30 15 -65 -24 -47 -72
-80 -115 -80 -68 0 -83 12 -112 86 -32 84 -51 185 -43 225 8 34 37 39 57 11
30 -42 90 -105 78 -83 -7 13 -30 43 -52 67 -49 53 -93 61 -104 18 -6 -24 -8
-23 -41 27 -67 98 -75 128 -84 303 -11 225 -17 278 -35 328 -22 61 -22 150 1
185 29 45 135 143 155 143 11 0 17 7 16 17 0 11 12 24 31 34 18 9 30 18 28 21
-9 9 90 90 246 204 15 10 80 64 145 120 129 109 244 189 302 210 50 18 98 14
94 -8z m2018 -366 c19 -13 28 -22 20 -19 -74 24 -120 43 -120 50 0 15 64 -5
100 -31z m-347 2 c13 -13 -3 -20 -37 -16 -20 2 -33 8 -30 13 6 10 57 12 67 3z
m284 -7 c7 0 13 -7 13 -14 0 -16 -32 -9 -65 14 -19 13 -18 14 10 7 16 -4 35
-7 42 -7z m-32 -37 c28 -14 57 -41 50 -48 -7 -8 -95 44 -95 56 0 7 3 12 8 10
4 -2 21 -10 37 -18z m-64 -24 c51 -21 95 -76 59 -73 -11 1 -20 4 -20 7 0 3
-21 19 -45 35 -64 43 -60 59 6 31z m-27 -78 c-6 -10 -42 12 -49 30 -3 9 4 8
25 -4 16 -10 27 -21 24 -26z m356 10 c0 -5 -7 -3 -15 6 -8 8 -15 18 -15 22 0
3 7 1 15 -6 8 -7 15 -17 15 -22z m-1465 -15 l-6 -28 17 29 c11 19 19 25 23 17
5 -7 12 -11 17 -10 21 4 22 -3 8 -43 -19 -55 -9 -63 14 -10 9 23 23 44 30 47
8 3 10 0 5 -8 -10 -16 -13 -97 -2 -97 4 0 17 12 28 26 l20 26 -2 -29 c-2 -24
1 -28 20 -25 21 3 22 1 11 -30 -6 -18 -16 -36 -22 -40 -7 -5 -6 -8 3 -8 8 0
20 8 28 18 13 15 13 15 4 -5 -13 -27 -14 -36 -2 -29 5 3 8 -2 7 -12 -1 -12 6
-17 27 -16 28 1 77 -43 77 -71 0 -7 5 -15 11 -17 9 -3 9 -10 -1 -27 -9 -17 -9
-30 -1 -47 7 -17 7 -25 -1 -30 -7 -5 -8 -3 -3 6 5 9 4 11 -3 6 -8 -5 -9 -13
-2 -25 6 -12 5 -22 -2 -29 -7 -7 -9 -12 -4 -12 11 0 -50 -59 -65 -62 -7 -2
-20 -11 -30 -20 -10 -9 -36 -22 -58 -28 -22 -6 -47 -20 -56 -33 -8 -12 -15
-18 -15 -15 0 4 -13 2 -30 -3 -16 -6 -30 -16 -30 -22 0 -7 -5 -5 -10 3 -7 11
-10 11 -10 2 0 -7 -4 -10 -10 -7 -5 3 -7 0 -4 -9 4 -11 0 -13 -15 -9 -12 3
-21 1 -21 -6 0 -6 -7 -8 -17 -4 -12 5 -15 2 -11 -9 5 -11 0 -14 -19 -10 -20 4
-24 2 -18 -9 5 -8 5 -11 0 -7 -4 4 -15 2 -23 -5 -13 -10 -14 -9 -7 3 6 12 5
12 -5 3 -7 -6 -19 -9 -26 -6 -9 3 -12 0 -9 -8 3 -9 -3 -14 -20 -15 -16 -1 -23
2 -19 10 3 6 0 4 -8 -5 -9 -11 -19 -14 -33 -8 -32 12 -38 10 -21 -7 20 -20 20
-27 -1 -40 -20 -12 -55 -12 -90 0 -16 5 -23 2 -28 -14 -6 -19 -11 -22 -45 -24
-8 -1 -13 -6 -10 -11 3 -6 7 -9 10 -8 3 1 6 -21 8 -48 2 -27 1 -49 -1 -49 -2
0 -23 18 -46 40 -54 52 -80 54 -46 4 14 -20 26 -45 27 -55 1 -11 3 -32 5 -49
3 -16 5 -43 6 -60 1 -16 5 -30 8 -30 4 0 9 -10 13 -22 5 -19 8 -21 16 -8 8 12
10 9 10 -13 0 -23 3 -26 16 -19 11 6 28 3 52 -8 20 -10 49 -16 66 -13 24 3 27
1 16 -6 -10 -7 -11 -11 -2 -11 6 0 12 -5 12 -11 0 -5 -4 -7 -10 -4 -5 3 -10 1
-10 -4 0 -20 19 -11 35 17 10 17 14 20 11 7 -5 -20 -5 -20 7 -1 17 28 78 86
91 87 6 1 15 1 19 0 5 -1 6 3 2 9 -3 5 5 14 20 20 14 5 30 20 35 32 6 16 9 18
9 6 1 -20 37 -13 45 9 3 8 11 11 16 8 16 -10 82 24 74 37 -4 7 -2 8 4 4 7 -4
12 -1 12 6 0 10 2 10 9 -1 6 -9 11 -10 15 -2 4 6 12 9 17 5 6 -3 28 6 51 21
22 15 50 28 62 29 12 1 28 6 35 11 10 6 12 4 6 -5 -5 -8 -3 -11 6 -8 8 3 13
11 12 17 -3 10 18 15 55 14 6 -1 12 4 12 10 0 6 3 7 7 4 3 -4 14 4 23 19 l17
25 5 -25 c3 -14 0 -27 -6 -29 -6 -2 -8 -8 -4 -11 3 -4 16 2 28 14 19 19 21 19
18 3 -2 -10 -33 -48 -70 -85 -36 -38 -64 -68 -61 -68 26 0 193 144 193 166 0
8 5 14 10 14 6 0 10 6 10 14 0 8 6 16 13 19 10 4 13 -5 12 -30 -3 -43 18 -54
44 -22 24 30 39 18 20 -17 -24 -46 -92 -103 -164 -138 -89 -43 -125 -53 -254
-66 -135 -13 -169 -23 -246 -70 -132 -81 -154 -88 -208 -65 -16 7 -16 5 -6
-19 10 -21 9 -33 -6 -67 -21 -45 -40 -59 -83 -59 -17 0 -40 -10 -56 -25 -43
-40 -138 -91 -258 -139 -115 -46 -338 -109 -338 -96 0 4 28 22 63 39 34 18 86
51 115 73 59 44 62 62 22 110 -11 12 -29 34 -40 48 -17 20 -19 21 -11 4 5 -11
17 -41 25 -65 18 -51 10 -70 -49 -114 -35 -28 -165 -85 -192 -85 -8 0 -11 -4
-8 -10 10 -17 -34 -11 -86 11 -67 29 -91 70 -97 165 -4 62 -2 75 12 80 9 3 16
14 16 23 0 20 30 49 110 107 74 55 90 62 126 60 48 -2 81 -31 144 -128 33 -51
60 -88 60 -85 0 14 -59 125 -70 132 -6 3 -8 11 -5 16 4 5 1 9 -5 9 -6 0 -24
13 -40 28 -70 70 -126 71 -213 4 -28 -23 -53 -39 -55 -37 -11 11 43 90 125
180 95 105 209 204 276 240 20 11 37 23 37 27 0 13 152 85 227 107 91 27 196
97 284 188 72 74 125 149 108 155 -7 2 -4 19 6 46 10 24 15 46 11 49 -3 4 -6
-1 -6 -10 0 -10 -4 -17 -10 -17 -5 0 -8 6 -5 13 2 6 6 35 9 62 12 115 17 128
75 187 31 32 57 58 59 58 1 0 0 -12 -3 -27z m1415 12 c7 -8 9 -15 6 -15 -4 0
-14 7 -22 15 -9 8 -11 15 -6 15 5 0 15 -7 22 -15z m-24 -30 c22 -33 15 -39
-23 -20 -40 20 -48 40 -17 43 16 1 29 -7 40 -23z m-81 -5 c15 -6 33 -16 40
-24 12 -12 12 -15 0 -20 -18 -6 -45 3 -45 15 0 5 -6 9 -12 9 -7 0 -22 7 -32
15 -19 15 -19 15 1 15 12 0 34 -5 48 -10z m-34 -47 c33 -20 46 -43 21 -38 -19
3 -92 44 -92 51 0 10 45 2 71 -13z m-31 -55 c0 -6 -6 -5 -15 2 -8 7 -15 14
-15 16 0 2 7 1 15 -2 8 -4 15 -11 15 -16z m-1945 -59 c5 -6 4 -9 -4 -9 -8 0
-11 -6 -7 -15 3 -9 0 -15 -8 -15 -7 0 -18 -11 -24 -26 -11 -23 -10 -26 23 -40
19 -8 35 -19 35 -24 0 -13 -13 -13 -27 1 -6 6 -42 22 -80 34 -56 19 -63 24
-36 24 32 1 61 31 48 50 -3 5 3 11 12 14 15 3 14 6 -7 15 -21 10 -19 10 20 5
25 -3 49 -9 55 -14z m-75 -114 c19 -11 21 -14 8 -15 -10 0 -25 -12 -35 -26
-16 -25 -16 -27 3 -41 18 -15 18 -15 -3 -9 -16 5 -25 1 -33 -14 -6 -11 -8 -20
-4 -20 4 0 5 -2 2 -5 -3 -3 -22 2 -41 11 -33 16 -35 19 -19 30 16 12 15 13 -8
23 l-25 10 30 0 c22 1 34 9 47 30 15 28 15 30 0 34 -9 3 -1 5 18 5 19 1 46 -5
60 -13z m550 -61 c0 -3 -11 -28 -25 -56 -14 -27 -25 -58 -25 -68 0 -10 -9 -28
-21 -41 l-20 -24 5 58 c5 60 34 124 55 120 6 -2 11 2 11 7 0 6 5 10 10 10 6 0
10 -3 10 -6z m-642 -73 c10 -6 -9 -42 -77 -143 -121 -184 -191 -296 -191 -308
0 -5 -4 -10 -9 -10 -6 0 -13 20 -16 44 -8 51 9 86 115 246 31 47 69 106 84
133 22 37 33 47 54 47 15 0 33 -4 40 -9z m1531 -536 c-12 -19 -26 -35 -31 -35
-6 0 -5 -6 2 -15 10 -12 10 -15 -1 -15 -8 0 -30 -14 -49 -31 -33 -29 -32 -29
23 6 33 20 64 34 70 32 14 -4 18 -37 4 -37 -7 0 -4 -5 6 -11 10 -6 25 -8 33
-5 12 4 12 2 4 -14 -6 -11 -17 -20 -24 -20 -8 0 -16 -6 -19 -14 -3 -8 -18 -20
-34 -29 -15 -8 -53 -28 -83 -45 -30 -17 -68 -33 -85 -36 -16 -2 -30 -5 -30 -6
0 -1 -20 -3 -45 -5 -25 -1 -39 -1 -32 2 29 11 7 19 -48 17 -38 -2 -62 2 -66 9
-4 7 -4 9 0 6 10 -10 99 24 102 39 1 7 0 8 -3 2 -6 -13 -53 -13 -53 1 0 6 -5
7 -12 2 -21 -13 -71 -11 -100 3 -16 8 -28 10 -28 5 0 -5 -9 -7 -21 -4 -16 4
-17 8 -7 14 7 5 9 9 3 9 -5 0 -3 5 5 10 8 5 38 10 65 10 28 0 76 7 107 14 64
16 254 103 281 130 9 10 17 15 17 11 0 -3 10 3 22 15 36 33 50 25 27 -15z
m-2305 -89 c26 -47 49 -103 52 -128 8 -71 11 -168 4 -168 -4 0 -7 -12 -8 -28
-1 -29 -69 -166 -118 -237 -14 -19 -14 -19 -16 5 0 14 0 50 1 80 2 32 -7 91
-19 140 -30 115 -23 285 15 367 13 29 28 53 34 53 5 0 30 -38 55 -84z m176
-352 c0 -1 -20 -31 -44 -66 -76 -109 -167 -258 -165 -271 4 -31 -2 -35 -43
-30 -56 7 -68 20 -30 30 26 7 48 35 142 180 78 121 115 170 126 166 7 -3 14
-7 14 -9z m160 -109 c0 -55 5 -46 -162 -282 -44 -62 -84 -115 -89 -118 -5 -4
-9 4 -9 17 0 13 -6 33 -14 44 -13 18 -11 25 23 69 167 220 231 311 231 329 0
17 2 18 10 6 5 -8 10 -37 10 -65z m926 -82 c13 -15 24 -30 24 -33 0 -3 17 -7
38 -8 20 -2 38 -7 40 -12 2 -5 12 -4 22 2 28 18 33 5 17 -35 -15 -35 -49 -54
-107 -58 -39 -2 -47 2 -20 11 18 6 5 8 -45 9 -92 1 -115 16 -115 76 0 36 5 47
27 63 38 28 87 22 119 -15z m-733 -81 c46 -12 55 -17 46 -28 -6 -8 -15 -29
-19 -47 l-8 -32 -7 33 c-5 20 -14 32 -24 32 -14 0 -14 -2 -1 -10 8 -5 11 -12
7 -16 -4 -4 -15 0 -25 9 -10 10 -22 14 -25 10 -4 -3 -7 2 -7 12 0 14 -3 15
-15 5 -13 -11 -15 -7 -15 25 0 32 3 36 18 30 9 -5 43 -15 75 -23z m303 -7 c8
-8 20 -15 25 -15 5 0 9 -7 9 -15 0 -8 3 -14 8 -14 22 4 53 -2 48 -9 -6 -9 59
-7 92 3 14 5 22 3 22 -4 0 -7 -6 -9 -12 -6 -7 4 -5 0 4 -7 22 -18 16 -75 -11
-101 -31 -32 -68 -15 -153 73 -73 75 -79 79 -132 85 -31 4 -56 11 -56 15 0 24
132 20 156 -5z m-201 -35 c-4 -6 2 -7 17 -1 13 5 49 8 82 6 53 -2 61 -5 90
-38 17 -19 57 -58 89 -86 53 -47 55 -67 4 -39 -12 7 -31 11 -42 10 -25 -3
-223 55 -252 74 -25 16 -30 53 -11 72 14 14 32 16 23 2z m-740 -92 c-38 -135
-87 -248 -107 -248 -14 0 -9 16 16 52 23 34 44 90 66 176 6 23 15 42 21 42 6
0 8 -10 4 -22z m-111 -293 c-9 -14 -19 -24 -21 -21 -6 6 20 46 30 46 4 0 0
-11 -9 -25z m2936 -200 c17 -9 30 -17 30 -20 0 -4 -71 24 -79 31 -11 10 23 2
49 -11z m107 -40 c4 -4 3 -5 -4 -2 -6 4 -13 2 -15 -5 -3 -8 -6 -6 -10 4 -7 17
15 19 29 3z m56 -32 c-7 -2 -19 -2 -25 0 -7 3 -2 5 12 5 14 0 19 -2 13 -5z
m-50 -10 c-7 -2 -19 -2 -25 0 -7 3 -2 5 12 5 14 0 19 -2 13 -5z m255 0 c-16
-2 -40 -2 -55 0 -16 2 -3 4 27 4 30 0 43 -2 28 -4z m-121 -10 c-20 -2 -52 -2
-70 0 -17 2 0 4 38 4 39 0 53 -2 32 -4z m360 -49 c-4 -4 -93 -8 -199 -9 -106
-1 -240 -5 -298 -8 -118 -7 -116 -1 5 12 95 10 501 14 492 5z m-624 -31 c-7
-2 -19 -2 -25 0 -7 3 -2 5 12 5 14 0 19 -2 13 -5z m492 -3 c-55 -11 -300 -29
-475 -35 l-145 -4 70 14 c88 19 271 32 450 33 95 0 127 -3 100 -8z m326 -12
c9 -7 23 -25 32 -40 17 -27 17 -28 -7 -34 -14 -3 -70 1 -126 10 -55 9 -126 17
-158 17 -31 1 -70 4 -87 8 -25 6 -19 9 40 16 39 5 83 9 98 10 15 1 33 7 39 13
16 16 150 16 169 0z m139 -18 l35 -29 -27 -1 c-27 0 -68 30 -68 50 0 18 26 10
60 -20z"/>
<path d="M5381 3221 c-8 -6 -9 -11 -3 -15 6 -3 14 -1 17 5 9 14 2 20 -14 10z"/>
<path d="M4112 2146 c3 -27 1 -33 -12 -28 -8 3 -4 -4 10 -15 13 -11 31 -18 39
-15 8 3 12 1 8 -5 -4 -6 5 -10 21 -9 15 1 34 -3 42 -9 8 -5 -6 11 -32 36 -27
25 -48 53 -48 62 0 9 -7 17 -16 17 -12 0 -15 -8 -12 -34z"/>
<path d="M5630 2400 c-13 -8 -13 -10 2 -10 9 0 20 5 23 10 8 13 -5 13 -25 0z"/>
<path d="M5760 2395 c-9 -10 -9 -15 -1 -15 6 0 11 5 11 11 0 5 5 7 12 3 7 -4
8 -3 4 4 -9 15 -11 15 -26 -3z"/>
<path d="M5490 2339 c0 -5 5 -7 10 -4 6 3 10 8 10 11 0 2 -4 4 -10 4 -5 0 -10
-5 -10 -11z"/>
<path d="M5518 2273 c7 -3 16 -2 19 1 4 3 -2 6 -13 5 -11 0 -14 -3 -6 -6z"/>
<path d="M3709 1853 c-24 -32 -67 -91 -96 -130 -62 -85 -73 -132 -16 -68 41
46 173 234 173 247 0 21 -23 3 -61 -49z"/>
<path d="M3988 1793 c7 -3 16 -2 19 1 4 3 -2 6 -13 5 -11 0 -14 -3 -6 -6z"/>
<path d="M5713 1223 c9 -2 23 -2 30 0 6 3 -1 5 -18 5 -16 0 -22 -2 -12 -5z"/>
<path d="M5510 1141 c0 -5 8 -7 19 -4 37 9 194 -48 284 -104 48 -30 87 -56 87
-58 0 -2 -53 14 -117 36 -126 43 -259 73 -276 62 -5 -3 -7 -1 -4 4 4 6 -12 13
-40 17 -83 11 -79 6 25 -29 56 -19 116 -42 133 -51 17 -8 33 -13 35 -11 3 3
-20 15 -50 28 -31 12 -54 24 -52 26 3 4 51 -9 325 -88 70 -20 86 -19 49 4 -12
8 -50 31 -83 51 -66 40 -61 47 12 15 79 -34 95 -40 88 -30 -8 13 -226 96 -318
120 -84 23 -117 26 -117 12z"/>
<path d="M5557 1099 c7 -7 15 -10 18 -7 3 3 -2 9 -12 12 -14 6 -15 5 -6 -5z"/>
<path d="M5405 1035 c33 -8 140 -39 239 -69 98 -31 180 -56 182 -56 16 0 -3
24 -39 49 -29 20 -44 25 -44 16 0 -8 3 -13 6 -12 3 0 20 -6 36 -16 49 -27 9
-19 -124 24 -149 48 -266 79 -295 78 -12 -1 6 -7 39 -14z"/>
<path d="M5198 1033 c7 -3 16 -2 19 1 4 3 -2 6 -13 5 -11 0 -14 -3 -6 -6z"/>
<path d="M5248 1023 c6 -2 18 -2 25 0 6 3 1 5 -13 5 -14 0 -19 -2 -12 -5z"/>
<path d="M5405 984 c66 -19 157 -51 203 -71 46 -19 85 -33 88 -31 12 12 -179
85 -308 118 -124 32 -113 22 17 -16z"/>
<path d="M5670 994 c0 -7 52 -25 57 -20 2 2 -10 8 -26 14 -17 6 -31 9 -31 6z"/>
<path d="M5218 983 c7 -3 16 -2 19 1 4 3 -2 6 -13 5 -11 0 -14 -3 -6 -6z"/>
<path d="M5268 973 c7 -3 16 -2 19 1 4 3 -2 6 -13 5 -11 0 -14 -3 -6 -6z"/>
<path d="M5430 921 c74 -26 146 -53 158 -60 13 -7 26 -11 28 -8 7 7 -127 64
-217 91 -132 40 -118 30 31 -23z"/>
<path d="M5118 923 c7 -3 16 -2 19 1 4 3 -2 6 -13 5 -11 0 -14 -3 -6 -6z"/>
<path d="M5190 904 c25 -7 50 -13 55 -13 18 1 -59 27 -80 28 -11 0 0 -7 25
-15z"/>
<path d="M4953 883 c26 -2 47 -8 47 -12 0 -4 13 -6 29 -3 81 12 402 -70 426
-108 9 -14 25 -13 25 3 0 21 -136 104 -200 121 -14 4 8 -9 48 -29 41 -20 72
-39 69 -41 -2 -2 -30 5 -63 16 -77 27 -213 49 -333 53 -53 2 -75 2 -48 0z"/>
<path d="M5006 829 c16 -26 99 -51 192 -58 54 -4 99 -6 101 -4 12 9 -17 15
-118 22 -84 7 -119 14 -146 30 -20 12 -33 16 -29 10z"/>
</g>
</svg>
