<?xml version="1.0" standalone="no"?>
<!DOCTYPE svg PUBLIC "-//W3C//DTD SVG 20010904//EN"
 "http://www.w3.org/TR/2001/REC-SVG-20010904/DTD/svg10.dtd">
<svg version="1.0" xmlns="http://www.w3.org/2000/svg"
 width="725.000000pt" height="481.000000pt" viewBox="0 0 725.000000 481.000000"
 preserveAspectRatio="xMidYMid meet">

<g transform="translate(0.000000,481.000000) scale(0.100000,-0.100000)"
fill="#000000" stroke="none">
<path d="M1060 4801 c0 -11 52 -63 58 -57 5 6 -40 65 -50 65 -5 1 -8 -3 -8 -8z"/>
<path d="M1316 4786 c-3 -14 -9 -69 -12 -122 -3 -54 -7 -101 -10 -106 -3 -4 3
-8 13 -8 10 0 38 -10 63 -21 l45 -21 -33 -27 c-29 -25 -101 -56 -109 -47 -5 5
-5 240 1 264 3 12 1 22 -4 22 -5 0 -12 -10 -14 -22 -4 -20 -26 -285 -26 -316
0 -24 -23 -11 -88 51 -104 98 -101 97 -98 37 2 -36 9 -58 23 -72 20 -20 20
-21 2 -39 -49 -49 7 -195 117 -306 59 -60 75 -56 20 4 -53 60 -59 78 -51 149
7 66 12 73 34 52 10 -11 11 -6 5 26 -11 60 10 36 26 -29 9 -36 22 -63 37 -75
15 -12 21 -24 17 -35 -10 -25 13 -35 78 -35 66 0 88 -7 88 -27 0 -14 -8 -13
-60 5 -11 4 -9 -1 5 -17 13 -16 21 -44 26 -94 5 -61 10 -74 34 -94 15 -14 33
-22 39 -20 7 3 13 -5 14 -16 1 -18 -1 -19 -9 -7 -8 12 -9 10 -4 -7 5 -18 1
-22 -27 -28 -90 -20 -179 -101 -178 -162 1 -15 5 -13 25 9 16 18 25 23 29 15
4 -7 4 -2 2 11 -6 32 9 27 35 -10 16 -22 17 -28 6 -19 -15 12 -17 11 -17 -3 0
-10 -3 -16 -7 -14 -5 2 -21 -9 -36 -25 -20 -21 -23 -28 -10 -23 10 4 37 12 61
19 39 10 43 9 57 -11 9 -12 33 -27 54 -33 59 -18 132 -78 159 -132 30 -56 24
-73 -8 -23 -12 21 -30 36 -40 36 -23 0 -37 20 -20 30 8 5 7 9 -5 14 -43 16
-46 5 -11 -34 52 -58 44 -72 -9 -17 -39 41 -77 64 -60 37 11 -18 -10 -11 -27
9 -22 26 -190 88 -175 65 3 -5 -16 -7 -43 -6 -102 8 -220 -78 -256 -185 -15
-43 -16 -56 -6 -62 7 -4 10 -15 6 -24 -8 -23 25 -75 61 -93 16 -9 57 -18 90
-21 55 -5 64 -3 93 22 36 31 42 67 15 98 -18 20 -17 20 17 12 19 -5 52 -8 73
-8 35 1 37 0 23 -15 -8 -10 -17 -29 -21 -43 -5 -22 -1 -30 22 -46 15 -11 38
-23 49 -27 26 -8 74 9 92 31 8 11 12 12 12 4 0 -7 -13 -26 -29 -42 -39 -39
-100 -41 -136 -4 -14 13 -25 29 -25 35 0 5 -4 10 -10 10 -29 0 2 -114 42 -157
24 -26 18 -39 -22 -46 -14 -2 -3 -3 24 0 l49 4 -38 -35 c-21 -20 -42 -36 -46
-36 -5 0 -9 -13 -9 -30 0 -16 4 -30 10 -30 5 0 7 7 4 15 -4 9 4 26 19 41 31
30 66 25 68 -9 1 -17 2 -18 6 -4 2 9 9 15 14 12 15 -10 11 -19 -30 -64 -39
-43 -39 -45 -25 -73 13 -26 13 -28 -3 -29 -18 -1 27 -15 80 -26 21 -4 27 -10
22 -22 -4 -9 -8 -28 -9 -44 -3 -35 -18 -50 -41 -41 -17 7 -17 8 3 15 25 9 29
27 8 35 -21 8 -74 -22 -81 -46 -9 -28 18 -68 52 -76 35 -9 72 5 97 39 20 27
20 29 3 58 -19 33 -23 69 -7 69 5 0 12 -17 16 -37 20 -109 140 -222 238 -223
20 -1 20 -1 2 -15 -22 -17 -16 -28 22 -44 28 -12 57 -54 54 -77 -1 -6 8 -16
20 -22 22 -12 22 -12 1 -7 -12 4 -39 -4 -66 -20 -25 -14 -53 -25 -61 -25 -18
0 -21 -15 -6 -25 5 -3 7 -12 3 -20 -3 -8 0 -15 6 -15 6 0 11 6 12 13 0 6 7
-15 15 -47 8 -33 20 -66 27 -75 6 -8 8 -12 2 -9 -6 4 -10 -14 -10 -45 0 -48
-2 -52 -22 -49 -13 2 -23 -1 -23 -7 0 -5 -15 -13 -32 -16 -18 -4 -39 -12 -45
-17 -9 -7 -18 -6 -28 2 -13 10 -19 10 -33 -4 -10 -9 -23 -16 -29 -16 -12 0
-22 -39 -15 -58 7 -22 22 -12 23 16 2 24 2 25 6 4 3 -18 9 -22 21 -16 9 4 44
17 77 29 33 12 74 29 92 38 17 9 34 13 37 9 3 -5 -19 -47 -47 -95 -50 -83 -53
-86 -88 -87 -20 0 -53 7 -74 16 -20 8 -40 12 -44 8 -3 -4 0 -9 7 -12 8 -2 28
-16 45 -31 39 -33 79 -61 88 -61 11 0 69 51 69 60 0 5 -9 12 -20 15 -20 6 -20
7 6 38 15 18 37 38 50 45 21 11 25 10 31 -3 3 -9 17 -21 32 -26 20 -8 22 -12
11 -19 -10 -6 -22 -2 -37 12 -21 20 -23 20 -23 3 0 -10 7 -27 17 -37 15 -17
15 -18 -10 -18 -24 0 -28 -4 -26 -26 1 -14 -58 -48 -119 -70 -79 -28 -150 -31
-195 -8 -32 17 -32 17 -14 -3 35 -40 118 -77 172 -76 115 2 134 7 164 43 16
19 46 45 68 57 l39 22 25 -32 c24 -30 59 -90 59 -101 0 -2 -28 -27 -62 -54
-35 -27 -90 -71 -123 -98 -33 -27 -74 -59 -90 -72 -29 -22 -29 -23 -5 -16 14
4 61 24 106 45 76 36 82 37 118 25 24 -8 33 -15 24 -19 -20 -7 -44 -95 -30
-109 15 -15 42 31 49 81 5 39 6 40 43 38 l38 -2 -21 -30 c-12 -16 -29 -52 -39
-80 -12 -35 -22 -49 -33 -47 -13 3 -14 0 -4 -17 11 -16 9 -27 -6 -62 -15 -31
-16 -44 -7 -47 19 -6 14 -18 -7 -19 -29 -2 -68 -31 -74 -55 -6 -20 31 -68 51
-68 5 0 15 -13 22 -29 6 -16 20 -37 31 -47 10 -9 19 -27 20 -38 0 -14 5 -8 16
19 9 22 20 41 24 43 4 2 5 10 2 19 -4 10 -2 14 7 11 7 -2 33 16 59 39 25 24
67 53 92 64 27 12 51 31 57 45 9 19 19 24 50 24 21 0 43 5 49 11 33 33 156
-68 169 -139 8 -42 -7 -108 -24 -105 -16 4 -34 -34 -27 -56 3 -10 -1 -24 -10
-31 -17 -14 -20 -40 -5 -40 5 0 32 -33 59 -74 121 -179 296 -346 440 -420 149
-76 330 -122 452 -114 74 4 109 24 136 78 15 30 21 34 39 26 11 -5 28 -22 37
-38 9 -15 32 -38 52 -49 38 -23 45 -32 18 -22 -15 5 -16 3 -6 -8 14 -14 73
-16 95 -3 14 9 16 9 113 20 38 4 63 9 55 12 -52 16 -118 55 -123 72 -3 11 -20
28 -37 37 -47 26 -90 63 -89 76 0 8 2 8 6 -1 2 -7 13 -17 23 -22 18 -9 18 -8
4 17 -26 51 -15 54 29 8 37 -38 49 -44 80 -43 44 2 40 13 -8 22 -19 4 -37 10
-39 15 -3 4 11 4 32 0 20 -4 57 -12 82 -18 25 -5 63 -16 85 -25 85 -33 184
-10 255 59 19 19 49 41 65 49 17 9 23 16 14 16 -8 0 -44 -20 -80 -45 -35 -25
-87 -53 -115 -61 -48 -14 -58 -13 -129 5 -82 22 -127 46 -134 71 -21 80 -7 89
53 32 26 -24 36 -30 31 -17 -5 11 -10 38 -13 60 -4 38 -3 39 12 20 8 -11 16
-16 16 -12 0 5 14 -3 31 -17 20 -17 42 -26 66 -26 29 0 33 -2 24 -14 -9 -11
-8 -15 5 -20 36 -14 87 -4 161 30 118 54 243 58 243 7 0 -19 -38 -83 -60 -100
-27 -22 1 -14 59 17 70 37 303 115 394 131 63 12 70 11 111 -9 53 -27 85 -28
34 -2 -39 21 -78 64 -78 87 0 50 65 107 150 129 25 7 36 13 25 13 -11 1 -36
-3 -54 -9 -50 -14 -52 -3 -6 35 22 19 37 36 34 39 -3 3 -32 -20 -65 -51 -75
-70 -155 -123 -241 -158 -91 -38 -231 -46 -345 -20 -62 15 -83 16 -104 7 -15
-7 -22 -17 -18 -24 4 -6 3 -8 -4 -4 -6 3 -39 -9 -74 -28 -75 -40 -133 -60
-149 -51 -6 4 6 15 29 25 23 10 51 30 63 44 23 26 65 44 120 51 37 5 65 22
137 84 49 43 52 49 47 80 l-6 33 53 -6 c35 -5 66 -2 93 7 l40 14 -91 5 c-89 5
-184 34 -184 57 0 5 15 2 33 -7 25 -13 60 -17 162 -17 137 0 223 15 248 43 15
16 8 17 -92 14 -121 -4 -204 8 -268 39 -63 31 -48 32 33 4 38 -14 83 -24 99
-24 17 1 23 3 13 6 -9 2 -19 11 -22 20 -4 11 -2 14 9 9 8 -3 15 -2 15 3 0 4
-28 15 -61 25 -34 9 -60 18 -58 20 2 2 49 -1 104 -7 113 -11 198 1 237 34 l23
19 -37 -15 c-55 -22 -81 -18 -36 5 20 11 40 24 43 30 4 6 -13 0 -37 -12 -38
-21 -58 -23 -183 -24 l-140 -2 130 7 c105 6 138 12 173 30 100 51 110 167 18
207 -29 13 -30 13 -6 14 35 0 89 -35 94 -62 3 -13 7 -32 9 -43 3 -12 5 -8 6
12 1 35 -36 88 -70 98 -10 4 -17 11 -14 16 9 14 68 11 92 -6 28 -20 47 -78 40
-124 -5 -29 -4 -32 5 -17 14 25 5 99 -17 132 -9 14 -33 33 -53 42 l-37 15 32
10 c25 8 40 6 72 -10 22 -11 38 -16 34 -11 -3 6 -24 18 -46 28 l-41 18 36 7
c98 19 146 -104 82 -212 -29 -50 -23 -63 26 -63 66 0 162 53 145 80 -3 6 1 7
10 4 11 -4 19 4 30 30 8 19 15 41 15 48 0 18 -17 -3 -22 -27 -3 -16 -5 -15
-10 8 -4 23 -1 30 18 37 13 5 24 14 24 19 0 5 10 13 23 16 35 11 176 93 244
143 61 45 118 113 111 134 -2 6 -16 -9 -32 -32 -19 -28 -43 -49 -79 -66 -47
-22 -65 -24 -187 -23 -74 0 -153 3 -175 7 l-40 8 40 16 c22 8 60 19 85 23 25
3 83 18 130 32 l85 25 -40 13 c-49 16 -135 54 -135 61 0 3 8 14 19 25 10 11
21 33 24 48 12 56 107 97 179 77 l28 -8 -6 44 c-6 40 -4 45 20 56 36 16 36 16
26 -18 -7 -26 -5 -32 19 -49 16 -11 48 -23 72 -26 24 -3 72 -11 106 -17 154
-26 349 80 429 232 26 49 29 65 29 150 0 74 -4 103 -19 130 -36 67 -75 107
-138 141 -56 30 -72 34 -138 34 -57 0 -85 -5 -115 -21 -69 -36 -103 -111 -74
-165 9 -18 13 -16 42 27 44 65 87 87 156 80 63 -6 112 -40 149 -102 33 -57 28
-144 -13 -201 -65 -90 -139 -112 -195 -58 -29 27 -60 33 -60 11 0 -25 -34 -76
-48 -71 -7 3 -66 15 -130 26 -132 25 -169 42 -70 32 94 -8 185 23 255 90 57
54 98 126 89 155 -11 35 -42 55 -64 43 -16 -8 -23 -29 -33 -86 -6 -41 -15 -75
-18 -75 -3 0 -15 7 -25 15 -22 17 -62 20 -70 6 -4 -5 0 -11 6 -14 7 -2 10 -8
6 -12 -4 -4 -14 -2 -23 5 -12 10 -20 7 -46 -19 -17 -17 -35 -31 -40 -31 -5 0
-9 18 -9 40 0 49 -13 51 -60 6 -26 -25 -40 -32 -55 -26 -17 6 -13 10 29 32
l48 24 -26 17 c-14 10 -26 25 -26 35 0 9 -7 30 -15 46 -19 35 -19 33 3 39 19
4 32 44 32 98 0 33 7 36 36 14 21 -16 44 -19 44 -6 0 5 -10 12 -22 15 l-23 6
24 20 c15 13 18 20 9 20 -8 0 -19 -5 -24 -10 -7 -7 -11 -1 -11 20 0 35 6 37
40 10 27 -22 42 -26 32 -10 -5 8 16 9 67 5 63 -5 78 -3 105 14 18 11 40 35 49
53 9 18 17 34 18 35 9 11 89 -27 128 -60 31 -25 52 -37 56 -31 4 6 52 17 107
24 120 15 138 22 104 40 -30 16 -89 63 -89 71 0 3 20 19 45 37 25 17 45 36 45
41 0 6 -16 13 -36 17 -24 4 -50 21 -75 46 l-38 39 -35 -39 c-20 -21 -64 -54
-98 -72 -34 -18 -72 -44 -84 -57 l-22 -24 -18 31 c-10 17 -24 28 -31 26 -7 -3
-13 1 -13 8 0 23 -45 37 -67 21 -10 -8 -24 -15 -32 -15 -8 0 -23 -7 -33 -17
-17 -15 -20 -14 -53 20 -41 42 -54 45 -86 17 l-24 -19 24 -1 c13 0 21 -3 18
-7 -4 -3 11 -14 33 -24 22 -10 40 -22 40 -27 0 -5 19 -7 43 -5 59 5 128 4 138
-3 14 -8 11 -72 -3 -71 -29 1 -48 -4 -48 -11 0 -5 7 -9 15 -9 8 0 15 5 15 11
0 6 5 5 12 -2 29 -29 -46 -43 -95 -17 -23 12 -32 12 -49 2 -16 -9 -22 -9 -25
0 -3 9 -10 10 -23 3 -22 -12 -28 -4 -25 28 1 18 -2 21 -19 16 -12 -3 -33 -19
-48 -36 l-27 -30 -25 28 c-27 32 -25 44 7 44 16 0 11 6 -19 19 -37 17 -60 43
-56 64 1 4 -3 7 -8 7 -6 0 -10 -5 -10 -11 0 -8 -4 -8 -14 1 -8 6 -12 18 -9 26
3 8 0 14 -6 14 -6 0 -11 5 -11 12 0 6 9 3 20 -7 15 -14 20 -15 20 -4 0 16 -95
102 -152 140 -20 13 -43 35 -51 49 -11 18 -23 25 -44 24 -44 -1 -60 -14 -38
-30 21 -16 13 -44 -12 -44 -16 -1 -16 -2 -2 -13 9 -7 26 -32 38 -57 l22 -45
-40 45 c-22 25 -41 51 -41 58 0 6 -6 12 -13 12 -39 0 -75 84 -42 96 19 8 19
20 0 28 -8 3 -14 0 -12 -7 5 -25 -28 -11 -50 22 -27 40 -23 52 9 25 12 -10 8
-2 -10 19 -42 49 -41 56 4 22 34 -26 35 -26 24 -5 l-12 23 38 -24 c33 -19 37
-20 24 -4 -17 21 -20 22 55 -10 l40 -17 -35 33 c-24 23 -45 33 -70 34 -28 1
-39 8 -57 34 -22 33 -32 88 -14 77 5 -4 7 4 3 16 -5 21 -5 21 29 -4 31 -23
120 -62 144 -64 6 0 21 -4 34 -8 17 -6 20 -10 11 -16 -7 -4 -9 -13 -5 -19 5
-9 11 -7 20 6 7 10 17 15 21 11 4 -4 19 1 33 11 23 16 34 18 86 9 82 -13 140
-6 210 25 49 22 56 23 37 7 -22 -18 -87 -41 -154 -55 -15 -3 -33 -12 -40 -21
-37 -44 -54 -53 -107 -60 -31 -5 -60 -7 -64 -6 -5 2 -6 -2 -2 -8 3 -5 18 -10
33 -10 26 -1 26 -1 8 -15 -13 -10 -43 -15 -87 -15 -67 0 -99 -6 -99 -19 0 -3
38 -6 83 -6 64 0 87 -4 100 -16 13 -13 31 -16 84 -13 37 2 70 9 74 15 4 7 12
8 19 4 6 -4 19 0 28 8 17 15 112 35 112 23 0 -22 -201 -93 -225 -78 -5 3 -4
-2 4 -11 20 -26 7 -31 -26 -11 l-28 18 18 -21 c12 -14 30 -21 50 -21 18 0 46
-2 62 -5 135 -22 195 -18 195 15 0 6 7 19 15 28 14 15 13 19 -10 43 -18 17
-22 26 -13 29 10 4 8 9 -5 22 -24 24 -21 35 11 42 63 16 81 64 27 75 l-30 5
57 55 c81 77 108 142 115 279 5 91 2 114 -16 169 -52 151 -166 266 -316 316
-27 9 -93 22 -145 30 l-95 13 66 1 c49 1 68 5 73 16 3 9 12 12 21 9 9 -4 14
-13 11 -20 -4 -9 2 -14 15 -14 11 0 17 5 14 10 -3 6 -1 10 4 10 6 0 11 -6 11
-14 0 -8 17 -20 38 -26 60 -20 135 -59 165 -88 15 -14 27 -21 27 -15 0 6 -21
30 -47 52 -29 25 -42 41 -32 41 28 0 70 -41 93 -89 29 -63 77 -129 99 -137 10
-3 16 -11 14 -18 -5 -12 25 -141 35 -151 3 -3 36 24 74 60 61 59 67 67 51 76
-10 6 -25 8 -32 5 -8 -3 -14 0 -12 7 1 7 -7 11 -18 10 -18 -1 -17 1 4 15 42
29 171 158 171 171 0 16 -41 4 -57 -18 -10 -14 -13 -14 -30 2 -11 9 -23 17
-28 17 -5 0 1 -9 13 -20 29 -27 28 -32 -5 -25 -23 5 -25 4 -10 -5 21 -14 23
-34 1 -26 -9 4 -13 2 -8 -5 14 -24 -66 2 -98 31 -18 17 -36 30 -40 30 -5 0 -8
10 -8 23 -1 19 -4 17 -21 -13 -11 -19 -18 -27 -15 -17 15 47 -84 137 -150 137
-22 0 -25 2 -14 15 7 8 9 15 4 15 -5 0 -2 5 6 10 12 8 8 10 -15 11 -17 1 -22
3 -12 6 23 6 22 23 -3 23 -34 0 -22 17 18 25 20 3 52 15 70 26 42 24 50 24 58
-3 3 -15 31 -39 75 -65 59 -36 69 -39 69 -23 0 22 -36 50 -63 50 -16 0 -14 6
12 44 32 46 64 119 75 172 6 28 5 31 -16 29 -13 -1 -42 -3 -65 -4 -33 -1 -43
-5 -44 -18 -1 -10 -5 15 -10 55 -9 78 -37 153 -70 189 l-21 21 41 27 c34 23
48 26 81 21 37 -6 40 -4 40 16 0 15 -11 29 -30 40 l-30 17 29 48 c16 26 32 58
35 70 6 18 1 16 -27 -12 -19 -19 -41 -35 -48 -35 -6 0 4 16 24 35 21 20 37 41
37 47 0 7 -7 3 -16 -8 -15 -19 -16 -19 -9 0 6 19 5 19 -13 3 -24 -22 -70 -22
-94 0 -23 20 -36 10 -17 -14 7 -10 0 -7 -16 7 l-29 25 17 -27 c22 -36 15 -36
-18 -1 -28 31 -34 20 -9 -15 8 -12 11 -22 5 -22 -5 0 -18 14 -28 30 -9 17 -25
30 -35 30 -18 0 -18 -1 -1 -27 l17 -28 -30 28 -30 27 -163 0 -164 0 -71 -56
-71 -55 59 55 59 56 -110 0 c-61 0 -146 -6 -189 -14 -44 -8 -105 -17 -137 -20
-56 -6 -58 -6 -52 15 5 15 3 20 -6 17 -8 -3 -15 -14 -17 -25 -5 -30 -60 -39
-106 -16 -22 10 -35 22 -32 30 4 10 -36 13 -205 13 l-210 0 12 -21 c7 -14 7
-25 1 -31 -11 -11 -26 7 -27 31 0 8 -7 17 -15 19 -13 5 -13 3 -1 -11 16 -21 5
-21 -29 -2 -14 8 -32 14 -40 14 -8 0 3 -9 25 -21 43 -22 95 -66 95 -81 0 -5
-17 4 -37 20 -54 42 -132 83 -157 83 -13 0 7 -16 53 -40 92 -51 180 -118 220
-169 25 -31 31 -48 31 -87 0 -62 12 -83 34 -65 15 12 15 15 -1 26 -9 7 -14 19
-10 29 9 22 39 21 35 -1 -1 -10 6 -31 16 -46 10 -15 24 -51 31 -80 7 -29 16
-61 20 -72 6 -19 6 -19 -8 -2 -17 21 -47 17 -67 -8 -14 -17 -30 -20 -30 -5 0
6 7 10 15 10 15 0 39 69 33 98 -2 9 -11 18 -22 20 -14 3 -17 -1 -11 -20 6 -21
5 -22 -6 -3 -104 178 -224 297 -383 380 -56 29 -78 35 -129 35 l-62 0 82 -29
c164 -57 316 -177 417 -329 l48 -72 -4 -75 c-4 -62 -2 -78 13 -94 10 -11 25
-34 32 -53 l14 -33 15 50 15 50 0 -59 c0 -32 5 -61 11 -65 7 -4 8 -12 1 -21
-8 -13 -10 -13 -19 0 -5 8 -10 22 -10 30 0 9 -3 11 -10 4 -9 -9 -17 -52 -22
-111 -1 -13 -13 -7 -46 24 -14 14 -7 37 9 28 5 -3 6 2 2 11 -6 15 -7 15 -20
-2 -25 -33 -34 -54 -24 -54 5 0 11 6 13 12 3 8 10 3 17 -11 12 -21 11 -23 -3
-18 -24 9 -20 -6 10 -38 l26 -28 -36 6 c-20 3 -36 2 -36 -2 0 -10 35 -21 66
-21 12 0 25 -7 28 -16 5 -12 1 -14 -17 -8 -12 4 -31 8 -42 9 -11 1 -28 5 -37
9 -12 5 -30 1 -53 -13 -41 -24 -43 -21 -13 19 20 28 20 31 5 48 -9 10 -17 22
-17 27 0 5 6 1 13 -8 11 -14 14 -14 31 -2 11 8 16 15 12 15 -5 0 -3 6 3 14 14
16 0 55 -35 98 l-23 28 -32 -27 c-17 -15 -38 -41 -45 -58 -7 -16 -13 -24 -14
-17 -1 34 31 83 64 99 20 9 36 22 36 29 0 7 6 14 13 17 8 2 12 27 11 78 -1
221 -176 437 -426 527 -63 22 -93 27 -213 30 -104 3 -158 0 -209 -12 -86 -20
-192 -76 -257 -134 -46 -41 -48 -45 -32 -57 15 -12 21 -11 39 6 11 10 26 19
33 19 8 0 31 16 52 35 78 70 188 106 328 106 177 0 358 -70 476 -185 36 -34
65 -71 65 -80 0 -9 6 -19 14 -22 8 -3 17 -12 20 -20 4 -10 1 -13 -7 -9 -6 4
-1 -4 13 -16 17 -15 19 -20 8 -16 -10 4 -18 2 -18 -3 0 -5 6 -10 13 -13 6 -2
1 -2 -13 0 -31 6 -41 14 -43 42 -1 11 -5 21 -9 21 -7 0 -44 37 -89 90 -20 24
-20 24 1 -8 12 -17 33 -60 48 -95 23 -54 26 -76 26 -167 0 -86 -4 -114 -22
-153 -31 -68 -93 -156 -143 -202 -24 -22 -33 -28 -21 -14 14 17 19 29 13 33
-5 4 -8 13 -4 21 3 8 0 15 -7 15 -6 0 -8 5 -5 10 3 6 1 10 -4 10 -6 0 -11 7
-11 16 0 12 -13 6 -49 -20 -82 -61 -156 -88 -246 -93 -85 -5 -163 7 -155 22 3
6 12 8 20 6 8 -1 56 -3 105 -4 72 0 100 4 138 21 96 43 172 139 191 240 7 39
-10 34 -19 -6 -3 -15 -22 -49 -41 -75 -29 -40 -38 -46 -47 -35 -32 38 -44 40
-82 14 -63 -43 -175 -63 -175 -32 0 22 20 30 61 27 40 -3 96 17 137 49 121 95
85 284 -68 353 -52 24 -162 29 -181 10 -7 -7 -17 -13 -23 -13 -6 0 -5 5 2 12
17 17 15 35 -5 42 -24 10 -39 -10 -23 -29 14 -17 14 -17 -41 -58 -51 -36 -79
-99 -79 -173 -1 -108 -65 -138 -91 -42 -12 47 -5 115 18 163 12 26 19 31 43
27 39 -6 68 35 49 70 -11 21 -11 22 4 9 15 -12 17 -11 17 3 0 9 -7 19 -15 22
-8 4 -12 10 -9 15 12 20 105 59 167 70 148 27 300 -54 368 -196 16 -33 29 -71
30 -85 0 -26 17 -74 18 -53 1 7 12 15 26 19 22 5 25 12 25 48 0 95 -90 211
-208 268 -58 28 -80 33 -162 36 -108 5 -190 -17 -266 -69 -23 -16 -47 -29 -52
-29 -6 0 -13 -11 -16 -25 -4 -14 -11 -23 -16 -20 -6 3 -10 1 -10 -4 0 -6 6
-11 13 -11 8 0 9 -3 1 -8 -6 -4 -11 -14 -11 -22 0 -8 -10 -35 -21 -58 l-20
-44 -4 66 c-4 63 -6 67 -47 102 -23 20 -40 42 -37 49 2 7 0 17 -5 22 -13 13
-29 73 -20 73 5 0 26 14 47 31 42 33 113 72 154 84 14 4 -11 -14 -55 -39 -86
-50 -143 -100 -127 -110 5 -3 32 12 60 34 50 40 145 92 211 115 32 11 21 12
-108 14 -137 1 -146 0 -190 -24 l-46 -26 24 25 24 26 -85 0 -86 0 -13 -32 c-7
-18 -13 -44 -12 -58 2 -17 -5 -10 -21 25 -17 35 -20 52 -12 57 6 5 1 8 -12 8
-19 0 -21 -3 -12 -19 5 -11 10 -27 10 -36 0 -33 -32 -85 -65 -105 -29 -18 -36
-19 -65 -6 -45 18 -93 91 -88 134 l4 32 -63 0 c-64 0 -75 -7 -48 -30 22 -18
45 -105 45 -167 0 -29 5 -53 10 -53 19 0 10 -15 -18 -31 -33 -19 -55 -81 -50
-142 3 -39 1 -42 -25 -45 -27 -3 -27 -3 -20 40 4 24 7 62 8 84 0 35 4 44 25
52 14 6 18 11 10 10 -8 0 -31 1 -50 2 l-35 2 40 13 c39 13 39 13 10 15 l-30 1
34 12 c19 7 36 18 39 25 2 7 -2 10 -12 6 -18 -7 -49 13 -41 27 3 4 -10 24 -30
43 -34 35 -49 60 -21 37 8 -7 17 -8 20 -3 3 5 18 7 35 4 16 -2 37 1 48 7 16
10 16 11 -7 10 -43 -3 -61 1 -55 11 4 6 -11 10 -39 10 -50 0 -59 -9 -70 -72
-8 -43 -18 -46 -105 -27 l-51 11 37 46 c57 72 57 71 34 65 -12 -3 -18 -10 -15
-17 3 -6 -1 -3 -10 8 -9 11 -22 16 -31 12 -12 -4 -18 0 -22 13 -4 14 -13 19
-34 19 -16 -1 -26 -5 -22 -11 4 -7 -1 -8 -13 -2 -10 4 -56 10 -101 13 -81 4
-83 4 -92 -21 -6 -14 -19 -28 -30 -32 -38 -12 -71 -63 -71 -111 0 -24 -4 -44
-10 -44 -5 0 -21 17 -34 37 -26 37 -26 37 -7 69 14 23 16 35 8 43 -17 17 -24
14 -48 -26 -12 -21 -24 -40 -25 -42 -3 -3 -31 14 -162 101 -23 15 -44 28 -46
28 -2 0 -7 -11 -10 -24z m662 -12 c-12 -12 -22 -13 -49 -5 l-34 11 38 -4 c20
-3 35 -1 32 4 -3 4 1 10 7 13 20 7 23 -2 6 -19z m2314 8 c15 -6 14 -15 -12
-97 -25 -77 -27 -92 -15 -104 20 -20 41 -7 49 30 3 18 11 51 17 72 l10 39 55
-7 c69 -8 70 5 2 42 l-52 28 50 3 c28 2 62 -2 77 -7 l26 -10 3 -138 3 -138 45
-24 c25 -14 46 -28 48 -31 3 -8 72 3 90 14 19 12 14 -5 -14 -46 -25 -35 -29
-37 -44 -23 -9 8 -21 15 -27 15 -5 0 -18 9 -29 21 -10 11 -27 25 -37 30 -14 8
-10 -3 14 -48 43 -78 44 -79 73 -60 24 16 26 16 45 -10 12 -14 21 -35 21 -47
0 -17 2 -18 9 -6 6 8 7 18 4 24 -3 5 -1 6 4 3 6 -4 15 -26 21 -50 14 -53 51
-138 52 -117 0 8 13 -17 29 -56 28 -70 77 -144 96 -144 6 0 16 -9 23 -20 15
-25 38 -26 51 -2 9 14 10 13 11 -11 0 -20 -6 -30 -20 -34 -15 -4 -18 -11 -13
-33 3 -15 0 -36 -6 -47 -9 -16 -10 -16 -11 6 0 40 -40 112 -73 132 -21 12 -33
15 -38 8 -5 -8 -12 -8 -27 0 -35 19 -85 13 -126 -15 l-39 -27 26 -14 c15 -7
27 -17 27 -21 0 -16 -71 -71 -85 -66 -8 4 -15 10 -15 15 0 5 -4 9 -10 9 -5 0
-9 -6 -7 -12 1 -7 -9 -14 -23 -16 -14 -2 -27 -7 -30 -11 -13 -18 -98 -41 -121
-32 -55 21 -79 90 -49 139 9 14 10 14 5 -5 -5 -18 -3 -22 9 -17 13 5 16 -1 16
-29 0 -32 3 -35 34 -39 34 -4 35 -3 30 27 l-5 30 20 -24 c12 -13 21 -18 21
-11 0 8 8 10 21 7 15 -4 23 1 30 20 7 18 14 23 27 19 10 -4 7 2 -8 14 -26 21
-12 27 21 10 27 -15 25 5 -3 24 -26 18 -17 21 14 5 11 -6 22 -8 25 -6 3 3 -8
12 -24 21 -25 14 -26 15 -6 16 12 0 25 -4 28 -10 3 -5 11 -10 18 -10 6 0 -1
12 -16 28 -22 22 -36 27 -76 27 -43 0 -47 2 -37 18 23 36 99 11 135 -45 24
-39 29 -19 4 22 -20 34 -81 70 -118 70 -23 0 -26 2 -15 15 15 18 43 19 72 4
13 -7 18 -7 14 -1 -3 6 -22 16 -41 22 -39 13 -38 30 1 30 30 0 108 -69 134
-119 11 -20 19 -29 20 -21 1 36 -77 123 -140 155 -25 13 -57 35 -73 50 -27 28
-36 55 -17 55 5 0 7 7 3 15 -6 16 -18 11 -18 -7 0 -6 -8 -16 -17 -22 -13 -8
-22 -5 -42 13 -13 13 -29 20 -35 16 -21 -12 -11 14 11 29 27 19 69 21 87 4 10
-11 11 -10 6 5 -4 9 -10 17 -14 17 -8 0 -41 54 -41 67 0 4 7 -1 15 -11 21 -28
31 -11 11 19 -12 18 -23 24 -35 20 -10 -3 -23 1 -30 9 -9 11 -4 20 26 43 21
17 48 35 61 42 29 15 28 31 -2 31 -37 0 -180 31 -190 41 -6 5 -18 9 -27 9 -22
0 -26 15 -33 117 -6 72 -4 82 11 86 27 7 56 6 75 -1z m-2387 -41 c-6 -5 -25
10 -25 20 0 5 6 4 14 -3 8 -7 12 -15 11 -17z m144 -12 c-19 -12 -29 -11 -29 2
0 5 5 7 10 4 6 -3 10 -1 10 5 0 6 5 8 11 4 8 -4 7 -9 -2 -15z m-154 -7 c-3 -3
-11 0 -18 7 -9 10 -8 11 6 5 10 -3 15 -9 12 -12z m-90 -12 c4 -6 11 -8 16 -5
5 4 9 4 9 1 0 -5 -94 -50 -127 -60 -32 -10 -29 9 6 45 30 29 83 40 96 19z
m183 3 c-16 -2 -40 -2 -55 0 -16 2 -3 4 27 4 30 0 43 -2 28 -4z m3237 -7 c20
-10 48 -13 100 -9 72 6 74 5 102 -25 15 -16 38 -44 51 -60 18 -25 33 -32 92
-43 38 -6 67 -16 64 -20 -7 -11 22 -66 38 -72 9 -3 7 -9 -7 -20 -19 -15 -19
-15 6 -53 48 -76 60 -118 35 -127 -17 -7 -78 92 -67 108 10 15 8 38 -5 42 -6
2 -18 -5 -27 -15 -14 -15 -15 -24 -6 -50 6 -18 14 -32 18 -32 4 0 15 -14 25
-31 18 -30 18 -30 -3 -36 -28 -7 -27 -24 4 -53 13 -12 22 -27 19 -31 -3 -5 2
-9 10 -9 9 0 16 2 16 4 0 2 3 12 7 22 5 14 3 16 -13 10 -14 -5 -12 0 8 19 32
30 38 31 31 6 -3 -13 6 -24 32 -40 21 -12 35 -25 32 -28 -4 -3 -13 -1 -21 6
-11 9 -15 8 -20 -5 -5 -14 -16 -15 -59 -11 -34 4 -45 3 -32 -3 14 -6 15 -9 5
-10 -12 0 -12 -3 3 -14 23 -18 22 -22 -14 -35 -39 -13 -125 -14 -94 -1 l20 9
-20 1 c-18 1 -17 3 9 26 20 18 25 28 17 35 -6 5 -9 6 -6 3 2 -4 -1 -12 -8 -18
-23 -23 -107 -79 -111 -75 -2 2 -8 17 -12 33 -6 25 -4 28 10 23 9 -4 16 -3 16
2 0 4 12 13 26 19 17 8 24 18 20 30 -3 9 -8 30 -12 46 -6 26 -5 27 14 17 17
-9 21 -7 26 12 5 17 8 19 15 8 6 -9 8 14 6 62 -2 46 1 79 7 83 18 12 -15 24
-66 24 -27 0 -79 -5 -115 -11 -49 -9 -66 -9 -69 0 -2 6 -11 2 -22 -11 -13 -17
-22 -20 -30 -12 -7 7 -5 16 11 30 19 17 37 19 165 19 143 0 144 0 144 23 0 16
-6 22 -22 23 -15 1 -11 4 12 9 35 7 35 7 5 9 -39 2 -63 16 -41 24 8 3 18 2 21
-3 9 -15 25 -12 25 5 0 11 -9 15 -28 13 -15 -1 -33 1 -40 6 -7 4 -12 1 -12 -8
0 -14 -3 -14 -20 -4 -11 7 -20 23 -20 35 0 13 -3 23 -7 23 -5 0 -19 3 -32 7
-18 5 -22 3 -16 -7 6 -10 -4 -10 -46 -4 -103 16 -225 2 -302 -36 l-58 -29 48
-24 c50 -26 206 -176 230 -221 11 -20 11 -31 2 -49 -23 -44 -37 -53 -83 -52
-38 2 -45 -1 -50 -19 -7 -29 -93 -128 -101 -117 -3 6 -12 8 -20 4 -8 -3 -15
-1 -15 4 0 5 14 14 32 21 17 6 29 14 26 17 -3 4 -23 -1 -44 -10 l-38 -16 24
26 c13 14 20 25 16 25 -4 0 4 15 18 33 13 17 29 46 35 62 9 25 8 27 -2 10 -23
-38 -85 -95 -102 -95 -16 0 -15 2 2 18 10 9 14 14 8 11 -31 -18 -46 -17 -66 4
-20 22 -23 23 -56 26 -15 1 -15 2 1 14 18 13 18 14 2 20 -27 11 -36 -1 -36
-45 0 -23 -3 -38 -6 -35 -11 11 -31 168 -22 173 4 3 8 14 8 26 0 11 10 34 22
51 33 46 31 61 -4 36 -27 -19 -34 -20 -69 -10 -23 7 -39 18 -39 27 0 23 31 29
62 11 26 -15 28 -15 28 2 0 10 -9 26 -20 36 -19 18 -22 18 -56 1 -20 -9 -39
-14 -42 -11 -3 3 0 5 6 5 16 0 15 33 0 48 -19 19 12 15 33 -4 11 -10 25 -13
40 -9 15 5 18 10 9 15 -7 5 25 27 87 60 54 29 111 64 128 79 16 14 23 18 16 9
-20 -26 5 -24 71 7 61 28 94 31 133 11z m-3114 -92 c22 -9 38 -18 36 -20 -7
-8 -157 30 -157 39 0 12 69 1 121 -19z m579 -14 c0 -5 -5 -10 -11 -10 -6 0
-17 -7 -25 -15 -18 -17 -149 -21 -174 -5 -11 7 1 10 40 10 30 0 66 7 80 15 29
16 90 20 90 5z m225 -20 c3 -5 1 -10 -4 -10 -6 0 -11 5 -11 10 0 6 2 10 4 10
3 0 8 -4 11 -10z m-33 -17 c2 -10 -9 -48 -24 -85 -32 -76 -32 -79 -16 -75 12
2 20 -28 37 -148 20 -139 31 -201 48 -267 9 -37 15 -69 12 -71 -2 -2 -30 -1
-61 1 l-58 4 -21 66 c-11 37 -23 96 -26 132 -7 72 -17 86 -50 64 -23 -14 -23
-14 -23 24 0 103 47 231 117 324 39 50 59 60 65 31z m1803 -3 c4 -7 -3 -8 -22
-4 -38 9 -42 14 -10 14 14 0 29 -5 32 -10z m-2910 -27 c-13 -62 -17 -73 -29
-73 -7 0 -21 9 -30 19 -17 19 -17 21 8 45 29 30 56 34 51 9z m337 -19 c29 -27
42 -65 26 -76 -11 -6 -10 -10 0 -17 26 -16 -4 -193 -39 -230 -15 -16 -22 -18
-43 -8 -13 6 -22 15 -20 19 3 4 0 34 -7 65 -6 32 -11 66 -11 75 0 9 -6 23 -15
30 -14 12 -15 9 -9 -24 6 -32 4 -37 -9 -32 -8 3 -15 17 -15 30 0 14 -11 41
-24 62 -22 35 -23 41 -11 69 8 17 26 39 42 47 36 21 106 15 135 -10z m-209
-22 c17 -15 23 -32 10 -31 -5 0 -19 14 -33 32 -24 30 -14 30 23 -1z m680 11
c-7 -2 -19 -2 -25 0 -7 3 -2 5 12 5 14 0 19 -2 13 -5z m-709 -32 c16 -17 26
-37 24 -48 -4 -15 -7 -13 -19 12 -8 17 -23 38 -34 47 -11 10 -15 17 -9 18 5 0
23 -13 38 -29z m682 -4 c4 -4 -5 -7 -20 -7 -15 0 -25 4 -22 9 7 10 31 9 42 -2z
m2095 -4 c13 -15 12 -15 -8 -4 -24 12 -29 21 -14 21 5 0 15 -7 22 -17z m-2833
-46 c9 -10 4 -12 -23 -9 -19 2 -35 8 -35 13 0 14 46 11 58 -4z m2202 -37 c0
-5 -4 -10 -10 -10 -5 0 -10 5 -10 10 0 6 5 10 10 10 6 0 10 -4 10 -10z m1412
-26 c-9 -16 -10 -14 -9 8 1 15 6 23 11 18 4 -4 4 -16 -2 -26z m-3984 0 c12 -8
22 -23 22 -33 0 -57 44 -70 80 -24 17 22 23 25 30 13 6 -8 10 -25 10 -38 0
-20 2 -21 22 -11 11 6 39 11 60 11 41 -1 93 -26 83 -42 -3 -5 -1 -11 5 -15 16
-10 12 -34 -10 -58 l-21 -22 -5 22 c-4 14 -16 23 -37 26 -18 2 -33 3 -35 2 -2
-2 11 -19 29 -39 17 -20 44 -59 58 -85 57 -106 101 -179 116 -191 24 -20 45
-65 45 -95 0 -38 -55 -59 -135 -51 -33 3 -68 6 -77 7 -24 0 -22 15 5 34 l22
17 -25 -7 c-21 -5 -22 -4 -7 5 9 6 38 10 65 8 47 -3 47 -3 46 28 -1 22 -14 44
-43 74 -23 24 -40 49 -37 56 2 6 -4 14 -16 17 -12 4 -18 12 -16 24 2 11 -11
31 -34 53 -39 36 -47 54 -25 64 6 3 3 5 -8 5 -37 -2 -45 1 -45 16 0 8 -6 15
-12 15 -9 0 -8 4 2 10 11 7 12 10 2 10 -8 0 -29 7 -48 16 -28 13 -32 19 -23
30 16 20 7 26 -25 18 -17 -4 -26 -13 -27 -28 0 -11 -3 -15 -6 -8 -3 7 -23 12
-48 12 -38 0 -46 4 -63 33 -25 42 -37 111 -17 104 7 -3 16 1 19 9 13 33 76 37
124 8z m432 21 c0 -9 -72 -35 -82 -29 -18 11 14 34 48 34 19 0 34 -2 34 -5z
m3463 -30 c-3 -9 -8 -14 -10 -11 -3 3 -2 9 2 15 9 16 15 13 8 -4z m-3465 -12
c-10 -2 -18 -9 -18 -14 0 -6 -4 -7 -10 -4 -19 12 -10 25 18 24 16 -1 20 -3 10
-6z m3512 -24 c-7 -11 -14 -18 -17 -15 -3 3 0 12 7 21 18 21 23 19 10 -6z
m-4275 1 c3 -6 -1 -7 -9 -4 -18 7 -21 14 -7 14 6 0 13 -4 16 -10z m4355 -22
c31 -51 23 -66 -10 -20 -33 46 -35 52 -20 52 6 0 19 -15 30 -32z m-1988 -5
c24 -21 23 -65 -2 -88 -16 -15 -22 -15 -35 -5 -16 13 -20 40 -6 40 5 0 14 -7
21 -15 16 -19 30 -10 30 20 0 26 -33 55 -63 55 -10 0 -32 -13 -48 -29 -24 -24
-29 -38 -29 -76 0 -39 -7 -57 -41 -106 -23 -32 -43 -59 -45 -59 -2 0 2 14 8
32 9 26 9 33 -3 36 -20 7 -99 87 -99 101 0 19 18 12 25 -9 4 -11 11 -18 16
-15 5 4 9 -1 9 -9 0 -15 37 -46 55 -46 5 0 23 31 39 68 39 89 70 122 115 122
19 0 43 -7 53 -17z m-428 -78 c8 -33 19 -71 22 -85 7 -22 5 -23 -8 -12 -18 14
-38 85 -38 133 0 43 5 36 24 -36z m166 44 c0 -6 -4 -7 -10 -4 -5 3 -10 11 -10
16 0 6 5 7 10 4 6 -3 10 -11 10 -16z m-537 -77 c35 -67 45 -94 39 -113 -11
-37 -69 -144 -85 -157 -11 -9 -61 -12 -178 -10 l-164 3 -3 170 c-1 93 0 175 2
182 4 10 46 13 174 13 l168 0 47 -88z m2685 74 c-10 -7 -18 -23 -18 -35 0 -17
-6 -21 -32 -21 -27 1 -30 2 -16 11 9 5 15 15 12 23 -3 8 7 17 28 23 44 15 46
14 26 -1z m-3193 -36 c4 -6 10 -8 14 -5 5 2 13 -14 20 -35 9 -31 9 -55 1 -103
-17 -93 -24 -99 -49 -45 -22 45 -53 68 -92 68 -20 0 -20 1 3 29 13 17 28 30
34 30 5 1 16 17 24 36 13 34 33 45 45 25z m3026 -74 c-30 -30 -32 -36 -20 -57
12 -24 12 -24 -10 -5 -11 11 -24 16 -29 12 -4 -4 1 -14 11 -21 11 -8 14 -14 7
-17 -9 -3 -8 -11 1 -31 9 -20 9 -31 2 -38 -8 -8 -11 -7 -10 2 1 34 -4 50 -14
43 -15 -9 -3 -62 18 -86 10 -12 12 -18 4 -18 -17 0 -51 78 -51 117 0 34 19 59
80 106 47 36 51 34 11 -7z m179 23 c0 -6 -7 -8 -16 -5 -9 3 -12 2 -9 -5 4 -6
13 -8 21 -5 23 9 26 -12 4 -34 -11 -11 -20 -25 -20 -32 0 -7 -16 3 -35 22 -42
40 -45 53 -9 39 25 -9 26 -8 13 8 -8 9 -9 14 -2 10 6 -4 14 -3 18 3 8 14 35
13 35 -1z m-1004 -35 c-22 -22 -20 -29 12 -44 l27 -14 -24 -4 c-28 -4 -37 4
-46 40 -5 20 -3 27 12 31 32 8 35 7 19 -9z m-2921 -4 c3 -5 1 -10 -4 -10 -6 0
-11 5 -11 10 0 6 2 10 4 10 3 0 8 -4 11 -10z m1670 -58 c13 -16 42 -41 64 -57
41 -28 52 -45 28 -45 -19 0 -127 99 -127 116 0 21 8 17 35 -14z m928 -7 c-3
-9 -8 -14 -10 -11 -3 3 -2 9 2 15 9 16 15 13 8 -4z m1386 3 c-2 -2 -16 -14
-31 -27 l-28 -24 0 23 c0 13 3 20 6 17 4 -3 16 0 27 8 12 8 23 12 26 10 2 -3
2 -6 0 -7z m-3622 -33 c-4 -8 -11 -15 -17 -15 -14 0 -13 27 3 33 16 6 21 1 14
-18z m2532 -97 c-12 -24 -25 -54 -30 -68 -6 -21 -7 -22 -8 -4 -1 24 26 121 42
149 24 41 19 -31 -4 -77z m959 75 c-10 -2 -26 -2 -35 0 -10 3 -2 5 17 5 19 0
27 -2 18 -5z m-3809 -88 c-1 -29 -1 -29 -9 -5 -4 14 -8 34 -9 45 -1 16 1 17 9
5 5 -8 9 -28 9 -45z m491 45 c0 -16 -27 -23 -55 -16 -39 10 -29 26 15 26 22 0
40 -5 40 -10z m2273 -20 c-3 -11 -7 -20 -9 -20 -2 0 -4 9 -4 20 0 11 4 20 9
20 5 0 7 -9 4 -20z m-211 -70 c37 -22 105 -56 150 -76 46 -20 99 -51 119 -70
23 -22 58 -42 95 -54 57 -18 58 -18 21 -19 -51 -1 -105 23 -119 53 -11 25 -28
33 -41 20 -9 -9 45 -52 87 -69 19 -8 56 -15 81 -15 49 0 55 -5 28 -26 -11 -8
-13 -13 -6 -14 20 0 96 32 116 48 29 25 19 1 -10 -25 -29 -25 -145 -83 -167
-83 -7 0 -24 -10 -37 -21 l-24 -22 40 7 c34 6 38 5 25 -6 -9 -7 -24 -24 -35
-38 -20 -25 -20 -25 0 -8 11 9 60 39 108 67 121 70 201 133 221 176 9 19 20
58 23 86 6 47 8 50 20 34 12 -18 13 -18 13 1 0 28 10 36 27 23 9 -9 13 -8 13
0 0 20 18 11 24 -13 7 -28 -16 -121 -45 -179 -12 -23 -40 -61 -62 -84 -23 -24
-37 -43 -32 -43 21 1 107 73 133 111 26 40 122 142 122 131 0 -3 15 8 33 25
47 45 65 51 170 64 205 25 370 -38 474 -182 22 -30 47 -53 69 -61 37 -13 47
-35 60 -134 8 -63 -17 -164 -54 -219 -14 -22 -26 -43 -25 -46 1 -3 -12 -19
-30 -35 -32 -29 -32 -29 -8 -1 32 36 19 35 -27 -3 -50 -39 -114 -61 -188 -63
-69 -2 -89 9 -103 57 -7 24 -9 26 -10 9 -1 -16 -6 -21 -16 -17 -8 4 -15 11
-15 17 0 6 -17 26 -37 44 l-37 33 32 -6 c46 -9 81 3 115 39 20 21 26 25 19 10
-17 -31 -66 -63 -97 -63 -15 0 -24 -4 -20 -10 4 -6 11 -8 16 -4 5 3 8 2 7 -3
-3 -8 5 -13 23 -13 5 0 7 6 3 13 -5 7 -1 7 12 -3 10 -8 16 -11 12 -6 -6 7 65
76 78 76 2 0 -9 -19 -26 -42 -34 -46 -38 -79 -13 -103 13 -14 28 -16 72 -12
31 3 57 11 59 17 2 5 10 10 17 10 16 0 121 95 137 123 13 25 21 97 20 187 -1
141 -86 266 -223 330 -125 57 -283 54 -419 -11 -91 -43 -150 -89 -193 -152
-41 -60 -92 -104 -162 -141 -41 -23 -82 -33 -187 -51 -38 -6 -98 -48 -98 -67
0 -6 8 -4 18 4 31 27 49 34 30 11 -30 -34 -20 -46 15 -19 37 28 105 55 124 49
6 -2 14 1 18 6 3 6 11 11 17 11 7 0 5 -7 -4 -17 -8 -10 -19 -25 -23 -33 -8
-13 -7 -13 8 -1 15 12 17 11 17 -2 0 -13 5 -14 30 -6 16 6 37 9 47 6 14 -4 14
-5 -4 -6 -12 0 -24 -4 -26 -8 -3 -5 24 -8 59 -8 36 0 68 -5 75 -12 10 -10 5
-11 -23 -7 -27 5 -35 3 -35 -10 0 -9 9 -16 19 -16 11 0 16 -4 13 -10 -6 -10
10 -15 89 -27 51 -8 67 -26 28 -31 -12 -2 -20 -7 -17 -12 14 -22 -33 -34 -151
-38 -68 -3 -124 -8 -124 -13 0 -5 -7 -9 -16 -9 -9 0 -18 -9 -21 -20 -13 -50
-57 10 -51 70 3 34 1 40 -15 40 -16 0 -18 5 -13 26 5 17 3 23 -4 19 -12 -8
-13 -45 0 -65 5 -9 5 -17 -1 -21 -6 -4 -6 -15 0 -32 21 -54 -38 -23 -64 34
l-16 34 6 -35 c3 -19 23 -61 44 -95 22 -33 47 -77 57 -98 18 -37 18 -37 31
-15 13 23 13 23 7 -4 -7 -34 9 -64 49 -88 18 -11 28 -20 22 -20 -5 0 -25 9
-44 21 -26 16 -32 17 -28 5 4 -9 -3 -23 -18 -34 -15 -12 -25 -32 -27 -53 -3
-29 -7 -34 -31 -37 -16 -2 -63 9 -105 23 -60 21 -102 28 -192 32 -108 5 -140
13 -140 34 0 5 48 32 108 61 107 53 107 53 205 53 l98 0 -27 22 c-15 11 -40
24 -57 27 -52 11 -137 6 -172 -8 -21 -9 -35 -11 -35 -5 0 6 -5 7 -12 2 -7 -4
-22 -9 -33 -10 -11 -2 -36 -5 -55 -8 -19 -4 -44 -7 -55 -8 -61 -7 -91 -28
-125 -85 -19 -31 -47 -72 -62 -90 -33 -39 -38 -82 -9 -82 23 0 31 -19 31 -70
0 -37 20 -70 41 -70 6 0 20 5 32 11 l22 12 -21 -24 c-35 -39 -37 -49 -14 -49
12 0 18 5 15 10 -8 13 0 13 23 0 9 -5 46 -19 82 -31 78 -25 172 -68 182 -83
11 -16 10 -28 -2 -21 -12 8 -13 -5 0 -25 5 -8 12 -11 16 -7 4 4 18 0 31 -8 17
-12 23 -12 23 -3 0 7 -10 18 -22 23 -11 6 -25 21 -29 35 l-9 25 16 -22 c19
-26 39 -31 30 -7 -3 9 -2 12 5 9 6 -4 8 -13 5 -20 -2 -7 2 -16 10 -19 11 -4
13 1 9 22 -5 25 -5 26 5 4 10 -24 19 -23 52 5 11 10 18 11 23 4 3 -6 10 -11
15 -11 10 0 24 49 21 77 -1 13 7 36 18 51 l20 29 -27 27 c-32 30 -44 33 -35 9
6 -16 5 -16 -17 0 -33 23 -47 21 -25 -3 10 -11 13 -20 8 -20 -15 0 -36 28 -29
39 8 12 88 12 107 0 8 -5 10 -9 5 -9 -21 0 30 -29 52 -30 17 0 22 -6 22 -27 0
-69 33 -131 85 -162 17 -9 11 -10 -30 -5 -58 8 -57 -1 1 -15 l39 -9 -60 -3
-60 -2 50 -7 50 -6 -38 -8 c-25 -5 -53 -4 -77 3 -50 15 -60 13 -30 -4 37 -21
89 -18 166 11 38 14 81 30 96 35 34 13 94 8 91 -8 -2 -7 3 -10 10 -8 14 6 57
-53 57 -78 0 -8 5 -19 11 -23 8 -4 9 4 4 27 -11 49 -31 84 -61 108 -16 13 -21
21 -12 21 19 0 68 -52 68 -72 0 -9 4 -19 9 -22 15 -10 -6 64 -24 85 -10 10
-33 21 -51 25 -19 3 -34 10 -34 15 0 5 -11 4 -26 -1 -19 -8 -34 -5 -67 11 -72
37 -117 90 -117 141 0 14 -3 19 -10 12 -15 -15 6 -84 36 -115 16 -16 45 -35
66 -41 50 -15 41 -24 -23 -23 -51 0 -53 1 -76 44 -41 78 -28 204 29 282 25 33
94 79 121 79 9 0 28 -11 42 -24 l26 -24 -21 -38 c-11 -21 -20 -52 -19 -69 l1
-30 8 32 c9 38 36 83 51 83 5 0 1 -10 -11 -22 -22 -24 -26 -71 -10 -113 6 -16
14 -23 22 -19 6 4 8 3 5 -3 -7 -12 23 -59 51 -79 12 -8 35 -17 52 -19 38 -5
78 -36 108 -83 18 -28 22 -31 17 -12 -9 33 -50 87 -77 101 -11 6 -16 14 -11
18 5 3 12 14 16 24 4 10 11 15 17 12 18 -11 70 -109 70 -132 0 -20 5 -23 38
-22 20 1 62 -1 92 -4 l55 -6 -45 15 c-25 8 -61 28 -80 45 -19 17 -28 29 -19
26 18 -6 39 10 39 30 0 7 -25 30 -57 50 -37 25 -51 39 -40 41 26 5 21 19 -23
65 -35 38 -40 40 -40 20 0 -22 -9 -28 -40 -23 -21 3 -50 30 -50 48 0 13 3 13
18 -1 19 -17 42 -23 42 -10 0 3 -8 15 -17 26 -20 23 -2 16 30 -11 9 -8 17 -11
17 -7 0 4 9 0 20 -10 10 -9 26 -15 33 -12 22 8 37 -13 37 -53 l0 -35 19 40
c34 76 71 84 71 14 0 -35 3 -39 24 -39 14 0 32 -10 40 -22 18 -25 21 -8 5 25
-9 19 -7 18 10 -3 11 -14 21 -28 21 -32 0 -4 7 -5 14 -2 10 4 20 -6 30 -30 15
-36 15 -36 76 -36 67 0 128 -24 154 -62 21 -30 20 -33 -9 -46 -15 -7 -25 -8
-25 -2 0 6 -4 10 -10 10 -5 0 -10 -6 -10 -14 0 -7 -10 -25 -21 -40 -15 -20
-25 -24 -32 -17 -19 19 -28 12 -22 -16 4 -23 4 -24 -4 -8 -9 19 -10 18 -22
-12 -12 -30 -13 -31 -37 -15 -25 16 -25 16 -18 -11 4 -17 2 -27 -5 -27 -8 0
-8 -4 1 -15 15 -18 -1 -20 -18 -3 -7 7 -12 10 -13 7 -6 -43 -6 -58 1 -54 5 3
12 0 16 -6 5 -8 3 -9 -6 -4 -9 5 -10 2 -5 -14 8 -27 -6 -27 -23 -1 -16 26 -34
16 -27 -16 3 -13 8 -36 11 -51 5 -23 3 -25 -10 -14 -9 7 -18 29 -22 48 -9 49
-24 22 -24 -44 0 -29 -4 -53 -10 -53 -5 0 -10 13 -10 29 l0 29 -82 -41 c-54
-28 -103 -63 -145 -105 l-63 -62 -60 20 c-72 24 -150 26 -196 4 -39 -19 -117
-101 -144 -153 -28 -52 -24 -25 6 49 66 162 117 234 212 299 28 19 32 20 32 6
0 -17 35 -74 55 -88 15 -10 86 -29 112 -29 12 0 40 14 61 31 30 23 50 31 80
31 23 0 44 5 47 10 4 6 -6 10 -23 10 -15 0 -50 7 -76 16 -55 19 -96 8 -96 -25
0 -29 17 -35 24 -8 6 20 7 20 17 5 12 -21 -4 -58 -25 -58 -16 0 -52 39 -60 67
-5 15 -1 28 15 44 15 15 18 23 10 29 -19 11 32 39 92 50 51 10 87 37 87 66 0
18 -16 18 -23 0 -6 -16 -82 -40 -101 -33 -7 3 -17 -3 -23 -13 -13 -20 -86 -60
-111 -60 -10 1 -3 7 15 15 17 7 36 23 42 34 25 46 -23 108 -73 95 l-24 -6 24
-23 c25 -25 31 -50 14 -60 -5 -3 -10 -11 -10 -17 0 -7 6 -6 15 2 20 17 19 59
-2 82 -9 10 -12 18 -7 18 37 0 46 -76 14 -105 -11 -10 -20 -14 -20 -9 0 5 -5
2 -10 -6 -8 -13 -10 -13 -10 1 0 9 7 22 15 29 22 18 18 37 -10 56 -34 22 -77
10 -115 -32 -16 -19 -30 -29 -30 -22 0 6 12 24 26 39 19 20 22 29 13 34 -8 6
-10 4 -5 -4 5 -8 3 -11 -5 -9 -20 4 -89 -41 -89 -58 0 -7 -6 -11 -14 -8 -8 3
-17 0 -22 -7 -5 -8 -3 -10 7 -5 8 4 5 1 -5 -8 -10 -8 -24 -13 -30 -9 -6 3 -8
2 -3 -2 4 -5 0 -17 -10 -27 -18 -20 -38 -25 -27 -6 4 7 3 8 -5 4 -6 -4 -9 -12
-6 -17 8 -11 -104 -139 -119 -136 -6 1 -10 -4 -8 -12 4 -18 -18 -42 -31 -34
-7 4 -8 0 -3 -12 5 -14 4 -16 -7 -7 -8 7 -17 9 -20 5 -4 -3 -7 -1 -7 6 0 7 -4
9 -10 6 -16 -10 -11 1 9 19 14 13 21 14 27 5 5 -8 3 -10 -7 -4 -8 5 -10 4 -6
0 11 -13 36 -15 43 -4 3 5 2 9 -3 8 -24 -4 -24 4 2 31 15 16 33 27 38 23 6 -3
7 -1 3 5 -4 6 12 30 36 53 24 24 35 37 26 30 -9 -7 -22 -10 -28 -6 -6 4 -9 3
-8 -2 2 -4 -1 -9 -7 -11 -20 -7 -44 -35 -38 -45 3 -5 2 -7 -4 -4 -13 8 -134
-116 -157 -161 -12 -23 -14 -37 -7 -50 9 -15 10 -15 11 4 0 11 11 36 25 55 28
37 62 45 82 19 10 -13 15 -11 38 13 15 15 24 27 20 27 -4 0 -2 7 5 15 18 22
70 18 99 -7 23 -20 22 -19 -2 8 -31 35 -31 36 32 57 45 16 48 14 55 -30 4 -21
-30 -93 -43 -93 -5 0 -12 8 -14 18 -3 9 -5 0 -6 -20 -1 -26 -10 -48 -32 -73
-37 -41 -67 -45 -119 -14 -34 21 -35 21 -17 1 10 -11 35 -25 55 -30 34 -9 35
-10 9 -11 -36 -1 -84 24 -92 48 -8 27 5 72 19 64 6 -4 5 1 -3 11 -18 22 -31 5
-31 -42 0 -48 14 -67 61 -86 23 -9 39 -19 36 -22 -12 -12 -78 19 -102 47 -15
19 -25 25 -25 16 0 -17 50 -63 80 -72 11 -3 20 -11 20 -16 0 -12 -68 16 -92
38 -28 25 -22 132 6 116 8 -4 8 -2 -1 7 -6 7 -9 20 -6 29 4 13 3 14 -5 1 -6
-8 -8 -18 -5 -24 3 -5 1 -6 -5 -2 -20 12 -32 -66 -18 -112 4 -13 27 -33 54
-47 l47 -24 -41 2 c-23 1 -40 5 -38 8 2 3 -9 17 -23 30 l-27 24 17 -27 c10
-16 15 -28 12 -28 -11 0 -45 66 -46 90 -1 18 -4 14 -11 -15 -15 -64 4 -109 78
-180 59 -56 64 -65 64 -104 0 -48 -17 -85 -55 -121 -21 -20 -37 -25 -73 -24
-38 1 -50 6 -74 33 -37 41 -36 20 4 -64 l31 -68 -18 -56 c-23 -69 -86 -132
-165 -163 -49 -20 -74 -23 -220 -23 l-165 0 -69 34 c-86 42 -150 105 -183 179
-14 31 -34 77 -45 101 -41 92 -58 143 -58 176 0 21 -7 39 -18 47 -26 19 -73
84 -122 168 -24 41 -60 95 -80 120 -68 84 -121 164 -116 177 3 8 -2 13 -13 13
-9 0 -28 12 -42 27 -17 20 -18 23 -3 10 52 -44 93 2 60 69 -16 35 -70 75 -90
69 -6 -2 -25 -6 -43 -9 -29 -4 -31 -3 -20 15 6 10 20 19 29 19 31 0 22 48 -17
87 -36 36 -46 81 -25 113 8 13 10 12 10 -2 0 -25 17 -22 36 6 21 33 15 68 -15
82 l-23 12 22 22 c16 16 31 21 63 19 23 -1 53 3 67 10 22 11 23 10 8 -2 -17
-13 -17 -15 3 -38 17 -20 20 -34 17 -80 l-4 -57 53 -12 c76 -16 222 -15 264 3
l34 15 -47 1 c-27 1 -48 6 -48 12 0 5 4 8 9 5 4 -3 13 6 19 19 7 14 20 25 31
25 11 0 55 11 98 25 43 14 90 25 106 25 37 0 34 12 -15 54 -57 49 -148 74
-148 41 0 -8 -4 -15 -10 -15 -5 0 -9 6 -7 13 1 9 -25 12 -102 14 -133 2 -175
9 -167 29 3 9 6 22 6 30 0 26 69 47 160 48 107 1 150 -17 240 -103 35 -33 69
-60 75 -58 5 2 19 22 30 46 20 45 26 47 93 26 17 -6 22 -3 22 11 -1 39 -39
101 -88 142 -33 28 -49 48 -45 58 3 8 -2 32 -11 52 -13 29 -23 37 -46 39 -16
1 -41 10 -55 19 -14 9 -34 14 -47 11 -12 -3 -29 -2 -38 3 -10 5 -53 17 -96 26
-83 17 -218 14 -238 -6 -6 -6 -19 -10 -29 -10 -16 0 -19 5 -13 30 4 23 2 29
-7 24 -6 -4 50 56 127 134 81 81 136 145 134 153 -3 9 -42 -21 -109 -86 -155
-149 -183 -174 -174 -150 4 11 9 41 10 67 2 26 6 53 10 60 4 7 -32 -26 -81
-74 -78 -76 -114 -103 -114 -83 0 18 50 98 90 145 26 30 57 71 69 90 41 69
116 159 133 159 9 1 51 39 93 86 69 75 81 85 112 85 l35 0 -134 -141 c-73 -77
-141 -157 -150 -177 -10 -19 -26 -45 -35 -56 -9 -12 14 13 52 54 115 126 255
263 255 251 0 -7 10 -3 22 9 12 11 32 20 43 20 12 0 47 14 78 30 31 17 62 30
69 30 7 -1 -6 -10 -30 -22 -24 -11 -55 -36 -69 -55 -22 -29 -25 -40 -19 -80 7
-53 26 -87 57 -104 15 -8 24 -8 32 0 8 8 5 11 -10 11 -25 0 -49 34 -65 95 -13
47 -13 47 21 77 42 38 83 33 125 -14 16 -18 26 -27 22 -20 -4 7 -1 15 8 18 9
3 16 12 16 20 0 8 3 14 8 14 4 0 26 18 49 40 26 24 104 71 202 120 88 43 163
84 166 91 4 6 26 19 49 30 36 16 43 16 61 4 11 -8 50 -33 87 -55z m1603 56
c19 -8 44 -30 55 -48 30 -49 24 -58 -11 -15 -17 20 -35 37 -41 37 -5 0 4 -16
21 -35 17 -20 31 -43 31 -52 0 -10 -12 -1 -30 24 -17 22 -49 50 -73 61 -44 22
-38 29 10 12 l28 -10 -25 20 c-29 23 -13 26 35 6z m-2465 -9 c-8 -7 -46 -42
-84 -78 -38 -35 -61 -52 -52 -37 10 15 38 43 62 64 27 22 43 42 40 50 -4 10 3
14 21 14 23 0 25 -2 13 -13z m1647 -4 c0 -8 -9 -10 -26 -6 -41 9 -45 20 -8 19
19 -1 34 -6 34 -13z m-3116 -30 c13 -16 12 -17 -3 -4 -10 7 -18 15 -18 17 0 8
8 3 21 -13z m3114 -17 c22 -24 34 -30 41 -22 5 6 4 2 -3 -10 -6 -11 -13 -31
-16 -45 -4 -22 -4 -21 -6 5 -1 20 -14 41 -41 68 -28 26 -36 38 -24 38 9 0 31
-15 49 -34z m-1474 -95 c-30 -27 -55 -43 -58 -38 -4 6 18 32 48 59 69 61 78
43 10 -21z m124 -31 c-51 -52 -72 -67 -81 -59 -10 8 4 25 59 69 40 33 76 59
82 60 5 0 -22 -31 -60 -70z m-247 28 c2 -32 1 -32 -11 -10 -7 12 -17 19 -22
15 -5 -4 -3 0 4 10 19 25 26 21 29 -15z m2545 -10 c10 -16 14 -28 9 -28 -8 0
-32 43 -32 57 0 7 1 6 23 -29z m-4242 -5 c13 -16 12 -17 -3 -4 -10 7 -18 15
-18 17 0 8 8 3 21 -13z m3864 -17 c111 -51 195 -171 195 -280 0 -97 -68 -224
-141 -261 -36 -19 -91 -16 -97 5 -4 12 -2 13 9 3 25 -24 59 -14 108 32 66 62
95 129 96 220 0 59 -5 78 -30 123 -35 65 -81 107 -155 141 -46 21 -69 25 -140
25 -110 -1 -180 -27 -256 -96 l-55 -51 38 -13 c36 -13 39 -12 68 15 66 61 167
98 241 87 99 -13 197 -86 230 -171 34 -91 2 -210 -68 -254 -17 -11 -15 -5 10
23 43 49 52 75 52 142 0 220 -274 317 -448 159 -39 -35 -42 -36 -64 -21 -12 9
-33 16 -45 16 -38 0 -27 33 25 82 27 25 59 51 73 58 105 57 250 64 354 16z
m-3011 -59 c-6 -73 -4 -89 15 -131 12 -26 26 -81 30 -122 9 -74 26 -113 43
-96 5 5 4 20 -2 36 -11 29 -17 192 -7 202 3 3 15 0 27 -6 29 -15 60 -88 67
-156 l6 -54 36 -1 c58 -2 86 -13 86 -34 0 -18 -6 -20 -55 -17 -30 2 -84 -3
-120 -11 -36 -9 -92 -18 -125 -21 -33 -4 -73 -9 -90 -13 l-29 -5 34 -18 c19
-10 68 -21 108 -25 l72 -7 70 42 c44 26 77 40 92 38 22 -4 21 -5 -7 -16 -16
-7 -37 -16 -45 -22 -101 -67 -113 -71 -180 -66 -77 7 -199 46 -252 81 -21 14
-38 27 -38 29 0 2 5 17 11 35 10 27 15 31 38 27 14 -3 62 -8 106 -11 77 -7 79
-7 63 11 -13 15 -15 33 -11 92 3 39 9 72 14 72 4 0 14 -18 20 -40 7 -22 14
-38 16 -36 3 2 -5 34 -16 71 -12 37 -21 79 -21 94 0 15 -9 44 -20 66 -25 49
-25 52 2 61 12 3 28 13 36 20 28 28 33 15 26 -69z m-944 -17 c11 0 20 -4 20
-10 0 -5 -7 -7 -15 -4 -9 4 -15 1 -15 -7 0 -7 -18 5 -40 26 -49 48 -53 69 -5
26 20 -17 45 -31 55 -31z m865 0 c20 -39 19 -83 -4 -111 l-19 -23 -36 27 c-37
29 -71 81 -61 96 3 5 23 12 45 16 22 4 42 11 46 16 8 14 12 11 29 -21z m667
-43 c-12 -13 -22 -27 -22 -31 0 -12 -30 -39 -37 -33 -13 14 8 55 32 61 16 4
23 11 19 18 -4 7 -3 8 4 4 7 -4 12 -2 12 5 0 7 3 9 7 6 3 -4 -3 -17 -15 -30z
m438 23 c0 -5 -4 -10 -9 -10 -6 0 -13 5 -16 10 -3 6 1 10 9 10 9 0 16 -4 16
-10z m-1283 -42 c-3 -7 -5 -2 -5 12 0 14 2 19 5 13 2 -7 2 -19 0 -25z m3225 1
c77 -39 125 -134 112 -221 -12 -77 -19 -68 -19 22 0 83 -2 90 -31 127 -38 48
-105 83 -160 83 -57 0 -142 -45 -174 -93 -31 -46 -86 -81 -169 -107 -126 -40
-119 -16 11 40 45 19 83 40 85 45 2 6 -36 -8 -84 -32 -93 -45 -151 -59 -70
-17 26 13 47 27 47 30 0 3 -6 2 -12 -3 -16 -9 -118 -21 -118 -14 0 6 138 51
154 51 5 0 2 -8 -5 -17 -9 -10 9 -5 45 15 68 36 76 38 76 16 0 -8 5 -12 10 -9
6 4 8 11 5 16 -4 5 -1 9 5 9 6 0 29 14 50 31 72 58 162 68 242 28z m-3796 -18
c40 -18 65 -41 45 -41 -5 0 -12 4 -15 9 -3 4 -27 14 -53 21 -27 7 -52 17 -57
21 -18 16 38 9 80 -10z m1033 -31 c-7 -5 -18 -6 -24 -2 -6 4 -3 8 8 10 9 2 17
9 18 15 0 7 3 7 6 -2 3 -7 -1 -17 -8 -21z m2740 0 c51 -25 81 -75 86 -142 4
-46 3 -47 -3 -13 -12 65 -45 118 -88 142 -65 38 -130 25 -191 -36 -17 -17 -36
-31 -42 -31 -15 0 59 66 95 85 40 21 97 19 143 -5z m-2429 -14 c0 -9 -9 -12
-25 -8 -29 5 -26 17 4 19 12 1 21 -4 21 -11z m-806 -35 c10 -11 20 -43 23 -75
5 -50 4 -56 -11 -50 -9 3 -16 10 -16 16 0 5 5 6 12 2 7 -4 8 -3 4 5 -6 8 -11
9 -20 1 -9 -7 -23 -7 -47 1 -33 12 -79 49 -60 49 5 0 12 -4 16 -10 8 -13 45
20 45 40 0 16 18 40 30 40 4 0 15 -9 24 -19z m751 9 c3 -5 -1 -10 -10 -10 -9
0 -13 5 -10 10 3 6 8 10 10 10 2 0 7 -4 10 -10z m2398 3 c-7 -2 -19 -2 -25 0
-7 3 -2 5 12 5 14 0 19 -2 13 -5z m44 1 c-3 -3 -12 -4 -19 -1 -8 3 -5 6 6 6
11 1 17 -2 13 -5z m73 -77 c0 -6 -6 -3 -12 8 -6 11 -18 29 -27 40 -9 12 -4 8
12 -7 15 -16 27 -34 27 -41z m-3355 -58 c-5 -7 -51 -3 -67 7 -4 3 -8 -1 -8 -8
0 -9 -14 -15 -41 -17 -32 -1 -45 3 -60 20 -10 12 -19 22 -19 23 0 1 33 2 72 3
44 1 74 6 76 13 3 7 13 3 28 -11 13 -12 21 -25 19 -30z m3154 47 c-2 -2 -28
-6 -57 -10 -37 -5 -52 -4 -47 4 3 5 29 10 57 10 28 0 49 -2 47 -4z m208 -38
c-3 -7 -5 -2 -5 12 0 14 2 19 5 13 2 -7 2 -19 0 -25z m-141 2 c-16 -3 -32 -14
-37 -25 -7 -18 -8 -18 -8 -2 -1 11 -6 15 -13 11 -7 -5 -8 -3 -4 5 5 7 10 10
13 7 3 -3 15 1 25 9 11 7 28 11 37 7 12 -5 8 -8 -13 -12z m-3011 0 c3 -5 2
-10 -4 -10 -5 0 -13 5 -16 10 -3 6 -2 10 4 10 5 0 13 -4 16 -10z m2493 3 c-10
-2 -26 -2 -35 0 -10 3 -2 5 17 5 19 0 27 -2 18 -5z m451 2 c-3 -2 -23 -7 -45
-10 -28 -3 -34 -2 -19 4 21 10 72 15 64 6z m-3794 -25 c13 -5 14 -9 5 -9 -8 0
-24 4 -35 9 -13 5 -14 9 -5 9 8 0 24 -4 35 -9z m-55 -15 c19 -7 28 -13 20 -13
-8 0 -31 6 -50 13 -19 7 -28 13 -20 13 8 0 31 -6 50 -13z m3823 0 c-3 -9 -8
-14 -10 -11 -3 3 -2 9 2 15 9 16 15 13 8 -4z m139 -7 c-7 -7 -12 -8 -12 -2 0
14 12 26 19 19 2 -3 -1 -11 -7 -17z m-178 -10 c-13 -24 -37 -48 -47 -48 -6 0
2 14 18 30 31 32 41 38 29 18z m200 -2 c-6 -17 -62 -42 -71 -32 -3 3 1 6 9 6
9 0 26 9 39 20 29 23 30 24 23 6z m-108 -19 c5 -1 8 -5 7 -9 -5 -14 51 -21 81
-10 16 7 32 10 34 7 7 -7 -46 -25 -74 -25 -32 0 -74 28 -74 49 0 12 2 13 9 3
4 -8 12 -14 17 -15z m-3821 -7 l40 -8 -40 0 c-22 0 -62 6 -90 13 l-50 14 50
-6 c28 -3 68 -9 90 -13z m598 1 l29 -18 -24 -6 c-13 -3 -87 -6 -166 -6 -79 0
-148 -3 -153 -6 -5 -4 -9 -2 -9 4 0 17 19 23 104 36 122 19 186 18 219 -4z
m3157 15 c0 -2 -8 -10 -17 -17 -16 -13 -17 -12 -4 4 13 16 21 21 21 13z m102
-56 c13 0 30 -5 38 -11 11 -8 5 -9 -25 -5 -21 3 -52 15 -67 26 -17 12 -28 16
-28 9 0 -7 -2 -10 -5 -8 -2 3 -2 14 1 25 5 20 7 20 34 -8 16 -15 39 -28 52
-28z m-4058 6 c-3 -7 2 -16 10 -19 9 -4 16 -11 16 -17 0 -5 -9 -2 -20 7 -20
17 -29 60 -10 48 5 -3 7 -12 4 -19z m273 18 c-3 -3 -12 -4 -19 -1 -8 3 -5 6 6
6 11 1 17 -2 13 -5z m-293 -54 c10 -13 9 -13 -6 -1 -10 7 -18 21 -17 30 0 13
1 14 6 1 3 -8 11 -22 17 -30z m4006 10 c11 -7 6 -10 -20 -10 -19 0 -47 -7 -62
-14 -39 -20 -35 -10 5 14 36 22 55 24 77 10z m3 -27 c-7 -2 -19 -2 -25 0 -7 3
-2 5 12 5 14 0 19 -2 13 -5z m-53 -7 c0 -2 -7 -7 -16 -10 -8 -3 -12 -2 -9 4 6
10 25 14 25 6z m118 -22 c12 -8 22 -20 22 -26 0 -6 -9 -3 -20 7 -12 10 -40 22
-63 26 l-42 6 40 2 c22 0 51 -6 63 -15z m471 -24 c-13 -22 -26 -40 -31 -40 -5
0 4 18 18 40 15 22 29 40 31 40 2 0 -6 -18 -18 -40z m-580 27 c-2 -1 -15 -11
-29 -22 l-25 -20 19 23 c11 12 24 22 29 22 6 0 8 -1 6 -3z m-379 -42 c20 -24
-9 -28 -58 -9 l-47 18 30 6 c36 7 61 2 75 -15z m475 5 c26 -28 15 -31 -12 -3
-12 13 -19 23 -14 23 4 0 16 -9 26 -20z m-339 -70 c9 9 14 9 14 2 0 -6 7 -9
15 -6 12 5 15 -5 15 -55 0 -53 4 -64 30 -95 32 -36 27 -53 -13 -40 -19 6 -20
5 -8 -10 16 -19 6 -35 -11 -18 -7 7 -16 12 -22 12 -6 0 -5 -5 2 -12 14 -14 16
-38 3 -38 -9 0 -121 136 -121 147 0 3 10 -2 22 -13 20 -17 21 -17 8 -1 -11 15
-11 20 -1 27 8 4 10 13 6 20 -4 7 2 18 14 26 17 12 21 27 23 77 1 58 2 59 5
14 4 -41 6 -47 19 -37z m322 39 c3 -12 2 -12 -6 0 -6 8 -15 10 -22 6 -9 -5
-11 -4 -6 4 10 15 28 10 34 -10z m-365 -51 c7 -4 7 -11 -2 -22 -10 -12 -18
-13 -36 -4 l-24 11 22 31 c19 27 22 29 26 11 2 -11 8 -23 14 -27z m-138 14
c-3 -3 -11 0 -18 7 -9 10 -8 11 6 5 10 -3 15 -9 12 -12z m919 -63 c-10 -11
-28 -26 -39 -31 -13 -7 -10 -1 10 19 34 34 58 44 29 12z m-4064 -3 c0 -8 -12
-19 -27 -24 -44 -16 2 -15 65 2 51 13 52 13 36 -5 -10 -11 -27 -19 -39 -19
-11 0 -26 -5 -32 -11 -7 -7 -21 -5 -46 7 l-36 17 32 23 c38 27 47 29 47 10z
m1520 -43 c39 -24 70 -55 70 -69 0 -7 -12 -15 -27 -18 -272 -50 -272 -50 -298
-38 -23 11 -27 17 -23 47 2 19 0 36 -6 38 -17 6 5 29 48 49 34 16 55 18 126
13 51 -3 94 -12 110 -22z m-890 3 c0 -2 -7 -9 -15 -16 -13 -11 -14 -10 -9 4 5
14 24 23 24 12z m-75 -16 c-11 -5 -28 -11 -37 -14 -24 -7 -22 -18 6 -38 23
-17 24 -17 19 5 l-4 22 17 -23 c16 -21 17 -21 30 -5 13 17 13 17 14 1 0 -21
11 -23 28 -6 9 9 12 7 12 -10 0 -15 -6 -22 -19 -22 -11 0 -21 -4 -23 -10 -6
-17 -56 4 -93 38 -19 19 -35 37 -35 41 0 13 43 30 75 30 25 0 27 -2 10 -9z
m490 -6 c27 -11 -11 -44 -51 -44 -27 0 -31 3 -27 19 6 25 45 37 78 25z m-1127
-28 c14 -9 16 -56 2 -56 -5 0 -10 7 -10 16 0 8 -16 22 -35 30 -19 8 -35 17
-35 19 0 8 63 0 78 -9z m1204 -37 c61 -110 -62 -241 -173 -183 -36 18 -68 82
-48 95 8 5 19 0 28 -14 22 -32 29 -35 67 -27 19 5 44 6 55 3 26 -7 39 11 39
58 0 23 -7 42 -20 54 -19 17 -19 19 -3 37 21 24 32 20 55 -23z m2551 -85 c26
-20 47 -38 47 -40 0 -6 -70 38 -76 47 -3 5 -14 9 -24 9 -10 0 -22 5 -25 10
-15 24 36 7 78 -26z m-3748 -5 c-9 -17 -19 -28 -22 -25 -8 8 17 56 29 56 5 0
1 -14 -7 -31z m1702 -4 c62 -28 68 -45 7 -19 -31 13 -60 16 -149 11 l-110 -5
50 24 c61 30 119 27 202 -11z m1095 5 c29 -8 41 -20 62 -60 l26 -50 -25 -10
c-14 -5 -46 -11 -70 -12 -25 -2 -45 -7 -45 -12 0 -5 -7 -3 -15 4 -12 10 -15
10 -15 -1 0 -9 -3 -10 -8 -4 -10 15 -72 19 -72 5 0 -6 -5 -8 -12 -3 -7 4 -44
6 -83 4 l-70 -3 25 28 c14 14 43 35 65 46 22 11 29 17 16 14 -45 -9 -6 13 49
29 l55 15 -55 -5 c-30 -3 -83 -19 -117 -35 -64 -29 -85 -25 -37 7 65 42 244
65 326 43z m-2852 -25 c0 -14 -4 -25 -10 -25 -11 0 -14 33 -3 43 11 11 13 8
13 -18z m3750 -10 c14 -8 21 -14 15 -14 -5 0 -21 6 -35 14 -14 8 -20 14 -15
14 6 0 21 -6 35 -14z m-3687 -15 c-7 -27 -19 -33 -40 -21 -16 9 -16 10 -2 11
9 0 22 7 29 15 17 20 19 19 13 -5z m833 -10 c98 -56 185 -190 183 -280 l-1
-45 -13 40 -13 40 -1 -35 c-2 -60 -16 -61 -17 -1 -1 68 -34 148 -76 187 l-31
29 26 -36 c15 -19 33 -52 42 -72 18 -44 20 -147 3 -170 -11 -14 -13 -4 -14 60
-1 114 -46 193 -144 252 -23 14 -29 21 -17 21 9 0 35 -11 57 -25 62 -39 61
-29 -3 16 -31 22 -57 42 -57 45 0 11 30 1 76 -26z m2504 -3 c0 -8 11 -24 25
-37 21 -20 28 -22 50 -12 26 12 33 4 13 -16 -19 -19 -76 -14 -98 8 -20 20 -26
50 -13 63 11 11 23 8 23 -6z m-72 -67 c0 -9 -3 -7 -8 5 -5 11 -8 29 -8 40 0
16 2 15 8 -5 4 -14 8 -32 8 -40z m528 34 c9 4 23 1 30 -5 12 -10 11 -14 -3
-25 -23 -17 -66 -18 -60 -1 2 6 0 21 -6 32 -9 18 -8 19 6 6 9 -7 24 -10 33 -7z
m69 -44 c3 -5 1 -10 -4 -10 -6 0 -11 5 -11 10 0 6 2 10 4 10 3 0 8 -4 11 -10z
m-3112 -11 c29 -15 76 -59 89 -83 10 -18 8 -17 -17 2 -19 15 -43 22 -74 23
-25 0 -40 3 -33 6 29 12 10 25 -29 20 -23 -3 -48 -3 -55 0 -17 6 -18 30 -1 36
23 10 98 7 120 -4z m682 -7 c-11 -2 -33 -15 -48 -28 -16 -13 -34 -24 -40 -24
-7 0 -1 10 13 21 16 14 19 19 8 15 -17 -5 -24 4 -12 17 3 3 27 5 52 5 26 -1
38 -3 27 -6z m75 -2 c-20 -13 -40 -13 -40 0 0 6 12 10 28 10 21 0 24 -2 12
-10z m248 -21 c-8 -5 -6 -13 6 -24 22 -22 16 -37 -18 -46 -26 -7 -27 -6 -21
14 4 12 8 33 8 47 1 29 18 45 29 27 4 -6 2 -15 -4 -18z m1727 -9 c16 -23 42
-45 61 -52 42 -15 44 -26 4 -20 -21 3 -41 18 -64 46 -41 51 -50 66 -38 66 5 0
22 -18 37 -40z m-968 24 c-3 -3 -12 -4 -19 -1 -8 3 -5 6 6 6 11 1 17 -2 13 -5z
m-1067 -8 c0 -2 -12 -11 -27 -20 l-28 -17 24 20 c23 21 31 25 31 17z m2358 -8
c7 -7 12 -18 12 -25 0 -18 -35 0 -44 22 -7 18 15 20 32 3z m-1261 -35 c26 -29
29 -43 11 -43 -24 0 -41 18 -44 44 -3 33 5 33 33 -1z m263 -1 c0 -5 -9 -17
-20 -27 -18 -17 -20 -17 -14 -2 3 9 10 17 16 17 5 0 6 5 3 10 -3 6 -1 10 4 10
6 0 11 -4 11 -8z m-1989 -39 c13 -17 13 -17 -6 -3 -11 8 -22 16 -24 17 -2 2 0
3 6 3 6 0 17 -8 24 -17z m1904 6 c-12 -19 -54 -29 -81 -19 -38 15 -19 30 37
30 33 0 48 -4 44 -11z m-1675 -29 c0 -10 5 -22 10 -25 6 -3 10 -24 10 -46 0
-54 -16 -41 -22 18 -3 27 -9 57 -13 67 -6 14 -5 17 3 12 7 -4 12 -16 12 -26z
m610 20 c-20 -13 -57 -13 -65 0 -4 6 11 10 37 10 31 0 39 -3 28 -10z m-450
-19 c0 -5 -7 -12 -16 -15 -14 -5 -15 -4 -4 9 14 17 20 19 20 6z m2844 -122
c-8 -13 -24 -1 -24 18 0 13 3 13 15 3 8 -7 12 -16 9 -21z m-3594 -38 c-1 -22
-2 -23 -11 -9 -5 10 -17 21 -26 26 -13 8 -11 10 10 10 23 0 27 -5 27 -27z
m-30 -26 c0 -11 -29 -11 -33 -1 -4 10 1 12 14 9 10 -3 19 -7 19 -8z m459 -2
c-17 -23 -41 -43 -51 -43 -8 0 52 59 61 60 2 0 -3 -8 -10 -17z m-499 -13 c0
-5 -5 -10 -11 -10 -5 0 -7 5 -4 10 3 6 8 10 11 10 2 0 4 -4 4 -10z m2835 -20
c3 -6 -1 -7 -9 -4 -18 7 -21 14 -7 14 6 0 13 -4 16 -10z m-2686 -67 c-11 -13
-11 -17 -1 -21 18 -6 -24 -41 -46 -38 -30 5 -26 43 5 60 40 22 60 21 42 -1z
m760 -82 c26 -36 27 -52 2 -23 -20 24 -41 29 -41 10 0 -6 -3 -9 -6 -5 -8 8 5
47 16 47 5 0 18 -13 29 -29z m-40 -66 c6 -3 11 -13 11 -22 0 -13 -3 -13 -15
-3 -8 7 -13 16 -10 20 3 5 1 11 -5 15 -5 3 -10 14 -9 23 0 13 2 12 9 -4 5 -12
13 -25 19 -29z m3411 35 c0 -5 -4 -10 -10 -10 -5 0 -10 5 -10 10 0 6 5 10 10
10 6 0 10 -4 10 -10z m-4300 -122 c4 -22 3 -38 -2 -38 -14 0 -38 65 -43 118
l-5 47 22 -45 c12 -25 24 -62 28 -82z m2460 118 c0 -2 -8 -10 -17 -17 -16 -13
-17 -12 -4 4 13 16 21 21 21 13z m1125 -37 c28 -6 27 -7 -12 -8 -33 -1 -45 3
-53 20 -11 19 -10 20 12 8 13 -7 37 -16 53 -20z m-1186 -29 c-13 -16 -25 -28
-27 -25 -5 5 37 55 45 55 2 0 -6 -13 -18 -30z m1854 -33 c-11 -12 -23 -31 -27
-41 -3 -10 -9 -16 -13 -13 -3 4 6 25 21 48 15 22 30 38 33 35 4 -3 -3 -16 -14
-29z m-838 5 c-64 -39 -62 -48 12 -62 92 -16 264 -59 283 -70 12 -7 9 -9 -10
-10 -15 0 -30 -4 -35 -9 -6 -5 -34 -14 -63 -20 -61 -13 -100 -13 -62 -1 25 8
24 8 -5 9 -16 1 -66 -10 -110 -24 -43 -13 -81 -23 -82 -21 -3 3 70 37 150 70
20 8 37 17 37 20 0 2 -17 10 -37 16 -21 6 -65 21 -97 33 l-59 21 38 33 c21 18
45 33 54 33 9 0 4 -8 -14 -18z m275 -17 c0 -12 -29 -3 -34 10 -4 13 -2 14 14
5 11 -6 20 -13 20 -15z m-760 -125 c12 -8 12 -11 -3 -27 -66 -74 -53 -189 27
-230 l31 -16 -32 36 c-41 47 -60 108 -45 141 8 17 22 26 52 31 51 9 58 3 31
-24 -25 -25 -27 -51 -6 -91 32 -62 105 -43 105 27 0 35 8 41 29 21 11 -11 12
-6 9 25 -3 27 1 42 13 53 16 15 19 13 29 -27 12 -42 9 -114 -5 -156 -5 -17 -3
-24 10 -29 20 -8 37 13 31 39 -4 18 10 22 33 8 21 -14 5 -60 -25 -71 -14 -6
-45 -10 -69 -10 -44 0 -55 -10 -55 -50 0 -10 -12 -27 -26 -37 -22 -16 -35 -18
-90 -11 -36 4 -81 15 -102 25 -50 24 -124 98 -147 150 -19 41 -37 53 -50 33
-3 -5 -17 -9 -29 -8 -36 3 -27 46 23 113 59 78 90 95 176 95 39 0 77 -4 85
-10z m524 -86 c9 -3 16 -10 16 -15 0 -6 -10 -5 -21 2 -13 6 -19 7 -15 1 3 -6
3 -12 -1 -15 -5 -2 -3 -3 3 -1 6 1 11 -5 11 -13 0 -10 -6 -12 -21 -7 -12 3
-33 7 -48 8 -30 1 -39 16 -10 17 14 0 14 2 -3 8 -19 8 -18 9 5 13 39 8 67 9
84 2z m-389 -30 c21 -21 15 -48 -11 -52 -25 -4 -59 32 -51 53 8 20 41 19 62
-1z m-2432 -234 c-32 -45 -76 -70 -122 -70 -34 0 -100 29 -119 53 -10 12 -8
16 15 20 15 3 31 1 34 -5 4 -6 36 -13 73 -17 l66 -7 35 36 c19 20 36 42 36 50
1 10 3 9 6 -2 2 -10 -8 -36 -24 -58z m-123 52 c0 -5 -7 -17 -15 -28 -12 -16
-16 -17 -24 -4 -7 9 -6 19 1 27 12 14 38 18 38 5z m2880 -53 c-24 -16 -89 -49
-97 -49 -14 0 82 58 97 59 13 1 13 0 0 -10z m-392 -95 c-29 -30 -45 -38 -86
-42 -59 -5 -111 3 -136 21 -15 11 -11 12 23 9 23 -2 49 -1 59 4 9 4 20 8 23 8
3 1 13 9 23 19 12 12 33 17 74 17 l57 0 -37 -36z m-2693 16 c-3 -5 -14 -10
-23 -10 -15 0 -15 2 -2 10 20 13 33 13 25 0z m2154 -57 c-106 -176 -297 -335
-480 -400 -107 -39 -287 -45 -390 -13 -39 11 -69 23 -66 26 2 2 16 0 30 -5 72
-28 147 -32 255 -16 59 9 121 21 137 28 17 6 32 12 35 13 26 5 155 79 185 106
11 10 62 51 114 90 63 48 110 94 144 140 54 75 71 89 36 31z m748 -85 c-3 -7
-5 -2 -5 12 0 14 2 19 5 13 2 -7 2 -19 0 -25z m10 -40 c-3 -8 -6 -5 -6 6 -1
11 2 17 5 13 3 -3 4 -12 1 -19z m86 -26 c26 -27 27 -42 1 -42 -6 0 -14 9 -17
21 -3 12 -10 18 -16 14 -7 -3 -11 2 -11 14 0 28 11 26 43 -7z m-2914 -166
c-11 -9 -100 -15 -94 -6 3 6 27 10 52 10 26 0 44 -2 42 -4z m-219 -31 c-7 -8
-20 -15 -29 -15 -11 1 -8 5 9 15 32 18 35 18 20 0z m-65 -65 c9 -17 20 -28 25
-25 6 4 10 1 10 -5 0 -16 -51 -1 -77 23 -30 26 -29 37 2 37 17 0 29 -9 40 -30z
m2423 -26 c18 -31 22 -50 19 -96 -3 -62 -20 -89 -70 -115 -36 -18 -130 -18
-182 0 -36 13 -38 15 -18 21 12 4 31 2 42 -3 11 -6 44 -11 74 -11 65 0 99 26
116 86 15 55 14 75 -9 109 -11 17 -20 36 -20 43 0 24 24 7 48 -34z m-76 -13
c40 -42 47 -71 27 -114 -22 -49 -98 -69 -133 -34 -10 9 -22 17 -28 17 -6 0 -5
7 3 17 10 12 11 15 1 9 -7 -4 -19 -2 -27 4 -8 7 -15 9 -15 4 -1 -19 -30 31
-30 52 0 26 35 72 64 85 11 5 39 7 61 4 31 -3 49 -13 77 -44z m-2282 29 c13
-8 13 -10 -2 -10 -9 0 -20 5 -23 10 -8 13 5 13 25 0z m2447 -6 c-3 -3 -12 -4
-19 -1 -8 3 -5 6 6 6 11 1 17 -2 13 -5z m-357 -139 c14 -19 14 -19 -2 -6 -10
7 -18 18 -18 24 0 6 1 8 3 6 1 -2 9 -13 17 -24z m-5 -45 c-3 -5 -11 -10 -16
-10 -6 0 -7 5 -4 10 3 6 11 10 16 10 6 0 7 -4 4 -10z m172 -82 c-33 -7 -59 -7
-80 0 -27 8 -20 10 48 10 79 0 79 0 32 -10z m183 7 c0 -3 -12 -23 -26 -44 -31
-47 -86 -66 -149 -51 l-40 9 42 -2 c23 -1 39 1 37 5 -3 5 -13 8 -22 8 -9 1 6
9 34 18 28 10 64 28 80 40 29 21 44 27 44 17z m-1855 -89 c23 -37 72 -101 110
-144 l70 -77 -67 58 c-63 55 -107 111 -157 200 -37 67 1 35 44 -37z m1720 59
c-31 -13 -233 -40 -242 -32 -2 3 22 8 54 12 32 3 85 12 118 20 79 18 110 18
70 0z m133 -39 c-18 -24 -34 -43 -36 -41 -5 5 52 84 61 85 4 0 -7 -20 -25 -44z
m-393 24 c-3 -5 -14 -10 -23 -10 -25 0 -253 -79 -280 -96 -13 -9 -26 -13 -29
-10 -9 9 100 55 217 92 118 37 124 38 115 24z m34 -59 c-74 -20 -92 -29 -84
-40 2 -5 -4 -16 -15 -26 -19 -18 -22 -18 -53 -1 -29 15 -20 15 17 0 9 -3 19 5
28 23 10 22 26 31 73 45 33 9 69 16 80 16 11 0 -10 -8 -46 -17z m-564 -272 c9
-17 15 -34 13 -39 -2 -5 -11 9 -20 30 -20 47 -15 53 7 9z m109 -61 c4 -21 11
-38 17 -38 6 0 8 -4 5 -8 -10 -16 25 -53 44 -47 22 7 38 -14 20 -25 -7 -4 -9
-13 -6 -19 15 -23 -11 -10 -42 22 -39 40 -62 95 -62 144 1 45 14 29 24 -29z
m56 -35 c-1 -11 -40 37 -40 49 0 6 9 -1 20 -15 11 -14 20 -29 20 -34z m1 -35
c11 -21 11 -22 -4 -9 -10 7 -17 17 -17 22 0 15 9 10 21 -13z"/>
<path d="M4415 4446 c-17 -12 -17 -13 9 -20 35 -9 50 1 32 20 -18 17 -18 17
-41 0z"/>
<path d="M4530 4358 c0 -9 5 -20 10 -23 13 -8 13 5 0 25 -8 13 -10 13 -10 -2z"/>
<path d="M4479 4331 c6 -10 32 -38 58 -60 37 -33 54 -41 77 -39 29 3 31 6 28
38 -4 61 -7 62 -58 38 l-46 -23 -27 33 c-30 35 -47 43 -32 13z"/>
<path d="M4646 4313 c12 -49 25 -72 19 -34 -3 18 -5 40 -5 47 0 8 -5 14 -10
14 -6 0 -8 -11 -4 -27z"/>
<path d="M4636 4002 c26 -46 53 -68 31 -26 -9 17 -24 37 -33 45 -16 12 -15 10
2 -19z"/>
<path d="M5343 4613 c9 -2 25 -2 35 0 9 3 1 5 -18 5 -19 0 -27 -2 -17 -5z"/>
<path d="M4870 4520 c0 -12 37 -12 65 0 15 7 10 9 -22 9 -24 1 -43 -3 -43 -9z"/>
<path d="M4903 4463 c-47 -9 -21 -21 35 -16 37 4 67 1 82 -7 13 -7 20 -8 16
-1 -7 11 -72 32 -96 30 -8 -1 -25 -4 -37 -6z"/>
<path d="M4926 4364 c-20 -19 -20 -28 -1 -44 12 -10 28 -10 68 -3 l52 10 -57
2 c-62 1 -75 15 -32 32 32 12 61 4 93 -25 l24 -21 -12 22 c-6 13 -20 27 -31
33 -28 15 -86 12 -104 -6z"/>
<path d="M4968 4243 c-47 -14 -65 -33 -30 -33 17 0 82 35 82 45 0 3 -1 5 -2 4
-2 -1 -24 -8 -50 -16z"/>
<path d="M5064 4138 l-19 -23 23 19 c21 18 27 26 19 26 -2 0 -12 -10 -23 -22z"/>
<path d="M2310 4121 l0 -61 55 0 55 0 0 41 c0 36 -3 41 -32 53 -80 33 -78 34
-78 -33z"/>
<path d="M2630 4034 c0 -33 3 -64 7 -67 6 -6 72 98 73 114 0 4 -18 9 -40 11
l-40 4 0 -62z"/>
<path d="M2310 4040 c0 -12 37 -12 65 0 15 7 10 9 -22 9 -24 1 -43 -3 -43 -9z"/>
<path d="M4753 3749 c-7 -24 -21 -55 -33 -69 -11 -14 -34 -45 -52 -69 -20 -26
-58 -58 -93 -78 -63 -36 -44 -35 41 2 63 28 119 77 144 125 15 29 17 48 12 85
l-7 48 -12 -44z"/>
<path d="M3327 3603 c-10 -10 -8 -33 3 -33 5 0 14 9 20 20 8 15 8 20 -3 20 -8
0 -17 -3 -20 -7z"/>
<path d="M4383 3593 c15 -2 37 -2 50 0 12 2 0 4 -28 4 -27 0 -38 -2 -22 -4z"/>
<path d="M3156 3576 c21 -15 30 -14 19 3 -3 6 -14 11 -23 11 -13 0 -13 -2 4
-14z"/>
<path d="M3106 3561 c-3 -5 0 -24 8 -42 13 -30 15 -31 22 -15 5 13 2 23 -9 31
-19 13 -22 25 -8 25 17 0 42 -32 37 -47 -3 -8 -1 -11 4 -8 15 10 12 30 -8 48
-21 19 -38 22 -46 8z"/>
<path d="M4208 3563 c12 -2 32 -2 45 0 12 2 2 4 -23 4 -25 0 -35 -2 -22 -4z"/>
<path d="M3204 3512 c4 -45 27 -78 61 -93 15 -6 16 -8 4 -8 -27 -1 -59 31 -74
74 -8 22 -14 33 -15 24 0 -9 -8 -23 -18 -32 -16 -14 -18 -31 -17 -104 2 -121
7 -133 55 -133 21 0 41 3 44 8 2 4 5 37 7 72 1 52 6 68 22 81 20 16 20 17 -12
45 -17 16 -39 47 -47 69 l-15 40 5 -43z"/>
<path d="M3270 3532 c0 -21 23 -62 35 -62 7 0 18 7 25 15 10 12 10 15 -3 15
-9 0 -25 10 -37 22 -11 12 -20 17 -20 10z"/>
<path d="M4180 3485 c-18 -19 -32 -37 -29 -39 2 -3 19 13 37 35 41 48 37 51
-8 4z"/>
<path d="M4212 3483 c-24 -24 -24 -25 -2 -8 42 33 44 35 37 35 -4 0 -19 -12
-35 -27z"/>
<path d="M4229 3453 l-24 -28 28 24 c15 14 27 26 27 28 0 8 -8 1 -31 -24z"/>
<path d="M4516 3374 c-20 -20 -36 -41 -36 -47 0 -6 1 -8 3 -6 1 2 20 23 42 47
48 51 41 56 -9 6z"/>
<path d="M4486 3302 c-3 -6 -2 -13 4 -17 5 -3 10 -3 10 1 0 3 7 1 16 -7 8 -7
13 -21 11 -31 -4 -15 -2 -16 16 -6 28 14 36 22 18 16 -8 -2 -27 9 -41 26 -17
18 -29 25 -34 18z"/>
<path d="M4750 3255 c72 -18 98 -18 40 1 -25 7 -56 13 -70 13 -14 0 -1 -7 30
-14z"/>
<path d="M4561 2667 c-2 -74 54 -147 124 -162 l30 -6 -30 17 c-64 36 -97 79
-114 151 l-9 38 -1 -38z"/>
<path d="M4610 2655 c0 -49 76 -125 125 -125 14 1 9 5 -15 16 -48 21 -70 42
-91 89 -12 26 -19 33 -19 20z"/>
<path d="M4660 2616 c0 -2 8 -10 18 -17 15 -13 16 -12 3 4 -13 16 -21 21 -21
13z"/>
<path d="M5220 2566 c0 -8 4 -17 9 -20 5 -4 7 3 4 14 -6 23 -13 26 -13 6z"/>
<path d="M5309 2530 c12 -11 27 -17 33 -14 14 9 -12 34 -36 34 -21 -1 -21 -1
3 -20z"/>
<path d="M5360 2541 c0 -13 37 -24 51 -15 8 4 7 9 -2 15 -19 12 -49 11 -49 0z"/>
<path d="M4825 2528 c44 -15 93 -55 110 -88 21 -41 19 -61 -4 -25 -41 66 -109
103 -156 84 -17 -6 -16 -8 8 -8 18 -1 40 -12 58 -30 29 -30 35 -56 30 -130 -2
-33 -2 -34 31 -27 18 3 37 11 43 17 7 7 -1 9 -27 4 -24 -5 -38 -3 -38 3 0 12
24 22 51 22 11 0 21 9 25 24 16 64 -64 167 -129 165 l-32 -1 30 -10z"/>
<path d="M5100 2530 c0 -5 5 -10 10 -10 6 0 10 5 10 10 0 6 -4 10 -10 10 -5 0
-10 -4 -10 -10z"/>
<path d="M5194 2501 c17 -18 17 -22 2 -43 -25 -35 -19 -43 9 -10 30 35 30 41
8 58 -27 20 -38 17 -19 -5z"/>
<path d="M5272 2474 c2 -9 13 -23 26 -32 21 -14 22 -13 16 4 -15 40 -49 63
-42 28z"/>
<path d="M5353 2455 c35 -31 55 -33 35 -2 -9 12 -26 23 -39 25 -24 3 -24 3 4
-23z"/>
<path d="M4094 2440 c3 -19 11 -39 17 -45 8 -7 9 0 4 25 -4 19 -12 40 -17 45
-7 7 -9 -1 -4 -25z"/>
<path d="M4050 2428 c0 -25 3 -29 10 -18 13 20 13 50 0 50 -5 0 -10 -15 -10
-32z"/>
<path d="M5222 2434 c-5 -55 -35 -125 -73 -168 -52 -59 -83 -75 -161 -83 l-63
-6 35 -13 c45 -16 95 -17 123 -3 35 19 96 90 123 145 19 39 24 63 21 100 -2
27 -4 40 -5 28z"/>
<path d="M4650 2402 c-19 -9 -54 -31 -77 -48 -24 -17 -67 -42 -98 -54 -30 -12
-52 -27 -49 -32 4 -6 -1 -8 -13 -4 -13 4 -42 -5 -79 -24 -81 -43 -94 -60 -15
-20 80 40 91 33 14 -11 -32 -18 -59 -36 -61 -40 -2 -4 -10 -5 -18 -2 -7 3 -11
9 -8 14 3 5 -2 6 -11 2 -9 -3 -13 -9 -8 -12 17 -12 12 -30 -14 -50 -14 -12
-21 -21 -16 -21 15 0 54 46 46 54 -5 4 -1 7 7 5 18 -4 74 25 174 89 41 26 110
69 153 97 43 27 98 55 123 61 38 11 41 13 15 13 -16 0 -46 -7 -65 -17z"/>
<path d="M5260 2406 c0 -8 10 -22 22 -30 31 -22 46 3 15 26 -27 22 -37 22 -37
4z"/>
<path d="M4200 2382 c0 -5 7 -15 15 -22 8 -7 15 -8 15 -2 0 5 -7 15 -15 22 -8
7 -15 8 -15 2z"/>
<path d="M4740 2383 c8 -3 22 -11 30 -17 13 -10 13 -9 1 7 -7 9 -21 17 -30 16
-13 0 -14 -1 -1 -6z"/>
<path d="M5143 2364 c-10 -16 -44 -54 -75 -86 -62 -63 -63 -73 -3 -32 45 30
68 57 91 102 20 42 12 52 -13 16z"/>
<path d="M4365 2350 c3 -6 20 -10 37 -10 38 0 34 5 -10 13 -21 4 -31 3 -27 -3z"/>
<path d="M4280 2325 c0 -16 6 -25 16 -25 8 0 12 5 9 10 -3 6 -1 10 6 10 8 0 8
4 -1 15 -18 22 -30 18 -30 -10z"/>
<path d="M4225 2319 c-4 -6 -5 -12 -2 -15 2 -3 7 2 10 11 7 17 1 20 -8 4z"/>
<path d="M4343 2313 c9 -2 25 -2 35 0 9 3 1 5 -18 5 -19 0 -27 -2 -17 -5z"/>
<path d="M4408 2313 c7 -3 16 -2 19 1 4 3 -2 6 -13 5 -11 0 -14 -3 -6 -6z"/>
<path d="M3980 2290 c0 -8 5 -22 10 -30 9 -13 10 -13 10 0 0 8 -5 22 -10 30
-9 13 -10 13 -10 0z"/>
<path d="M4816 2273 c-6 -14 -5 -15 5 -6 7 7 10 15 7 18 -3 3 -9 -2 -12 -12z"/>
<path d="M4250 2259 c0 -5 9 -9 20 -9 11 0 20 2 20 4 0 2 -9 6 -20 9 -11 3
-20 1 -20 -4z"/>
<path d="M4070 2172 c0 -12 58 -34 77 -29 16 4 15 5 -2 6 -11 1 -29 8 -39 16
-22 16 -36 19 -36 7z"/>
<path d="M4245 2115 c-25 -25 -51 -43 -56 -39 -5 3 -8 0 -7 -7 2 -7 -4 -13
-12 -14 -8 0 -15 -4 -15 -10 0 -5 -5 -17 -10 -25 -14 -22 63 41 115 94 57 59
46 60 -15 1z"/>
<path d="M3971 2104 c0 -16 4 -38 9 -49 6 -13 7 -5 3 25 -7 53 -13 66 -12 24z"/>
<path d="M4117 2103 c-13 -12 -7 -43 7 -43 19 0 28 14 20 34 -7 17 -16 20 -27
9z"/>
<path d="M4075 2080 c-3 -6 1 -7 9 -4 18 7 21 14 7 14 -6 0 -13 -4 -16 -10z"/>
<path d="M3477 2045 c-13 -18 -27 -25 -52 -25 l-35 0 0 -57 c0 -77 14 -98 85
-137 38 -21 71 -48 91 -77 32 -46 50 -55 91 -45 18 5 31 22 48 61 21 46 33 59
79 85 54 31 66 49 66 102 l0 27 -25 -24 c-13 -14 -34 -25 -47 -25 -21 1 -22 2
-5 14 17 13 14 20 -19 39 -17 10 -64 -31 -64 -54 0 -11 -11 -24 -24 -31 -27
-12 -61 -4 -51 11 3 6 -4 15 -15 21 -11 6 -20 15 -20 21 0 6 5 7 11 4 20 -13
77 5 115 36 22 17 46 35 54 39 32 18 -2 22 -41 4 -56 -25 -121 -21 -175 11
-23 14 -44 25 -46 25 -2 0 -11 -12 -21 -25z m30 -55 c-16 -5 -35 -14 -43 -21
-9 -7 -14 -8 -14 -1 0 16 31 31 60 31 24 -1 24 -1 -3 -9z"/>
<path d="M4108 1983 c-18 -21 -31 -43 -25 -43 2 0 13 14 25 30 25 33 24 41 0
13z"/>
<path d="M4285 1969 c-4 -6 -5 -12 -2 -15 2 -3 7 2 10 11 7 17 1 20 -8 4z"/>
<path d="M4305 1960 c-3 -5 3 -10 15 -10 12 0 19 -4 15 -10 -3 -5 -13 -6 -23
-3 -15 6 -15 4 -4 -10 18 -21 42 -11 42 19 0 17 -6 24 -19 24 -11 0 -23 -4
-26 -10z"/>
<path d="M4271 1934 c-2 -19 26 -47 40 -41 11 4 11 6 -2 6 -9 1 -21 11 -27 24
-6 12 -11 17 -11 11z"/>
<path d="M4360 1886 c-6 -8 -26 -17 -43 -19 l-32 -4 31 -1 c20 -1 37 5 49 18
10 11 16 20 13 20 -3 0 -11 -6 -18 -14z"/>
<path d="M4031 1792 c-2 -52 23 -97 74 -132 25 -17 48 -30 51 -27 2 2 -14 16
-35 32 -50 34 -73 68 -82 120 -6 38 -7 39 -8 7z"/>
<path d="M4011 1747 c-1 -46 17 -91 54 -136 l29 -34 -31 16 c-17 9 -40 35 -53
59 l-22 43 7 -40 c4 -21 15 -55 24 -75 10 -19 24 -52 30 -72 13 -39 24 -47 37
-27 4 8 9 7 15 -2 7 -11 12 -12 28 -2 29 18 37 -22 8 -42 -12 -8 -16 -15 -10
-15 15 0 52 47 59 75 10 39 -21 91 -80 134 -60 44 -76 67 -87 121 l-7 35 -1
-38z"/>
<path d="M3460 1676 c-25 -13 -65 -35 -89 -49 -36 -21 -53 -25 -91 -20 -36 4
-50 1 -63 -12 -17 -16 -16 -18 20 -38 32 -18 52 -21 126 -19 48 1 106 2 130 3
53 0 375 -9 402 -12 11 -2 37 -2 58 -1 30 2 37 6 37 22 0 15 -7 20 -28 20 -19
0 -43 13 -73 40 -46 43 -127 90 -154 90 -9 0 -34 -9 -55 -20 l-40 -20 -40 20
c-51 26 -84 25 -140 -4z m430 -100 c0 -2 -9 -2 -20 1 -11 3 -20 9 -20 15 0 5
9 4 20 -2 11 -6 20 -12 20 -14z"/>
<path d="M3340 1467 c-30 -25 -37 -49 -23 -78 19 -39 31 -46 119 -75 70 -23
91 -25 179 -21 114 5 154 18 214 72 47 43 53 65 15 65 -17 0 -23 4 -18 12 5 8
2 9 -12 4 -46 -18 -131 -36 -169 -36 -55 0 -166 25 -207 46 -42 22 -79 26 -98
11z"/>
<path d="M4847 2969 c7 -7 15 -10 18 -7 3 3 -2 9 -12 12 -14 6 -15 5 -6 -5z"/>
<path d="M4880 2956 c0 -2 17 -14 38 -25 l37 -21 -30 25 c-28 23 -45 31 -45
21z"/>
<path d="M4088 2763 c6 -2 18 -2 25 0 6 3 1 5 -13 5 -14 0 -19 -2 -12 -5z"/>
<path d="M4192 944 c-14 -10 -22 -25 -22 -45 0 -24 7 -32 36 -46 37 -18 57
-13 77 19 15 23 0 63 -28 76 -33 15 -36 15 -63 -4z"/>
<path d="M2020 4794 c0 -8 5 -12 10 -9 6 3 10 10 10 16 0 5 -4 9 -10 9 -5 0
-10 -7 -10 -16z"/>
<path d="M2067 4793 c3 -7 9 -13 14 -13 5 0 9 6 9 13 0 8 -6 14 -14 14 -8 0
-12 -6 -9 -14z"/>
<path d="M2127 4803 c-11 -10 -8 -25 3 -18 5 3 20 -1 32 -9 29 -21 37 -20 73
9 l30 25 -66 0 c-36 0 -69 -3 -72 -7z"/>
<path d="M2527 4804 c-4 -4 -7 -14 -7 -23 0 -11 3 -12 11 -4 6 6 10 16 7 23
-2 6 -7 8 -11 4z"/>
<path d="M5696 4798 c6 -10 51 -11 57 0 3 4 -10 7 -28 8 -19 0 -32 -3 -29 -8z"/>
<path d="M2486 4784 c-7 -19 3 -64 14 -64 15 0 21 18 9 25 -6 4 -8 18 -5 31 7
27 -8 33 -18 8z"/>
<path d="M2580 4790 c0 -5 7 -10 16 -10 8 0 12 5 9 10 -3 6 -10 10 -16 10 -5
0 -9 -4 -9 -10z"/>
<path d="M2537 4768 c-10 -11 -16 -22 -14 -25 5 -5 47 33 47 42 0 10 -16 3
-33 -17z"/>
<path d="M2625 4771 c3 -11 1 -22 -5 -26 -15 -10 -12 -25 6 -25 10 0 14 6 11
14 -3 8 -1 16 4 18 12 4 1 38 -13 38 -5 0 -7 -9 -3 -19z"/>
<path d="M2586 4763 c-4 -5 -12 -8 -17 -8 -5 0 -9 -3 -9 -7 0 -9 -2 -9 28 -2
12 4 22 10 22 15 0 11 -14 12 -24 2z"/>
<path d="M1103 4714 c-7 -19 11 -39 26 -30 16 10 13 33 -4 40 -9 3 -18 -1 -22
-10z"/>
<path d="M2533 4716 c4 -10 1 -13 -9 -9 -7 3 -14 0 -14 -7 0 -9 10 -10 33 -5
17 4 38 7 45 8 14 0 17 27 2 27 -5 0 -10 -5 -10 -10 0 -7 -6 -7 -19 0 -27 14
-34 13 -28 -4z"/>
<path d="M2602 4695 c-6 -8 -19 -12 -27 -9 -8 4 -15 1 -15 -5 0 -6 -7 -8 -17
-4 -11 4 -14 3 -9 -5 4 -7 14 -12 23 -12 18 0 73 31 73 42 0 12 -14 9 -28 -7z"/>
<path d="M6110 4670 c-27 -65 -139 -139 -211 -140 -20 0 -38 -3 -42 -6 -3 -3
3 -27 14 -52 11 -25 23 -65 26 -88 l5 -42 45 19 c65 28 103 57 103 80 0 11 16
51 36 90 30 61 57 169 42 169 -3 0 -11 -13 -18 -30z m-44 -127 c-8 -15 -15
-22 -16 -15 0 17 20 55 27 49 2 -3 -2 -18 -11 -34z m-71 -128 c-39 -24 -55
-30 -55 -20 0 6 72 44 85 44 6 0 -8 -11 -30 -24z"/>
<path d="M1032 4585 c12 -27 56 -60 66 -50 6 5 -62 75 -73 75 -3 0 1 -11 7
-25z"/>
<path d="M3050 4579 c0 -18 2 -19 15 -9 15 12 12 30 -6 30 -5 0 -9 -10 -9 -21z"/>
<path d="M5843 3883 c13 -3 16 -10 11 -26 -15 -48 -15 -51 0 -27 23 37 20 60
-6 59 -18 -1 -19 -2 -5 -6z"/>
<path d="M1151 3828 c19 -37 59 -53 59 -25 0 19 -33 47 -54 47 -14 0 -15 -3
-5 -22z"/>
<path d="M1220 3741 c0 -11 5 -23 10 -26 6 -3 10 3 10 14 0 11 -4 23 -10 26
-5 3 -10 -3 -10 -14z"/>
<path d="M794 3599 c-26 -52 -45 -159 -28 -159 5 0 9 19 9 43 1 54 29 111 61
126 22 9 24 14 14 26 -20 24 -28 18 -56 -36z"/>
<path d="M5830 3336 c0 -2 8 -10 18 -17 15 -13 16 -12 3 4 -13 16 -21 21 -21
13z"/>
<path d="M6606 3328 c-18 -10 -21 -33 -6 -43 6 -4 7 1 3 10 -8 23 36 16 51 -7
25 -40 -75 -108 -130 -88 -19 8 -20 5 -16 -51 3 -44 0 -65 -13 -85 -16 -26
-16 -26 7 -19 41 12 102 46 132 73 33 32 65 96 66 133 0 51 -57 98 -94 77z"/>
<path d="M760 3305 c0 -19 49 -129 76 -170 49 -75 166 -156 221 -154 10 0 2 6
-17 13 -41 15 -145 80 -156 97 -3 6 -8 37 -9 68 -2 57 -20 101 -41 101 -6 0
-21 11 -34 25 -21 23 -40 32 -40 20z"/>
<path d="M6347 3230 c-61 -48 -36 -161 41 -185 17 -5 30 1 56 27 28 28 35 43
41 97 5 45 4 66 -5 74 -10 9 -11 7 -6 -10 6 -19 2 -22 -36 -28 -24 -4 -50 -11
-59 -16 -11 -6 -21 -4 -29 6 -15 18 -15 17 25 38 18 10 23 16 14 17 -9 0 -28
-9 -42 -20z"/>
<path d="M5097 3044 c-10 -11 35 -45 51 -39 7 3 18 5 23 5 6 0 7 5 4 10 -3 6
-17 10 -31 10 -13 0 -24 5 -24 10 0 11 -13 13 -23 4z"/>
<path d="M1258 2973 c6 -2 18 -2 25 0 6 3 1 5 -13 5 -14 0 -19 -2 -12 -5z"/>
<path d="M6038 2953 c6 -2 18 -2 25 0 6 3 1 5 -13 5 -14 0 -19 -2 -12 -5z"/>
<path d="M1220 2935 c0 -7 61 -37 66 -33 2 3 -12 12 -31 21 -19 9 -35 15 -35
12z"/>
<path d="M6115 2933 c-16 -3 -37 -11 -46 -19 -9 -8 -32 -19 -52 -25 -30 -8
-55 -34 -44 -45 2 -2 50 19 108 46 99 48 103 53 34 43z"/>
<path d="M1036 2858 c23 -75 81 -134 139 -140 l39 -4 -29 20 c-17 11 -58 49
-93 84 -44 43 -61 55 -56 40z"/>
<path d="M6274 2865 c-10 -8 -14 -15 -8 -15 5 0 19 7 30 15 10 8 14 15 8 15
-5 0 -19 -7 -30 -15z"/>
<path d="M5322 2770 c17 -27 85 -66 133 -75 18 -4 4 6 -35 25 -35 17 -76 41
-89 53 l-25 22 16 -25z"/>
<path d="M5916 2774 c-10 -25 -1 -28 49 -14 57 16 58 30 1 30 -31 0 -46 -5
-50 -16z"/>
<path d="M1350 2764 c0 -13 -3 -14 -15 -4 -12 10 -17 6 -28 -23 -8 -19 -24
-41 -36 -49 -33 -24 -61 -96 -61 -163 0 -46 7 -75 29 -121 16 -34 36 -64 46
-67 21 -9 82 -7 115 2 l25 7 -30 16 c-38 20 -78 63 -100 107 -33 65 -12 231
28 231 6 0 2 -9 -8 -20 -25 -28 -9 -25 26 4 18 15 25 27 18 31 -6 4 -7 19 -4
36 4 16 4 29 1 29 -3 0 -6 -7 -6 -16z"/>
<path d="M1272 2730 c-7 -11 -9 -20 -4 -20 10 0 32 22 32 32 0 15 -15 8 -28
-12z"/>
<path d="M5523 2713 c9 -2 15 -9 12 -14 -8 -11 6 -12 23 0 10 6 8 10 -10 14
-12 4 -27 6 -33 6 -5 -1 -2 -3 8 -6z"/>
<path d="M6290 2700 c0 -5 9 -10 19 -10 11 0 23 5 26 10 4 6 -5 10 -19 10 -14
0 -26 -4 -26 -10z"/>
<path d="M5450 2611 c0 -5 7 -15 17 -22 15 -13 15 -12 4 9 -12 23 -21 28 -21
13z"/>
<path d="M5575 2610 c-3 -5 -1 -10 4 -10 6 0 11 5 11 10 0 6 -2 10 -4 10 -3 0
-8 -4 -11 -10z"/>
<path d="M5772 2567 l-23 -24 31 1 c32 1 32 1 21 29 -6 17 -8 16 -29 -6z"/>
<path d="M5646 2554 c-4 -10 -1 -14 6 -12 15 5 23 28 10 28 -5 0 -13 -7 -16
-16z"/>
<path d="M1087 2495 c25 -118 113 -215 193 -215 30 0 30 0 14 25 -11 16 -26
25 -43 25 -34 0 -108 75 -145 145 -19 38 -24 43 -19 20z"/>
<path d="M1516 2407 c-5 -10 -21 -24 -37 -33 -16 -8 -29 -21 -29 -28 0 -8 -23
-22 -52 -33 l-53 -18 40 -3 c50 -4 105 6 105 19 0 6 9 18 21 28 15 12 20 25
17 51 -3 28 -6 31 -12 17z"/>
<path d="M5660 2335 c0 -14 5 -25 10 -25 6 0 10 11 10 25 0 14 -4 25 -10 25
-5 0 -10 -11 -10 -25z"/>
<path d="M5586 2267 c-24 -17 -15 -47 13 -47 14 0 19 5 15 15 -4 9 0 15 10 15
24 0 19 -29 -6 -40 -18 -8 -19 -9 -4 -7 28 3 44 33 30 55 -15 23 -35 26 -58 9z"/>
<path d="M1366 2255 c-3 -9 -6 -21 -6 -26 0 -11 67 -11 95 0 18 7 16 10 -15
19 -19 5 -42 13 -51 16 -10 5 -19 1 -23 -9z"/>
<path d="M1586 2063 c-6 -14 -5 -15 5 -6 7 7 10 15 7 18 -3 3 -9 -2 -12 -12z"/>
<path d="M1557 2005 c-9 -19 -15 -35 -12 -35 7 0 37 61 33 66 -3 2 -12 -12
-21 -31z"/>
<path d="M1220 1922 c0 -20 52 -73 85 -86 50 -21 110 -29 168 -21 40 6 47 10
32 16 l-20 8 20 0 c17 1 17 3 5 11 -8 5 -46 10 -85 10 -93 0 -105 2 -99 12 3
5 10 6 15 3 5 -3 6 0 4 7 -3 8 -15 15 -28 15 -15 2 -18 0 -9 -6 10 -6 8 -10
-9 -14 -16 -4 -29 2 -50 25 -16 16 -29 25 -29 20z"/>
<path d="M5393 1693 c-14 -5 -18 -23 -5 -23 5 0 17 7 28 15 14 11 15 14 4 14
-8 0 -21 -3 -27 -6z"/>
<path d="M5486 1613 c-6 -14 -5 -15 5 -6 7 7 10 15 7 18 -3 3 -9 -2 -12 -12z"/>
<path d="M5438 1593 c7 -3 16 -2 19 1 4 3 -2 6 -13 5 -11 0 -14 -3 -6 -6z"/>
<path d="M1615 1320 c-3 -5 -2 -10 4 -10 5 0 13 5 16 10 3 6 2 10 -4 10 -5 0
-13 -4 -16 -10z"/>
<path d="M1617 1284 c-15 -13 -24 -24 -20 -24 11 1 57 40 52 44 -2 3 -17 -7
-32 -20z"/>
<path d="M2209 1000 c-13 -7 -15 -20 -12 -53 5 -39 2 -46 -23 -66 -15 -12 -38
-24 -51 -27 -49 -13 -16 -95 43 -110 68 -17 176 60 189 135 5 32 2 48 -14 75
-29 46 -93 69 -132 46z"/>
<path d="M4882 944 c-24 -19 -39 -34 -33 -34 6 0 28 16 49 35 47 44 40 44 -16
-1z"/>
<path d="M2502 910 c0 -14 2 -19 5 -12 2 6 2 18 0 25 -3 6 -5 1 -5 -13z"/>
<path d="M5170 890 c-6 -11 -17 -20 -24 -20 -13 0 -41 -49 -32 -57 6 -7 75 70
76 85 0 18 -8 15 -20 -8z"/>
<path d="M2058 687 c19 -20 102 -63 102 -52 0 1 -28 19 -62 40 -52 31 -59 33
-40 12z"/>
<path d="M2350 667 c-34 -17 -45 -28 -45 -46 0 -20 5 -23 42 -26 42 -3 64 7
43 20 -8 5 -8 11 0 20 6 8 10 23 8 34 -3 19 -4 19 -48 -2z"/>
<path d="M5164 631 c-39 -24 -59 -76 -45 -114 12 -31 85 -87 113 -87 29 0 73
26 92 54 31 49 15 115 -36 146 -41 25 -84 25 -124 1z"/>
<path d="M4383 393 c9 -2 25 -2 35 0 9 3 1 5 -18 5 -19 0 -27 -2 -17 -5z"/>
<path d="M3597 140 c3 -11 9 -22 13 -25 5 -3 6 4 3 15 -3 11 -9 22 -13 25 -5
3 -6 -4 -3 -15z"/>
</g>
</svg>
