<?xml version="1.0" encoding="UTF-8"?><svg id="Layer_1" xmlns="http://www.w3.org/2000/svg" viewBox="0 0 1600 1200"><defs><style>.cls-1{fill:none;stroke-linecap:round;}.cls-1,.cls-2,.cls-3,.cls-4,.cls-5,.cls-6,.cls-7,.cls-8,.cls-9,.cls-10,.cls-11,.cls-12,.cls-13,.cls-14,.cls-15{stroke:#000;stroke-width:4px;}.cls-1,.cls-15{stroke-linejoin:round;}.cls-16{fill:#f3ece9;opacity:0;}.cls-2{fill:#f9b298;}.cls-3{fill:#ededed;}.cls-4{fill:#fff;}.cls-5{fill:#cecece;}.cls-6{fill:#30cbff;}.cls-7{fill:#30242a;}.cls-8{fill:#a0fff9;}.cls-9,.cls-15{fill:#1f2323;}.cls-10{fill:#231f20;}.cls-11{fill:#7b7b7b;}.cls-12{fill:#787878;}.cls-13{fill:#32e9ff;}.cls-14{fill:#61f2ff;}</style></defs><rect class="cls-16" width="1600" height="1200"/><g><path class="cls-6" d="M1005.65,301.05h379.3c17.3,0,31.3,14,31.3,31.3V892.75c0,17.3-14,31.3-31.3,31.3h-379.3c-17.3,0-31.3-14-31.3-31.3V332.35c0-17.3,14-31.3,31.3-31.3Z"/><path class="cls-1" d="M1151.15,301.05V924.05"/><path class="cls-1" d="M1062.75,301.05V924.05"/><path class="cls-1" d="M1239.45,301.05V924.05"/><path class="cls-1" d="M1327.85,301.05V924.05"/><path class="cls-1" d="M974.35,746.25h441.9"/><path class="cls-1" d="M974.35,835.25l441.9,.4"/><path class="cls-1" d="M974.35,567.95l441.9,.2"/><path class="cls-1" d="M974.65,657.25h441.6"/><path class="cls-1" d="M974.35,479.05l441.9,.1"/><path class="cls-1" d="M974.35,390.05h441.9"/></g><g><path class="cls-8" d="M1163.48,510.78v-23.67c44.09,0,66.26-20.66,74.15-69.02,3.94-24.37,5.12-53.48,6.31-84.24,1.81-46.7,3.7-94.97,16.32-128.58,10.65-28.32,28.87-48.59,52.78-58.53,24.53-10.17,53.48-8.83,81.48,3.79l-9.7,21.61c-22.01-9.94-44.26-11.12-62.71-3.47-17.67,7.34-31.4,22.96-39.68,44.96-11.28,30.06-13.09,76.44-14.91,121.24-1.18,30.14-2.44,61.29-6.62,87.17-9.63,59.63-41.57,88.74-97.42,88.74Z"/><path d="M1186.04,484.91c-7.42,1.57-14.99,2.28-22.56,2.2v23.67c19.24,0,35.65-3.47,49.22-10.41,0,0-8.99,.86-16.88-3.87-7.57-5.28-9.78-11.59-9.78-11.59Z"/><path class="cls-8" d="M1168.76,542.17h-59.87l21.62-84.32h26.66c7.89,0,14.67,5.44,16.4,13.09l11.52,50.64c2.05,9.08-3.63,18.07-12.7,20.12-1.1,.31-2.37,.47-3.63,.47Z"/><path class="cls-8" d="M1080.65,715h-24.45v33.92h24.45v-33.92Z"/><path d="M1056.2,726.04l24.45,7.89v-18.93h-24.45v11.04Z"/><path class="cls-8" d="M962.41,542.17h59.87l-21.61-84.32h-26.66c-7.89,0-14.68,5.44-16.41,13.09l-11.52,50.64c-2.05,9.08,3.63,18.07,12.7,20.12,1.19,.31,2.45,.47,3.63,.47Z"/><path d="M990.73,457.85h-3.71l-24.61,84.32h10.02l35.89-33.92-17.59-50.4Z"/><path class="cls-1" d="M1069.61,246.45v39.91"/><path class="cls-8" d="M1038.06,686.6h60.74v20.12c0,7.65-6.24,13.8-13.81,13.8h-33.05c-7.65,0-13.8-6.23-13.8-13.8v-20.12h-.08Z"/><path class="cls-13" d="M1150.07,772.58h-13.49l-4.26,10.89-7.57-10.89h-50.41l-7.73,12.94-6.15-12.94h-47.57l-8.36,14.04-9.46-14.04h-8.29v-12.38c0-11.44,9.31-20.75,20.75-20.75h121.87c11.44,0,20.75,9.31,20.75,20.75l-.08,12.38Z"/><path class="cls-4" d="M1068.43,820.62c14.16,0,25.63-11.48,25.63-25.64s-11.47-25.63-25.63-25.63-25.64,11.48-25.64,25.63,11.48,25.64,25.64,25.64Z"/><path class="cls-4" d="M1004.53,820.62c14.16,0,25.64-11.48,25.64-25.64s-11.48-25.63-25.64-25.63-25.63,11.48-25.63,25.63,11.47,25.64,25.63,25.64Z"/><path class="cls-13" d="M1004.53,800.9c3.27,0,5.92-2.65,5.92-5.92s-2.65-5.91-5.92-5.91-5.91,2.65-5.91,5.91,2.64,5.92,5.91,5.92Z"/><path class="cls-13" d="M1068.43,800.9c3.26,0,5.91-2.65,5.91-5.92s-2.65-5.91-5.91-5.91-5.92,2.65-5.92,5.91,2.64,5.92,5.92,5.92Z"/><path class="cls-4" d="M1132.32,820.62c14.16,0,25.64-11.48,25.64-25.64s-11.48-25.63-25.64-25.63-25.64,11.48-25.64,25.63,11.48,25.64,25.64,25.64Z"/><path class="cls-8" d="M1036.72,275.24h65.78c7.97,0,14.44,6.47,14.44,14.44v28.71c0,7.96-6.47,14.43-14.44,14.43h-65.78c-7.97,0-14.44-6.47-14.44-14.43v-28.71c0-7.97,6.47-14.44,14.44-14.44Z"/><path class="cls-8" d="M959.18,328.48h216.13c7.81,0,14.2,6.39,14.2,14.2s-6.39,14.2-14.2,14.2h-216.13c-7.81,0-14.2-6.39-14.2-14.2s6.31-14.2,14.2-14.2Z"/><path d="M1175.31,345.05h-216.13c-5.53,0-10.65-3.23-12.94-8.28-.87,1.89-1.26,3.86-1.26,5.91,0,7.81,6.39,14.2,14.2,14.2h216.13c7.81,0,14.2-6.39,14.2-14.2,0-2.05-.4-3.94-1.26-5.83-2.29,5.04-7.42,8.2-12.94,8.2Z"/><path class="cls-8" d="M1040.42,371.08h56.01v20.11c0,7.66-6.23,13.81-13.81,13.81l-15.53,11.91-12.78-11.91c-7.65,0-13.81-6.23-13.81-13.81v-20.11h-.08Z"/><path d="M1040.5,389.38l55.93,1.58v-6h-55.93v4.42Z"/><path class="cls-13" d="M996.57,296.54h143.01c16.48,0,29.89,13.41,29.89,29.89v28.64c0,16.48-13.41,29.89-29.89,29.89h-143.01c-16.49,0-29.9-13.41-29.9-29.89v-28.64c0-16.48,13.33-29.89,29.9-29.89Z"/><path class="cls-13" d="M975.82,700.01h184.11c17.75,0,32.18-14.35,32.18-32.18,0-2.68-.31-5.36-1.02-7.97l-54.51-212.58c-3.63-14.2-16.49-24.14-31.16-24.14h-23.35l-11.04-8.12-16.72,8.12h-30.06c-14.98,0-28,10.41-31.31,25.01l-48.44,212.58c-3.94,17.27,6.87,34.55,24.22,38.49,2.29,.56,4.66,.79,7.1,.79Z"/><path class="cls-8" d="M1049.49,405h37.87c5.05,0,9.07,4.02,9.07,9.07s-4.02,9.07-9.07,9.07h-37.87c-5.04,0-9.07-4.02-9.07-9.07s4.03-9.07,9.07-9.07Z"/><path class="cls-4" d="M1110.23,468.97c-2.28-8.75-10.17-14.91-19.24-14.91h-50.09c-9.23,0-17.28,6.39-19.33,15.46l-18.22,80.07c-2.37,10.33,4.1,20.66,14.51,23.03,1.42,.32,2.84,.47,4.26,.47h90.01c10.65,0,19.24-8.59,19.24-19.24,0-1.58-.23-3.24-.63-4.82l-20.51-80.06Z"/><path class="cls-8" d="M1069.61,256.7c5.66,0,10.25-4.59,10.25-10.25s-4.59-10.26-10.25-10.26-10.25,4.6-10.25,10.26,4.59,10.25,10.25,10.25Z"/><path class="cls-3" d="M1012.03,345.05c6.96,0,12.62-5.65,12.62-12.62s-5.66-12.62-12.62-12.62-12.62,5.65-12.62,12.62,5.64,12.62,12.62,12.62Z"/><path class="cls-7" d="M1012.03,336.37c2.17,0,3.94-1.76,3.94-3.94s-1.77-3.95-3.94-3.95-3.95,1.77-3.95,3.95,1.77,3.94,3.95,3.94Z"/><path class="cls-3" d="M1138.39,338.28c3.23-6.17,.85-13.8-5.32-17.04-6.18-3.23-13.81-.85-17.04,5.33-3.23,6.17-.85,13.8,5.33,17.04,6.16,3.23,13.79,.85,17.03-5.33Z"/><path class="cls-8" d="M918.71,582.8c-17.59-2.92-34.15-5.6-49.69-12.07-14.2-5.84-22.56-17.99-20.83-30.14,2.21-15.53,19.8-27.05,46.07-30.05,18.46-2.13,36.99-2.92,55.02-2.56l2.81-12.26,2.52-11.11c-19.97-.49-37.4-.41-63.03,2.5-19.25,2.21-35.03,7.97-46.78,17.12-11.28,8.84-18.22,20.27-20.04,33.13-3.23,23.03,10.97,45.2,35.26,55.3,18.07,7.49,36.84,10.57,54.9,13.56,29.98,4.89,58.22,9.63,83.54,33.13l16.09-17.35c-30.53-28.48-63.73-33.92-95.84-39.2Z"/><path class="cls-1" d="M1088.62,454.32l-.08,118.69"/><path class="cls-1" d="M1043.66,454.31l-.08,118.7"/><path class="cls-1" d="M1127.12,535.89l-120.24-.15"/><path class="cls-1" d="M1115.66,490.95l-98.11-.05"/><path class="cls-4" d="M1391.44,132.07l-26.82,56.01s21.38,9.94,37.08,16.56c14.98,6.31,23.27-5.68,21.45-12.07,0,0,14.2-1.18,10.34-17.67,0,0,10.33-5.36,4.41-16.8-5.91-11.44-46.46-26.03-46.46-26.03Z"/><path class="cls-1" d="M1054.31,405h29.02"/><path class="cls-1" d="M1054.62,334.01h27.61"/><path class="cls-1" d="M1042.79,347.49c7.02,13.97,23.98,19.57,37.86,12.63,5.45-2.77,9.86-7.18,12.62-12.63"/><path class="cls-7" d="M1130.7,334.26c1.01-1.93,.27-4.32-1.66-5.33-1.93-1.01-4.31-.26-5.33,1.67-1.01,1.92-.26,4.31,1.67,5.32,1.93,1.01,4.31,.26,5.32-1.66Z"/><path class="cls-1" d="M1056.2,720.52h24.45"/><path class="cls-1" d="M1056.2,739.45h24.45"/><path class="cls-1" d="M1423.15,192.57l-23.82-11.59"/><path class="cls-1" d="M1433.49,174.9l-24.69-12.06"/><path class="cls-4" d="M1019.28,601.18l-49.38,37.62s14.52,18.62,25.48,31.63c10.49,12.47,23.27,5.52,24.61-.94,0,0,13.18,5.44,17.28-11.05,0,0,11.59-.08,11.59-12.93s-29.58-44.33-29.58-44.33Z"/><path class="cls-1" d="M1019.99,669.41l-15.93-21.14"/><path class="cls-1" d="M1037.19,658.44l-16.49-22.01"/><path class="cls-1" d="M954.44,484.67l-5.36,23.58"/><path class="cls-1" d="M1177.12,486.4l5.21,23.12"/><path class="cls-13" d="M1132.32,800.9c3.27,0,5.92-2.65,5.92-5.92s-2.65-5.91-5.92-5.91-5.92,2.65-5.92,5.91,2.65,5.92,5.92,5.92Z"/></g><g><path class="cls-5" d="M482,968h143.4l24-27.2h234.8l-89.2,27.2,63.4,52.3-62.9,46.7H482v-99Z"/><path class="cls-9" d="M794.9,950.6l113.3,4.1v112.3h-112.7l-.6-116.4Z"/><path class="cls-5" d="M625.4,869h143.4l29.5-33.8,217.1-2.5-76.5,36.3,56.4,58.2-56.4,40.8h-313.5v-99Z"/><path class="cls-9" d="M938.9,855.9l112.8-2-.1,114.1h-112.7v-112.1Z"/><path class="cls-5" d="M768.8,770h313.5l79.4,48-79.4,51h-313.5v-99Z"/><path class="cls-9" d="M1195,770h-112.7v99h112.7v-99Z"/><path class="cls-1" d="M908,968h-282.6"/><path class="cls-1" d="M1052,869h-283.6"/><path class="cls-1" d="M1195,770h-335"/></g><path class="cls-4" d="M1293.46,952.22l-33.49-65.79,55.79,38.49,19.52-65.32,10.46,70.87,57.36-37.1-34.23,61.34,50.89,14.53-59.13,11.1,14.9,62.74-43.03-46.82-26.18,53.94-1.39-66.25-66.99,9.44,55.52-41.17Z"/><path class="cls-8" d="M336.5,165.98l-8.09,49.2,31.91-35.53,19.75,34.86-.61-42.45,54.67,12.66-45.97-37.26,30.13-42.85-48.04,25.66-10.48-42.95-10.94,44.52-37.21-28.74,20.81,40.34-52.72,14,56.79,8.54Z"/><g><path class="cls-9" d="M211.55,279.14H474.65c34.01,0,39.5,20.28,39.5,54.45l22.27,233.5v36.91c0,34.01-27.61,61.77-61.77,61.77H211.55c-34.01,0-61.77-27.6-61.77-61.77v-36.91l37.83-225.11c0-34.17-10.22-62.84,23.94-62.84Z"/><path class="cls-6" d="M211.55,242.23H474.65c34.01,0,61.77,27.6,61.77,61.77v263.09c0,34.01-27.61,61.77-61.77,61.77H211.55c-34.01,0-61.77-27.6-61.77-61.77V303.85c0-34.02,27.61-61.62,61.77-61.62Z"/></g><path class="cls-13" d="M439.52,412.58c-2.87,0-5.74,.16-8.45,.64-12.11-48.76-61.35-78.4-110.11-66.29-32.67,8.12-58.17,33.62-66.29,66.29-30.92-4.62-59.92,16.57-64.54,47.49-4.62,30.91,16.57,59.91,47.48,64.54,2.87,.47,5.58,.63,8.45,.63h193.46c31.39,0,56.73-25.49,56.73-56.73-.16-31.07-25.5-56.41-56.73-56.57Z"/><path class="cls-9" d="M409.34,428.44h244.03c20.03,0,36.32,16.28,36.32,36.32v244.03c0,20.03-16.29,36.32-36.32,36.32h-244.03c-20.04,0-36.32-16.29-36.32-36.32v-244.03c0-20.04,16.28-36.32,36.32-36.32Z"/><g><path class="cls-4" d="M534.87,509.99c42.75,0,77.32,34.57,77.32,77.32s-36.92,77.32-79.57,77.32-75.07-34.57-75.07-77.32,34.57-77.32,77.32-77.32Z"/><path class="cls-1" d="M469.11,546.6h131.52"/><path class="cls-1" d="M457.55,587.31h154.64"/><path class="cls-1" d="M469.21,628.22l131.42-.31"/><path class="cls-1" d="M532.62,664.63l2.25-154.64"/><path class="cls-1" d="M534.87,509.99s-99.82,68.73-2.25,154.64"/><path class="cls-1" d="M534.97,509.99s96.24,66.68-2.35,154.64"/></g><g><path class="cls-2" d="M654.68,932.98l5.12-16.2c-1.46-7.1-2.61-9.09,4.49-10.55,.84-.21,.42-7.94,1.36-7.94l23.51-10.97,3.45-2.82c.73-9.09,1.77-17.97,3.55-26.96v-.1l-43.88-66.66-45.56,66.66v.1c.11,20.27,1.57,40.23,3.97,60.29l7.53,6.89,36.46,8.26Z"/><path class="cls-2" d="M805.55,920.86l-5.33-20.8c-1.46-7.1-.73-11.49,6.37-12.95,.84-.21,1.78-.21,2.62-.21l30.5-.11-.1-2.4c-.21-7.21-.42-12.95,.31-24.24l-2.82-7.42-80.45-.62c-.1,0-1.77,3.97-1.77,4.07l-1.26,2.51c.63,20.27,3.03,40.22,6.06,60.28l45.87,1.89Z"/><path class="cls-4" d="M886.1,954.39l.53-2.19c-4.08-7.94-10.24-11.18-18.5-17.45-4.49-3.45-9.71-7.31-15.67-12.43-2.61-2.2-4.91-4.91-6.58-8.05-3.97-7-5.96-16.4-6.37-29.67l-30.41-.21c-7.52,0-13.58,6.06-13.58,13.58,0,.94,.1,1.88,.31,2.72l3.55,17.03h-40.01v.21c1.78,11.7,4.7,27.69,5.85,33.64,.21,1.26,1.57,1.88,1.57,2.2,0,.1-.11,0,0,0l119.31,.62Z"/><path class="cls-4" d="M737.95,955.02c.11,0,.21-.1,.21-.31l-2.3-4.29c-4.6-7.52-8.98-8.77-17.66-15.56-4.59-3.56-9.71-7.63-15.56-12.65-2.72-2.29-4.91-5.22-6.48-8.46-3.24-6.89-4.29-16.4-3.45-29.15v-.21h-29.88c-7.52,0-13.58,6.06-13.58,13.58,0,.94,.1,1.88,.31,2.72l3.55,17.03h-42.21v.21c1.36,11.49,2.61,21.21,4.5,32.6l.62,3.76,121.93,.73Z"/><path class="cls-2" d="M760.41,332.74l.11-5.96c2.92,.84,5.43,.94,8.36,.94,9.71,0,17.86-4.18,22.46-11.49,5.85-9.4,3.34-20.06,.84-30.4-.21-.94-.42-1.88-.63-2.83-.84-4.59-1.46-9.19-1.78-13.79-1.04-11.59-2.4-26.01-8.46-34.27-9.51-12.74-24.45-5.85-44.61-5.85-1.57,0-5.02-4.7-6.59-4.59-23.19,1.25-35.41,11.28-34.68,33.53,.42,13.38-4.5,41.69-1.88,74.71l.31,1.46,27.37,9.51,39.18-10.97Z"/><path class="cls-10" d="M721.44,307.87l.21-.21-.21-.1c-.21-.11-22.36-13.38-18.28-25.6,1.67-5.12,5.95-7.63,12.64-7.63,4.7,.21,8.88,.73,13.79,2.72l.21,.1,.11-.62c1.46-7.21,.31-12.12-1.78-17.56-.31-.73,.31-1.56,1.15-1.46,1.57,.11,3.13,.21,4.7,.32,9.61,0,13.37-3.56,14.84-6.48,1.56-3.03,1.25-6.9-.63-10.66-.42-.84,.42-1.88,1.36-1.57,8.25,2.51,15.46,3.87,21.42,3.87,9.71,0,12.95-3.34,12.95-3.34-.63-1.47-1.77-3.35-2.71-4.6-9.51-12.75-25.92-19.75-46.08-19.75-1.57,0-3.13,0-4.7,.11-23.2,1.25-41.59,20.27-40.85,42.52,.21,12.22,1.56,34.69,3.44,66.14,0-.11,16.83-3.77,28.42-16.2Z"/><path class="cls-1" d="M760.52,326.78c-4.91-1.77-11.29-4.6-15.78-7.31"/><path class="cls-1" d="M727.19,292.83l-8.25-3.35"/><path class="cls-1" d="M770.13,279.56l.63,2.3c.42,1.35,0,2.71-1.05,3.65l-.21,.21"/><path class="cls-1" d="M772.43,296.06c-1.46,1.05-6.37,1.26-9.3-2.29"/><path class="cls-10" d="M755.92,277.78c-1.5,0-2.72-1.21-2.72-2.72s1.22-2.71,2.72-2.71,2.72,1.22,2.72,2.71-1.21,2.72-2.72,2.72Z"/><path class="cls-10" d="M779.22,274.33c-1.5,0-2.72-1.21-2.72-2.71s1.22-2.72,2.72-2.72,2.72,1.22,2.72,2.72-1.22,2.71-2.72,2.71Z"/><path class="cls-2" d="M924.97,393.65c1.67-4.6,2.72-7,4.07-10.45,2.2-5.22,5.12-12.33,12.65-32.39,3.44-6.89,6.68-12.85,9.61-18.07,5.95-10.76,9.51-17.24,7.52-19.33-.52-.52-1.15-.84-1.98-.84-2.93,0-4.5,1.67-11.71,9.2-1.04,1.15-4.07,4.28-5.95,6.16-.21,.21-.52,0-.42-.31,1.15-2.51,3.24-6.9,4.18-8.88,4.08-8.57,7.84-16.3,5.12-21.94-.73-1.47-2.09-2.51-3.66-2.82-.1-4.71-2.3-7.53-5.95-7.53-1.67,.11-3.24,.53-4.7,1.26-1.26-.84-2.72-1.26-4.18-1.26-8.67,0-17.66,14.63-25.6,27.48-3.76,6.06-7.21,11.81-10.14,14.73-.31-14.62-3.13-23.3-7.52-23.3-.52,0-.94,.11-1.36,.32-3.34,1.25-5.12,10.13-7.1,20.48-.42,2.19-.94,4.49-1.36,6.79-.83,4.07-1.57,7.62-2.19,10.76-2.09,9.51-3.45,15.88-2.41,24.45-3.34,8.46-6.58,17.24-9.5,24.86l-.53,1.46,63.11-.83Z"/><path class="cls-1" d="M893.83,328.66v10.03s10.77,10.97,8.89,26.44"/><path class="cls-1" d="M933.01,287.92c-11.28,15.14-20.58,34.06-20.58,34.06"/><path class="cls-1" d="M944.3,293.98c-5.02,6.26-20.58,34.06-20.58,34.06"/><path class="cls-6" d="M607.04,846.57c.42-11.39,1.36-22.88,3.13-34.16,3.14-20.59,8.05-38.14,12.43-53.6,4.29-15.47,8.05-28.74,9.51-42.32,2.3-22.57,.73-45.03-.94-68.85-3.55-50.88-7.31-103.54,29.26-159.54l.1-.11h114.41l.1,.11c.63,1.15,62.58,114.72,69.17,235.91,1.46,29.47,1.04,59.04-1.05,88.4-.52,8.14-1.04,15.88-1.57,23.29-.52,7.74-1.14,14.74-1.56,21.53v.52l-85.57,.31c1.36-.1,0,.11,0,0l-.84-.73c.11-5.64,.11-10.97,.32-16.51,.41-12.22,.83-21,1.46-28.31,.94-11.81,2.09-20.58,3.13-28.42,1.88-15.04,3.35-25.91,1.26-44.93-2.2-19.53-14.42-46.38-28.63-77.31-.31,0-.21,0-.52,.1-2.2,18.81-4.6,38.35-7.11,58.09-4.59,35.21-11.91,68.33-17.34,92.57l-1.36,6.06c-3.13,13.9-6.16,27.17-8.46,38.87l-.52,2.61c0,.11-.11,.21-.21,.21l-88.71-2.51v-.41c-.1-3.66,0-7.53,.11-10.87Z"/><path class="cls-1" d="M938.87,327.93l-4.5,7.11"/><path d="M774.21,858.06l.1-.62c.42-6.8,.94-14,1.46-21.74,.52-7.41,1.05-15.15,1.57-23.29,1.57-24.14,3.55-54.23,1.04-88.4-1.14-15.67-10.34-61.85-28-141.04-1.35-5.96-5.64-8.57-9.92-8.57-.73,.21-5.75,64.25-9.72,86.51,14.32,31.24,26.75,58.3,28.94,78.05,2.09,19.01,.63,29.88-1.25,44.92-1.05,7.84-2.2,16.61-3.14,28.42-.62,7.31-1.04,16.09-1.46,28.31-.21,5.54,0,9.72-.31,15.36l.1,1.36c0,.11,.11,.84,.11,.84l20.48-.11Z"/><path d="M635.04,547.76c61.64-16.72,84.52-29.68,112.31-47.44l.11-.1,.1-12.23h-87.03l-.1,.11c-12.02,18.07-20.69,38.24-25.71,59.34l-.1,.32h.42Z"/><path class="cls-1" d="M740.67,572.31c-2.51,25.91-6.48,59.14-10.35,91.84"/><path d="M760,334.1v-7.53l-1.99-.52c-5.33-1.57-8.88-3.13-14-5.43l-.31,.62,6.47,17.35,9.83-4.49Z"/><path class="cls-14" d="M655.31,515.68c14.21,0,30.51-1.88,48.89-6.06l.63-.94-1.46-20.27h71.78l12.01-44.3c2.19,3.35,18.91,26.96,46.91,37.3,7.32,2.93,15.15,4.39,22.99,4.6,38.55,0,56-46.49,69.16-95.6l-56.62-15.99-15.57,37.41c-1.36-1.88-9.51-12.96-23.82-30.93-26.96-36.04-66.56-39.6-69.8-39.8v-8.36h-66.86l.41,6.37c-22.46,3.34-42.52,15.67-55.79,34.06-.52,.73-56.1,75.12-35.83,120.15,6.16,14.21,25.59,22.36,52.97,22.36Z"/><path class="cls-1" d="M787.16,444.11l3.97-17.13"/><path d="M799.38,458.22c0-.11-2.82-8.47-2.82-24.97,0-9.62,0-15.88-3.34-15.88h-.21l-6.37,26.33v.1c3.55,5.22,7.73,10.13,12.22,14.63l.52-.21Z"/><path class="cls-1" d="M678.71,433.98l-9.72,24.24"/><path class="cls-1" d="M843.58,914.27l-13.79,5.85"/><path class="cls-1" d="M853.09,925.35l-11.6,9.3"/><path class="cls-1" d="M694.28,914.69l-12.85,5.43"/><path class="cls-1" d="M703.79,926.08l-10.66,8.57"/><path class="cls-1" d="M695.74,860.26l-88.49-2.82"/><path class="cls-1" d="M839.19,857.44l-85.57,.41"/><path class="cls-1" d="M843.37,812.51h-87.76"/><path class="cls-1" d="M705.46,812.51h-95.08"/><path class="cls-2" d="M784.65,539.29h.21c.94-.1,1.88-.73,2.2-1.67,1.35-3.34-1.78-11.18-8.05-20.16,1.15,.73,2.3,1.57,3.45,2.4,7.1,5.02,15.98,11.28,22.88,11.28,2.82,.11,5.43-1.25,7.1-3.44,2.51,0,4.39-.84,5.54-2.3,1.26-1.67,1.36-4.18,.42-7,1.25-2.2,1.25-5.02,.1-8.36-2.29-6.69-9.61-15.78-19.95-24.87-9.51-8.25-19.75-15.15-26.96-17.86-18.8-7.11-48.68-8.99-70.42-9.2h-.21l3.24,51.51s12.96-3.03,20.69-5.12c1.05,.52,13.48,6.79,33.23,9.93,11.17,15.15,23.19,24.86,26.53,24.86Z"/><path d="M685.92,458.53l-.1-.31c-3.45-7.94,1.67-12.96,1.56-20.58-.1-8.57-1.36-10.66-5.95-11.39l-12.44,31.97,16.93,.31Z"/><path class="cls-11" d="M890.91,968.5v-.21c0-6.48-1.25-11.39-4.18-15.99l-.1-.1-121.31-.73c-.1,0-.1,.1-.1,.21,.42,1.67,3.34,16.3,3.55,16.71l122.14,.11Z"/><path class="cls-11" d="M740.88,968.5v-.21c0-6.48-1.26-11.39-4.18-15.99l-.11-.1h-120.99v.21c1.78,9.82,2.83,15.15,3.03,15.88l122.25,.21Z"/><path class="cls-1" d="M818.19,517.46c-6.69-7.52-21.63-20.79-32.49-28.32"/><path class="cls-1" d="M812.34,527.38c-5.01-5.01-21.63-19.12-35-28.31"/><path class="cls-1" d="M778.59,516.83l-9.61-7.73"/><path class="cls-1" d="M853.82,412.35l1.04,12.54"/><path class="cls-1" d="M701.38,458.11c-10.86,0-29.88,.11-43.25,.94"/></g><path class="cls-13" d="M275.9,846.9c22.46,0,40.67-18.21,40.67-40.67s-18.21-40.66-40.67-40.66-40.66,18.21-40.66,40.66,18.21,40.67,40.66,40.67Z"/><path class="cls-8" d="M394.54,988.51c36.26,0,65.68-29.42,65.68-65.67s-29.42-65.68-65.68-65.68-65.68,29.42-65.68,65.68,29.43,65.67,65.68,65.67Z"/><g><path class="cls-15" d="M1363.28,738.66l24.54-24.54,43.45,43.45c6.78,6.79,6.78,17.75,0,24.54-6.79,6.78-17.76,6.78-24.54,0l-43.45-43.45Z"/><path d="M1431.27,768.7c-6.79,6.78-17.76,6.78-24.54,0l-36.71-36.71-6.74,6.69,43.45,43.45c6.78,6.78,17.75,6.78,24.54,0,5.15-5.16,6.36-12.69,3.71-19.01-.83,2.05-2.09,3.9-3.71,5.58Z"/><path class="cls-9" d="M1361.95,701.7l-11.14,11.14,19.15,19.16,11.14-11.14-19.15-19.16Z"/><path d="M1371.32,728.49c-7.15-6.41-9.57-16.08-6.69-24.12l-2.7-2.69-11.15,11.15,19.15,19.14,2.51-2.51c-.33-.32-.75-.65-1.12-.97Z"/><path class="cls-9" d="M1356.4,602.55c27.61,26.68,30.3,69.99,6.23,99.86-1.35,1.68-2.79,3.3-4.32,4.88-2.09,2.19-4.37,4.28-6.74,6.18-31.78,25.75-78.44,20.78-104.18-11.01-25.74-31.78-20.77-78.44,11.01-104.18,29.09-23.51,71.1-21.66,98,4.27Z"/><path class="cls-12" d="M1304.96,707.9c28.72,0,52-23.28,52-52s-23.28-52-52-52-51.99,23.28-51.99,52,23.28,52,51.99,52Z"/><path class="cls-15" d="M1387.79,714.08c6.59,6.92,6.31,17.89-.61,24.49-6.69,6.36-17.24,6.41-23.93,.04l24.54-24.53Z"/><path class="cls-4" d="M1329.92,663.94c4.36,0,7.9-3.54,7.9-7.9s-3.54-7.9-7.9-7.9-7.9,3.54-7.9,7.9,3.53,7.9,7.9,7.9Z"/><path class="cls-4" d="M1305.24,663.94c4.37,0,7.9-3.54,7.9-7.9s-3.53-7.9-7.9-7.9-7.9,3.54-7.9,7.9,3.54,7.9,7.9,7.9Z"/><path class="cls-4" d="M1287.57,659.7c2.02-3.86,.53-8.64-3.34-10.66-3.86-2.03-8.63-.53-10.66,3.33-2.03,3.86-.53,8.64,3.33,10.66,3.86,2.03,8.64,.54,10.67-3.33Z"/><path class="cls-1" d="M1388.42,763.06l24.03-24.08"/><path class="cls-1" d="M1396,770.63l24.07-24.07"/><path class="cls-1" d="M1403.57,778.2l24.07-24.07"/><path class="cls-1" d="M1362.72,702.46c-1.34,1.67-2.78,3.3-4.32,4.88-2.13,2.18-4.36,4.28-6.73,6.18"/></g></svg>